<?xml version="1.0" encoding="utf-8"?>
<!-- Generator: Adobe Illustrator 17.1.0, SVG Export Plug-In . SVG Version: 6.00 Build 0)  -->
<!DOCTYPE svg PUBLIC "-//W3C//DTD SVG 1.1//EN" "http://www.w3.org/Graphics/SVG/1.1/DTD/svg11.dtd">
<svg version="1.1" id="brands" xmlns="http://www.w3.org/2000/svg" xmlns:xlink="http://www.w3.org/1999/xlink" x="0px" y="0px"
	 viewBox="-137 820.9 320 800" enable-background="new -137 820.9 320 800" xml:space="preserve">
<g id="Tempest_1_">
	<g id="Symbol">
		<path fill="#981D25" d="M-113,1317.6l69.4,18.6l0.2-0.6l-69.4-18.6C-112.9,1317.1-112.9,1317.4-113,1317.6z"/>
		<path fill="#981D25" d="M-115.7,1316.8c0-0.2,0.1-0.5,0.1-0.7l-21.3-5.7l-0.2,0.6L-115.7,1316.8z"/>
		<path fill="#981D25" d="M-111.9,1313.4l69.3,18.6l0.3-1l-69.4-18.6C-111.7,1312.7-111.8,1313-111.9,1313.4z"/>
		<path fill="#981D25" d="M-115.2,1311.9c0-0.2,0.1-0.3,0.1-0.5l-20.6-5.5l-0.3,1l20.6,5.5C-115.2,1312.3-115.2,1312.1-115.2,1311.9
			z"/>
		<path fill="#981D25" d="M-110.9,1309.1l69.5,18.6l0.3-1.3l-69.7-18.7C-110.8,1308.2-110.9,1308.7-110.9,1309.1z"/>
		<path fill="#981D25" d="M-113.9,1306.9l-20.5-5.5l-0.3,1.3l20.5,5.5C-114.1,1307.8-114,1307.4-113.9,1306.9z"/>
		<path fill="#981D25" d="M-110.1,1304.8l69.9,18.7l0.4-1.6l-69.9-18.7C-109.9,1303.8-110,1304.3-110.1,1304.8z"/>
		<path fill="#981D25" d="M-112.5,1302.5l-20.7-5.5l-0.4,1.6l20.6,5.5C-112.9,1303.5-112.7,1303-112.5,1302.5z"/>
		<path fill="#981D25" d="M-76.9,1307.1l-1.5-0.4c0,0.5-0.2,0.9-1.2,0.5c0.4-0.2,0.5-0.5,0.5-0.7l-29.2-7.8
			c-0.2,0.7-0.5,1.3-0.6,1.9l69.9,18.7l0.5-2l-36.7-9.8C-75.9,1307.9-76.5,1307.6-76.9,1307.1z"/>
		<path fill="#981D25" d="M-110.8,1298.1l-21.2-5.7l-0.5,2l20.9,5.6C-111.3,1299.3-111.1,1298.7-110.8,1298.1z"/>
		<path fill="#981D25" d="M-109,1293.7l-21.8-5.8l-0.6,2.3l21.5,5.8C-109.5,1295.2-109.2,1294.4-109,1293.7z"/>
		<path fill="#981D25" d="M-82.1,1302.7c-0.3,0.3-0.5,0.5-0.7,0.5l1,0.3C-81.9,1303.2-82,1302.9-82.1,1302.7z"/>
		<path fill="#981D25" d="M-84.6,1301.3c-0.6,0,0,0.5-0.3,1.1c-0.7-0.6-0.8-1.5-0.9-2.4l-0.9-0.2c0,0.8,0.4,1.7,0.7,2
			c-0.6,0-1.1-1-1.5-2.2l-19.3-5.2c-0.2,0.5-0.4,0.9-0.6,1.4c-0.1,0.3-0.2,0.5-0.3,0.8l24.2,6.5
			C-83.8,1302.6-84.2,1301.7-84.6,1301.3z"/>
		<path fill="#981D25" d="M-79.7,1302.5c1.8-1.1,1.1,1.7,3,2.3l0.1,0c0.1,0,0.2,0.1,0.4,0.1c0,0,0,0,0,0l38.3,10.3l0.6-2.3
			l-41.7-11.2C-79.2,1302-79.5,1302.1-79.7,1302.5z"/>
		<path fill="#981D25" d="M-81.2,1299.1l44.3,11.9l0.7-2.6l-46.5-12.5C-82,1296.9-81.5,1298-81.2,1299.1z"/>
		<path fill="#981D25" d="M-111.6,1289.4c0.5-0.7,0.3-1,0.1-1.2l-18.1-4.9l-0.7,2.6l18.6,5C-111.8,1290.5-111.8,1290-111.6,1289.4z"
			/>
		<path fill="#981D25" d="M-87.6,1297.3c-0.6-0.2-1.3-0.3-1.9-0.5c0.2-0.9,0.9-0.9,0.9-2.2c-0.8,0.1-0.7,1.7-1.6,1.6
			c-1.3,0,0.2-0.9,0-1.6c0-0.2-0.6,0.5-0.6,0.7c-0.1-0.6-0.1-1.1-0.1-1.6l-14.2-3.8c-0.3,0.8-0.6,1.7-0.9,2.5L-87.6,1297.3
			C-87.6,1297.4-87.6,1297.3-87.6,1297.3z"/>
		<path fill="#981D25" d="M-90.8,1290.9c-0.7,0-0.6,0.5-0.5,1l0.5,0.1C-90.8,1291.7-90.8,1291.3-90.8,1290.9z"/>
		<path fill="#981D25" d="M-104.5,1288.4l9.6,2.6c-0.2-1.1-0.4-2.1-0.3-3.2l-8.3-2.2C-103.9,1286.4-104.1,1287.4-104.5,1288.4z"/>
		<path fill="#981D25" d="M-94.2,1291.1l1.9,0.5c-0.3-0.8-0.8-1.2-0.3-3.1C-93.3,1289-93.7,1290.1-94.2,1291.1z"/>
		<path fill="#981D25" d="M-66.9,1297.6c-1.3,0-0.2-1.4-0.8-1.8c-0.7,0.8-0.8,0.1-1.3,0.5c-0.3-1-0.2-1.5-1.7-1.2
			c0.1-0.2,0.1-0.5,0.2-0.7l-16.8-4.5c0.9,1.4,2,2.7,3,3.9l48.5,13l0.8-2.9l-31.8-8.5C-66.6,1296-66.5,1296.8-66.9,1297.6z"/>
		<path fill="#981D25" d="M-111.3,1286.3c-0.1-0.9-0.6,0.3-1-0.7c0.2,0.6-0.2-2.6-0.2-2.5c0,0,0-0.1,0-0.1l-0.5-0.1
			c0,0.2,0,0.3,0,0.5c-0.1-0.3-0.3-0.5-0.5-0.6l-1.8-0.5c-0.1,0-0.2,0.1-0.3,0.1c-0.3,0.5,0,2.1-0.8,1.8c0.2-0.7,0.3-1.5,0.6-2
			l-12.5-3.4l-0.8,2.9l17.6,4.7C-111.4,1286.3-111.3,1286.2-111.3,1286.3z"/>
		<path fill="#981D25" d="M-107.8,1285.1c0.2-0.3,0.2-0.6,0.1-0.8l-0.3-0.1c0,0,0,0,0,0C-108.2,1284.8-108.3,1285.7-107.8,1285.1z"
			/>
		<path fill="#981D25" d="M-70.1,1292.8c0-0.8-0.4-0.2-0.8,0l0.7,0.2C-70.1,1293-70.1,1292.9-70.1,1292.8z"/>
		<path fill="#981D25" d="M-105.4,1281.7c-0.3-0.6-0.1-1.1,0.4-1.5l-0.9-0.3c0,0.2,0.1,0.3,0.1,0.4
			C-105.8,1280.8-106.8,1282.7-105.4,1281.7z"/>
		<path fill="#981D25" d="M-64.2,1291.2l-0.7-0.2c0.1,1.1-0.2,2.1-0.7,2.9c-1.7-0.3-1.6-1.8-2.1-2.9c-0.6,0.9-0.1,1.8,0.3,2.8
			l32.7,8.7l0.9-3.3l-29.3-7.8C-63.6,1291.8-63.9,1291.6-64.2,1291.2z"/>
		<path fill="#981D25" d="M-113.7,1278.1c-1-0.2-1,1.3-1.6,1.6c-0.1-0.4,0.4-1.1,0.9-2l-12.7-3.4l-0.9,3.3l13.1,3.5
			C-115.1,1279.8-114.2,1279.3-113.7,1278.1z"/>
		<path fill="#981D25" d="M-107,1283.2l0.8,0.2c0.3-1.5-0.6-2.3-1.2-3.4C-107.1,1281.1-106.9,1282.3-107,1283.2z"/>
		<path fill="#981D25" d="M-112.8,1281.6l1,0.3c0.2-0.3,0.5-0.6,0.7-1.2C-112.2,1280.5-112.6,1280.9-112.8,1281.6z"/>
		<path fill="#981D25" d="M-78.9,1287.2l-10.3-2.8c0,0.2,0,0.5-0.2,0.8c1-0.5,1.2,1.4,2.4,1.8c-1.3,0.3-0.6,0.9,0.2,1.5l13.4,3.6
			c0.1-0.7,0.5-2,0.6-2.4c-0.7-0.1-0.5,1.2-1.1,1.3c-0.3-0.6-0.1-1.5,0.2-2.5l-1.1-0.3c-0.2,0.4-0.4,0.3-0.4-0.1l-0.3-0.1
			c0,0.2-0.1,0.4-0.1,0.5c-0.8,0-0.9-0.3-0.9-0.8l-1.4-0.4c-0.2,0.5-0.3,1-0.6,1.3C-78.6,1288.2-78.8,1287.7-78.9,1287.2z"/>
		<path fill="#981D25" d="M-71.6,1292.7c0.5-1.3,0.2-2.2,0.4-3.4l-0.6-0.2c-0.4,0.8-0.7,2-1.2,3.2L-71.6,1292.7z"/>
		<path fill="#981D25" d="M-95.9,1286.2c-0.2-0.9,0.4-2.7,1.1-3.2l-6.4-1.7c-0.6,1-1.2,2-1.8,3L-95.9,1286.2z"/>
		<path fill="#981D25" d="M-94.6,1285.2c-0.6-0.1-0.9,0.3-1.1,1l0.7,0.2C-94.9,1286-94.8,1285.6-94.6,1285.2z"/>
		<path fill="#981D25" d="M-75.1,1287.2c0,0-0.1,0-0.1,0L-75.1,1287.2C-75.1,1287.2-75.1,1287.2-75.1,1287.2z"/>
		<path fill="#981D25" d="M-77,1286.7c-0.1,0-0.2-0.1-0.3-0.1L-77,1286.7C-77,1286.7-77,1286.7-77,1286.7z"/>
		<path fill="#981D25" d="M-93.5,1280.6c0.7,0.2,0.9-0.3,1.6,0c-0.7,1.1,0.6,1.8,1.7,2.5l11.2,3c0-0.4,0.1-0.8,0.4-1.1
			c-0.9-1.5-2-2.2-2.5-3.3l-0.6-0.2c0,0.4-0.1,0.7-0.3,1c-0.2-0.4-0.4-0.8-0.5-1.3l-1.1-0.3c-0.2,0.2-0.4,0.4-0.5,0.6
			c0.1-0.4,0.1-0.6,0.1-0.8l-1.8-0.5c0,0,0,0,0,0c-0.3,0.6-0.4,0.3-0.4-0.1l-0.9-0.2c-0.2,0.2-0.3,0.4-0.4,0.7
			c-0.6-0.3-0.9-0.6-1.1-1.1l-0.8-0.2c-0.1,0-0.1,0.1-0.2,0.1c-0.1,0-0.2-0.1-0.3-0.2l-4.9-1.3
			C-94.3,1278.9-93.8,1279.7-93.5,1280.6z"/>
		<path fill="#981D25" d="M-73.2,1286c-0.6-0.1-0.6,1-0.8,1.5l0.5,0.1C-73.4,1287.1-73.3,1286.5-73.2,1286z"/>
		<path fill="#981D25" d="M-74.7,1287.3C-74.7,1287.3-74.7,1287.3-74.7,1287.3L-74.7,1287.3C-74.7,1287.3-74.7,1287.3-74.7,1287.3z"
			/>
		<path fill="#981D25" d="M-102.8,1278c0.4-1-1.3-2.4-1.5-2C-103.5,1276.4-103.7,1277.5-102.8,1278z"/>
		<path fill="#981D25" d="M-112.8,1274.7c0.1-0.3,0.3-0.8,0.7-1.2l-13.8-3.7l-1,3.6l13,3.5C-113.4,1276.1-113,1275.3-112.8,1274.7z"
			/>
		<path fill="#981D25" d="M-100.6,1280.4l4.7,1.3c0.3-0.4,1.5-0.3,1.6-0.8c0.2-1.1-1.1-2-1.9-3.1l-1.4-0.4
			C-98.8,1277.9-99.7,1279-100.6,1280.4z"/>
		<path fill="#981D25" d="M-105.6,1277.7c0.7,0.3,0.5,1,0.7,1.6l0.7,0.2c0.4-0.4,0.7-0.7,0.9-1.2c-0.9-0.3-1.1-2.7-1.9-2.1
			C-104.5,1276.9-104.8,1277.4-105.6,1277.7z"/>
		<path fill="#981D25" d="M-105.2,1279.2c-0.8-0.8-0.8-2.1-1.6-3c-0.1,0.7,0.2,1.7,0.5,2.7L-105.2,1279.2z"/>
		<path fill="#981D25" d="M-45.4,1292.5c-0.1-0.6-0.5-1-1-1.5l-9.4-2.5c0,0.1,0,0.1,0,0.2c-0.3,0.1-0.5-0.1-0.7-0.4l-11.5-3.1
			c1,2,4.2,3.8,5.7,5.4l28.9,7.7l1-3.6l-12.6-3.4C-45.3,1291.7-45.5,1292.1-45.4,1292.5z"/>
		<path fill="#981D25" d="M-64.9,1290c-0.1-0.2-0.3-0.3-0.4-0.4c0.1,0.1,0.1,0.2,0.1,0.3L-64.9,1290z"/>
		<path fill="#981D25" d="M-70.9,1288.2c-0.1,0-0.2,0.1-0.2,0.1l0.2,0C-71,1288.3-71,1288.2-70.9,1288.2z"/>
		<path fill="#981D25" d="M-88.3,1277.5c-0.6,0-0.6,0.8-0.8,1.5l0.4,0.1C-88.7,1278.6-88.6,1278.1-88.3,1277.5z"/>
		<path fill="#981D25" d="M-90.7,1274.4l-1.2-0.3c-0.1,0.8,0.7,1,0.8,1.6C-91.1,1274.6-90.8,1275.1-90.7,1274.4z"/>
		<path fill="#981D25" d="M-95.4,1277.3l5.2,1.4c-0.1-1.4,1-3.6-0.8-3c-0.7,1.4-1.5-0.4-2.2-0.9c-1.1,0.4-2,0.9-2.8,1.7
			C-95.9,1276.7-95.7,1277-95.4,1277.3z"/>
		<path fill="#981D25" d="M-107.6,1269.8l-17.1-4.6l-1,3.9l14.1,3.8C-110.7,1271.8-109.2,1270.6-107.6,1269.8z"/>
		<path fill="#981D25" d="M-81.7,1281l0.5,0.1c-0.1-0.5-0.1-1.1,0.1-1.8C-81.9,1279.6-81.8,1280.2-81.7,1281z"/>
		<path fill="#981D25" d="M-82.5,1279.8c-0.2,0.3-0.5,0.5-0.7,0.8l0.6,0.2C-82.6,1280.4-82.6,1280.1-82.5,1279.8z"/>
		<path fill="#981D25" d="M-65.3,1285.4c-0.7-1.1-1.1-2.3-1.3-3.7c-0.6-0.3-0.3,1.4,0,1.6c-0.4,1.3-1-0.3-0.9-1
			c-0.8,0.8-1,1.6-0.9,2.3L-65.3,1285.4z"/>
		<path fill="#981D25" d="M-64.4,1284.2c-0.5,0-0.5,0.7-0.7,1.2l1.1,0.3C-64.3,1285.3-64.2,1284.7-64.4,1284.2z"/>
		<path fill="#981D25" d="M-44.9,1289.8c0.2,0.4,0.2,0.8,0.1,1.1l12.4,3.3l1.1-3.9l-22.2-5.9C-50.6,1286.1-47.8,1288-44.9,1289.8z"
			/>
		<path fill="#981D25" d="M-86,1279.3c-0.2,0.1-0.4,0.3-0.6,0.4l0.4,0.1C-86.1,1279.6-86,1279.4-86,1279.3z"/>
		<path fill="#981D25" d="M-49.2,1289.7c-0.5-0.4-1-1.1-1.3-1.6c-1.6,0.6-3-1.3-3.9-2.2c-0.8,1.1,1.2,0.6,0.4,1.7
			c-0.2-0.3-0.9-0.8-1.1-0.3c0.1-0.5-0.6-1.5-1.4-2.4c-0.8,0.6-0.1,1.8,0.3,2.9L-49.2,1289.7z"/>
		<path fill="#981D25" d="M-85,1278.7c-0.6-0.2-0.6,0.5-0.7,1.2l0.4,0.1C-85.3,1279.5-85.1,1278.9-85,1278.7z"/>
		<path fill="#981D25" d="M-48,1289.4c-0.1,0.3-0.1,0.4-0.3,0.5l0.9,0.2C-47.6,1289.9-47.8,1289.7-48,1289.4z"/>
		<path fill="#981D25" d="M-57.1,1287.6c-0.4-0.8-0.8-1.7-1.1-2.2c-0.6,0,0,0.5-0.3,1.1c-1-1.1-1.2-2.7-2.3-3.8
			c-0.5,0.3,0.9,2.3,0.3,3.7c-0.6-1.2-2.3-1.8-2.4-3.4c-0.8,0.3,0.3,2-0.6,2.9L-57.1,1287.6z"/>
		<path fill="#981D25" d="M-84.3,1278.9c-0.5,0-0.5,0.6-0.7,1.2l0.6,0.2C-84.4,1280-84.4,1279.7-84.3,1278.9z"/>
		<path fill="#981D25" d="M-71.1,1275.8c6,2.1,11.2,4.8,16.1,7.7l23.7,6.4l1-3.9l-47-12.6C-75.6,1274.2-73.6,1274.9-71.1,1275.8z"/>
		<path fill="#981D25" d="M-105.8,1269.1c2.3-0.6,2.3,0,3.8,0.7c0-0.3,0-0.5,0-0.7c0.1-0.5,0-1.4-0.1-2.4l-21.4-5.7l-1.1,3.9
			l17.6,4.7C-106.6,1269.3-106.2,1269.2-105.8,1269.1z"/>
		<path fill="#981D25" d="M-80.8,1271.4c0.2-0.9-0.4-2.9-1-2.3C-81.1,1269.6-81.8,1271-80.8,1271.4z"/>
		<path fill="#981D25" d="M-63.3,1273.3c-0.1-0.3-0.1-0.6-0.1-0.9l-1.3-0.4c-0.1,0.2-0.2,0.3-0.4,0.5c-0.2-0.2-0.3-0.4-0.3-0.6
			l-7.9-2.1c0.1,0.2,0.1,0.5-0.1,0.7c-0.4-0.2-0.5-0.5-0.6-0.9l-0.3-0.1c0,0.2,0,0.5-0.2,0.7c-0.1-0.3-0.2-0.6-0.4-0.9l-0.3-0.1
			c0.1,0.4,0,0.7-0.2,1.1c-0.6-0.4-0.9-0.9-1.2-1.5l-1.4-0.4c0,0.7,0,1.4,0.2,2.1c-0.4,0.6-0.7-0.1-1.1-0.3c-0.1,0.5-0.2,1-0.4,1.5
			c0.3,0.3,0.6,0.5,0.9,0.8l48.4,13l1-3.9l-34-9.1C-63.1,1272.8-63.2,1273.1-63.3,1273.3z"/>
		<path fill="#981D25" d="M-99.1,1262.9c-0.5-0.1-1,0-1.8-0.1c0.4,0.7,0.7,1.5,1,2.3C-99.6,1264.4-99.4,1263.6-99.1,1262.9z"/>
		<path fill="#981D25" d="M-103,1261.7l-19.3-5.2l-1,3.9l21.2,5.7C-102.4,1264.7-102.8,1263.1-103,1261.7z"/>
		<path fill="#981D25" d="M-77.9,1268l1.1,0.3c-0.3-0.7-0.6-1.5-1-2.2C-77.8,1266.5-77.9,1267.2-77.9,1268z"/>
		<path fill="#981D25" d="M-52.2,1272c-0.9,0.4-4.3-0.9-3.5-2.3l-2.6-0.7c0.2,0.3,0.4,0.8,0.8,1.5c0.6,1.3,1.8,1.7,1.5,2.2
			c0,0-0.5,0.6-1.1,0.2c-1.2-1.8-0.8-2.7-2.5-3.5c-0.5,0-0.5,0.9-0.7,1.4c-0.4-0.6-0.5-1.5-0.4-2.4l-0.7-0.2
			c-0.1,0.6-0.1,1.3-0.3,1.9c-0.8-1.1-1,0.5-1.3,1.9l34,9.1l1-3.9l-26.7-7.2C-53.8,1270.7-53,1271.4-52.2,1272z"/>
		<path fill="#981D25" d="M-62.9,1267.8l-0.6-0.2c-0.2,1.4-0.2,2.7-0.9,3.9l1.1,0.3C-63.4,1270.6-63.2,1269.3-62.9,1267.8z"/>
		<path fill="#981D25" d="M-71.6,1265.5c0,0.1-0.1,0.1-0.1,0.3c0.1,1.6,0.1,2.4,0.6,3.6c0.1,0.9-1.8-1-0.9,0.2c0,0,0,0,0,0l6.5,1.7
			c0-1,0.4-2.3-0.2-3c-0.7,1.8-2.2-0.4-3.3-1.2c-0.2,0.9,0.4,1.3-0.2,2.4c-1.2-1-1.1-2.6-1.8-3.8L-71.6,1265.5z"/>
		<path fill="#981D25" d="M-97.5,1261c0,0,0,0.1-0.1,0.1c0,0,0,0,0,0C-97.5,1261.1-97.5,1261-97.5,1261z"/>
		<path fill="#981D25" d="M-75.3,1268.6l0.3,0.1c-0.2-0.6-0.4-1.2-0.7-1.7C-76.3,1267.3-75.7,1267.9-75.3,1268.6z"/>
		<path fill="#981D25" d="M-98.7,1262.4l0.1,0c0.3-0.2,0.5-0.5,0.8-0.9c-0.7-0.4-1.4-0.7-2.1-0.4
			C-99.7,1261.5-99.2,1262-98.7,1262.4z"/>
		<path fill="#981D25" d="M-74.5,1268.9l0.4,0.1c0-0.1-0.1-0.3-0.1-0.4C-74.5,1268.5-74.6,1268.7-74.5,1268.9z"/>
		<path fill="#981D25" d="M-73.1,1267.7c-0.8,0.3-0.6,0.9-0.4,1.5l0.8,0.2C-73,1268.9-73.3,1268.2-73.1,1267.7z"/>
		<path fill="#981D25" d="M-103.2,1261.2c0-1.2-0.1-2.7-0.2-4.2l-17.8-4.8l-1,3.9L-103.2,1261.2
			C-103.1,1261.2-103.1,1261.2-103.2,1261.2z"/>
		<path fill="#981D25" d="M-96.8,1258.7C-96.8,1258.7-96.8,1258.7-96.8,1258.7l-2.2-0.6c-0.2,0-0.3,0.1-0.5,0.1
			c1.2,0.5,1.7,1.4,0.3,1.4c0.3,0.3,1.2,0.6,1.9,0.8C-97.1,1260-97,1259.4-96.8,1258.7z"/>
		<path fill="#981D25" d="M-99.9,1258.8C-99.2,1259.3-102.3,1257-99.9,1258.8L-99.9,1258.8z"/>
		<path fill="#981D25" d="M-103.6,1252.2l-16.5-4.4l-1,3.9l17.7,4.7C-103.5,1255-103.6,1253.6-103.6,1252.2z"/>
		<path fill="#981D25" d="M-60.5,1265.2c-0.6,0.8-0.8,1.7-0.8,2.6l0.7,0.2C-60.5,1267-60.3,1266-60.5,1265.2z"/>
		<path fill="#981D25" d="M-57.1,1268.9c-0.6-0.6-1-1.4-1.3-2.4c-0.5,0-0.5,0.9-0.7,1.4c0.2,0.2,0.3,0.4,0.5,0.6L-57.1,1268.9z"/>
		<path fill="#981D25" d="M-55.3,1269.4l1.4,0.4c-0.8-0.6-1.8-1.4-2.5-1.6C-56.1,1268.6-55.7,1269-55.3,1269.4z"/>
		<path fill="#981D25" d="M-100.6,1255.3c1.1,0.5,1.6,1.7,1.7,2.1c0.8,0.1,1.6,0.4,2.2,0.8c0.2-0.8,0.4-1.7,0.5-2.7
			c0.1-0.5,0.2-0.9,0.3-1.3l-1.9-0.5c-0.1,0-0.3,0-0.5-0.1c0,0,0,0,0-0.1l-1.8-0.5c0,0,0,0,0,0c1.5,0.3,3,2.4,3.6,2.9
			C-97.8,1255.4-99.4,1255.1-100.6,1255.3z"/>
		<path fill="#981D25" d="M-55.6,1265.1l-0.5-0.1c-0.2,0-0.4-0.1-0.6-0.1c0.5,1,2.7,0.9,3.1,2c0.9,0.9-0.9-0.6-1.9-0.5
			c0.3,0.9,1.8,1,2.4,1.8c-1.1,0.8-2.2-1.2-3.7-1.3c1.1,1.2,2.8,2,4,3.2l25.1,6.7l1-3.9l-25.5-6.8
			C-53.1,1266.7-54.3,1265.5-55.6,1265.1z"/>
		<path fill="#981D25" d="M-62.2,1263.9c-0.8,1-1.1,2.1-1.3,3.2l0.7,0.2C-62.6,1266.3-62.4,1265.1-62.2,1263.9z"/>
		<path fill="#981D25" d="M-99.1,1252.1c0.4,0.6,1.5,0.9,2.2,1.4l1.2,0.3c0.3-1.4,0.8-2.6,1.3-3.8l-3.3-0.9
			c-0.2,0.1-0.3,0.2-0.3,0.4c0.4,0.2,0.1,0.4-0.2,0.6c0.4,0.1,2.2,0.6,1.1,0.7c-1.4,0-0.5,0.1-2,0.1
			C-97.9,1251.1-98.4,1252.1-99.1,1252.1z"/>
		<path fill="#981D25" d="M-98.8,1253l0.6,0.2c-0.1-0.1-0.2-0.2-0.4-0.2C-98.7,1253-98.8,1253-98.8,1253z"/>
		<path fill="#981D25" d="M-56.3,1261.4c0.7,1.2,1.3,2.4,3.3,2.8c1.1,0.8-1.4,0-2-0.1c0.6,0.4,1,0.7,1.4,1l27.1,7.3l1-3.9l-30.7-8.2
			C-55.6,1260.9-55.1,1261.6-56.3,1261.4z"/>
		<path fill="#981D25" d="M-102.3,1247.9l-16.5-4.4l-1,3.9l16.4,4.4C-103.4,1250.2-103.1,1248.9-102.3,1247.9z"/>
		<path fill="#981D25" d="M-98.5,1246.1c0.4,0.9-1.1,1.7-1.4,1.6c0.3,0.6,3.3,0.4,3.6,1.4c0,0,0,0,0,0l2,0.5c0.6-1.2,1.2-2.4,2-3.6
			l-25.4-6.8l-1.1,3.9l16.7,4.5C-101.2,1246.7-100.1,1246.1-98.5,1246.1z"/>
		<path fill="#981D25" d="M-62.2,1254.3c1.6,1.1,4,1.9,5.2,3.3c-0.6,1-0.8-0.7-1.9-0.5c0.9,1,2.1,1.8,3.4,2.4
			c-0.1,0.2-0.3,0.2-0.5,0.2l30.6,8.2l1-3.9l-35.5-9.5C-60.2,1255.2-61.5,1254.3-62.2,1254.3z"/>
		<path fill="#981D25" d="M-89.8,1242c0,0,0.1-0.1,0.1-0.1l-26.8-7.2l-1,3.9l25.5,6.8C-91.4,1244.4-90.7,1243.3-89.8,1242z"/>
		<path fill="#981D25" d="M-62.2,1249.5c-0.3,0.8-1.7-0.3-2.1,0.3c-0.2,0.9,1.1-0.3,1.9,0.5c-0.1,0.4-0.5,0.2-0.8,0.2
			c1.8,1.1,1,2.2,2.9,2.7c1.1,0.8-1.4,0-2-0.1c0,0.2,0,0.3,0.2,0.4l1.5,0.4c0.4,0.1,0.7,0.1,0.9,0.2l35.5,9.5l1-3.9l-43.4-11.6
			C-65.6,1249.4-64.1,1249.1-62.2,1249.5z"/>
		<path fill="#981D25" d="M-85.6,1238.3l-29.7-8l-1,3.9l27,7.2C-87.9,1239.6-86.7,1238.8-85.6,1238.3z"/>
		<path fill="#981D25" d="M-78.7,1241.8c0.2-0.6,0.6-1,1-1.3l-1.7-0.4C-79.5,1240.8-79.1,1241.6-78.7,1241.8z"/>
		<path fill="#981D25" d="M-76.2,1242.7c1.3-0.4,3.2-1,5.8-0.3l-5.8-1.5c-0.5,0.3-1.1,0.5-1.6,0.4C-78,1242.5-77,1242.9-76.2,1242.7
			z"/>
		<path fill="#981D25" d="M-68.5,1244c-0.8,0-0.8-0.8-1.6,0c0.8,1.4,1.6,0.9,2.9,1.1c-0.1,0.9-1.2,0.2-1.4,0.9
			c0.1,0.6,1.9-0.4,2.5-0.6c-0.8,1.1,0.1,1.6,1.9,2.1c-0.3,0.3-1.2,0.3-0.6,0.7c0,0,0,0,0,0l41.7,11.2l1-3.9l-48.4-13
			C-69.3,1243.2-68,1242.8-68.5,1244z"/>
		<path fill="#981D25" d="M-81.9,1237c0.4,0.1,0.2,0.5,0.2,0.9c0.8,0.1,1-0.8,1.5-1.2c-0.3,2.4,0.7-0.3,2.4-0.2
			c-0.2,1.7-1.8,1.4-2.3,2.6c0.6,0.2,2.2-1.2,3.1-1.2c0.7,1.4-1.3,1.2-1.9,1.1c-0.2,0.2-0.3,0.4-0.4,0.6l2.2,0.6
			c0.9-0.3,1.9-0.5,2.7-1c0.3-0.3,0.4-0.5,0.3-0.2c-0.1,0.1-0.2,0.2-0.3,0.2c-0.3,0.3-0.8,0.9-1.3,1.3l53.8,14.4l1-3.9l-93.4-25
			l-1,3.9l30.4,8.1C-83.8,1237.8-82.9,1237.7-81.9,1237z"/>
		<polygon fill="#981D25" points="-19.7,1246.7 -43,1240.4 -113,1221.7 -114.1,1225.6 -20.7,1250.6 		"/>
	</g>
	<g id="Logotype">
		<path fill="#981D25" d="M110.4,1320.6c0,0.3,0.1,0.6,0.3,0.8c0.2,0.2,0.4,0.3,0.8,0.3c0.3,0,0.6-0.1,0.7-0.2
			c0.2-0.2,0.3-0.4,0.3-0.7c0-0.2-0.1-0.4-0.2-0.6c-0.1-0.1-0.3-0.2-0.5-0.3l-1.4-0.5c-0.5-0.2-1-0.5-1.2-0.8
			c-0.3-0.3-0.4-0.8-0.4-1.3c0-0.3,0-0.6,0.2-0.9c0.1-0.3,0.3-0.5,0.5-0.7c0.2-0.2,0.5-0.4,0.9-0.5c0.4-0.1,0.8-0.2,1.3-0.2
			c0.9,0,1.6,0.2,2,0.6c0.4,0.4,0.6,0.9,0.6,1.6v0.3h-1.8c0-0.4-0.1-0.7-0.2-0.9c-0.1-0.2-0.4-0.3-0.7-0.3c-0.2,0-0.5,0.1-0.7,0.2
			c-0.2,0.1-0.3,0.3-0.3,0.6c0,0.2,0.1,0.4,0.2,0.5c0.1,0.2,0.4,0.3,0.7,0.4l1.2,0.4c0.6,0.2,1.1,0.5,1.3,0.8
			c0.3,0.3,0.4,0.8,0.4,1.4c0,0.4-0.1,0.8-0.2,1.1c-0.1,0.3-0.3,0.6-0.6,0.8c-0.3,0.2-0.6,0.3-0.9,0.4c-0.4,0.1-0.7,0.1-1.2,0.1
			c-0.6,0-1-0.1-1.4-0.2c-0.4-0.1-0.7-0.3-0.9-0.5c-0.2-0.2-0.4-0.5-0.5-0.8c-0.1-0.3-0.1-0.6-0.1-1v-0.3h1.8L110.4,1320.6
			L110.4,1320.6L110.4,1320.6z"/>
		<path fill="#981D25" d="M116.8,1320c0,0.2,0,0.5,0.1,0.7c0,0.2,0.1,0.4,0.2,0.6c0.1,0.2,0.2,0.3,0.3,0.4c0.1,0.1,0.3,0.1,0.5,0.1
			c0.3,0,0.6-0.1,0.7-0.4c0.2-0.2,0.3-0.6,0.3-1.1h1.8c0,0.9-0.3,1.6-0.7,2.1c-0.4,0.5-1.1,0.7-2.1,0.7c-0.7,0-1.3-0.1-1.7-0.4
			c-0.4-0.2-0.7-0.6-0.9-0.9c-0.2-0.4-0.3-0.8-0.4-1.3c0-0.5-0.1-1-0.1-1.5c0-0.5,0-1,0.1-1.5c0.1-0.5,0.2-0.9,0.4-1.3
			c0.2-0.4,0.5-0.7,0.9-0.9c0.4-0.2,0.9-0.3,1.6-0.3c0.6,0,1,0.1,1.4,0.3c0.4,0.2,0.7,0.4,0.9,0.8c0.2,0.3,0.4,0.8,0.4,1.2
			c0.1,0.5,0.1,1,0.1,1.6v0.4h-3.9L116.8,1320L116.8,1320z M118.8,1317.4c0-0.2-0.1-0.4-0.2-0.6c-0.1-0.2-0.2-0.3-0.3-0.4
			c-0.1-0.1-0.3-0.1-0.5-0.1c-0.2,0-0.4,0-0.5,0.1c-0.1,0.1-0.2,0.2-0.3,0.4c-0.1,0.1-0.1,0.3-0.2,0.5c0,0.2-0.1,0.4-0.1,0.5v0.3h2
			C118.9,1317.9,118.8,1317.6,118.8,1317.4z"/>
		<path fill="#981D25" d="M125.3,1317.4c0-0.2-0.1-0.3-0.1-0.5c-0.1-0.1-0.1-0.3-0.3-0.4c-0.1-0.1-0.3-0.1-0.5-0.1
			c-0.2,0-0.4,0.1-0.6,0.2c-0.2,0.1-0.3,0.3-0.3,0.5c-0.1,0.2-0.1,0.5-0.2,0.8c0,0.3,0,0.7,0,1.2c0,0.5,0,0.9,0,1.2
			c0,0.3,0.1,0.6,0.2,0.8c0.1,0.2,0.2,0.4,0.3,0.5c0.1,0.1,0.3,0.1,0.5,0.1c0.3,0,0.6-0.1,0.7-0.4c0.2-0.3,0.2-0.7,0.2-1.4h1.9
			c0,1-0.2,1.8-0.7,2.3c-0.5,0.5-1.2,0.8-2.3,0.8c-0.5,0-0.9-0.1-1.3-0.2c-0.4-0.1-0.7-0.3-0.9-0.6c-0.2-0.3-0.4-0.7-0.6-1.2
			c-0.1-0.5-0.2-1.2-0.2-1.9c0-0.8,0.1-1.5,0.2-2c0.1-0.5,0.4-0.9,0.6-1.2c0.3-0.3,0.6-0.5,1-0.7c0.4-0.1,0.8-0.2,1.3-0.2
			c0.9,0,1.6,0.3,2.1,0.8c0.5,0.5,0.7,1.3,0.7,2.2h-1.9C125.4,1317.8,125.4,1317.6,125.3,1317.4z"/>
		<path fill="#981D25" d="M132.1,1322c-0.2,0.4-0.5,0.7-0.8,0.8c-0.3,0.2-0.7,0.2-1.2,0.2c-0.6,0-1.1-0.2-1.5-0.5
			c-0.3-0.3-0.5-0.9-0.5-1.7v-5.7h2v5.3c0,0.4,0.1,0.7,0.2,0.8c0.1,0.2,0.4,0.2,0.6,0.2c0.7,0,1-0.4,1-1.3v-5.1h2v7.7h-1.9
			L132.1,1322L132.1,1322L132.1,1322z"/>
		<path fill="#981D25" d="M137.1,1315.2v1h0c0.2-0.4,0.4-0.7,0.7-0.9c0.3-0.2,0.6-0.3,1.1-0.3c0.1,0,0.1,0,0.2,0c0.1,0,0.1,0,0.2,0
			v1.9c-0.1,0-0.2,0-0.3,0c-0.1,0-0.2,0-0.3,0c-0.2,0-0.3,0-0.5,0.1c-0.2,0.1-0.3,0.1-0.5,0.2c-0.1,0.1-0.3,0.3-0.3,0.4
			c-0.1,0.2-0.1,0.4-0.1,0.7v4.6h-2v-7.7L137.1,1315.2L137.1,1315.2z"/>
		<path fill="#981D25" d="M141.9,1312.5v1.7h-2v-1.7H141.9z M141.9,1315.2v7.7h-2v-7.7H141.9z"/>
		<path fill="#981D25" d="M145.6,1313v2.2h1.1v1.3h-1.1v4.2c0,0.3,0,0.5,0.1,0.7c0.1,0.1,0.3,0.2,0.6,0.2c0.1,0,0.2,0,0.2,0
			c0.1,0,0.1,0,0.2,0v1.4c-0.2,0-0.4,0-0.6,0c-0.2,0-0.4,0-0.7,0c-0.4,0-0.7,0-0.9-0.1c-0.2-0.1-0.4-0.2-0.6-0.3
			c-0.1-0.2-0.2-0.4-0.3-0.6c-0.1-0.3-0.1-0.6-0.1-1v-4.4h-1v-1.3h1v-2.2L145.6,1313L145.6,1313z"/>
		<path fill="#981D25" d="M147.8,1323.9c0.4,0,0.6-0.1,0.8-0.3c0.2-0.2,0.3-0.4,0.3-0.8l-2.2-7.7h2.1l1.2,5.3h0l1-5.3h2l-1.9,7.2
			c-0.2,0.6-0.3,1.2-0.5,1.6c-0.2,0.4-0.3,0.7-0.6,0.9c-0.2,0.2-0.5,0.4-0.8,0.4c-0.3,0.1-0.7,0.1-1.1,0.1h-0.8v-1.5
			C147.5,1323.9,147.6,1323.9,147.8,1323.9z"/>
		<path fill="#981D25" d="M91,1325.5v1.7h-2v-1.7H91z M91,1328.1v7.7h-2v-7.7H91z"/>
		<path fill="#981D25" d="M94.2,1328.1v0.9h0c0.2-0.4,0.5-0.7,0.8-0.8c0.3-0.2,0.7-0.3,1.1-0.3c0.6,0,1.1,0.2,1.5,0.5
			c0.3,0.3,0.5,0.9,0.5,1.7v5.7h-2v-5.3c0-0.4-0.1-0.7-0.2-0.8c-0.1-0.2-0.4-0.2-0.6-0.2c-0.7,0-1,0.4-1,1.3v5.1h-2v-7.7
			L94.2,1328.1L94.2,1328.1z"/>
		<path fill="#981D25" d="M101.8,1325.9v2.2h1.2v1.4h-1.2v4.2c0,0.3,0,0.5,0.1,0.7c0.1,0.1,0.3,0.2,0.6,0.2c0.1,0,0.2,0,0.2,0
			c0.1,0,0.1,0,0.2,0v1.4c-0.2,0-0.4,0-0.6,0c-0.2,0-0.4,0-0.7,0c-0.4,0-0.7,0-0.9-0.1c-0.2-0.1-0.4-0.2-0.6-0.3
			c-0.1-0.2-0.2-0.4-0.3-0.6c0-0.3-0.1-0.6-0.1-1v-4.4h-1v-1.4h1v-2.2L101.8,1325.9L101.8,1325.9L101.8,1325.9z"/>
		<path fill="#981D25" d="M105.2,1332.9c0,0.2,0,0.5,0,0.7c0,0.2,0.1,0.4,0.2,0.6c0.1,0.2,0.2,0.3,0.3,0.4c0.1,0.1,0.3,0.2,0.5,0.2
			c0.3,0,0.6-0.1,0.7-0.4c0.2-0.2,0.3-0.6,0.3-1.1h1.8c0,0.9-0.3,1.6-0.7,2.1c-0.4,0.5-1.1,0.7-2.1,0.7c-0.7,0-1.3-0.1-1.7-0.4
			c-0.4-0.2-0.7-0.6-0.9-0.9c-0.2-0.4-0.3-0.8-0.4-1.3c0-0.5-0.1-1-0.1-1.5c0-0.5,0-1,0.1-1.5c0.1-0.5,0.2-0.9,0.4-1.3
			c0.2-0.4,0.5-0.7,0.9-0.9c0.4-0.2,0.9-0.3,1.6-0.3c0.6,0,1,0.1,1.4,0.3c0.4,0.2,0.7,0.4,0.9,0.8c0.2,0.3,0.4,0.8,0.4,1.2
			c0.1,0.5,0.1,1,0.1,1.6v0.4h-3.9L105.2,1332.9L105.2,1332.9L105.2,1332.9z M107.1,1330.3c0-0.2-0.1-0.4-0.2-0.6
			c-0.1-0.2-0.2-0.3-0.3-0.4c-0.1-0.1-0.3-0.1-0.5-0.1c-0.2,0-0.4,0-0.5,0.1c-0.1,0.1-0.2,0.2-0.3,0.4c-0.1,0.1-0.1,0.3-0.2,0.5
			c0,0.2,0,0.4,0,0.5v0.3h2C107.2,1330.8,107.1,1330.5,107.1,1330.3z"/>
		<path fill="#981D25" d="M112,1325.6v10.2h-2v-10.2H112z"/>
		<path fill="#981D25" d="M115.3,1325.6v10.2h-2v-10.2H115.3z"/>
		<path fill="#981D25" d="M118.7,1325.5v1.7h-2v-1.7H118.7z M118.7,1328.1v7.7h-2v-7.7H118.7z"/>
		<path fill="#981D25" d="M125.7,1335.4c0,1-0.2,1.7-0.7,2.2c-0.5,0.5-1.3,0.7-2.5,0.7c-0.8,0-1.5-0.2-1.9-0.5
			c-0.5-0.4-0.7-0.9-0.7-1.5h1.9c0,0.2,0.1,0.4,0.3,0.6c0.1,0.1,0.2,0.1,0.3,0.2s0.2,0.1,0.4,0.1c0.4,0,0.7-0.1,0.8-0.4
			c0.2-0.3,0.2-0.6,0.2-1v-1h0c-0.2,0.3-0.4,0.5-0.7,0.7c-0.3,0.2-0.6,0.3-0.9,0.3c-0.8,0-1.4-0.3-1.8-0.9c-0.4-0.6-0.6-1.6-0.6-3
			c0-0.5,0-0.9,0.1-1.4c0.1-0.5,0.2-0.9,0.3-1.3c0.2-0.4,0.4-0.7,0.7-0.9c0.3-0.2,0.8-0.4,1.3-0.4c0.3,0,0.6,0.1,0.9,0.2
			c0.3,0.2,0.5,0.4,0.7,0.8h0v-0.9h1.9L125.7,1335.4L125.7,1335.4z M121.8,1333c0,0.2,0.1,0.5,0.1,0.6c0.1,0.2,0.2,0.3,0.3,0.4
			c0.1,0.1,0.3,0.2,0.5,0.2c0.2,0,0.4-0.1,0.5-0.2c0.1-0.1,0.2-0.3,0.3-0.5c0.1-0.2,0.1-0.4,0.2-0.7c0-0.3,0.1-0.6,0.1-0.9
			c0-0.9-0.1-1.6-0.2-2c-0.1-0.4-0.4-0.6-0.8-0.6c-0.2,0-0.4,0-0.5,0.1c-0.1,0.1-0.2,0.2-0.3,0.5c-0.1,0.2-0.1,0.5-0.2,0.9
			c0,0.4,0,0.8,0,1.3C121.7,1332.5,121.7,1332.7,121.8,1333z"/>
		<path fill="#981D25" d="M128.7,1332.9c0,0.2,0,0.5,0,0.7c0,0.2,0.1,0.4,0.2,0.6c0.1,0.2,0.2,0.3,0.3,0.4c0.1,0.1,0.3,0.2,0.5,0.2
			c0.3,0,0.6-0.1,0.7-0.4c0.1-0.2,0.3-0.6,0.3-1.1h1.8c0,0.9-0.3,1.6-0.7,2.1c-0.4,0.5-1.1,0.7-2.1,0.7c-0.7,0-1.3-0.1-1.7-0.4
			c-0.4-0.2-0.7-0.6-0.9-0.9c-0.2-0.4-0.3-0.8-0.4-1.3c0-0.5-0.1-1-0.1-1.5c0-0.5,0-1,0.1-1.5c0.1-0.5,0.2-0.9,0.4-1.3
			c0.2-0.4,0.5-0.7,0.9-0.9c0.4-0.2,0.9-0.3,1.6-0.3c0.6,0,1,0.1,1.4,0.3c0.4,0.2,0.7,0.4,0.9,0.8c0.2,0.3,0.4,0.8,0.4,1.2
			c0.1,0.5,0.1,1,0.1,1.6v0.4h-3.9L128.7,1332.9L128.7,1332.9z M130.6,1330.3c0-0.2-0.1-0.4-0.2-0.6c-0.1-0.2-0.2-0.3-0.3-0.4
			c-0.1-0.1-0.3-0.1-0.5-0.1c-0.2,0-0.4,0-0.5,0.1c-0.1,0.1-0.2,0.2-0.3,0.4c-0.1,0.1-0.1,0.3-0.2,0.5c0,0.2,0,0.4,0,0.5v0.3h2
			C130.7,1330.8,130.6,1330.5,130.6,1330.3z"/>
		<path fill="#981D25" d="M135.4,1328.1v0.9h0c0.2-0.4,0.5-0.7,0.8-0.8c0.3-0.2,0.7-0.3,1.1-0.3c0.6,0,1.1,0.2,1.5,0.5
			c0.3,0.3,0.5,0.9,0.5,1.7v5.7h-2v-5.3c0-0.4-0.1-0.7-0.2-0.8c-0.1-0.2-0.4-0.2-0.6-0.2c-0.7,0-1,0.4-1,1.3v5.1h-2v-7.7
			L135.4,1328.1L135.4,1328.1z"/>
		<path fill="#981D25" d="M144.2,1330.3c0-0.2-0.1-0.3-0.1-0.5c-0.1-0.1-0.2-0.3-0.3-0.4c-0.1-0.1-0.3-0.1-0.5-0.1
			c-0.2,0-0.4,0.1-0.6,0.2c-0.2,0.1-0.3,0.3-0.3,0.5c-0.1,0.2-0.1,0.5-0.2,0.8c0,0.3,0,0.7,0,1.2c0,0.5,0,0.9,0,1.2
			c0,0.3,0.1,0.6,0.2,0.8c0.1,0.2,0.2,0.4,0.3,0.5c0.1,0.1,0.3,0.2,0.5,0.2c0.3,0,0.6-0.1,0.7-0.4c0.1-0.3,0.2-0.7,0.2-1.4h1.9
			c0,1-0.2,1.8-0.7,2.3s-1.2,0.8-2.3,0.8c-0.5,0-0.9-0.1-1.3-0.2c-0.4-0.1-0.7-0.3-0.9-0.6c-0.2-0.3-0.4-0.7-0.6-1.3
			c-0.1-0.5-0.2-1.2-0.2-1.9c0-0.8,0.1-1.5,0.2-2c0.2-0.5,0.4-0.9,0.6-1.2c0.3-0.3,0.6-0.5,1-0.7c0.4-0.1,0.8-0.2,1.3-0.2
			c0.9,0,1.6,0.3,2.1,0.8c0.5,0.5,0.7,1.3,0.7,2.2h-1.9C144.2,1330.7,144.2,1330.5,144.2,1330.3z"/>
		<path fill="#981D25" d="M148.7,1332.9c0,0.2,0,0.5,0,0.7c0,0.2,0.1,0.4,0.2,0.6c0.1,0.2,0.2,0.3,0.3,0.4c0.1,0.1,0.3,0.2,0.5,0.2
			c0.3,0,0.6-0.1,0.7-0.4c0.2-0.2,0.3-0.6,0.3-1.1h1.8c0,0.9-0.3,1.6-0.7,2.1c-0.4,0.5-1.1,0.7-2.1,0.7c-0.7,0-1.3-0.1-1.7-0.4
			c-0.4-0.2-0.7-0.6-0.9-0.9c-0.2-0.4-0.3-0.8-0.4-1.3c0-0.5-0.1-1-0.1-1.5c0-0.5,0-1,0.1-1.5c0.1-0.5,0.2-0.9,0.4-1.3
			c0.2-0.4,0.5-0.7,0.9-0.9c0.4-0.2,0.9-0.3,1.6-0.3c0.6,0,1,0.1,1.4,0.3c0.4,0.2,0.7,0.4,0.9,0.8c0.2,0.3,0.4,0.8,0.4,1.2
			c0.1,0.5,0.1,1,0.1,1.6v0.4h-3.9L148.7,1332.9L148.7,1332.9L148.7,1332.9z M150.7,1330.3c0-0.2-0.1-0.4-0.1-0.6
			c-0.1-0.2-0.2-0.3-0.3-0.4c-0.1-0.1-0.3-0.1-0.5-0.1c-0.2,0-0.4,0-0.5,0.1c-0.1,0.1-0.2,0.2-0.3,0.4c-0.1,0.1-0.1,0.3-0.2,0.5
			c0,0.2,0,0.4,0,0.5v0.3h2C150.7,1330.8,150.7,1330.5,150.7,1330.3z"/>
		<path fill="#981D25" d="M-5.7,1286.5h-5.6v10.4c0,3.4,0.3,4.2,3.5,4.2c0.7,0,1.6-0.1,2.5-0.2v5.7c-1.5,0.4-3.3,0.6-4.7,0.6
			c-2.2,0-5-0.3-6.7-1.7c-2.1-1.8-2.1-4.9-2.1-7.5v-11.5h-4.3v-6h4.6l0.7-7.7l6.6-0.5v8.2h5.6L-5.7,1286.5L-5.7,1286.5z"/>
		<path fill="#981D25" d="M2.9,1294.9l-0.1,1.3c0,3.1,1.8,5.6,5,5.6c2.3,0,4.6-1.7,4.6-4.1l7,0.5c0,1.3-3,9-11.9,9
			c-7.8,0-12.9-5.5-12.9-13.2c0-7.7,4.6-14,12.7-14c3.7,0,7.4,1.6,9.6,4.6c2.2,3,2.7,6.7,2.7,10.2L2.9,1294.9L2.9,1294.9z
			 M12.1,1290.4c-0.2-2.8-1.1-5.5-4.4-5.5c-3.3,0-4.6,2.5-4.9,5.5H12.1z"/>
		<path fill="#981D25" d="M28.9,1280.5v4H29c1.3-3.1,3.9-4.5,7.3-4.5c3.5,0,5.6,1.4,7.2,4.5c1.3-3.1,4.4-4.5,7.6-4.5
			c2.3,0,4.8,0.8,6.4,2.7c1.8,2.1,1.4,5,1.4,7.7v16.3h-7.6v-13.9c0-1,0.1-3.6-0.2-4.6c-0.4-1.7-1.6-2.1-3.2-2.1
			c-1.3,0-2.7,0.8-3.3,2c-0.6,1.2-0.5,3.3-0.5,4.7v13.9h-7.6v-13.9c0-2.7,0.5-6.7-3.4-6.7c-4,0-3.8,3.9-3.8,6.7v13.9h-7.6v-26.2
			L28.9,1280.5L28.9,1280.5z"/>
		<path fill="#981D25" d="M69.3,1280.5v3.9h0.1c1.4-2.9,3.4-4.4,6.8-4.4c3.5,0,6,1.5,7.7,4.5c1.7,2.8,2,5.9,2,9.1
			c0,6.4-2.4,13.5-10,13.5c-2.6,0-4.9-1.1-6-3.4h-0.1v11.7h-7.6v-35L69.3,1280.5L69.3,1280.5L69.3,1280.5z M69.7,1294.6
			c0,1.7-0.2,3.9,0.7,5.3c0.7,1.1,2.1,2,3.4,2c3.9,0,4.1-5.7,4.1-8.4s-0.2-8.1-4-8.1c-1.5,0-2.7,0.8-3.4,2.1c-0.8,1.4-0.8,3-0.8,4.5
			L69.7,1294.6L69.7,1294.6z"/>
		<path fill="#981D25" d="M94.7,1294.9l-0.1,1.3c0,3.1,1.8,5.6,5,5.6c2.3,0,4.6-1.7,4.6-4.1l7,0.5c0,1.3-3,9-11.9,9
			c-7.8,0-12.9-5.5-12.9-13.2c0-7.7,4.6-14,12.7-14c3.7,0,7.4,1.6,9.6,4.6c2.2,3,2.7,6.7,2.7,10.2L94.7,1294.9L94.7,1294.9z
			 M104,1290.4c-0.2-2.8-1.1-5.5-4.4-5.5c-3.3,0-4.6,2.5-4.9,5.5H104z"/>
		<path fill="#981D25" d="M128.7,1288.3c-0.7-2.5-2.6-3.5-5.1-3.5c-1.5,0-3.9,0.4-3.9,2.3c0,4.9,15.7-0.7,15.7,11.1
			c0,2.7-1.3,5.1-3.5,6.7c-2.4,1.6-5.3,2.2-8.1,2.2c-5.5,0-10.6-1.9-11.9-7.7l6.5-0.9c0.5,2.7,3.3,3.5,5.8,3.5
			c1.4,0,4.6-0.5,4.6-2.5c0-1.8-1.5-2.1-2.9-2.2c-1.8-0.2-6.1-1-7.8-1.6c-3.1-1.1-5.1-3.8-5.1-7.1c0-6.4,5.6-8.8,11.2-8.8
			c5.1,0,8.5,2,10.3,6.8L128.7,1288.3z"/>
		<path fill="#981D25" d="M152.6,1286.5H147v10.4c0,3.4,0.3,4.2,3.5,4.2c0.7,0,1.6-0.1,2.5-0.2v5.7c-1.5,0.4-3.3,0.6-4.7,0.6
			c-2.2,0-5-0.3-6.7-1.7c-2.1-1.8-2.1-4.9-2.1-7.5v-11.5h-4.3v-6h4.6l0.7-7.7l6.6-0.5v8.2h5.6L152.6,1286.5L152.6,1286.5z"/>
	</g>
</g>
<g id="LA">
	<g>
		<path fill="#981D25" d="M-78.6,1007c-0.1,0-0.3,0-0.4,0c-0.2,0-0.4,0-0.6-0.1c-0.1,0-0.3-0.1-0.4-0.2c-0.1-0.1-0.2-0.2-0.2-0.4
			c0-0.2-0.1-0.4-0.1-0.6v-2.1h-0.7v-0.8h0.7v-1.2l1-0.3v1.5h1v0.8h-1v1.8c0,0.3,0,0.4,0.1,0.5c0.1,0.1,0.2,0.1,0.4,0.1
			c0.2,0,0.3,0,0.5-0.1v0.8C-78.3,1007-78.5,1007-78.6,1007z"/>
		<path fill="#981D25" d="M-74.4,1004.6c0,0.1,0,0.1,0,0.2c0,0.1,0,0.2,0,0.2h-2.5c0,0.8,0.4,1.1,1.1,1.1c0.2,0,0.4,0,0.6-0.1
			c0.2,0,0.4-0.1,0.6-0.2l0.1,0.8c-0.2,0.1-0.4,0.2-0.7,0.2c-0.2,0-0.5,0.1-0.8,0.1c-0.6,0-1.1-0.2-1.5-0.5
			c-0.3-0.3-0.5-0.9-0.5-1.6c0-0.3,0-0.6,0.1-0.9c0.1-0.3,0.2-0.5,0.4-0.7c0.2-0.2,0.4-0.3,0.6-0.4c0.2-0.1,0.5-0.2,0.8-0.2
			c0.3,0,0.5,0,0.8,0.1c0.2,0.1,0.4,0.2,0.5,0.4c0.1,0.2,0.2,0.4,0.3,0.6C-74.4,1004.1-74.4,1004.4-74.4,1004.6z M-75.4,1004.4
			c0-0.3,0-0.5-0.2-0.6c-0.1-0.1-0.3-0.2-0.5-0.2c-0.2,0-0.4,0.1-0.5,0.2c-0.1,0.1-0.2,0.3-0.3,0.6L-75.4,1004.4L-75.4,1004.4z"/>
		<path fill="#981D25" d="M-71.6,1007c-0.2,0-0.4,0.1-0.6,0.1c-0.3,0-0.5,0-0.8-0.1c-0.2-0.1-0.4-0.2-0.6-0.4
			c-0.2-0.2-0.3-0.4-0.4-0.6c-0.1-0.2-0.1-0.5-0.1-0.9c0-0.3,0-0.6,0.1-0.9c0.1-0.3,0.2-0.5,0.4-0.7s0.4-0.4,0.6-0.5
			c0.3-0.1,0.6-0.2,0.9-0.2c0.3,0,0.6,0,0.8,0.1l-0.1,0.9c-0.1,0-0.2-0.1-0.4-0.1c-0.1,0-0.3,0-0.4,0c-0.3,0-0.6,0.1-0.7,0.3
			c-0.2,0.2-0.2,0.5-0.2,0.9c0,0.3,0.1,0.6,0.2,0.8c0.1,0.2,0.4,0.3,0.7,0.3c0.1,0,0.3,0,0.4,0c0.1,0,0.3-0.1,0.4-0.1l0.1,0.9
			C-71.2,1006.9-71.4,1006.9-71.6,1007z"/>
		<path fill="#981D25" d="M-69.2,1002.9c0,0.1,0,0.2,0,0.4c0,0.1,0,0.3,0,0.4l0,0c0.1-0.2,0.3-0.4,0.5-0.6c0.2-0.1,0.5-0.2,0.8-0.2
			c0.2,0,0.4,0,0.6,0.1c0.2,0.1,0.3,0.2,0.4,0.3c0.1,0.1,0.2,0.3,0.2,0.4c0,0.2,0.1,0.3,0.1,0.5v2.8h-1v-2.6c0-0.2,0-0.4-0.1-0.5
			c-0.1-0.1-0.2-0.2-0.4-0.2c-0.1,0-0.3,0-0.4,0.1c-0.1,0.1-0.2,0.2-0.3,0.3c-0.1,0.1-0.1,0.3-0.2,0.4c0,0.2-0.1,0.3-0.1,0.5v2h-1
			v-3.2c-0.1,0-0.2,0-0.3,0c-0.1,0-0.3,0-0.4,0v-0.7c0.3,0,0.5-0.1,0.8-0.1C-69.7,1002.9-69.5,1002.9-69.2,1002.9z"/>
		<path fill="#981D25" d="M-62.1,1004.9c0,0.3-0.1,0.6-0.1,0.9c-0.1,0.3-0.2,0.5-0.4,0.7c-0.2,0.2-0.4,0.3-0.7,0.5
			c-0.3,0.1-0.5,0.2-0.8,0.2c-0.3,0-0.5,0-0.8-0.1c-0.2-0.1-0.4-0.2-0.6-0.4c-0.2-0.2-0.3-0.4-0.4-0.6c-0.1-0.3-0.1-0.6-0.1-0.9
			c0-0.3,0.1-0.6,0.1-0.9c0.1-0.3,0.2-0.5,0.4-0.7c0.2-0.2,0.4-0.3,0.7-0.5c0.3-0.1,0.5-0.2,0.8-0.2c0.6,0,1,0.2,1.4,0.5
			C-62.3,1003.6-62.1,1004.2-62.1,1004.9z M-63.2,1004.9c0-0.4-0.1-0.7-0.2-0.9c-0.1-0.2-0.4-0.3-0.7-0.3c-0.1,0-0.2,0-0.3,0.1
			c-0.1,0-0.2,0.1-0.3,0.2c-0.1,0.1-0.2,0.2-0.2,0.4c-0.1,0.1-0.1,0.3-0.1,0.5c0,0.8,0.3,1.3,0.9,1.3c0.3,0,0.5-0.1,0.6-0.3
			C-63.3,1005.6-63.2,1005.3-63.2,1004.9z"/>
		<path fill="#981D25" d="M-60.5,1007h-1v-5.1c-0.1,0-0.2,0-0.3,0c-0.1,0-0.2,0-0.4,0v-0.6c0.3,0,0.5-0.1,0.8-0.1c0.3,0,0.6,0,0.9,0
			L-60.5,1007L-60.5,1007z"/>
		<path fill="#981D25" d="M-56,1004.9c0,0.3-0.1,0.6-0.1,0.9c-0.1,0.3-0.2,0.5-0.4,0.7c-0.2,0.2-0.4,0.3-0.7,0.5s-0.5,0.2-0.8,0.2
			c-0.3,0-0.5,0-0.8-0.1c-0.2-0.1-0.4-0.2-0.6-0.4c-0.2-0.2-0.3-0.4-0.4-0.6c-0.1-0.3-0.1-0.6-0.1-0.9c0-0.3,0.1-0.6,0.1-0.9
			c0.1-0.3,0.2-0.5,0.4-0.7c0.2-0.2,0.4-0.3,0.7-0.5c0.3-0.1,0.5-0.2,0.8-0.2c0.6,0,1,0.2,1.4,0.5C-56.2,1003.6-56,1004.2-56,1004.9
			z M-57.1,1004.9c0-0.4-0.1-0.7-0.2-0.9c-0.1-0.2-0.4-0.3-0.7-0.3c-0.1,0-0.2,0-0.3,0.1c-0.1,0-0.2,0.1-0.3,0.2
			c-0.1,0.1-0.2,0.2-0.2,0.4c-0.1,0.1-0.1,0.3-0.1,0.5c0,0.8,0.3,1.3,0.9,1.3c0.3,0,0.5-0.1,0.6-0.3
			C-57.2,1005.6-57.1,1005.3-57.1,1004.9z"/>
		<path fill="#981D25" d="M-52,1007.1c0,0.2,0,0.5-0.1,0.7c-0.1,0.2-0.2,0.4-0.3,0.6c-0.2,0.2-0.4,0.3-0.7,0.4
			c-0.3,0.1-0.7,0.2-1.1,0.2c-0.2,0-0.4,0-0.7,0c-0.2,0-0.4-0.1-0.6-0.1l0.1-1c0.2,0.1,0.4,0.1,0.6,0.2c0.2,0,0.4,0.1,0.6,0.1
			c0.4,0,0.7-0.1,0.9-0.2c0.2-0.1,0.3-0.4,0.3-0.8v-0.2c0-0.1,0-0.2,0-0.3c0-0.1,0-0.2,0-0.3h0c-0.1,0.2-0.3,0.4-0.5,0.6
			c-0.2,0.1-0.4,0.2-0.7,0.2c-0.5,0-0.9-0.2-1.1-0.5c-0.3-0.3-0.4-0.8-0.4-1.4c0-0.3,0-0.7,0.1-0.9s0.2-0.5,0.4-0.7
			c0.2-0.2,0.4-0.4,0.7-0.5c0.3-0.1,0.6-0.2,0.9-0.2c0.3,0,0.6,0,0.8,0c0.2,0,0.5,0.1,0.7,0.1L-52,1007.1L-52,1007.1L-52,1007.1z
			 M-53.1,1003.7c-0.2,0-0.3-0.1-0.5-0.1c-0.3,0-0.5,0.1-0.7,0.3c-0.2,0.2-0.3,0.6-0.3,1.1c0,0.8,0.2,1.1,0.7,1.1
			c0.1,0,0.3,0,0.4-0.1c0.1-0.1,0.2-0.2,0.3-0.3c0.1-0.1,0.1-0.3,0.2-0.4c0-0.2,0.1-0.3,0.1-0.5L-53.1,1003.7L-53.1,1003.7z"/>
		<path fill="#981D25" d="M-49.9,1007h-1v-3.2c-0.1,0-0.2,0-0.3,0s-0.2,0-0.4,0v-0.7c0.3,0,0.5-0.1,0.8-0.1c0.3,0,0.6,0,0.9,0
			L-49.9,1007L-49.9,1007z M-49.8,1001.8c0,0.2-0.1,0.3-0.2,0.4c-0.1,0.1-0.3,0.2-0.5,0.2c-0.2,0-0.3-0.1-0.5-0.2
			c-0.1-0.1-0.2-0.3-0.2-0.4c0-0.1,0-0.2,0.1-0.2c0-0.1,0.1-0.1,0.1-0.2c0.1-0.1,0.1-0.1,0.2-0.1c0.1,0,0.2,0,0.2,0
			c0.2,0,0.3,0.1,0.5,0.2C-49.8,1001.4-49.8,1001.6-49.8,1001.8z"/>
		<path fill="#981D25" d="M-45.3,1006.9c-0.3,0-0.5,0.1-0.8,0.1c-0.3,0-0.6,0-0.8,0c0-0.1,0-0.2,0-0.4c0-0.1,0-0.2,0-0.3l0,0
			c-0.1,0.2-0.3,0.4-0.5,0.6c-0.2,0.1-0.5,0.2-0.8,0.2c-0.4,0-0.7-0.1-0.9-0.3c-0.2-0.2-0.3-0.5-0.3-0.8c0-0.2,0.1-0.5,0.2-0.6
			c0.1-0.2,0.3-0.3,0.5-0.5c0.2-0.1,0.5-0.2,0.7-0.3c0.3-0.1,0.6-0.1,0.9-0.1v-0.2c0-0.2-0.1-0.4-0.2-0.5c-0.1-0.1-0.3-0.2-0.6-0.2
			c-0.2,0-0.4,0-0.6,0.1c-0.2,0.1-0.4,0.1-0.6,0.2l-0.1-0.9c0.2-0.1,0.4-0.1,0.7-0.2c0.2,0,0.5-0.1,0.8-0.1c0.3,0,0.6,0,0.8,0.1
			c0.2,0.1,0.4,0.2,0.5,0.3c0.1,0.1,0.2,0.3,0.3,0.4c0.1,0.2,0.1,0.4,0.1,0.6v1.9c0.1,0,0.2,0,0.3,0c0.1,0,0.3,0,0.4,0L-45.3,1006.9
			L-45.3,1006.9L-45.3,1006.9z M-47,1005.2c-0.3,0-0.5,0-0.7,0.1c-0.2,0-0.3,0.1-0.4,0.1c-0.1,0.1-0.2,0.1-0.2,0.2
			c0,0.1-0.1,0.2-0.1,0.2c0,0.1,0,0.2,0.1,0.3c0.1,0.1,0.2,0.1,0.4,0.1c0.1,0,0.2,0,0.4-0.1c0.1-0.1,0.2-0.1,0.3-0.2
			c0.1-0.1,0.1-0.2,0.2-0.3C-47.1,1005.5-47,1005.4-47,1005.2L-47,1005.2L-47,1005.2z"/>
		<path fill="#981D25" d="M-39.9,1004.6c0,0.1,0,0.1,0,0.2c0,0.1,0,0.2,0,0.2h-2.5c0,0.8,0.4,1.1,1.1,1.1c0.2,0,0.4,0,0.6-0.1
			c0.2,0,0.4-0.1,0.6-0.2l0.1,0.8c-0.2,0.1-0.4,0.2-0.7,0.2c-0.2,0-0.5,0.1-0.8,0.1c-0.6,0-1.1-0.2-1.5-0.5
			c-0.3-0.3-0.5-0.9-0.5-1.6c0-0.3,0-0.6,0.1-0.9c0.1-0.3,0.2-0.5,0.4-0.7c0.2-0.2,0.4-0.3,0.6-0.4c0.2-0.1,0.5-0.2,0.8-0.2
			c0.3,0,0.5,0,0.8,0.1c0.2,0.1,0.4,0.2,0.5,0.4c0.1,0.2,0.2,0.4,0.3,0.6C-39.9,1004.1-39.9,1004.4-39.9,1004.6z M-40.9,1004.4
			c0-0.3,0-0.5-0.2-0.6c-0.1-0.1-0.3-0.2-0.5-0.2c-0.2,0-0.4,0.1-0.5,0.2c-0.1,0.1-0.2,0.3-0.3,0.6L-40.9,1004.4L-40.9,1004.4z"/>
		<path fill="#981D25" d="M-34.1,1007v-2.6c0-0.2,0-0.4-0.1-0.5c-0.1-0.1-0.2-0.2-0.4-0.2c-0.1,0-0.2,0-0.3,0.1
			c-0.1,0.1-0.2,0.2-0.3,0.3c-0.1,0.1-0.2,0.3-0.2,0.4c-0.1,0.2-0.1,0.3-0.1,0.5v1.9h-1v-2.6c0-0.2,0-0.4-0.1-0.5
			c-0.1-0.1-0.2-0.2-0.4-0.2c-0.1,0-0.2,0-0.3,0.1c-0.1,0.1-0.2,0.2-0.3,0.3s-0.2,0.3-0.2,0.4c-0.1,0.2-0.1,0.3-0.1,0.5v1.9h-1v-3.2
			c-0.1,0-0.2,0-0.3,0c-0.1,0-0.2,0-0.4,0v-0.7c0.3,0,0.5-0.1,0.8-0.1c0.3,0,0.6,0,0.9,0c0,0.1,0,0.2,0,0.4c0,0.1,0,0.3,0,0.4h0
			c0.1-0.2,0.3-0.4,0.5-0.6c0.2-0.1,0.5-0.2,0.8-0.2c0.2,0,0.3,0,0.5,0.1c0.1,0,0.2,0.1,0.3,0.2s0.2,0.2,0.2,0.3
			c0.1,0.1,0.1,0.2,0.1,0.3c0-0.1,0.1-0.2,0.2-0.3c0.1-0.1,0.2-0.2,0.3-0.3c0.1-0.1,0.2-0.1,0.4-0.2c0.1,0,0.3-0.1,0.5-0.1
			c0.4,0,0.7,0.1,0.9,0.3c0.2,0.2,0.3,0.6,0.3,1v2.8L-34.1,1007L-34.1,1007z"/>
		<path fill="#981D25" d="M-28,1005.7c0,0.2,0,0.4-0.1,0.5c-0.1,0.2-0.2,0.3-0.4,0.4c-0.2,0.1-0.3,0.2-0.6,0.3
			c-0.2,0.1-0.5,0.1-0.7,0.1c-0.1,0-0.3,0-0.4,0c-0.1,0-0.3,0-0.4-0.1l0-0.9c0.1,0,0.3,0.1,0.4,0.1c0.1,0,0.3,0,0.5,0
			c0.2,0,0.4,0,0.5-0.1c0.1-0.1,0.2-0.2,0.2-0.3c0-0.1,0-0.2-0.1-0.3c-0.1-0.1-0.2-0.1-0.3-0.2c-0.1,0-0.3-0.1-0.4-0.1
			c-0.1,0-0.3-0.1-0.4-0.2c-0.1-0.1-0.2-0.2-0.3-0.3s-0.1-0.3-0.1-0.6c0-0.2,0-0.3,0.1-0.5c0.1-0.2,0.2-0.3,0.3-0.4
			c0.1-0.1,0.3-0.2,0.5-0.3c0.2-0.1,0.5-0.1,0.8-0.1c0.1,0,0.2,0,0.4,0c0.1,0,0.3,0,0.4,0.1l0,0.8c-0.1,0-0.2-0.1-0.4-0.1
			c-0.1,0-0.3,0-0.4,0c-0.2,0-0.4,0-0.5,0.1c-0.1,0.1-0.1,0.2-0.1,0.3c0,0.1,0,0.2,0.1,0.3c0.1,0.1,0.2,0.1,0.3,0.2
			c0.1,0.1,0.3,0.1,0.4,0.2c0.1,0.1,0.3,0.1,0.4,0.2c0.1,0.1,0.2,0.2,0.3,0.3C-28,1005.3-28,1005.5-28,1005.7z"/>
		<path fill="#981D25" d="M-23.6,1006.9c-0.3,0-0.5,0.1-0.8,0.1c-0.3,0-0.6,0-0.8,0c0-0.1,0-0.2,0-0.4c0-0.1,0-0.2,0-0.3l0,0
			c-0.1,0.2-0.3,0.4-0.5,0.6c-0.2,0.1-0.5,0.2-0.8,0.2c-0.4,0-0.7-0.1-0.9-0.3c-0.2-0.2-0.3-0.5-0.3-0.8c0-0.2,0.1-0.5,0.2-0.6
			c0.1-0.2,0.3-0.3,0.5-0.5c0.2-0.1,0.5-0.2,0.7-0.3c0.3-0.1,0.6-0.1,0.9-0.1v-0.2c0-0.2-0.1-0.4-0.2-0.5c-0.1-0.1-0.3-0.2-0.6-0.2
			c-0.2,0-0.4,0-0.6,0.1c-0.2,0.1-0.4,0.1-0.6,0.2l-0.1-0.9c0.2-0.1,0.4-0.1,0.7-0.2c0.2,0,0.5-0.1,0.8-0.1c0.3,0,0.6,0,0.8,0.1
			c0.2,0.1,0.4,0.2,0.5,0.3c0.1,0.1,0.2,0.3,0.3,0.4c0.1,0.2,0.1,0.4,0.1,0.6v1.9c0.1,0,0.2,0,0.3,0c0.1,0,0.2,0,0.4,0L-23.6,1006.9
			L-23.6,1006.9z M-25.3,1005.2c-0.3,0-0.5,0-0.7,0.1c-0.2,0-0.3,0.1-0.4,0.1c-0.1,0.1-0.2,0.1-0.2,0.2c0,0.1-0.1,0.2-0.1,0.2
			c0,0.1,0,0.2,0.1,0.3c0.1,0.1,0.2,0.1,0.4,0.1c0.1,0,0.2,0,0.4-0.1c0.1-0.1,0.2-0.1,0.3-0.2c0.1-0.1,0.1-0.2,0.2-0.3
			C-25.3,1005.5-25.3,1005.4-25.3,1005.2L-25.3,1005.2L-25.3,1005.2z"/>
		<path fill="#981D25" d="M-19.7,1007c-0.3,0-0.6,0-0.8,0c0-0.1,0-0.2,0-0.3c0-0.1,0-0.3,0-0.4l0,0c-0.1,0.2-0.3,0.4-0.5,0.6
			c-0.2,0.2-0.5,0.2-0.8,0.2c-0.2,0-0.4,0-0.6-0.1c-0.2-0.1-0.3-0.2-0.4-0.3c-0.1-0.1-0.2-0.3-0.2-0.4c0-0.2-0.1-0.3-0.1-0.5v-2
			c-0.1,0-0.2,0-0.3,0c-0.1,0-0.2,0-0.4,0v-0.7c0.3,0,0.6-0.1,0.9-0.1c0.3,0,0.6,0,0.9,0v2.6c0,0.2,0,0.4,0.1,0.5
			c0.1,0.1,0.2,0.2,0.4,0.2c0.1,0,0.3,0,0.4-0.1c0.1-0.1,0.2-0.2,0.3-0.3c0.1-0.1,0.1-0.3,0.2-0.4c0.1-0.2,0.1-0.3,0.1-0.5v-2h1v3.2
			c0.1,0,0.2,0,0.3,0c0.1,0,0.3,0,0.4,0v0.7C-19.1,1006.9-19.4,1006.9-19.7,1007z M-21.6,1002.4l-0.4-0.6l1.4-0.9l0.4,0.7
			L-21.6,1002.4z"/>
		<path fill="#981D25" d="M-14.3,1006.9c-0.3,0-0.5,0.1-0.8,0.1c-0.3,0-0.6,0-0.8,0c0-0.1,0-0.2,0-0.3c0-0.1,0-0.2,0-0.3h0
			c-0.1,0.2-0.3,0.4-0.5,0.6c-0.2,0.1-0.5,0.2-0.8,0.2c-0.5,0-0.9-0.2-1.1-0.5c-0.2-0.3-0.4-0.8-0.4-1.4c0-0.3,0-0.7,0.1-0.9
			c0.1-0.3,0.2-0.5,0.4-0.7c0.2-0.2,0.4-0.4,0.7-0.5c0.3-0.1,0.6-0.2,0.9-0.2c0.1,0,0.2,0,0.3,0c0.1,0,0.2,0,0.3,0v-1.1
			c-0.1,0-0.2,0-0.3,0c-0.1,0-0.3,0-0.4,0v-0.7c0.3,0,0.5-0.1,0.8-0.1c0.3,0,0.6,0,0.9,0v5.2c0.1,0,0.2,0,0.3,0c0.1,0,0.2,0,0.4,0
			L-14.3,1006.9L-14.3,1006.9L-14.3,1006.9L-14.3,1006.9z M-16.1,1003.7c-0.1,0-0.2,0-0.3-0.1c-0.1,0-0.2,0-0.3,0
			c-0.3,0-0.5,0.1-0.7,0.3c-0.2,0.2-0.3,0.6-0.3,1.1c0,0.8,0.2,1.1,0.7,1.1c0.1,0,0.3,0,0.4-0.1c0.1-0.1,0.2-0.2,0.3-0.3
			s0.1-0.3,0.2-0.4c0-0.2,0.1-0.3,0.1-0.5L-16.1,1003.7L-16.1,1003.7z"/>
		<path fill="#981D25" d="M-10.6,1004.6c0,0.1,0,0.1,0,0.2c0,0.1,0,0.2,0,0.2h-2.5c0,0.8,0.4,1.1,1.1,1.1c0.2,0,0.4,0,0.6-0.1
			c0.2,0,0.4-0.1,0.6-0.2l0.1,0.8c-0.2,0.1-0.4,0.2-0.7,0.2c-0.2,0-0.5,0.1-0.8,0.1c-0.6,0-1.1-0.2-1.5-0.5
			c-0.3-0.3-0.5-0.9-0.5-1.6c0-0.3,0-0.6,0.1-0.9s0.2-0.5,0.4-0.7c0.2-0.2,0.4-0.3,0.6-0.4c0.2-0.1,0.5-0.2,0.8-0.2
			c0.3,0,0.5,0,0.8,0.1c0.2,0.1,0.4,0.2,0.5,0.4s0.2,0.4,0.3,0.6C-10.7,1004.1-10.6,1004.4-10.6,1004.6z M-11.7,1004.4
			c0-0.3,0-0.5-0.2-0.6c-0.1-0.1-0.3-0.2-0.5-0.2c-0.2,0-0.4,0.1-0.5,0.2c-0.1,0.1-0.2,0.3-0.3,0.6L-11.7,1004.4L-11.7,1004.4z"/>
	</g>
	<path fill="#981D25" d="M-61.7,991.4c-0.7-0.1-2.6-0.2-3.2-0.3v-30h-6l-1.6,0l0,4.3l1.6,0.5v30c1.7,0.1,3.5,0.1,5.2,0h0l0,0
		c0,0,0,0,0,0c1.7-0.1,4.6-0.2,6.1-0.4v-3.8C-60.2,991.5-60.9,991.5-61.7,991.4z"/>
	<path fill="#981D25" d="M-53.6,991.4c0.7,0,1.2,0.2,1.7,0.7c0.5,0.5,0.7,1,0.7,1.7c0,0.7-0.2,1.2-0.7,1.7c-0.5,0.5-1,0.7-1.7,0.7
		c-0.7,0-1.2-0.2-1.7-0.7c-0.5-0.5-0.7-1-0.7-1.7c0-0.7,0.2-1.2,0.7-1.7C-54.8,991.6-54.2,991.4-53.6,991.4z"/>
	<path fill="#981D25" d="M-18.9,991.4c0.7,0,1.2,0.2,1.7,0.7c0.5,0.5,0.7,1,0.7,1.7c0,0.7-0.2,1.2-0.7,1.7s-1,0.7-1.7,0.7
		c-0.7,0-1.2-0.2-1.7-0.7c-0.5-0.5-0.7-1-0.7-1.7c0-0.7,0.2-1.2,0.7-1.7C-20.1,991.6-19.6,991.4-18.9,991.4z"/>
	<path fill="#981D25" d="M-28.8,991.2v-11.2c0-0.6,0-1.1-0.1-1.6c-2.7-1.4-5-3.6-6.3-6.4c-1-0.2-2.1-0.2-3.3-0.2
		c-1.5,0-3,0.1-4.4,0.4c-1.4,0.3-2.8,0.6-4,1.1l0.5,5.1c1-0.6,2.2-1,3.4-1.4c1.3-0.3,2.5-0.5,3.5-0.5c1.7,0,2.9,0.3,3.6,0.9
		c0.7,0.6,1,1.6,1,2.8v1.3c-2,0-3.8,0.2-5.5,0.5c-1.7,0.4-3.1,0.9-4.3,1.6c-1.2,0.7-2.1,1.6-2.8,2.7s-1,2.3-1,3.7
		c0,1.9,0.6,3.4,1.8,4.5c1.2,1.1,2.8,1.7,5,1.7c1.8,0,3.3-0.4,4.7-1.3s2.3-1.9,2.9-3.3l0,0c-0.1,0.6-0.2,1.3-0.2,2
		c0,0.7,0,1.4,0,2.1c1.5,0.1,3.2,0.1,4.9,0c1.7-0.1,3.3-0.2,4.8-0.4v-3.8c-0.7-0.1-1.4-0.1-2.2-0.2
		C-27.6,991.3-28.2,991.2-28.8,991.2z M-34.8,986c0,0.7-0.1,1.4-0.4,2.1c-0.2,0.7-0.6,1.3-1,1.8c-0.4,0.5-1,0.9-1.6,1.3
		c-0.6,0.3-1.3,0.5-2.1,0.5c-0.9,0-1.6-0.2-2.1-0.7c-0.5-0.5-0.7-1.1-0.7-1.8c0-0.5,0.1-0.9,0.3-1.4c0.2-0.4,0.6-0.8,1.2-1.2
		c0.6-0.4,1.4-0.6,2.4-0.8c1-0.2,2.3-0.3,3.9-0.3L-34.8,986L-34.8,986z"/>
	<g>
		<path fill="#981D25" d="M-20.1,969.5c0,0-0.1,0-0.1,0s-0.1,0-0.1,0.1c0,0-0.1,0.1-0.1,0.2c0,0.1,0,0.1,0,0.2
			c0,0.3,0.1,0.5,0.4,0.5c0.1,0,0.2,0,0.3-0.1c0.1-0.1,0.1-0.2,0.1-0.4c0-0.2,0-0.3-0.1-0.4C-19.9,969.6-20,969.5-20.1,969.5z"/>
		<path fill="#981D25" d="M-19.1,962.3c-0.2,0-0.5,0-0.7,0.1c-0.2,0.1-0.4,0.2-0.6,0.4c-0.2,0.2-0.3,0.4-0.4,0.7
			c-0.1,0.3-0.1,0.5-0.1,0.9c0,0.3,0,0.6,0.1,0.9c0.1,0.3,0.2,0.5,0.3,0.7c0.1,0.2,0.3,0.3,0.6,0.4c0.2,0.1,0.5,0.2,0.8,0.2
			c0.2,0,0.5,0,0.7-0.1c0.2-0.1,0.4-0.2,0.6-0.4c0.2-0.2,0.3-0.4,0.4-0.7c0.1-0.3,0.1-0.6,0.1-0.9c0-0.6-0.1-1.1-0.4-1.5
			C-18,962.5-18.5,962.3-19.1,962.3z"/>
		<path fill="#981D25" d="M-27.2,970.2C-27.2,970.2-27.2,970.3-27.2,970.2c-0.1,0.1-0.1,0.1-0.1,0.2c0,0.1,0,0.1,0.1,0.1
			c0,0,0.1,0,0.1,0c0.1,0,0.1,0,0.1,0c0,0,0.1-0.1,0.1-0.1c0,0,0.1-0.1,0.1-0.1c0,0,0-0.1,0-0.1v0c-0.1,0-0.2,0-0.3,0
			C-27.1,970.2-27.1,970.2-27.2,970.2z"/>
		<path fill="#981D25" d="M-22.5,953.2c-6.9,0-12.5,5.6-12.5,12.5c0,6.9,5.6,12.5,12.5,12.5c6.9,0,12.5-5.6,12.5-12.5
			S-15.6,953.2-22.5,953.2z M-28.3,966.4l1.3-1c0.3-0.2,0.6-0.5,0.8-0.7s0.4-0.4,0.6-0.5c0.1-0.2,0.3-0.3,0.3-0.5
			c0.1-0.1,0.1-0.3,0.1-0.4c0-0.3-0.1-0.5-0.3-0.7c-0.2-0.2-0.5-0.3-0.9-0.3c-0.3,0-0.6,0.1-0.9,0.2c-0.3,0.1-0.5,0.2-0.7,0.3
			l-0.2-1.4c0.3-0.1,0.6-0.3,1-0.3c0.4-0.1,0.8-0.1,1.2-0.1c0.9,0,1.5,0.2,2,0.6c0.4,0.4,0.7,0.9,0.7,1.5c0,0.5-0.1,0.9-0.4,1.3
			c-0.3,0.4-0.7,0.8-1.2,1.2l-1,0.8l0,0c0.4,0,0.8,0,1.3,0c0.5,0,1,0,1.6,0v1.5h-5.2L-28.3,966.4L-28.3,966.4z M-26,970.8
			c-0.1,0-0.2,0-0.3,0c-0.1,0-0.2,0-0.3,0c0-0.1,0-0.1,0-0.1c0,0,0-0.1,0-0.1l0,0c0,0.1-0.1,0.2-0.2,0.2c-0.1,0.1-0.2,0.1-0.3,0.1
			c-0.2,0-0.3,0-0.4-0.1c-0.1-0.1-0.1-0.2-0.1-0.3c0-0.1,0-0.2,0.1-0.3c0-0.1,0.1-0.1,0.2-0.2c0.1-0.1,0.2-0.1,0.3-0.1
			c0.1,0,0.2,0,0.4,0v-0.1c0-0.1,0-0.2-0.1-0.2c0,0-0.1-0.1-0.3-0.1c-0.1,0-0.2,0-0.2,0c-0.1,0-0.2,0.1-0.2,0.1l0-0.4
			c0.1,0,0.2-0.1,0.3-0.1c0.1,0,0.2,0,0.3,0c0.1,0,0.2,0,0.3,0c0.1,0,0.2,0.1,0.2,0.1c0.1,0.1,0.1,0.1,0.1,0.2c0,0.1,0,0.2,0,0.2
			v0.8c0,0,0.1,0,0.1,0c0.1,0,0.1,0,0.2,0L-26,970.8L-26,970.8L-26,970.8L-26,970.8z M-22.7,970.9h-0.4v-1.1c0-0.1,0-0.2,0-0.2
			c0-0.1-0.1-0.1-0.2-0.1c-0.1,0-0.1,0-0.2,0c0,0-0.1,0.1-0.1,0.1c0,0.1-0.1,0.1-0.1,0.2c0,0.1,0,0.1,0,0.2v0.8h-0.4v-1.3
			c0,0-0.1,0-0.1,0c-0.1,0-0.1,0-0.2,0v-0.3c0.1,0,0.2,0,0.3,0c0.1,0,0.2,0,0.4,0c0,0,0,0.1,0,0.1c0,0.1,0,0.1,0,0.2l0,0
			c0.1-0.1,0.1-0.2,0.2-0.2c0.1-0.1,0.2-0.1,0.3-0.1c0.1,0,0.2,0,0.2,0c0.1,0,0.1,0.1,0.1,0.1s0.1,0.1,0.1,0.2c0,0.1,0,0.1,0,0.2
			L-22.7,970.9L-22.7,970.9z M-19.3,970.4c0,0.1-0.1,0.2-0.2,0.3c-0.1,0.1-0.2,0.1-0.3,0.2s-0.2,0.1-0.3,0.1c-0.1,0-0.2,0-0.3,0
			c-0.1,0-0.2-0.1-0.2-0.1c-0.1-0.1-0.1-0.2-0.2-0.3s-0.1-0.2-0.1-0.4c0-0.1,0-0.2,0.1-0.4c0-0.1,0.1-0.2,0.2-0.3
			c0.1-0.1,0.2-0.1,0.3-0.2c0.1,0,0.2-0.1,0.3-0.1c0.2,0,0.4,0.1,0.6,0.2c0.1,0.1,0.2,0.3,0.2,0.6
			C-19.3,970.1-19.3,970.2-19.3,970.4z M-16.5,970.6c0,0.1-0.1,0.1-0.1,0.2c-0.1,0.1-0.1,0.1-0.2,0.1c-0.1,0-0.2,0-0.3,0
			c-0.1,0-0.1,0-0.2,0c-0.1,0-0.1,0-0.2,0l0-0.4c0.1,0,0.1,0,0.2,0c0.1,0,0.1,0,0.2,0c0.1,0,0.1,0,0.2,0c0,0,0.1-0.1,0.1-0.1
			c0-0.1,0-0.1-0.1-0.1c0,0-0.1-0.1-0.1-0.1c-0.1,0-0.1,0-0.2-0.1c-0.1,0-0.1,0-0.2-0.1c0,0-0.1-0.1-0.1-0.1c0-0.1-0.1-0.1-0.1-0.2
			c0-0.1,0-0.1,0-0.2c0-0.1,0.1-0.1,0.1-0.2c0.1,0,0.1-0.1,0.2-0.1c0.1,0,0.2,0,0.3,0c0.1,0,0.1,0,0.2,0c0.1,0,0.1,0,0.2,0l0,0.3
			c0,0-0.1,0-0.1,0c-0.1,0-0.1,0-0.2,0c-0.1,0-0.1,0-0.2,0c0,0-0.1,0.1-0.1,0.1c0,0,0,0.1,0.1,0.1c0,0,0.1,0.1,0.1,0.1
			c0.1,0,0.1,0,0.2,0.1c0.1,0,0.1,0.1,0.2,0.1c0.1,0,0.1,0.1,0.1,0.1c0,0.1,0.1,0.1,0.1,0.2C-16.4,970.4-16.4,970.5-16.5,970.6z
			 M-15.9,965.8c-0.2,0.4-0.5,0.8-0.8,1.1s-0.7,0.6-1.1,0.7c-0.4,0.2-0.9,0.2-1.4,0.2c-0.5,0-0.9-0.1-1.3-0.2
			c-0.4-0.1-0.8-0.3-1.1-0.6c-0.3-0.3-0.5-0.6-0.7-1.1c-0.2-0.4-0.3-1-0.3-1.6c0-0.6,0.1-1.1,0.3-1.5c0.2-0.4,0.5-0.8,0.8-1.1
			c0.3-0.3,0.7-0.6,1.1-0.7c0.4-0.2,0.9-0.2,1.4-0.2c0.6,0,1.2,0.1,1.6,0.3c0.4,0.2,0.8,0.5,1,0.8c0.3,0.3,0.5,0.7,0.6,1.1
			c0.1,0.4,0.2,0.8,0.2,1.3C-15.6,964.9-15.7,965.4-15.9,965.8z"/>
	</g>
	<path fill="#981D25" d="M-106.5,955.8c-14.1,0-25.5,11.4-25.5,25.5c0,14.1,11.4,25.5,25.5,25.5c14.1,0,25.5-11.4,25.5-25.5
		C-81,967.2-92.4,955.8-106.5,955.8z M-101.6,986.1v16.1h-9.8v-16.1h-15.5v-9.8h15.5v-16.1h9.8v16.1h15.5v9.8H-101.6z"/>
</g>
<g id="Eventick_1_">
	<g>
		<path fill="#981D25" d="M-130.2,930.6h-2v9h3.6v-3.9h2.9v6.8H-137v-2.9h1.5v-20.1h-1.5v-2.9h11.1v6.7h-2.9v-3.8h-3.4v8.2h2v-1.9
			h3.1v6.6h-3.1L-130.2,930.6L-130.2,930.6z"/>
		<path fill="#981D25" d="M-116.3,919.5h-1.5l2.7,14.8h0.2l2.6-14.8h-1.4v-2.9h6.3v2.9h-1.6l-4.2,23h-3.7l-4.1-23h-1.6v-2.9h6.3
			L-116.3,919.5L-116.3,919.5L-116.3,919.5z"/>
		<path fill="#981D25" d="M-97.4,930.6h-2v9h3.6v-3.9h2.9v6.8h-11.3v-2.9h1.5v-20.1h-1.5v-2.9H-93v6.7H-96v-3.8h-3.4v8.2h2v-1.9h3.1
			v6.6h-3.1V930.6L-97.4,930.6z"/>
		<path fill="#981D25" d="M-84.5,916.6l4.7,15.1v-12.2h-1.8v-2.9h6.6v2.9h-1.5v23h-3.3l-5.2-16.7v13.8h1.5v2.9h-6.3v-2.9h1.5v-20.1
			h-1.5v-2.9L-84.5,916.6L-84.5,916.6z"/>
		<path fill="#981D25" d="M-68.6,939.6h1.5v-20.1h-2.4v3.8h-2.9v-6.7h13.9v6.7h-2.9v-3.8h-2.4v20.1h1.8v2.9h-6.6L-68.6,939.6
			L-68.6,939.6L-68.6,939.6z"/>
		<path fill="#981D25" d="M-55.9,939.6h1.5v-20.1h-1.5v-2.9h6.3v2.9h-1.5v20.1h1.5v2.9h-6.3V939.6z"/>
		<path fill="#981D25" d="M-43.9,942.5l-2.5-2.9v-20.1l2.5-2.9h5.8l2.4,2.9v3.8H-39v-3.8h-4.2v20.1h4.2v-3.9h3.3v3.9l-2.4,2.9H-43.9
			L-43.9,942.5z"/>
		<path fill="#981D25" d="M-26.1,929.8l-2,4.1v5.6h1.5v2.9H-33v-2.9h1.5v-20.1H-33v-2.9h6.3v2.9h-1.5v8.3l4-8.3h-1.5v-2.9h5.7v2.9
			h-1.2l-2.8,5.8l3.7,14.3h1.3v2.9h-3.8L-26.1,929.8z"/>
	</g>
	<polygon fill="#981D25" points="-49.6,911 -52.6,909.3 -55.5,911 -55,907.3 -57.4,904.8 -54.1,904.2 -52.6,900.9 -51,904.2 
		-47.7,904.8 -50.1,907.3 	"/>
</g>
<g id="Guava_1_">
	<path id="a_9_" fill="#981D25" d="M-49,870.9c0,0,0.4,0,0.8,0c0.3,0,0.8,0,0.8,0c1.5,0.1,2.9,0.6,4,1.3c0.3,0.2,0.4,0.2,0.4,0.2
		v-1.2h5v19.6h-5v-1.2c0,0-0.2,0.1-0.2,0.1c-1.4,0.9-3,1.4-4.9,1.4c-2.1,0-3.8-0.6-5.1-1.5c-2.6-1.7-4.6-4.6-4.6-8.6
		c0-3,1.1-5.2,2.6-6.9C-53.7,872.4-51.8,871.2-49,870.9 M-51.6,877.9c-0.7,0.8-1.3,1.9-1.2,3.5c0.1,2,1.3,3.5,2.6,4.2
		c1.4,0.7,3.2,0.7,4.4,0.1c2-1,3.6-4.1,2.2-6.9c-0.8-1.5-2.6-2.9-5-2.6C-50,876.3-50.9,877-51.6,877.9"/>
	<path id="u_4_" fill="#981D25" d="M-115.1,871.2h5V882c0,0-0.1,1.7,0.7,2.7c0.9,1.2,2,1.4,2.7,1.4c0.7,0,2.2-0.4,3-1.4
		c0.7-1,0.6-2.7,0.6-2.7v-10.8h5v19.6h-5v-1.2c-1.3,0.7-2.8,1.7-4.8,1.5c-2.2-0.1-3.8-1.2-5-2.5c-1-1.2-1.9-2.9-2.2-4.8
		c0-0.1,0-0.8,0-0.9L-115.1,871.2L-115.1,871.2z"/>
	<path id="v_4_" fill="#981D25" d="M-71,871.2c1.5,4.2,3,8.3,4.4,12.5c0.4-1,0.8-2,1.2-3.1c1.1-3.1,2.2-6.2,3.3-9.4h5.3
		c-2.3,6.6-4.7,13-6.9,19.6h-5.7c-2.2-6.4-4.5-12.7-6.7-19.1c0-0.1,0-0.1-0.2-0.5L-71,871.2L-71,871.2L-71,871.2z"/>
	<path id="a_8_" fill="#981D25" d="M-88.1,870.9c0,0,0.4,0,0.8,0c0.3,0,0.8,0,0.8,0c1.5,0.1,2.9,0.6,4,1.3c0.3,0.2,0.5,0.2,0.5,0.2
		v-1.2h4.9v19.6h-4.9v-1.2c0,0-0.3,0.1-0.3,0.1c-1.4,0.9-3,1.4-4.9,1.4c-2.1,0-3.8-0.6-5.1-1.5c-2.6-1.7-4.6-4.6-4.6-8.6
		c0-3,1.1-5.2,2.6-6.9C-92.8,872.4-90.9,871.2-88.1,870.9 M-90.7,877.9c-0.7,0.8-1.3,1.9-1.2,3.5c0.1,2,1.3,3.5,2.6,4.2
		c1.4,0.7,3.2,0.7,4.4,0.1c2-1,3.6-4.1,2.2-6.9c-0.8-1.5-2.6-2.9-5-2.6C-89.1,876.3-90,877-90.7,877.9"/>
	<path id="g_4_" fill="#981D25" d="M-129.2,876.5c-1.4,0.7-2.6,2.2-2.7,4c-0.4,4.5,4.2,6.8,7.4,4.9c1.2-0.8,2.3-2.4,2.3-4.3
		c0-2.1-1.4-3.8-2.7-4.5c-0.7-0.4-1.8-0.6-2.9-0.4C-128.3,876.2-128.9,876.3-129.2,876.5 M-130.8,892.2c0,0,1.3,1.6,3.6,1.5
		c3.8,0,4.4-2.1,4.5-3.8c0,0,0-0.1,0-0.1l-0.1,0c-0.9,0.6-2.4,1.1-3.9,1.2c-1.6,0.1-3.6-0.2-5.4-1.2c-2.7-1.5-4.4-4.1-4.9-8
		c0,0,0-0.6,0-0.9c0-0.3,0-0.8,0-0.8c0.2-2.6,1.3-4.8,2.8-6.3c1.5-1.6,3.5-2.7,6-3c0,0,0.4,0,0.7,0c0.3,0,0.8,0,0.8,0
		c1.8,0.2,3.1,0.8,4.4,1.6v-1.3h5c0,0,0,16.9,0,18.1c0,2.7-0.5,4.8-2.2,6.5c-1.8,1.8-4.8,2.9-8.4,2.7c-2.6-0.2-4.7-1.3-6.2-2.8
		L-130.8,892.2z"/>
</g>
<g id="FOR_1_">
	<g>
		<g>
			<g>
				<g>
					<path fill="#981D25" d="M-86.9,842.1h-2.8v-12.1h-1.8v-2.5h1.8v-1.1c0-4.2,1.1-5.4,4.1-5.4c1,0,3.1,0.3,3.1,0.3l0,2.3
						c0,0-1.5-0.1-2.4-0.1c-1.5,0-1.9,0.6-1.9,2.9v1.1h4v2.5h-4V842.1L-86.9,842.1z"/>
				</g>
				<g opacity="0.2">
					<path fill="#981D25" d="M-86.9,842.1h-2.8v-12.1h-1.8v-2.5h1.8v-1.1c0-4.2,1.1-5.4,4.1-5.4c1,0,3.1,0.3,3.1,0.3l0,2.3
						c0,0-1.5-0.1-2.4-0.1c-1.5,0-1.9,0.6-1.9,2.9v1.1h4v2.5h-4V842.1L-86.9,842.1z"/>
				</g>
				<path fill="#981D25" d="M-80.6,827.4h2.8v1.7c0,0,2.1-1.6,4.8-2.1v2.9c-2.7,0.5-4.8,1.8-4.8,1.8v10.3h-2.8V827.4z"/>
				<g opacity="0.2">
					<path fill="#981D25" d="M-80.6,827.4h2.8v1.7c0,0,2.1-1.6,4.8-2.1v2.9c-2.7,0.5-4.8,1.8-4.8,1.8v10.3h-2.8V827.4z"/>
				</g>
				<path fill="#981D25" d="M-60.2,839.6l0.1,2.2c0,0-3.3,0.6-5.8,0.6c-4.4,0-6-2.5-6-7.5c0-5.5,2.3-7.7,6.2-7.7
					c4,0,6.1,2.1,6.1,6.8l-0.2,2h-9.3c0,2.6,0.9,3.9,3.6,3.9C-63.3,839.8-60.2,839.6-60.2,839.6z M-62.4,833.7c0-3-1-4.2-3.3-4.2
					c-2.3,0-3.4,1.2-3.5,4.2H-62.4z"/>
				<g opacity="0.2">
					<path fill="#981D25" d="M-60.2,839.6l0.1,2.2c0,0-3.3,0.6-5.8,0.6c-4.4,0-6-2.5-6-7.5c0-5.5,2.3-7.7,6.2-7.7
						c4,0,6.1,2.1,6.1,6.8l-0.2,2h-9.3c0,2.6,0.9,3.9,3.6,3.9C-63.3,839.8-60.2,839.6-60.2,839.6z M-62.4,833.7c0-3-1-4.2-3.3-4.2
						c-2.3,0-3.4,1.2-3.5,4.2H-62.4z"/>
				</g>
				<path fill="#981D25" d="M-55.7,827.4l3.2,12.3h1l3.2-12.3h2.8l-4,14.6h-5.2l-3.9-14.6H-55.7L-55.7,827.4z"/>
				<g opacity="0.2">
					<path fill="#981D25" d="M-55.7,827.4l3.2,12.3h1l3.2-12.3h2.8l-4,14.6h-5.2l-3.9-14.6H-55.7L-55.7,827.4z"/>
				</g>
				<path fill="#981D25" d="M-31.5,834.6c0,4.9-1.4,7.8-6.4,7.8c-5,0-6.4-2.7-6.4-7.8c0-4.9,1.6-7.5,6.4-7.5
					C-33.3,827.1-31.5,829.8-31.5,834.6z M-34.4,834.6c0-3.5-1-5-3.6-5c-2.8,0-3.6,1.4-3.6,5c0,3.6,0.6,5.2,3.6,5.2
					C-34.9,839.9-34.4,838.1-34.4,834.6z"/>
				<g opacity="0.2">
					<path fill="#981D25" d="M-31.5,834.6c0,4.9-1.4,7.8-6.4,7.8c-5,0-6.4-2.7-6.4-7.8c0-4.9,1.6-7.5,6.4-7.5
						C-33.3,827.1-31.5,829.8-31.5,834.6z M-34.4,834.6c0-3.5-1-5-3.6-5c-2.8,0-3.6,1.4-3.6,5c0,3.6,0.6,5.2,3.6,5.2
						C-34.9,839.9-34.4,838.1-34.4,834.6z"/>
				</g>
			</g>
		</g>
		<g>
			<g>
				<g>
					<path fill="#981D25" d="M-78,858.1c0,4.9-1.4,7.8-6.4,7.8c-5,0-6.5-2.7-6.5-7.8c0-4.9,1.6-7.5,6.5-7.5
						C-79.7,850.6-78,853.3-78,858.1z M-80.8,858.1c0-3.5-1-5-3.6-5c-2.8,0-3.6,1.4-3.6,5c0,3.6,0.6,5.2,3.6,5.2
						C-81.4,863.4-80.8,861.6-80.8,858.1z"/>
					<path fill="#981D25" d="M-75,865.6v-14.6h2.8v0.9c0,0,2.4-1.2,4.2-1.2c4.1,0,5,2.2,5,7.3v7.6h-2.8v-7.6c0-3.3-0.4-4.8-2.7-4.8
						c-1.6,0-3.8,0.9-3.8,0.9v11.5L-75,865.6L-75,865.6z"/>
					<path fill="#981D25" d="M-53,850.9h2.8v1.7c0,0,2.1-1.6,4.8-2.1v2.9c-2.7,0.5-4.8,1.8-4.8,1.8v10.3H-53V850.9z"/>
					<path fill="#981D25" d="M-32.7,862.1c0,1,0.6,1.3,1.4,1.4l-0.1,2.4c-2.1,0-2.9-0.3-3.7-1.1c0,0-2.6,1.1-5.1,1.1
						c-2.6,0-4.1-1.7-4.1-4.6c0-3,1.6-4.1,4.7-4.4l4.1-0.4v-1.1c0-1.5-0.8-2.2-2.2-2.2c-2.2,0-5.6,0.4-5.6,0.4l-0.1-2.5
						c0,0,3.7-0.6,5.9-0.6c3.1,0,4.8,1.4,4.8,4.8L-32.7,862.1L-32.7,862.1L-32.7,862.1z M-39.2,859c-1.5,0.1-2.2,0.9-2.2,2.2
						c0,1.5,0.6,2.3,1.8,2.3c1.9,0,4.2-0.7,4.2-0.7v-4L-39.2,859z"/>
					<path fill="#981D25" d="M-28.7,845h2.8v3.1h-2.8V845L-28.7,845z M-28.7,850.9h2.8v14.6h-2.8V850.9L-28.7,850.9z"/>
					<path fill="#981D25" d="M-22.2,844.7h2.8v20.9h-2.8V844.7z"/>
					<path fill="#981D25" d="M-5.5,853.6c0,0-3.4-0.5-5.2-0.5c-1.8,0-2.8,0.4-2.8,1.9c0,1.1,0.7,1.4,3.3,1.9
						c3.9,0.6,5.2,1.5,5.2,4.4c0,3.4-2.2,4.7-5.8,4.7c-2,0-5.4-0.6-5.4-0.6l0.1-2.4c0,0,3.5,0.5,5,0.5c2.2,0,3.2-0.5,3.2-2.1
						c0-1.2-0.6-1.5-3.2-1.9c-3.7-0.6-5.3-1.4-5.3-4.3c0-3.3,2.6-4.4,5.4-4.4c2.2,0,5.4,0.6,5.4,0.6L-5.5,853.6z"/>
				</g>
				<g>
					<path fill="#981D25" d="M-78,858.1c0,4.9-1.4,7.8-6.4,7.8c-5,0-6.4-2.7-6.4-7.8c0-4.9,1.6-7.5,6.4-7.5
						C-79.7,850.6-78,853.3-78,858.1z M-80.8,858.1c0-3.5-1-5-3.6-5c-2.8,0-3.6,1.4-3.6,5c0,3.6,0.6,5.2,3.6,5.2
						C-81.4,863.4-80.8,861.6-80.8,858.1z"/>
					<path fill="#981D25" d="M-75,865.6v-14.6h2.8v0.9c0,0,2.4-1.2,4.2-1.2c4.1,0,5,2.2,5,7.3v7.6h-2.8v-7.6c0-3.3-0.4-4.8-2.7-4.8
						c-1.6,0-3.8,0.9-3.8,0.9v11.5L-75,865.6L-75,865.6z"/>
					<path fill="#981D25" d="M-53,850.9h2.8v1.7c0,0,2.1-1.6,4.8-2.1v2.9c-2.7,0.5-4.8,1.8-4.8,1.8v10.3H-53V850.9L-53,850.9z"/>
					<path fill="#981D25" d="M-32.7,862.1c0,1,0.6,1.3,1.4,1.4l-0.1,2.4c-2.1,0-2.9-0.3-3.7-1.1c0,0-2.6,1.1-5.1,1.1
						c-2.6,0-4.1-1.7-4.1-4.6c0-3,1.6-4.1,4.7-4.4l4.1-0.4v-1.1c0-1.5-0.8-2.2-2.2-2.2c-2.2,0-5.6,0.4-5.6,0.4l-0.1-2.5
						c0,0,3.7-0.6,5.9-0.6c3.1,0,4.8,1.4,4.8,4.8L-32.7,862.1L-32.7,862.1L-32.7,862.1z M-39.2,859c-1.5,0.1-2.2,0.9-2.2,2.2
						c0,1.5,0.6,2.3,1.8,2.3c1.9,0,4.2-0.7,4.2-0.7v-4L-39.2,859z"/>
					<path fill="#981D25" d="M-28.7,845h2.8v3.1h-2.8V845L-28.7,845z M-28.7,850.9h2.8v14.6h-2.8V850.9L-28.7,850.9z"/>
					<path fill="#981D25" d="M-22.2,844.7h2.8v20.9h-2.8V844.7z"/>
					<path fill="#981D25" d="M-5.5,853.6c0,0-3.4-0.5-5.2-0.5c-1.8,0-2.8,0.4-2.8,1.9c0,1.1,0.7,1.4,3.3,1.9
						c3.9,0.6,5.2,1.5,5.2,4.4c0,3.4-2.2,4.7-5.8,4.7c-2,0-5.4-0.6-5.4-0.6l0.1-2.4c0,0,3.5,0.5,5,0.5c2.2,0,3.2-0.5,3.2-2.1
						c0-1.2-0.6-1.5-3.2-1.9c-3.7-0.6-5.3-1.4-5.3-4.3c0-3.3,2.6-4.4,5.4-4.4c2.2,0,5.4,0.6,5.4,0.6L-5.5,853.6z"/>
				</g>
				<g>
					<g opacity="0.4">
						<path fill="#981D25" d="M-78,858.1c0,4.9-1.4,7.8-6.4,7.8c-5,0-6.4-2.7-6.4-7.8c0-4.9,1.6-7.5,6.4-7.5
							C-79.7,850.6-78,853.3-78,858.1z M-80.8,858.1c0-3.5-1-5-3.6-5c-2.8,0-3.6,1.4-3.6,5c0,3.6,0.6,5.2,3.6,5.2
							C-81.4,863.4-80.8,861.6-80.8,858.1z"/>
					</g>
					<g opacity="0.4">
						<path fill="#981D25" d="M-75,865.6v-14.6h2.8v0.9c0,0,2.4-1.2,4.2-1.2c4.1,0,5,2.2,5,7.3v7.6h-2.8v-7.6c0-3.3-0.4-4.8-2.7-4.8
							c-1.6,0-3.8,0.9-3.8,0.9v11.5L-75,865.6L-75,865.6z"/>
					</g>
					<g opacity="0.4">
						<path fill="#981D25" d="M-53,850.9h2.8v1.7c0,0,2.1-1.6,4.8-2.1v2.9c-2.7,0.5-4.8,1.8-4.8,1.8v10.3H-53V850.9L-53,850.9z"/>
					</g>
					<g opacity="0.4">
						<path fill="#981D25" d="M-32.7,862.1c0,1,0.6,1.3,1.4,1.4l-0.1,2.4c-2.1,0-2.9-0.3-3.7-1.1c0,0-2.6,1.1-5.1,1.1
							c-2.6,0-4.1-1.7-4.1-4.6c0-3,1.6-4.1,4.7-4.4l4.1-0.4v-1.1c0-1.5-0.8-2.2-2.2-2.2c-2.2,0-5.6,0.4-5.6,0.4l-0.1-2.5
							c0,0,3.7-0.6,5.9-0.6c3.1,0,4.8,1.4,4.8,4.8L-32.7,862.1L-32.7,862.1L-32.7,862.1z M-39.2,859c-1.5,0.1-2.2,0.9-2.2,2.2
							c0,1.5,0.6,2.3,1.8,2.3c1.9,0,4.2-0.7,4.2-0.7v-4L-39.2,859z"/>
					</g>
					<g opacity="0.4">
						<path fill="#981D25" d="M-28.7,845h2.8v3.1h-2.8V845L-28.7,845z M-28.7,850.9h2.8v14.6h-2.8V850.9L-28.7,850.9z"/>
					</g>
					<g opacity="0.4">
						<path fill="#981D25" d="M-22.2,844.7h2.8v20.9h-2.8V844.7z"/>
					</g>
					<g opacity="0.4">
						<path fill="#981D25" d="M-5.5,853.6c0,0-3.4-0.5-5.2-0.5c-1.8,0-2.8,0.4-2.8,1.9c0,1.1,0.7,1.4,3.3,1.9
							c3.9,0.6,5.2,1.5,5.2,4.4c0,3.4-2.2,4.7-5.8,4.7c-2,0-5.4-0.6-5.4-0.6l0.1-2.4c0,0,3.5,0.5,5,0.5c2.2,0,3.2-0.5,3.2-2.1
							c0-1.2-0.6-1.5-3.2-1.9c-3.7-0.6-5.3-1.4-5.3-4.3c0-3.3,2.6-4.4,5.4-4.4c2.2,0,5.4,0.6,5.4,0.6L-5.5,853.6z"/>
					</g>
				</g>
			</g>
		</g>
	</g>
	<g>
		<polygon fill="#981D25" points="-107.4,832.8 -112.8,827.4 -117.5,827.4 -123.1,832.8 		"/>
		<polygon fill="#981D25" points="-108.4,857.1 -103,851.6 -103,846.9 -108.4,841.3 		"/>
		<polygon fill="#981D25" points="-114,834 -108.7,839.5 -103,845.2 -103,837.4 -106.3,834 		"/>
		<polygon fill="#981D25" points="-112.8,861.4 -109.6,858.3 -109.6,850.4 -120.7,861.4 		"/>
		<polygon fill="#981D25" points="-132.6,856 -127,861.4 -122.3,861.4 -116.8,856 		"/>
		<polygon fill="#981D25" points="-127,827.4 -130.4,830.7 -130.4,838.5 -124.9,833.1 -119.2,827.4 		"/>
		<polygon fill="#981D25" points="-131.3,849.5 -137,843.7 -137,851.6 -133.8,854.8 -125.9,854.8 		"/>
		<polygon fill="#981D25" points="-131.6,831.9 -137,837.4 -137,842.1 -131.6,847.6 		"/>
	</g>
</g>
<g id="livingsocial_1_">
	<g id="symbol_1_">
		<path fill="#981D25" d="M-15.9,1020.9c0.7,0.1,1.4,0.2,2.1,0.4c2.9,0.8,5.4,2.3,7.3,4.6c2.5,3,1.9,6.9-0.7,9.3
			c-1.4,1.3-3.1,2-5.1,2.2c-1.3,0.1-2.5,0.1-3.8-0.2c-0.8-0.2-1.5-0.6-2.3-0.9c0,0,0,0,0,0c0-0.9-0.3-1.7-0.6-2.5
			c-0.3-0.6-0.5-1.3-1.1-1.8c0,0,0,0,0-0.1c0.2-0.4,0.4-0.7,0.5-1.1c0.3-1.1,0.4-2.3,0.3-3.5c-0.2-1.9-1.1-3-3-3.5
			c0.5-0.6,1-1.3,1.6-1.8c0.8-0.6,1.8-1,2.8-1.1c0.1,0,0.2,0,0.3-0.1C-17,1020.9-16.5,1020.9-15.9,1020.9z"/>
		<path fill="#981D25" d="M-18.4,1036.2C-18.4,1036.2-18.4,1036.2-18.4,1036.2c0,1.1-0.3,1.9-1,2.6c-0.8,0.8-1.6,1.6-2.7,2
			c-1.3,0.5-2.5,0.4-3.7-0.3c0-0.4,0-0.8,0-1.2c0-0.7-0.4-1.2-1-1.4c-0.4-0.1-0.7-0.2-1.1-0.2c-0.3-0.9-0.1-1.9,0.2-2.8
			c0.3-0.8,0.6-1.5,1.2-2.1c0.4,0.2,0.8,0.4,1.3,0.6c0.8,0.2,1.6,0.1,2.3,0c0.4-0.1,0.8-0.1,1.2-0.3c0,0,0,0,0.1,0
			c0.2,0.4,0.5,0.7,0.8,1C-20.3,1035.1-19.4,1035.8-18.4,1036.2z"/>
		<path fill="#981D25" d="M-26.6,1032.9c-1.1-0.7-1.7-1.7-2.1-2.9c-0.4-1.1-0.4-2.3-0.2-3.5c0.2-1.1,0.9-1.8,1.9-2.2
			c1.5-0.5,3-0.7,4.6-0.5c0,0,0.1,0,0.1,0.1c-0.2,0.5-0.6,0.9-0.8,1.4c-0.5,1-0.7,2.1-0.6,3.2c0,0.9,0.3,1.7,0.6,2.5
			c-0.8,0.1-1.5,0.5-2.2,0.9C-25.9,1032.1-26.2,1032.5-26.6,1032.9z"/>
		<path fill="#981D25" d="M-25.9,1040.5c-0.1,0.9-0.6,1.4-1.4,1.6c-2.2,0.5-3.2-1.7-2.7-3.2c0.1-0.4,0.4-0.7,0.8-0.8
			c0.4-0.2,0.8-0.2,1.3-0.3C-27.7,1039.1-27,1039.9-25.9,1040.5z"/>
		<path fill="#981D25" d="M-20.1,1031.9c-0.4,0.6-1,1-1.7,1.3c0,0,0,0-0.1,0c-0.5-0.7-1-1.5-1.3-2.3c1-0.2,1.9,0,2.7,0.6
			C-20.3,1031.7-20.2,1031.8-20.1,1031.9C-20.1,1031.9-20.1,1031.9-20.1,1031.9z"/>
	</g>
	<path id="type_1_" fill="#981D25" d="M-82.5,1070.5c-0.3-0.1-0.6-0.1-0.9-0.2c-3.6-0.8-4-4.8-2.4-6.7c0.7-0.8,1.5-1.4,2.4-2
		c0.2-0.1,0.4-0.3,0.7-0.4c-0.6-0.1-1.1-0.2-1.6-0.4c-1.5-0.6-2.4-1.8-2.9-3.2c-0.8-2.4-1-4.9,0-7.3c1-2.6,2.9-4,5.6-4.4
		c1.8-0.3,3.6,0.1,5.3,0.6c0.6,0.2,0.8,0.6,0.9,1.1c0.1,0.3,0.1,0.6,0.1,0.9c0,4.5,0,8.9,0,13.4c0,1.7-0.1,3.4-0.7,5.1
		c-0.8,2.3-2.5,3.5-4.9,3.7c-0.1,0-0.1,0-0.1,0.1C-81.6,1070.5-82,1070.5-82.5,1070.5z M-77.7,1052c0-1.3,0-2.4,0-3.5
		c0-0.2-0.1-0.3-0.3-0.4c-0.9-0.3-1.8-0.4-2.8-0.4c-1.8,0-3,0.9-3.8,2.5c-0.6,1.3-0.7,2.7-0.7,4c0,1.1,0.2,2.2,0.7,3.3
		c0.9,2,3.8,2.4,5.2,1c1-0.9,1.5-2.1,1.6-3.4C-77.7,1054-77.8,1052.9-77.7,1052z M-77.8,1059.3c-1.4,1.2-2.8,2.4-4.1,3.5
		c-0.8,0.7-1.5,1.3-2,2.2c-0.6,1.1-0.3,2.5,0.6,3.1c1.2,0.7,3.1,0.5,4.1-0.5c0.5-0.6,0.8-1.2,1-2c0.2-0.8,0.3-1.6,0.3-2.4
		C-77.8,1062-77.8,1060.7-77.8,1059.3z M-137,1061c0.2,0.4,0.4,0.8,0.9,0.9c0.8,0.2,1.7-0.3,1.7-1.4c0-6.5,0-13.1,0-19.6
		c0-0.1,0-0.3,0-0.4c-0.1-0.6-0.6-1-1.2-1.1c-0.7,0-1.1,0.4-1.4,1C-137,1047.3-137,1054.1-137,1061z M-14,1059
		c-0.4,0.7-0.9,1.3-1.5,1.8c-2.9,2.3-7.1,1-8.4-2.6c-0.6-1.7-0.7-3.5-0.5-5.3c0.1-1.3,0.4-2.6,1.1-3.8c1.1-2,2.8-3,4.9-3.4
		c1.9-0.3,3.8,0,5.6,0.5c0.8,0.2,1.1,0.6,1.1,1.4c0,0.2,0,0.4,0,0.6c0,4,0,8,0,11.9c0,0.2,0,0.4-0.1,0.6c-0.2,0.6-0.7,0.9-1.4,0.9
		c-0.6-0.1-1-0.6-1-1.2c0-0.2,0-0.5,0-0.7C-14,1059.6-14,1059.4-14,1059z M-14.2,1051.7c0-1.1,0-2.1,0-3.2c0-0.2-0.1-0.3-0.3-0.4
		c-1-0.3-2-0.4-3-0.4c-0.6,0-1.2,0.1-1.7,0.4c-1.3,0.6-1.9,1.7-2.3,3c-0.5,1.6-0.5,3.3-0.3,5c0.1,0.9,0.3,1.8,0.8,2.5
		c0.4,0.7,1,1.1,1.8,1.2c0.9,0.1,1.8-0.1,2.5-0.6c1.6-1.1,2.3-2.7,2.4-4.6C-14.1,1053.7-14.2,1052.7-14.2,1051.7z M-60.1,1053.8
		c0-1.6,0.2-3.1,0.8-4.4c0.9-2,2.5-3.2,4.7-3.6c1.5-0.3,2.9-0.2,4.3,0.3c1.7,0.7,2.7,1.9,3.2,3.6c0.8,2.7,0.8,5.5-0.3,8.1
		c-1,2.5-3.3,4-6,4c-1.4,0-2.8-0.2-4-1.1c-1.4-1-2.1-2.3-2.5-3.9C-60,1055.9-60.1,1054.8-60.1,1053.8z M-57.5,1053.3
		c0,1.6,0.2,3,0.6,4c0.9,2.5,3,2.9,4.7,2.4c1.3-0.4,2.1-1.4,2.5-2.6c0.8-2.1,0.7-4.3,0.1-6.4c-0.3-0.9-0.7-1.6-1.4-2.2
		c-1.4-1.1-4.3-1-5.6,1.3C-57.3,1050.9-57.5,1052.2-57.5,1053.3z M-101,1046.9c0-0.6-0.5-1.1-1-1.1c-0.7-0.1-1.2,0.2-1.4,0.8
		c-0.1,0.2-0.1,0.4-0.1,0.6c0,4.1,0,8.2,0,12.4c0,0.3,0,0.6,0,0.9c0,0.8,0.7,1.4,1.5,1.3c0.7-0.1,1.1-0.6,1.1-1.4c0-2.5,0-5,0-7.6
		c0-0.8,0.1-1.5,0.4-2.3c0.7-1.5,1.7-2.7,3.5-2.8c1.3-0.1,2.5,0.4,3.1,2c0.2,0.5,0.2,1.1,0.2,1.6c0,2.9,0,5.9,0,8.8
		c0,0.4,0,0.8,0.3,1.1c0.4,0.4,0.9,0.6,1.4,0.4c0.5-0.2,0.9-0.7,0.9-1.3c0-3,0-6.1,0-9.1c0-0.5,0-0.9-0.1-1.4
		c-0.2-1.8-1-3.1-2.8-3.8c-1-0.4-2-0.5-3-0.4c-1.6,0.1-3,0.8-3.9,2.2c0,0.1,0,0.1-0.2,0.1C-101,1047.6-101,1047.3-101,1046.9z
		 M-65.8,1061.7c2-0.5,3.2-1.8,3.5-3.6c0.3-2.1-0.4-3.6-2.3-4.6c-0.7-0.4-1.6-0.7-2.4-1c-0.7-0.2-1.4-0.5-2.1-0.9
		c-0.8-0.5-1.1-1.3-0.9-2.2c0.2-0.9,0.8-1.4,1.6-1.6c1.4-0.3,2.7-0.1,3.9,0.6c0.2,0.1,0.4,0.2,0.6,0.3c0.7,0.2,1.3-0.2,1.3-0.9
		c0-0.5-0.2-0.9-0.7-1.1c-1.8-1.1-3.7-1.3-5.8-0.9c-1.8,0.4-3.4,1.6-3.5,4c-0.1,1.6,0.4,2.8,1.8,3.6c0.7,0.5,1.6,0.7,2.4,1
		c0.8,0.3,1.7,0.5,2.4,1c0.9,0.5,1.2,1.3,1.1,2.3c-0.1,1-0.7,1.7-1.7,1.9c-1.1,0.3-2.2,0.2-3.2-0.2c-0.6-0.2-1.2-0.5-1.8-0.8
		c-0.8-0.3-1.5,0.1-1.5,1c0,0.5,0.3,0.8,0.8,1.1c1.4,0.8,2.9,1.2,4.5,1.1C-67,1061.9-66.4,1061.8-65.8,1061.7z M-41.4,1050.9
		c0.4-1.4,1.2-2.6,2.8-3c1.4-0.4,2.8-0.1,4,0.9c0.2,0.2,0.5,0.4,0.7,0.5c0.8,0.3,1.5-0.2,1.5-1c0-0.4-0.2-0.8-0.5-1
		c-1.3-1.1-2.8-1.5-4.5-1.6c-3-0.1-5.4,1.5-6.4,4.3c-0.9,2.7-0.9,5.5,0.1,8.2c0.7,1.8,2,3,3.9,3.5c2.1,0.5,4.1,0.3,6.1-0.6
		c0.4-0.2,0.8-0.4,1.1-0.7c0.4-0.4,0.4-0.9,0.2-1.3c-0.2-0.4-0.6-0.5-1.1-0.4c-0.3,0.1-0.6,0.2-0.9,0.4c-0.8,0.5-1.7,0.7-2.6,0.8
		c-2,0.1-3.5-0.8-4.2-2.7c-0.4-1.1-0.5-2.2-0.5-3.4C-41.8,1052.8-41.7,1051.8-41.4,1050.9z M-119.1,1056.4c-0.9-2.4-1.8-4.9-2.7-7.3
		c-0.3-0.8-0.6-1.7-0.9-2.5c-0.3-0.6-0.9-0.9-1.6-0.7c-0.6,0.2-0.9,0.7-0.8,1.4c0,0.2,0.1,0.4,0.2,0.5c1.5,4.1,3,8.1,4.5,12.2
		c0.2,0.4,0.3,0.9,0.5,1.3c0.4,0.6,1.2,0.6,1.7,0.1c0.2-0.2,0.3-0.5,0.4-0.7c1.2-3.3,2.5-6.7,3.7-10c0.4-1.1,0.8-2.1,1.2-3.2
		c0.3-0.9-0.1-1.6-1-1.7c-0.6-0.1-1.1,0.3-1.3,0.9c-0.5,1.5-1.1,3-1.6,4.5c-0.6,1.8-1.3,3.6-2,5.5
		C-119,1056.5-119,1056.4-119.1,1056.4z M-5,1040.9c0-0.8-0.5-1.4-1.3-1.4c-0.8,0-1.3,0.6-1.3,1.4c0,6.6,0,13.1,0,19.7
		c0,0.2,0,0.5,0.2,0.7c0.3,0.5,0.9,0.8,1.4,0.7c0.6-0.1,1-0.6,1-1.3c0-3.3,0-6.6,0-9.9C-5,1047.4-5,1044.1-5,1040.9z M-127.5,1047.2
		c0-0.9-0.5-1.4-1.3-1.4c-0.8,0-1.3,0.6-1.3,1.4c0,4.4,0,8.8,0,13.2c0,0.8,0.6,1.4,1.3,1.4c0.8,0,1.3-0.6,1.3-1.4c0-2.2,0-4.4,0-6.6
		C-127.5,1051.6-127.5,1049.4-127.5,1047.2z M-107.4,1049c0-0.7,0-1.4,0-2.1c0-0.8-0.8-1.4-1.6-1.2c-0.6,0.2-1,0.7-1,1.4
		c0,4.4,0,8.8,0,13.2c0,0.1,0,0.3,0,0.4c0.1,0.7,0.8,1.1,1.5,1c0.7-0.2,1-0.6,1-1.4c0-2.2,0-4.4,0-6.5
		C-107.4,1052.2-107.4,1050.6-107.4,1049z M-30.2,1060.4c0,0.1,0,0.3,0,0.4c0.2,0.7,0.7,1.1,1.4,1c0.7-0.1,1.1-0.6,1.1-1.4
		c0-4.4,0-8.8,0-13.2c0-0.9-0.5-1.4-1.3-1.4c-0.8,0-1.3,0.6-1.3,1.4c0,2.2,0,4.4,0,6.6S-30.2,1058.2-30.2,1060.4z"/>
</g>
<g id="SendGrid_1_">
	<path fill="#981D25" d="M-83.2,1097.9c-0.2,0.5-0.4,0.9-0.6,1.4c-0.4-0.2-0.9-0.4-1.4-0.5c-0.5-0.1-1.1-0.2-1.8-0.2
		c-0.3,0-0.6,0-0.9,0.1c-0.3,0.1-0.6,0.1-0.9,0.3c-0.3,0.1-0.5,0.3-0.6,0.5c-0.2,0.2-0.3,0.5-0.3,0.9c0,0.5,0.2,1,0.6,1.3
		c0.4,0.3,0.9,0.7,1.5,1c0.5,0.3,1,0.6,1.5,0.9c0.4,0.3,0.8,0.6,1.2,1c0.3,0.3,0.6,0.7,0.8,1.1c0.2,0.4,0.3,0.9,0.3,1.5
		c0,0.8-0.1,1.5-0.4,2.3c-0.3,0.7-0.7,1.4-1.3,1.9c-0.6,0.5-1.4,1-2.3,1.3c-0.9,0.3-2,0.5-3.3,0.5c-1.5,0-2.9-0.3-4.3-0.8
		c0.1-0.5,0.2-0.9,0.3-1.4c0.2-0.5,0.4-1,0.6-1.5c0.6,0.2,1.2,0.4,1.8,0.6c0.6,0.2,1.2,0.2,1.8,0.2c0.5,0,0.9-0.1,1.3-0.2
		c0.4-0.1,0.8-0.3,1.1-0.5c0.3-0.2,0.5-0.5,0.7-0.8c0.2-0.3,0.3-0.7,0.3-1.1c0-0.3-0.1-0.6-0.2-0.8c-0.1-0.2-0.3-0.4-0.5-0.6
		c-0.2-0.2-0.5-0.4-0.8-0.5c-0.3-0.2-0.6-0.3-0.9-0.5c-1-0.6-1.8-1.2-2.4-1.8c-0.6-0.6-0.9-1.4-0.9-2.2c0-0.8,0.1-1.6,0.4-2.2
		c0.3-0.7,0.7-1.2,1.3-1.7c0.5-0.4,1.2-0.8,2-1c0.8-0.2,1.6-0.4,2.6-0.4c0.9,0,1.6,0.1,2.2,0.2c0.6,0.1,1.3,0.3,2,0.6
		C-82.9,1097-83,1097.5-83.2,1097.9L-83.2,1097.9z M-72.5,1105.3c-0.3,0.5-0.8,0.9-1.3,1.3c-0.5,0.4-1.2,0.6-1.9,0.9
		c-0.7,0.2-1.4,0.4-2.1,0.5l-1.6,0.3c0.1,0.7,0.3,1.3,0.7,1.7c0.4,0.4,1,0.5,1.8,0.5c0.6,0,1.2-0.1,1.6-0.2c0.5-0.1,1-0.3,1.5-0.5
		c0.2,0.3,0.4,0.7,0.5,1.1c0.1,0.4,0.1,0.9,0.1,1.4c-0.3,0.1-0.6,0.2-0.9,0.3c-0.3,0.1-0.7,0.2-1.1,0.3c-0.4,0.1-0.7,0.1-1.1,0.2
		c-0.4,0-0.7,0.1-1,0.1c-0.9,0-1.8-0.1-2.4-0.3c-0.7-0.2-1.2-0.6-1.7-1c-0.4-0.4-0.8-0.9-1-1.6c-0.2-0.6-0.3-1.3-0.3-2
		c0-0.9,0.2-1.9,0.5-2.8c0.3-0.9,0.8-1.7,1.4-2.5c0.6-0.7,1.3-1.3,2.2-1.7c0.9-0.4,1.8-0.7,2.9-0.7c0.5,0,1,0.1,1.4,0.2
		c0.4,0.1,0.8,0.3,1.1,0.6c0.3,0.3,0.6,0.6,0.8,0.9c0.2,0.4,0.3,0.8,0.3,1.3C-72.1,1104.2-72.2,1104.8-72.5,1105.3L-72.5,1105.3z
		 M-75.5,1103.2c-0.2-0.2-0.5-0.3-0.8-0.3c-0.4,0-0.8,0.1-1.1,0.3c-0.3,0.2-0.6,0.4-0.9,0.7c-0.2,0.3-0.5,0.6-0.6,1
		c-0.2,0.4-0.3,0.8-0.4,1.1l1.2-0.2c0.6-0.1,1.1-0.2,1.4-0.4c0.4-0.1,0.7-0.3,0.9-0.5c0.2-0.2,0.4-0.4,0.4-0.5
		c0.1-0.2,0.1-0.4,0.1-0.6C-75.2,1103.7-75.3,1103.4-75.5,1103.2L-75.5,1103.2z M-59.9,1104.4c0,0.3-0.1,0.5-0.1,0.8l-1.4,7.6
		c-0.6,0.1-1.2,0.1-1.7,0.1c-0.5,0-1.1,0-1.6-0.1l1.3-7.4c0.1-0.3,0.1-0.6,0.1-0.9c0-0.5-0.1-0.8-0.3-1c-0.2-0.2-0.5-0.3-0.9-0.3
		c-0.2,0-0.5,0.1-0.7,0.2c-0.3,0.1-0.5,0.3-0.8,0.7c-0.3,0.4-0.6,0.8-0.8,1.5c-0.3,0.6-0.5,1.5-0.7,2.5l-0.9,4.7
		c-0.6,0.1-1.2,0.1-1.7,0.1c-0.5,0-1.1,0-1.6-0.1l1.3-6.9c0.2-1,0.3-1.8,0.4-2.6c0.1-0.8,0.1-1.3,0.1-1.8c0-0.2,0-0.3,0-0.4
		c0-0.1,0-0.2,0-0.4c0.5-0.1,1-0.1,1.5-0.1c0.2,0,0.5,0,0.7,0c0.2,0,0.5,0.1,0.7,0.1c0,0.1,0.1,0.3,0.1,0.4c0,0.2,0,0.4,0,0.8
		c0,0.1,0,0.3,0,0.4c0,0.1,0,0.3-0.1,0.5c0.2-0.3,0.4-0.6,0.7-0.9c0.3-0.3,0.6-0.6,1-0.8c0.4-0.2,0.7-0.4,1.1-0.5
		c0.4-0.1,0.8-0.2,1.2-0.2c0.9,0,1.7,0.2,2.2,0.7c0.5,0.5,0.8,1.3,0.8,2.4C-59.8,1103.9-59.8,1104.1-59.9,1104.4L-59.9,1104.4z
		 M-46.7,1099.2l-1.5,8.4c-0.2,1-0.3,1.8-0.4,2.6c-0.1,0.8-0.1,1.3-0.1,1.8c0,0.2,0,0.3,0,0.4c0,0.1,0,0.2,0,0.4
		c-0.5,0.1-1,0.1-1.5,0.1c-0.4,0-0.9,0-1.4-0.1c0-0.1-0.1-0.3-0.1-0.4c0-0.2,0-0.4,0-0.8c0-0.1,0-0.3,0-0.5c0-0.2,0-0.4,0.1-0.6
		c-0.2,0.4-0.5,0.7-0.8,1c-0.3,0.3-0.6,0.6-1,0.8c-0.4,0.2-0.8,0.4-1.2,0.6c-0.4,0.1-0.9,0.2-1.3,0.2c-1,0-1.8-0.3-2.3-1
		c-0.5-0.6-0.8-1.5-0.8-2.6c0-1.2,0.2-2.3,0.5-3.4c0.3-1.1,0.9-2,1.6-2.9c0.7-0.8,1.5-1.5,2.6-2c1-0.5,2.2-0.8,3.6-0.8
		c0.1,0,0.2,0,0.3,0c0.1,0,0.2,0,0.3,0c0.2-0.9,0.3-1.7,0.4-2.3c0.1-0.6,0.1-1.2,0.1-1.6c0-0.2,0-0.3,0-0.4c0-0.1,0-0.2,0-0.4
		c0.3,0,0.6-0.1,0.9-0.1c0.3,0,0.6,0,0.9,0c0.4,0,0.9,0,1.5,0.1c0.1,0.2,0.1,0.5,0.1,0.9C-46.4,1097.4-46.5,1098.2-46.7,1099.2
		L-46.7,1099.2z M-51.1,1103.2c-0.1,0-0.3,0-0.4,0c-0.8,0-1.4,0.2-1.9,0.6c-0.5,0.4-0.9,0.8-1.3,1.4c-0.3,0.6-0.6,1.2-0.7,1.8
		c-0.2,0.6-0.2,1.2-0.2,1.8c0,1.1,0.4,1.7,1.1,1.7c0.7,0,1.4-0.4,2.1-1.4c0.6-0.9,1.1-2.2,1.4-3.8l0.3-2
		C-50.9,1103.3-51,1103.2-51.1,1103.2L-51.1,1103.2z M-33.4,1097.9c-0.1,0.4-0.4,0.9-0.6,1.4c-0.5-0.2-0.9-0.3-1.3-0.4
		c-0.4-0.1-0.8-0.1-1.2-0.1c-1,0-1.9,0.2-2.7,0.7c-0.7,0.4-1.3,1-1.8,1.8c-0.5,0.7-0.8,1.5-1,2.5c-0.2,0.9-0.3,1.8-0.3,2.8
		c0,1.4,0.3,2.3,1,2.9c0.7,0.6,1.5,0.9,2.6,0.9c0.2,0,0.5,0,0.7,0c0.3,0,0.5-0.1,0.6-0.1l1-5.8c0.3-0.1,0.6-0.1,0.9-0.1
		c0.3,0,0.6,0,0.8,0s0.5,0,0.8,0c0.3,0,0.6,0.1,0.9,0.1l-1.5,8.3c-0.7,0.2-1.4,0.4-2.3,0.5c-0.9,0.1-1.6,0.1-2.4,0.1
		c-1.1,0-2.1-0.2-3-0.5c-0.9-0.3-1.6-0.8-2.1-1.3c-0.6-0.6-1-1.3-1.3-2c-0.3-0.8-0.4-1.6-0.4-2.5c0-1.5,0.2-2.9,0.7-4.2
		c0.4-1.3,1.1-2.5,1.9-3.5c0.8-1,1.8-1.8,2.9-2.3c1.1-0.6,2.4-0.8,3.8-0.8c0.7,0,1.4,0,2,0.1c0.6,0.1,1.2,0.3,1.7,0.5
		C-33.1,1097-33.3,1097.4-33.4,1097.9L-33.4,1097.9z M-23.9,1102.5c-0.1,0.5-0.3,0.9-0.4,1.2c-0.1,0-0.2,0-0.3,0c-0.1,0-0.2,0-0.4,0
		c-0.6,0-1.2,0.1-1.6,0.3c-0.4,0.2-0.8,0.5-1,0.9c-0.3,0.4-0.5,0.9-0.6,1.4c-0.2,0.6-0.3,1.2-0.4,1.9l-0.9,4.7
		c-0.6,0.1-1.2,0.1-1.7,0.1c-0.5,0-1.1,0-1.6-0.1l1.3-6.9c0.2-1,0.3-1.8,0.4-2.6c0.1-0.8,0.1-1.3,0.1-1.8c0-0.2,0-0.3,0-0.4
		c0-0.1,0-0.2,0-0.4c0.5-0.1,1-0.1,1.5-0.1c0.2,0,0.5,0,0.7,0c0.2,0,0.5,0.1,0.7,0.1c0,0.1,0.1,0.3,0.1,0.4c0,0.2,0,0.4,0,0.8
		c0,0.1,0,0.3,0,0.4c0,0.1,0,0.3-0.1,0.5c0.2-0.3,0.4-0.6,0.6-0.8c0.2-0.3,0.5-0.5,0.8-0.7c0.3-0.2,0.6-0.4,1-0.5
		c0.3-0.1,0.7-0.2,1.1-0.2c0.3,0,0.6,0,0.8,0.1c0,0.1,0,0.1,0,0.2c0,0.1,0,0.1,0,0.2C-23.7,1101.6-23.8,1102.1-23.9,1102.5
		L-23.9,1102.5z M-19.9,1112.8c-0.6,0.1-1.1,0.1-1.7,0.1c-0.5,0-1,0-1.6-0.1l1.7-9.5h-1.5c0,0,0-0.1,0-0.1c0,0,0-0.1,0-0.2
		c0-0.4,0-0.8,0.1-1.1c0.1-0.3,0.2-0.7,0.4-1.1h4.7L-19.9,1112.8L-19.9,1112.8z M-5.3,1099.2l-1.5,8.4c-0.2,1-0.3,1.8-0.4,2.6
		c-0.1,0.8-0.1,1.3-0.1,1.8c0,0.2,0,0.3,0,0.4c0,0.1,0,0.2,0,0.4c-0.5,0.1-1,0.1-1.5,0.1c-0.4,0-0.9,0-1.4-0.1
		c0-0.1-0.1-0.3-0.1-0.4c0-0.2,0-0.4,0-0.8c0-0.1,0-0.3,0-0.5c0-0.2,0-0.4,0.1-0.6c-0.2,0.4-0.5,0.7-0.8,1c-0.3,0.3-0.6,0.6-1,0.8
		c-0.4,0.2-0.8,0.4-1.2,0.6c-0.4,0.1-0.9,0.2-1.3,0.2c-1,0-1.8-0.3-2.3-1c-0.5-0.6-0.8-1.5-0.8-2.6c0-1.2,0.2-2.3,0.5-3.4
		c0.4-1.1,0.9-2,1.6-2.9c0.7-0.8,1.5-1.5,2.6-2c1-0.5,2.2-0.8,3.6-0.8c0.1,0,0.2,0,0.3,0c0.1,0,0.2,0,0.3,0c0.2-0.9,0.3-1.7,0.4-2.3
		c0.1-0.6,0.1-1.2,0.1-1.6c0-0.2,0-0.3,0-0.4c0-0.1,0-0.2,0-0.4c0.3,0,0.6-0.1,0.9-0.1c0.3,0,0.6,0,0.9,0c0.4,0,0.9,0,1.5,0.1
		c0.1,0.2,0.1,0.5,0.1,0.9C-5,1097.4-5.1,1098.2-5.3,1099.2L-5.3,1099.2z M-9.7,1103.2c-0.1,0-0.3,0-0.4,0c-0.7,0-1.4,0.2-1.9,0.6
		c-0.5,0.4-0.9,0.8-1.3,1.4c-0.3,0.6-0.6,1.2-0.7,1.8c-0.1,0.6-0.2,1.2-0.2,1.8c0,1.1,0.4,1.7,1.1,1.7c0.7,0,1.4-0.4,2.1-1.4
		c0.6-0.9,1.1-2.2,1.4-3.8l0.4-2C-9.4,1103.3-9.6,1103.2-9.7,1103.2L-9.7,1103.2z"/>
	<g>
		<path fill="#981D25" d="M-99.1,1101.7C-99.1,1101.7-99.1,1101.7-99.1,1101.7c-0.1-0.3-0.2-0.5-0.3-0.7c-0.2-0.2-0.4-0.4-0.6-0.5
			c-0.1-0.1-0.2-0.1-0.3-0.2c-0.1,0-0.1-0.1-0.2-0.1c-0.4-0.1-0.8-0.2-1.2-0.2c-1,0-2.1,0.3-3.1,0.9c-3.2,1.9-6.3,6.4-7.7,8.6
			l0.1-0.1l-0.6,1c2.5-0.1,8.2-0.3,11.3-2.4C-98.2,1105.4-98.8,1102.6-99.1,1101.7z"/>
		<path fill="#981D25" d="M-131.1,1106c3.5-2.1,7.1-7.5,8.3-9.5c-3.2,0.1-8.5,0.5-11.4,2.4c-2,1.2-3.5,4.1-2.6,6.3c0,0,0,0,0,0.1
			c0.1,0.2,0.2,0.4,0.3,0.7c0.6,0.8,1.6,1,2.3,1C-133.2,1106.9-132,1106.5-131.1,1106z"/>
		<path fill="#981D25" d="M-110.2,1105.2c-2.6-0.9-5.5-1.7-7.9-2.6c0-1.9-0.1-4.3-0.1-6.4c0-0.1,0-0.2,0-0.3c0-0.1,0-0.2,0-0.3
			c-0.1-1.8-0.1-3.5-0.2-4.4c-1.3,1.6-2.4,3.3-3.2,4.6c-0.1,0.1-0.1,0.2-0.2,0.3c0,0-0.1,0.1-0.1,0.2c0,0,0,0.1-0.1,0.1
			c-0.4,0.6-1.7,2.9-3.6,5.3c0.1,0.1,3.1,5.2,5.5,9.2c0.1,0.1,0.1,0.2,0.2,0.3c0.1,0.1,0.1,0.2,0.2,0.3c1.2,2.1,2.2,3.7,2.5,4.1
			l-8.3-2.6l-0.4-0.1l-0.4-0.1l-0.4-0.1c0.4-3.2,0.9-9.9,1.2-10.9c-1.5,1.8-3.2,3.7-5.1,4.8c-1.1,0.6-2.3,1-3.4,1
			c-0.7,0-1.3-0.1-1.8-0.4c-0.1,0-0.1-0.1-0.2-0.1c1.7,3.6,4.2,7.9,6.5,11c0.2,0.3,0.4,0.6,0.6,0.9c0,0,0,0,0,0
			c0.9,1.1,2.2,1.7,3.8,1.7c1,0,2-0.2,3.1-0.7c3.4-1.6,6.5-6.6,7.8-8.7c0,0,0,0,0,0c0.1-0.1,0.1-0.2,0.2-0.3c0,0,0-0.1,0.1-0.1l0,0
			c0-0.1,0.1-0.1,0.1-0.2c0.1-0.2,0.3-0.5,0.6-1c0.4-0.7,1.1-1.7,2-2.9C-110.9,1106.1-110.6,1105.7-110.2,1105.2z"/>
		<path fill="#981D25" d="M-115.8,1095.6c0.1,0.1,0.1,0.2,0.2,0.3c2,3.5,4.6,7.8,5.4,9.3c1.4-1.8,3.2-3.7,5.1-4.8
			c1.1-0.6,2.3-1,3.4-1c0.3,0,0.6,0,0.9,0.1c0,0,0,0,0,0c0,0,0,0,0,0c-2.4-1.5-5.8-3.5-7.6-4.6c0.1-0.4,0.1-0.9,0.2-1.4
			c0-0.1,0-0.3,0.1-0.4c0-0.1,0-0.3,0.1-0.4c0.2-1.6,0.4-3.1,0.5-4.2c0.4,0.5,0.8,1,1.1,1.6c0.1,0.1,0.2,0.2,0.2,0.4
			c0.1,0.1,0.1,0.2,0.2,0.3c0,0.1,0.1,0.1,0.1,0.2c1.7,2.5,5.1,8.7,5.1,8.7l0.4,0.1c0.2,0.1,0.3,0.1,0.5,0.2c0,0,0,0,0,0
			c-0.7-1.4-1.5-3-2.3-4.5c-1.1-2-2.3-3.9-3.6-5.7c-0.1-0.2-0.2-0.3-0.3-0.5c-0.3-0.4-0.5-0.7-0.8-1.1c-0.2-0.2-0.3-0.4-0.5-0.6
			c0,0,0,0-0.1-0.1v0c-0.8-0.7-2-1-3.3-1c-1.1,0-2.2,0.2-3,0.7c-1.6,0.8-3.2,2.4-4.6,4.1c0.3,0.5,1.3,2.2,2.5,4.2
			C-115.9,1095.4-115.8,1095.5-115.8,1095.6z"/>
	</g>
	<path fill="#981D25" d="M-17.1,1097.2c-0.1,0.5-0.2,1-0.4,1.5c-0.3,0-0.6,0.1-0.9,0.1c-0.3,0-0.6,0-0.8,0c-0.2,0-0.5,0-0.8,0
		c-0.3,0-0.6,0-0.8-0.1c0-0.5,0-1.1,0.1-1.5c0.1-0.5,0.2-1,0.4-1.5c0.3-0.1,0.6-0.1,0.9-0.1c0.3,0,0.6,0,0.8,0c0.2,0,0.5,0,0.8,0
		c0.3,0,0.6,0.1,0.9,0.1C-17,1096.2-17.1,1096.7-17.1,1097.2L-17.1,1097.2z"/>
</g>
<g id="Shopify">
	<path fill="#981D25" d="M-98,1162.3c0.8,0.4,2.3,1,3.6,1c1.3,0,1.9-0.7,1.9-1.5c0-0.8-0.5-1.4-1.8-2.1c-1.7-1-2.9-2.3-2.9-4.1
		c0-3.1,2.7-5.4,6.6-5.4c1.7,0,3,0.3,3.7,0.7l-1,3.2c-0.6-0.3-1.6-0.6-2.8-0.6c-1.3,0-2.1,0.6-2.1,1.5c0,0.7,0.6,1.2,1.7,1.8
		c1.7,1,3.2,2.4,3.2,4.3c0,3.6-2.9,5.6-6.9,5.5c-1.8,0-3.6-0.5-4.4-1.1L-98,1162.3"/>
	<path fill="#981D25" d="M-86.9,1166.3l4.3-22.8h4.5l-1.7,8.9l0.1,0c1.2-1.4,2.7-2.4,4.7-2.4c2.3,0,3.6,1.5,3.6,4
		c0,0.8-0.1,1.9-0.3,2.9l-1.7,9.2H-78l1.7-8.9c0.1-0.6,0.2-1.4,0.2-2c0-1-0.4-1.6-1.4-1.6c-1.4,0-2.9,1.8-3.5,4.7l-1.5,7.8
		L-86.9,1166.3"/>
	<path fill="#981D25" d="M-55.3,1156.4c0,5.5-3.6,10.2-8.8,10.2c-4,0-6.1-2.8-6.1-6.2c0-5.4,3.6-10.2,8.9-10.2
		C-57.2,1150.1-55.3,1153.2-55.3,1156.4 M-65.7,1160.3c0,1.6,0.6,2.9,2.2,2.9c2.4,0,3.7-4.2,3.7-6.9c0-1.3-0.5-2.7-2.1-2.7
		C-64.4,1153.6-65.7,1157.7-65.7,1160.3z"/>
	<path fill="#981D25" d="M-56.4,1172.6l3.1-16.3c0.4-1.8,0.7-4.3,0.9-5.9h3.9l-0.3,2.4h0.1c1.2-1.7,2.9-2.6,4.7-2.6
		c3.3,0,4.6,2.7,4.6,5.7c0,5.4-3.4,10.8-8.7,10.8c-1.1,0-2.1-0.3-2.6-0.6h-0.1l-1.2,6.6L-56.4,1172.6 M-50,1162.6
		c0.5,0.4,1,0.6,1.8,0.6c2.5,0,4.2-4.1,4.2-7c0-1.2-0.4-2.5-1.8-2.5c-1.6,0-3,1.8-3.5,4.6L-50,1162.6z"/>
	<path fill="#981D25" d="M-39.2,1166.3l3-15.8h4.5l-3,15.8H-39.2 M-33.4,1148.5c-1.3,0-2.1-0.9-2.1-2.2c0-1.5,1.1-2.6,2.6-2.6
		c1.4,0,2.2,0.9,2.2,2.2C-30.8,1147.6-32,1148.5-33.4,1148.5L-33.4,1148.5z"/>
	<path fill="#981D25" d="M-30.9,1166.3l2.4-12.5h-2.1l0.6-3.4h2.1l0.1-0.7c0.4-1.9,1.1-3.7,2.6-5c1.2-1,2.8-1.5,4.4-1.5
		c1.1,0,1.9,0.2,2.4,0.4l-0.9,3.5c-0.4-0.1-0.8-0.2-1.4-0.2c-1.5,0-2.4,1.4-2.6,2.9l-0.2,0.7h3.1l-0.6,3.4H-24l-2.4,12.5
		L-30.9,1166.3"/>
	<path fill="#981D25" d="M-14.8,1150.5l0.7,7.1c0.2,1.6,0.3,2.7,0.4,3.7h0.1c0.4-1.1,0.7-2.1,1.3-3.8l2.7-7.1H-5l-5.5,11.7
		c-1.9,4-3.8,6.9-5.8,8.8c-1.6,1.5-3.5,2.2-4.4,2.4l-1.2-3.8c0.7-0.3,1.7-0.6,2.5-1.3c1-0.7,1.9-1.7,2.4-2.7
		c0.1-0.2,0.2-0.4,0.1-0.7l-2.7-14.5L-14.8,1150.5"/>
	<path fill="#981D25" d="M-115,1140.3l-1.1,0.3c-0.5-1.4-1.2-2.5-2-3.1c-0.6-0.4-1.3-0.6-2-0.6c-0.2-0.2-0.3-0.4-0.5-0.5
		c-0.8-0.7-1.9-0.8-3.1-0.3c-3.8,1.4-5.4,6.2-5.9,8.7l-3.3,1c0,0-0.8,0.2-1,0.4c-0.2,0.2-0.2,0.9-0.2,0.9l-2.8,21.5l20.9,3.9
		l1.6-32.3C-114.7,1140.2-115,1140.3-115,1140.3 M-120.3,1141.9l-3.6,1.1c0.5-1.9,1.4-3.8,3.2-4.6
		C-120.4,1139.5-120.3,1140.8-120.3,1141.9z M-123.4,1137.4c0.8-0.3,1.4-0.3,1.8,0c-2.4,1.1-3.4,3.8-3.8,6.1l-2.9,0.9
		C-127.7,1142.1-126.2,1138.4-123.4,1137.4z M-121.3,1153.2c-0.2-0.1-0.4-0.2-0.6-0.2c-0.2-0.1-0.5-0.2-0.7-0.2
		c-0.3-0.1-0.5-0.1-0.8-0.1c-0.3,0-0.6,0-0.9,0c-0.3,0-0.6,0.1-0.8,0.2c-0.2,0.1-0.4,0.2-0.6,0.3c-0.2,0.1-0.3,0.3-0.4,0.5
		c-0.1,0.2-0.1,0.4-0.2,0.7c0,0.2,0,0.4,0.1,0.5c0.1,0.2,0.2,0.3,0.3,0.5c0.1,0.2,0.3,0.3,0.5,0.5c0.2,0.2,0.5,0.3,0.7,0.5
		c0.4,0.3,0.8,0.5,1.2,0.9c0.4,0.3,0.8,0.7,1.1,1.1c0.3,0.4,0.6,0.9,0.8,1.5c0.2,0.6,0.3,1.2,0.2,1.8c0,1.1-0.3,2-0.7,2.8
		c-0.4,0.8-0.9,1.4-1.6,1.8c-0.6,0.4-1.4,0.7-2.2,0.8c-0.8,0.1-1.6,0.1-2.5-0.1c0,0,0,0,0,0c0,0,0,0,0,0c0,0,0,0,0,0s0,0,0,0
		c-0.4-0.1-0.8-0.2-1.2-0.4c-0.4-0.1-0.7-0.3-1-0.5c-0.3-0.2-0.6-0.4-0.8-0.6c-0.2-0.2-0.4-0.4-0.6-0.6l1-3.2
		c0.2,0.1,0.4,0.3,0.6,0.4c0.2,0.2,0.5,0.3,0.8,0.5c0.3,0.2,0.6,0.3,0.9,0.4c0.3,0.1,0.6,0.2,0.9,0.3c0.3,0,0.5,0,0.7,0
		c0.2-0.1,0.4-0.1,0.6-0.3c0.2-0.1,0.3-0.3,0.4-0.5c0.1-0.2,0.1-0.4,0.1-0.6c0-0.2,0-0.4-0.1-0.6c-0.1-0.2-0.1-0.4-0.3-0.6
		c-0.1-0.2-0.3-0.4-0.5-0.6c-0.2-0.2-0.5-0.4-0.8-0.6c-0.4-0.3-0.7-0.6-1-0.9c-0.3-0.3-0.6-0.7-0.8-1c-0.2-0.4-0.4-0.8-0.5-1.2
		c-0.1-0.4-0.2-0.9-0.1-1.4c0-0.9,0.2-1.6,0.5-2.3c0.3-0.7,0.7-1.4,1.2-1.9c0.5-0.6,1.2-1,1.9-1.4c0.8-0.4,1.6-0.6,2.6-0.8
		c0.4-0.1,0.9-0.1,1.3-0.1c0.4,0,0.8,0,1.1,0.1c0.4,0,0.7,0.1,1,0.2c0.3,0.1,0.5,0.2,0.7,0.3L-121.3,1153.2z M-119.1,1141.5
		c0-0.1,0-0.3,0-0.4c0-1.1-0.2-2.1-0.5-2.8c0.3,0,0.5,0.1,0.8,0.3c0.7,0.5,1.1,1.4,1.5,2.4L-119.1,1141.5z"/>
	<path fill="#981D25" d="M-108.3,1143.1c0,0,0-0.2-0.1-0.2c-0.1-0.1-0.2-0.1-0.2-0.1l-2.9-0.2l-2.2-2.2c-0.1-0.1-0.2-0.1-0.3-0.1
		l-1.6,32.3l11.3-2.4L-108.3,1143.1"/>
</g>
<g id="Locaweb">
	<path fill="#981D25" d="M137.9,1387.7c-0.6-11.1-8.7-16.8-24-16.8c-0.5,0-1.1,0-1.6,0H-29.3l-0.3,0c-5.7,0.1-12.6,0.2-18.1,3.7
		c-4.2-2.4-10.4-3.7-17.3-3.7c-7.1,0-13.7,1.4-18.2,3.8c-0.2-0.4-0.4-0.7-0.6-1.1c-1.4-1.8-4-2.7-7.6-2.7h-11
		c-7.3,0-12.1,2.8-14.1,8.4l-0.1,0.2c-0.1,0.6-3.6,15-4.9,22.4c-1.1,6.5-0.5,11.1,2.1,16l0.1,0.1c6,9.7,15.1,11.1,24,11.1h20.7h0
		c2.6,0,14.9-0.4,20.3-3.8c4,3.2,9.7,3.7,13,3.7l90.5,0c3.1,0,6.4-1.4,8.2-3.7c4.5,3.3,9.4,3.5,14.2,3.7l37.3,0
		c6.6-0.3,15.9-1.6,21.6-8.6c3.5-4.7,5.1-11.1,4.7-18.6C138.7,1395.6,138,1388.5,137.9,1387.7z M131.9,1400.7l-0.3,0.5l0,0.5
		c0.3,4.8-0.1,11.5-3.9,16.7c-4.7,5.8-12.6,6.9-18.9,7.3H71.6c-5.2-0.2-9.7-0.4-13.7-4.3l-2.4-2.3l-0.6,3.3
		c-0.3,1.9-3.4,3.3-5.9,3.3H-41l-0.3,0c-2.5,0-8.5-0.4-11.6-3.7l-1.2-1.3l-1.3,1.2c-2.6,2.6-13,3.7-19.3,3.8h-20.6
		c-9.1-0.1-16.1-1.7-21-9.4c-2.2-4.2-2.7-8.1-1.7-13.8c1.2-7,4.5-20.8,4.8-22.1c1.5-4.1,5.1-6,10.8-6h11c2.4,0,4.1,0.5,4.8,1.4
		c0.5,0.6,0.3,1.3,0.3,1.4l-1.1,4.7l3.9-2.9c3.8-2.9,10.9-4.6,18.5-4.6c6.7,0,12.9,1.4,16.4,3.7l1,0.7l1-0.7
		c4.7-3.5,11.6-3.6,17.1-3.6l141.8,0c0.5,0,1.1,0,1.6,0c8.5,0,19.9,1.4,20.6,13.6l0,0.1C134.4,1388.1,135.2,1394.9,131.9,1400.7z"/>
	<path fill="#981D25" d="M112.7,1403.6c-0.6-0.5-1.6-0.7-3.1-0.7h-0.7h0h-8.8l-1.5,7.5h9.2h1c0,0,0,0,0,0c0.5-0.1,0.8-0.1,1-0.1
		c0.6-0.1,1-0.3,1.4-0.7c1.2-0.7,1.9-1.7,2.2-3.1C113.8,1405.1,113.6,1404.2,112.7,1403.6z"/>
	<path fill="#981D25" d="M-65.5,1389.4c-0.8,0-1.5,0-2.3,0.1c0,0,0,0,0,0c-2,0.5-3.8,1.4-5,2.9c-1.4,1.6-2.5,4.1-3.2,7.6
		c-0.8,3.7-0.7,6.5,0.2,8.3c0.9,1.8,2.9,2.6,5.8,2.6c0.8,0,1.5,0,2.2-0.2c0,0,0,0,0,0c1.8-0.3,3.4-1.2,4.5-2.3
		c1.8-1.8,3.1-4.6,3.8-8.2c0.7-3.3,0.7-5.8,0-7.6C-60.4,1390.4-62.4,1389.4-65.5,1389.4z M-63.2,1400.4c-0.6,2.3-1.5,4.2-2.6,5.2
		c-0.5,0.6-1.2,1-2,1.2c-0.2,0-0.4,0.1-0.7,0.1c-0.4,0.1-0.8,0.1-1.2,0.1c-1.6-0.1-2.6-0.8-3-2c-0.4-1.2-0.3-3.1,0.4-5.5
		c0.6-2.2,1.3-3.9,2.2-4.8c0.7-0.8,1.4-1.3,2.3-1.6c0.2-0.1,0.4-0.1,0.6-0.2c0.5,0,0.8,0,1.3,0c1.7,0.1,2.8,0.9,3.1,2.4
		C-62.4,1396.6-62.6,1398.3-63.2,1400.4z"/>
	<polygon fill="#981D25" points="-4.1,1395.7 -8.6,1403 -4.1,1403 0.5,1403 -1.7,1391.8 	"/>
	<path fill="#981D25" d="M115.6,1390.5c-0.6-0.5-1.6-0.7-3.3-0.7h-3.4h0h-6l-1.5,7.5h7.5h0h1.7c1,0,1.6-0.1,2.1-0.2
		c0.5-0.1,1-0.2,1.4-0.6c1.2-0.8,1.9-1.9,2.2-3.1C116.6,1392,116.4,1391.1,115.6,1390.5z"/>
	<path fill="#981D25" d="M116.9,1379.9H97.8c-1.3,0-2.4,0.3-3.1,1c-0.9-0.6-1.8-1-2.9-1h-8.9c-6.5,0-10.7,0.8-14.7,3.7
		c-0.5-2.4-2.1-3.7-4.5-3.7h-5.2c-3.3,0-4.7,1.3-5.9,4l-4.4,8.9l-0.5-8.5c-0.3-2.9-1.8-4.4-4.5-4.4h-7.1c-2.1,0-3.7,1.3-4.9,3.9
		l-4.3,9l-0.8-8.3c-0.5-3.1-2.1-4.7-4.7-4.7h-6.7c-3,0-4.5,2.8-4,5.7l2.9,24.3l-5.2-25.6c-0.8-3.3-2.1-4.2-4.7-4.3h-6.8
		c-3.2,0-3.9,1.2-5.5,3.9l-14.4,23c-0.3-0.3-1.8-0.6-3.2-0.6c-4,0.1-7.1,0.2-9.1,0c-1,0-2.3-0.3-2.3-1.8c0-1.4,0-2.9,0.5-4.4
		c1-3.9,0.9-6,8.5-6l6.1,0c3.6,0,5.2-0.5,6-3.5l1-5c0.5-3.1-1-5.5-4-5.5h-10.8c-8.2-0.1-14.2,2.7-18,8.4c-2.6-6.5-10.4-9.5-19.3-8.4
		c-1.3,0.2-2.6,0.4-4,0.8c-10.9,2.8-16.4,11.6-16.7,25.6l-8.6-0.1l4.3-21.2c0.5-2.8-1.7-4.9-4.1-4.9h-6c-2.8-0.1-4.5,1.3-5.1,4
		l-4.2,20.9c-1.9,9.3,3.7,15.3,13,15.3h9.9c2.9,0,4.6-1.3,5.1-4c3.3,3.1,8.1,4.7,14.5,4.3c0.6,0,1.3-0.1,1.8-0.2
		c6.9-0.8,11.7-3.6,15-8.2c2.1,5.2,6.3,7.9,12.7,8H-17c3.4,0,3.7-0.6,5.7-3.7l2.5-3.7h6.3l0.7,3.7c0.5,2.5,2.1,3.7,4.7,3.7h7.1
		c2.3,0,3.8-0.9,4.4-2.8c0.6,1.9,2.1,2.8,4.4,2.8h6.7c2.5,0,4.2-1.3,5.2-3.9l3.9-7.8l0.6,7.6c0.3,2.7,1.8,4.1,4.5,4.2h7.7
		c2.1,0,3.1-1.4,4.4-4.1l6.3-11.8c-0.1,10.6,5.2,15.9,16,15.9h10.5c1.5,0,2.6-0.3,3.2-1c0.5,0.6,1.5,1,2.9,1h16.7
		c16.5,0.4,19.9-12.3,16.7-19.5C132.3,1391.5,128.2,1379.9,116.9,1379.9z M-88.4,1416h-7.3c-3.4,0.1-5.8-0.1-7.3-0.6
		c-3.3-0.9-5-3.1-5.3-6.7c0-1.3,0.3-3.5,0.9-6.7l3.8-18h6.8l-3.7,18c-0.5,2.2-0.7,3.7-0.7,4.4c-0.1,1.5,0.4,2.4,1.6,3
		c1,0.5,3,0.8,6,0.8h6.5L-88.4,1416z M-52.2,1400.6c-0.6,3.3-1.7,6.1-3.4,8.4c-2,2.9-4.5,5-7.6,6c-1.4,0.6-2.9,0.9-4.6,1.1
		c0,0,0,0,0,0c-1,0.1-1.9,0.1-2.9,0.1c-3.5,0-6.6-0.7-8.9-2c-2-1.2-3.4-2.9-4.1-5.3c-0.6-2.4-0.6-5.4,0.1-8.8
		c1.3-6,3.7-10.4,7.4-12.9c2.2-1.7,5-2.7,8.4-3.2c0,0,0,0,0,0c1.1-0.1,2.2-0.1,3.4-0.2c3.2,0,5.9,0.6,8.1,1.6
		c2.6,1.4,4.1,3.5,4.6,6.5C-51.2,1394.5-51.5,1397.3-52.2,1400.6z M-26.3,1416h-11.1c-2.1,0-3.7-0.1-4.8-0.3c-3.8-0.8-6.1-3-7.1-6.7
		c-0.6-2.3-0.5-5.4,0.2-8.9c0.9-4.3,2.6-7.8,4.8-10.5c1.6-2,3.5-3.4,5.7-4.2c2.2-1,4.9-1.4,8.1-1.4h10.9l-1.2,5.8h-10.1
		c-3.1,0-5.5,0.8-7.3,2.4c-1.4,1.3-2.6,3.8-3.3,7.2c-1,4.7-0.7,7.8,0.7,9.4c1.2,0.9,3,1.5,5.7,1.5h9.7L-26.3,1416z M2.4,1416
		l-1.6-7.4h-4.9h-7.3l-4.7,7.4h-8l19.9-31.8l8-0.1l6.4,31.9H2.4z M47.1,1416h-7.8l-1.7-23L26,1416h-7.7l-3.7-31.9h7.1l2.1,24.1
		l11.8-24.1h7.6l1.6,24.1l12.3-24.1h6.9L47.1,1416z M87.9,1403h-18c-0.3,2.7,0.1,4.7,1.2,5.8c1.2,1,3.4,1.6,6.7,1.6h8.7l-1.3,5.6
		h-8.8c-2.5,0-4.6-0.1-6.3-0.4c-2.8-0.5-4.8-1.7-6.1-3.9c-1.8-2.9-2.1-6.9-1-11.9c1.2-5.5,3.7-9.8,7.8-13c1.4-1,2.8-1.8,4.2-2.1
		c1.4-0.5,3.3-0.7,5.5-0.7h11.5l-1.2,5.8h-8.9c-2.3,0-4.1,0.1-5.2,0.5c-1.2,0.3-2.1,0.9-3,1.9c-0.6,0.6-1.1,1.3-1.4,1.8
		c-0.2,0.7-0.7,1.8-1,3.3h17.9L87.9,1403z M124,1392.5c-0.3,1.6-1.1,3.1-2.2,4.7c-1.2,1.3-2.6,2.3-4,2.9c2.8,1.4,3.8,4,3.1,7.5
		c-0.5,2.1-1.3,3.9-2.6,5.3c-1.2,1.1-2.5,2.1-3.9,2.6c-1.3,0.3-3.1,0.6-5.5,0.6c0,0,0,0,0,0h-0.7H90.5l6.8-31.9h11.6h0h6.5
		c2.8,0,4.8,0.4,6,1c1.3,0.8,2.2,2.1,2.6,3.7C124.4,1390,124.4,1391.2,124,1392.5z"/>
</g>
<g id="Rackspace">
	<g>
		<g>
			<path fill-rule="evenodd" clip-rule="evenodd" fill="#981D25" d="M27.2,1148.5c-0.5,1.1-0.3,2.1,0.5,2.1c0.8,0,1.9-0.9,2.4-2
				c0.5-1.1,0.3-2.1-0.5-2.1C28.9,1146.5,27.8,1147.4,27.2,1148.5z M33.8,1144.5C33.8,1144.5,33.8,1144.5,33.8,1144.5
				C33.8,1144.5,33.8,1144.5,33.8,1144.5c-0.5,1.4-1.3,2.9-2.1,4.1c-1.7,2.5-4,4-5.3,3.5c-1.3-0.5-1-3,0.7-5.5
				c0.4-0.6,0.8-1.1,1.2-1.5c0,0,0,0,0,0c0,0,0,0,0,0c0,0,0,0,0,0c-0.5,0.1-1.1,0.2-1.6,0.3c0,0,0,0,0,0c-5.6,6.9-8,15.8-7.7,23.8v0
				c0,0,0,0,0,0c0,0,0,0,0,0c-3.3-1.3-5.7-4.5-6-8.6l0,0c-0.4-7.2,5.3-14.6,12.8-16.5C28.7,1143.3,31.5,1143.5,33.8,1144.5z"/>
			<path fill-rule="evenodd" clip-rule="evenodd" fill="#981D25" d="M31.7,1163.9c-0.5,0.4-1.1,0.7-1.7,1c0,0,0,0,0,0c0,0,0,0,0,0
				c-0.1-1.7-0.5-3.4-1.1-4.8c-1.7-3.7-4.7-4-6.7-0.6c-1.2,2.1-1.8,5-1.6,7.8c0,0,0,0,0,0c2.1,0.7,4.5,0.7,7.1,0.1
				c7.5-1.9,13.2-9.3,12.8-16.5c-0.4-6.3-5.3-10.4-11.6-10c0,0,0,0,0,0c-0.6,0.6-1.2,1.2-1.7,1.9c0,0,0,0,0,0c0,0,0,0,0,0
				c0,0,0,0,0,0c3.7-0.5,6.6,0.3,8.6,1.8c0,0,0,0,0,0c0,0,0,0,0,0C29,1154,29.8,1159.3,31.7,1163.9
				C31.7,1163.8,31.7,1163.8,31.7,1163.9C31.7,1163.9,31.7,1163.9,31.7,1163.9z"/>
		</g>
		<g>
			<g>
				<path fill="#981D25" d="M115.7,1156.8c-1,1-1.8,2.9-1.8,4.5c0,1.3,0.5,2.2,1.4,2.2c1.4,0,2.6-1.4,3-3.6c0.1-0.5,0.2-1,0.3-1.4
					c0.1-0.4,0.1-0.8,0.1-1.1c0-0.9-0.5-1.4-1.4-1.4C116.8,1156.1,116.2,1156.3,115.7,1156.8z M117.1,1166.3
					C117.1,1166.3,117.1,1166.3,117.1,1166.3l0.3-1.6c0,0,0,0,0,0c0,0,0,0,0,0c-0.7,1.2-2.1,1.9-3.6,1.9c-2.5,0-3.7-2.2-3.7-4.5
					c0-2.6,1-5.1,2.7-6.8c1.4-1.4,3.2-2.2,5.3-2.2c1.5,0,2.7,0.5,3.4,1.3c1.1,1.3,1,3.2,0.7,4.6l-1.4,7.2c0,0,0,0,0,0L117.1,1166.3
					C117.2,1166.3,117.1,1166.3,117.1,1166.3z"/>
				<path fill-rule="evenodd" clip-rule="evenodd" fill="#981D25" d="M93.5,1153.2c1.6,0,2.7,0.3,3.3,0.7c0,0,0,0,0,0l-0.5,2.8
					c0,0,0,0,0,0c0,0,0,0,0,0c-0.6-0.3-1.7-0.7-2.9-0.7c-1,0-1.6,0.4-1.6,1.1c0,0.5,0.5,0.9,1.5,1.4c1.4,0.7,2.9,1.7,2.9,3.5
					c0,1.2-0.4,2.2-1.2,2.9c-1,1-2.7,1.6-4.7,1.6c-1.6,0-3.1-0.4-3.9-1c0,0,0,0,0,0l0.5-2.9c0,0,0,0,0,0c0,0,0,0,0,0
					c0.8,0.5,2.5,1.1,3.7,1.1c0.9,0,1.6-0.4,1.6-1.1c0-0.6-0.4-1.1-1.6-1.6c-1.8-0.9-2.7-2-2.7-3.4
					C87.9,1155,90.1,1153.2,93.5,1153.2z"/>
				<path fill-rule="evenodd" clip-rule="evenodd" fill="#981D25" d="M131.1,1153.2c1,0,1.9,0.2,2.6,0.4c0,0,0,0,0,0l-0.6,3.1
					c0,0,0,0,0,0c0,0,0,0,0,0c-0.6-0.3-1.3-0.5-2.1-0.5c-2.7,0-4.3,2.4-4.3,4.6c0,1.9,1.3,2.6,2.5,2.6c1.1,0,2-0.2,3.1-0.8
					c0,0,0,0,0,0c0,0,0,0,0,0l-0.6,3.1c0,0,0,0,0,0c-0.9,0.4-2.2,0.7-3.6,0.7c-3.3,0-5.4-2.1-5.4-5.3
					C122.8,1156.7,126.4,1153.2,131.1,1153.2z"/>
				<path fill-rule="evenodd" clip-rule="evenodd" fill="#981D25" d="M72.4,1153.2c1,0,1.9,0.2,2.6,0.4c0,0,0,0,0,0l-0.6,3.1
					c0,0,0,0,0,0c0,0,0,0,0,0c-0.6-0.3-1.3-0.5-2.1-0.5c-2.7,0-4.3,2.4-4.3,4.6c0,1.9,1.3,2.6,2.5,2.6c1.1,0,2-0.2,3.1-0.8
					c0,0,0,0,0,0c0,0,0,0,0,0l-0.6,3.1c0,0,0,0,0,0c-0.9,0.4-2.2,0.7-3.6,0.7c-3.3,0-5.4-2.1-5.4-5.3
					C64,1156.7,67.6,1153.2,72.4,1153.2z"/>
				<path fill="#981D25" d="M52,1153.1c0.2,0,0.5,0,0.7,0.1c0,0,0,0,0,0c0,0,0,0,0,0l-0.7,3.7c0,0,0,0,0,0c0,0,0,0,0,0
					c-0.1,0-0.3-0.1-0.6-0.1c-2.6,0-3.6,2.5-4,4.6l-0.9,4.9c0,0,0,0,0,0h-3.8c0,0,0,0,0,0c0,0,0,0,0,0l2.5-12.9c0,0,0,0,0,0l3.3,0
					c0,0,0,0,0,0c0,0,0,0,0,0l-0.4,2.2c0,0,0,0,0,0c0,0,0,0,0.1,0C49.1,1154.1,50.5,1153.1,52,1153.1z"/>
				<path fill="#981D25" d="M57,1156.8c-1,1-1.8,2.9-1.8,4.5c0,1.3,0.5,2.2,1.4,2.2c1.4,0,2.6-1.4,3-3.6c0.1-0.5,0.2-1,0.3-1.4
					c0.1-0.4,0.1-0.8,0.1-1.1c0-0.9-0.5-1.4-1.4-1.4C58,1156.1,57.5,1156.3,57,1156.8z M58.4,1166.3
					C58.4,1166.3,58.4,1166.3,58.4,1166.3l0.3-1.6c0,0,0,0,0,0c0,0,0,0,0,0c-0.7,1.2-2.1,1.9-3.6,1.9c-2.5,0-3.7-2.2-3.7-4.5
					c0-2.6,1-5.1,2.7-6.8c1.4-1.4,3.2-2.2,5.3-2.2c1.5,0,2.7,0.5,3.4,1.3c1.1,1.3,1,3.2,0.7,4.6l-1.4,7.2c0,0,0,0,0,0L58.4,1166.3
					C58.4,1166.3,58.4,1166.3,58.4,1166.3z"/>
				<path fill="#981D25" d="M102.4,1163.7c2,0,3.5-2.8,3.5-5.3c0-0.6-0.1-2.1-1.5-2.1c-1.4,0-2.6,1.6-3.1,4.1
					C101.1,1161.2,100.7,1163.7,102.4,1163.7z M105.7,1153.2c2.5,0,4.2,1.9,4.2,4.9c0,3.1-1.5,6.3-4.2,7.8c-2.5,1.3-4.7,0.7-5.3-0.3
					c0,0,0,0,0,0l-0.9,4.9c0,0,0,0,0,0h-3.8c0,0,0,0,0,0c0,0,0,0,0,0l3.2-17c0,0,0,0,0,0l3.3,0c0,0,0,0,0,0c0,0,0,0,0,0l-0.3,1.7
					c0,0,0,0,0,0.1c0,0,0,0,0.1,0l0,0C102.9,1153.9,104.2,1153.2,105.7,1153.2z"/>
				<path fill="#981D25" d="M77.5,1148.9h3.7c0,0,0,0,0,0c0,0,0,0,0,0l-2,10.3c0,0,0,0,0,0c0,0,0,0,0,0l5-5.8c0,0,0,0,0,0h4.1
					c0,0,0,0,0,0c0,0,0,0,0,0c0,0,0,0,0,0l-5.2,5.9l3.2,6.9c0,0,0,0,0,0c0,0,0,0,0,0c0,0,0,0,0,0h-4.1c0,0,0,0,0,0l-3.1-6.8
					c0,0,0,0,0,0c0,0,0,0,0,0l-1.3,6.8c0,0,0,0,0,0h-3.7c0,0,0,0,0,0c0,0,0,0,0,0L77.5,1148.9C77.4,1148.9,77.4,1148.9,77.5,1148.9z
					"/>
				<path fill-rule="evenodd" clip-rule="evenodd" fill="#981D25" d="M141.4,1157c0-0.7-0.5-1.1-1.4-1.1c-1.6,0-2.7,1.3-3,2.6l0,0
					c0,0,0,0,0,0c0,0,0,0,0,0h0c2.2,0,3.4-0.2,4-0.8C141.3,1157.6,141.4,1157.3,141.4,1157z M140.5,1153.2c2.7,0,4.5,1.6,4.5,3.9
					c0,1.1-0.3,1.9-1,2.6c-1.3,1.2-3.6,1.8-7.2,1.7l0,0c0,0,0,0,0,0c0,0,0,0,0,0l0,0c0,0.4,0.1,0.9,0.4,1.2c0.5,0.6,1.4,1,2.4,1
					c1.6,0,2.9-0.4,4.4-1.2c0,0,0,0,0,0c0,0,0,0,0,0l-0.6,3.2c0,0,0,0,0,0c-1.8,0.9-3.9,1-4.8,1c-3.5,0-5.6-2-5.6-5.4
					c0-2,0.7-4,2-5.5C136.4,1154.1,138.4,1153.2,140.5,1153.2z"/>
			</g>
		</g>
	</g>
</g>
</svg>
