<?xml version="1.0" encoding="utf-8"?>
<!-- Generator: Adobe Illustrator 16.0.0, SVG Export Plug-In . SVG Version: 6.00 Build 0)  -->
<!DOCTYPE svg PUBLIC "-//W3C//DTD SVG 1.1//EN" "http://www.w3.org/Graphics/SVG/1.1/DTD/svg11.dtd">
<svg version="1.1" xmlns="http://www.w3.org/2000/svg" xmlns:xlink="http://www.w3.org/1999/xlink" x="0px" y="0px" width="300px"
	 height="597px" viewBox="900.5 375.5 300 597" enable-background="new 900.5 375.5 300 597" xml:space="preserve">
<g id="Background_x23_2">
</g>
<g id="Background_x23_1">
</g>
<g id="Location">
</g>
<g id="CTA:_Icons">
</g>
<g id="Landing">
	<g>
		<g id="APRb">
			<g>
				<path fill="#981D25" d="M927.004,398.092h28.656l22.333,93.1h-15.067l-5.517-19.238h-33.097l-4.843,19.238h-15.068
					L927.004,398.092z M927.542,457.961h27.042l-10.897-46.684h-4.978L927.542,457.961z"/>
				<path fill="#981D25" d="M1001.537,462.67v28.521h-15.203v-93.1h32.424c20.046,0,31.482,10.629,31.482,31.348
					s-11.437,33.23-31.482,33.23H1001.537z M1018.758,448.812c11.032,0,16.01-8.072,16.01-19.373c0-11.166-4.978-17.49-16.01-17.49
					h-17.221v36.863H1018.758z"/>
				<path fill="#981D25" d="M1040.619,477.604h8.88v13.588h-8.88V477.604z"/>
				<path fill="#981D25" d="M1094.057,458.5h-17.221v32.691h-14.934v-93.1h33.498c20.182,0,31.213,9.015,31.213,29.733
					c0,13.723-4.979,22.333-14.799,26.907l14.934,36.459h-16.549l-13.184-32.826L1094.057,458.5z M1095.4,411.949h-18.564v33.097
					h18.834c10.359,0,15.473-7.399,15.473-16.952C1111.143,417.869,1105.088,411.949,1095.4,411.949z"/>
				<path fill="#981D25" d="M1194.018,456.75c0,24.756-9.283,35.922-32.289,35.922c-7.131,0-23.812-1.615-23.812-1.615v-94.982
					h14.664v30.002c0,0,8.342-3.498,15.875-3.498C1185.676,422.578,1194.018,434.687,1194.018,456.75z M1179.084,456.75
					c0-13.05-4.037-20.987-12.512-20.987c-7.266,0-13.992,2.287-13.992,2.287v41.169c0,0,6.457,0.672,9.148,0.672
					C1176.123,479.891,1179.084,469.936,1179.084,456.75z"/>
			</g>
		</g>
		<g>
			<path fill="#981D25" d="M934.457,375.721h3.828l4.004,15.292h-1.914l-1.078-3.675h-5.941l-1.033,3.675h-1.914L934.457,375.721z
				 M933.774,385.578h5.126l-2.111-8.164h-0.858L933.774,385.578z"/>
			<path fill="#981D25" d="M956.717,375.721c2.729,0,4.555,1.232,4.555,3.807c0,1.958-0.683,3.036-1.893,3.631
				c1.363,0.483,2.332,1.496,2.332,3.564c0,3.058-1.98,4.29-4.752,4.29h-5.59v-15.292H956.717z M953.262,377.459v4.994h3.498
				c1.695,0,2.553-1.056,2.553-2.662c0-1.518-0.99-2.332-2.684-2.332H953.262z M953.262,384.104v5.193h3.631
				c1.628,0,2.838-0.814,2.838-2.707c0-2.046-1.87-2.486-2.926-2.486H953.262z"/>
			<path fill="#981D25" d="M976.516,385.336h-3.389v5.677h-1.892v-15.292h5.435c3.213,0,4.929,1.496,4.929,4.73
				c0,2.223-0.836,3.785-2.685,4.423l2.795,6.139h-2.113l-2.574-5.698L976.516,385.336z M976.67,377.503h-3.543v6.095h3.564
				c2.091,0,2.928-1.387,2.928-3.125C979.619,378.581,978.562,377.503,976.67,377.503z"/>
			<path fill="#981D25" d="M991.048,375.721h1.915v15.292h-1.915V375.721z"/>
			<path fill="#981D25" d="M1003.047,391.013v-15.292h1.893v13.51h6.271v1.782H1003.047z"/>
			<path fill="#981D25" d="M1022.334,386.018v4.995h-1.914v-15.292h5.348c3.234,0,4.928,1.738,4.928,4.973
				c0,3.256-1.693,5.324-4.928,5.324H1022.334z M1025.745,384.258c2.091,0,2.992-1.519,2.992-3.564c0-2.024-0.901-3.213-2.992-3.213
				h-3.411v6.777H1025.745z"/>
			<path fill="#981D25" d="M1045.186,385.336h-3.389v5.677h-1.892v-15.292h5.435c3.213,0,4.929,1.496,4.929,4.73
				c0,2.223-0.836,3.785-2.685,4.423l2.795,6.139h-2.113l-2.574-5.698L1045.186,385.336z M1045.34,377.503h-3.543v6.095h3.564
				c2.091,0,2.928-1.387,2.928-3.125C1048.289,378.581,1047.232,377.503,1045.34,377.503z"/>
			<path fill="#981D25" d="M1059.194,383.466c0-5.171,1.562-7.966,5.94-7.966c4.379,0,5.941,2.773,5.941,7.966
				c0,5.325-1.562,7.789-5.941,7.789C1060.734,391.255,1059.194,388.68,1059.194,383.466z M1069.096,383.466
				c0-4.137-0.99-6.205-3.961-6.205c-2.992,0-3.96,2.046-3.96,6.205c0,4.158,0.925,6.007,3.96,6.007
				C1068.15,389.473,1069.096,387.734,1069.096,383.466z"/>
			<path fill="#981D25" d="M1085.928,385.336h-3.389v5.677h-1.893v-15.292h5.436c3.212,0,4.928,1.496,4.928,4.73
				c0,2.223-0.836,3.785-2.684,4.423l2.794,6.139h-2.112l-2.574-5.698L1085.928,385.336z M1086.082,377.503h-3.543v6.095h3.564
				c2.09,0,2.926-1.387,2.926-3.125C1089.029,378.581,1087.975,377.503,1086.082,377.503z"/>
			<path fill="#981D25" d="M1105.576,389.406c2.289,0,3.477-0.902,3.477-3.08v-10.605h1.893v10.605c0,3.41-1.738,4.885-5.369,4.885
				c-3.52,0-5.258-1.475-5.258-4.885v-10.605h1.914v10.605C1102.232,388.504,1103.398,389.406,1105.576,389.406z"/>
			<path fill="#981D25" d="M1126.367,375.721c2.729,0,4.555,1.232,4.555,3.807c0,1.958-0.682,3.036-1.893,3.631
				c1.365,0.483,2.332,1.496,2.332,3.564c0,3.058-1.98,4.29-4.752,4.29h-5.59v-15.292H1126.367z M1122.912,377.459v4.994h3.5
				c1.693,0,2.551-1.056,2.551-2.662c0-1.518-0.99-2.332-2.684-2.332H1122.912z M1122.912,384.104v5.193h3.631
				c1.629,0,2.838-0.814,2.838-2.707c0-2.046-1.869-2.486-2.926-2.486H1122.912z"/>
			<path fill="#981D25" d="M1145.697,391.013h-1.893v-6.558l-4.709-8.734h2.135l3.498,6.711l3.455-6.711h2.156l-4.643,8.734V391.013
				z"/>
		</g>
	</g>
	<g id="_x3C_img_x3E__Porto">
		<g>
			<g>
				<path d="M903.748,949.624l13.156,1.293l-4.816,11.396l-4.32-0.331l-1.597,5.615l-1.459-0.138L903.748,949.624z M910.657,958.845
					l1.899-4.872h-5.945l0.854,4.651L910.657,958.845z"/>
				<path d="M936.693,952.212l-6.109,0.412l-0.66,4.707l6.77,0.495v1.899l-6.22,0.825l0.605,4.239l5.835,0.137l0.138,2.092
					l-9.331,0.688l-1.045-18.083l10.432,0.193L936.693,952.212z"/>
				<path d="M961.162,950.312l-3.771,9.689l2.753,7.018l-1.019,0.496l-6.716-5.78l-1.597,5.532l-1.926-0.11l-0.826-17.532
					L961.162,950.312z M954.501,957.854l2.34-4.899l-5.614,0.496l0.825,4.541L954.501,957.854z"/>
				<path d="M982.52,967.542l-6.716-10.211l-0.716,10.376h-1.568l-1.734-18.056h4.514l5.725,11.615l0.826-10.899l1.597-0.192
					l1.046,17.174L982.52,967.542z"/>
				<path d="M1007.483,950.12l0.853,17.229l-1.514,0.358l-1.844-5.505l-5.01,0.496l-1.155,4.65l-1.156-0.137l-1.155-17.588
					L1007.483,950.12z M999.969,959.34l4.514,0.192l-1.514-6.275l-1.706,0.166L999.969,959.34z"/>
				<path d="M1027.768,967.597l-4.35-10.293l-0.688,10.458h-1.597l-1.733-18.138h4.541l4.871,11.532l2.119-11.202l4.322-0.33
					l1.596,17.449h-2.146l-1.955-11.531l-2.201,11.697L1027.768,967.597z"/>
				<path d="M1056.639,957.495l4.652,2.23l-1.68,8.146l-10.623-0.44l-1.102-17.808l10.816,0.165L1056.639,957.495z M1055.51,952.569
					l-5.367,0.578l1.268,3.798h2.367L1055.51,952.569z M1056.639,965.505l1.486-4.293l-7.129-0.908l1.238,5.063L1056.639,965.505z"
					/>
				<path d="M1082.346,949.734l0.99,17.944l-10.68-0.494l-0.688-17.533l2.146-0.027l1.9,13.734l3.275,0.578l0.494-14.202H1082.346z"
					/>
				<path d="M1105.135,953.12l-7.57,0.412l1.129,10.707l6.551-0.11v2.229l-9.082,1.349l-2.01-18.083l11.367,1.102L1105.135,953.12z"
					/>
				<path d="M1115.924,949.624h13.32l-1.871,17.258l-9.744,0.688L1115.924,949.624z M1120.547,964.321l4.623-0.688l1.184-10.514
					l-7.348,0.55L1120.547,964.321z"/>
				<path d="M1140.006,957.908c0-0.991,0.688-1.733,1.652-1.733c0.963,0,1.623,0.715,1.623,1.733c0,0.991-0.66,1.734-1.678,1.734
					C1140.666,959.643,1140.006,958.899,1140.006,957.908z"/>
				<path d="M1162.547,957.495l4.652,2.23l-1.68,8.146l-10.623-0.44l-1.102-17.808l10.816,0.165L1162.547,957.495z
					 M1161.418,952.569l-5.367,0.578l1.268,3.798h2.367L1161.418,952.569z M1162.547,965.505l1.486-4.293l-7.129-0.908l1.238,5.063
					L1162.547,965.505z"/>
				<path d="M1190.949,950.312l-3.77,9.689l2.752,7.018l-1.018,0.496l-6.717-5.78l-1.596,5.532l-1.928-0.11l-0.824-17.532
					L1190.949,950.312z M1184.289,957.854l2.34-4.899l-5.615,0.496l0.826,4.541L1184.289,957.854z"/>
			</g>
			<g id="Porto_2_">
				<path fill="none" stroke="#000000" stroke-width="3" stroke-miterlimit="10" d="M905.379,805.052l35.521,3.493l-13.006,30.766
					l-11.666-0.892l-4.311,15.16l-3.938-0.372L905.379,805.052z M924.031,829.947l5.127-13.153h-16.051l2.303,12.559
					L924.031,829.947z"/>
				<path fill="none" stroke="#000000" stroke-width="3" stroke-miterlimit="10" d="M944.764,805.052h35.967l-5.053,46.595
					l-26.307,1.858L944.764,805.052z M957.248,844.735l12.484-1.857l3.195-28.388l-19.841,1.485L957.248,844.735z"/>
				<path fill="none" stroke="#000000" stroke-width="3" stroke-miterlimit="10" d="M1023.312,806.91l-10.181,26.158l7.432,18.95
					l-2.75,1.337L999.68,837.75l-4.311,14.937l-5.201-0.297l-2.229-47.338L1023.312,806.91z M1005.328,827.272l6.316-13.229
					l-15.16,1.338l2.229,12.262L1005.328,827.272z"/>
				<path fill="none" stroke="#000000" stroke-width="3" stroke-miterlimit="10" d="M1028.29,814.937l1.411-9.661l27.348,0.223
					v6.985l-9.884,0.967l0.966,40.203h-11.592l3.195-39.609L1028.29,814.937z"/>
				<path fill="none" stroke="#000000" stroke-width="3" stroke-miterlimit="10" d="M1062.623,805.052h35.967l-5.053,46.595
					l-26.307,1.858L1062.623,805.052z M1075.107,844.735l12.484-1.857l3.195-28.388l-19.842,1.485L1075.107,844.735z"/>
				<path fill="none" stroke="#000000" stroke-width="3" stroke-miterlimit="10" d="M1123.855,801.411l35.148,17.611l-1.857,22.146
					l-31.062,15.828L1123.855,801.411z M1132.475,815.679l2.156,27.645l14.49-8.396l0.074-9.29L1132.475,815.679z"/>
				<path fill="none" stroke="#000000" stroke-width="3" stroke-miterlimit="10" d="M1190.512,812.038l-16.496,1.114l-1.783,12.708
					l18.279,1.337v5.128l-16.793,2.229l1.635,11.444l15.754,0.371l0.371,5.648l-25.191,1.857l-2.824-48.824l28.164,0.521
					L1190.512,812.038z"/>
				<path fill="none" stroke="#000000" stroke-width="3" stroke-miterlimit="10" d="M938.709,872.977l-22.07,3.196l2.006,30.542
					l11.072-1.04l3.716-10.775l-9.512-1.561l-0.817-5.202h18.578l-4.014,26.009l-28.016,1.041l-4.979-48.973l34.035,0.744V872.977z"
					/>
				<path fill="none" stroke="#000000" stroke-width="3" stroke-miterlimit="10" d="M979.283,867.626l2.303,46.52l-4.086,0.967
					l-4.979-14.863l-13.524,1.338l-3.121,12.559l-3.122-0.371l-3.121-47.486L979.283,867.626z M958.996,892.521l12.187,0.521
					l-4.087-16.942l-4.607,0.445L958.996,892.521z"/>
				<path fill="none" stroke="#000000" stroke-width="3" stroke-miterlimit="10" d="M991.691,866.362h8.992l-2.824,41.541
					l13.896-2.898l0.892,8.621l-21.848,1.783L991.691,866.362z"/>
				<path fill="none" stroke="#000000" stroke-width="3" stroke-miterlimit="10" d="M1025.132,866.288l2.749,48.75l-9.512-0.446
					l0.446-47.857L1025.132,866.288z"/>
				<path fill="none" stroke="#000000" stroke-width="3" stroke-miterlimit="10" d="M1063.922,914.666l-18.132-27.569l-1.933,28.016
					h-4.235l-4.682-48.75h12.188l15.456,31.361l2.23-29.429l4.309-0.521l2.824,46.371L1063.922,914.666z"/>
				<path fill="none" stroke="#000000" stroke-width="3" stroke-miterlimit="10" d="M1111.482,867.552l1.783,47.264l-4.088-0.074
					l-4.979-18.059l-14.045,1.338l-1.709,15.605l-5.127,0.223l-2.676-47.561l6.91,0.446l3.643,22.146l10.701,0.445l3.27-22.219
					L1111.482,867.552z"/>
				<path fill="none" stroke="#000000" stroke-width="3" stroke-miterlimit="10" d="M1151.686,867.626l2.303,46.52l-4.088,0.967
					l-4.979-14.863l-13.525,1.338l-3.121,12.559l-3.121-0.371l-3.121-47.486L1151.686,867.626z M1131.396,892.521l12.188,0.521
					l-4.086-16.942l-4.607,0.445L1131.396,892.521z"/>
				<path fill="none" stroke="#000000" stroke-width="3" stroke-miterlimit="10" d="M1172.416,888.954l18.281-1.561l0.967,27.272
					l-28.24,0.446l0.447-4.236l17.463-3.789l0.893-10.33l-17.91,1.486l-1.783-31.955l25.34,0.446l-0.445,6.614l-16.424,1.783
					L1172.416,888.954z"/>
			</g>
			<g>
				<polygon fill-rule="evenodd" clip-rule="evenodd" points="903.939,934.664 1033.297,936.104 1031.852,933.352 904.762,933.352 
									"/>
			</g>
			<g>
				<polygon fill-rule="evenodd" clip-rule="evenodd" points="1189.639,934.791 1060.279,933.352 1061.727,936.104 
					1188.816,936.104 				"/>
			</g>
			<g>
				<polygon fill-rule="evenodd" clip-rule="evenodd" points="1038.957,932.133 1043.291,930.078 1051.77,930.078 1053.824,933.352 
					1046.49,941.639 				"/>
			</g>
			<g>
				<polygon fill-rule="evenodd" clip-rule="evenodd" points="903.939,785.664 1033.297,787.104 1031.852,784.352 904.762,784.352 
									"/>
			</g>
			<g>
				<polygon fill-rule="evenodd" clip-rule="evenodd" points="1189.639,785.792 1060.279,784.352 1061.727,787.104 
					1188.816,787.104 				"/>
			</g>
			<g>
				<polygon fill-rule="evenodd" clip-rule="evenodd" points="1038.957,783.133 1043.291,781.078 1051.77,781.078 1053.824,784.352 
					1046.49,792.639 				"/>
			</g>
			<g>
				<path d="M916.918,754.83l0.661,17.505l-1.514-0.027l-1.845-6.688l-5.201,0.495l-0.633,5.78l-1.899,0.083l-0.991-17.615
					l2.561,0.165l1.348,8.202l3.964,0.165l1.211-8.229L916.918,754.83z"/>
				<path d="M929.166,754.362h13.321l-1.872,17.258l-9.742,0.688L929.166,754.362z M933.79,769.06l4.624-0.688l1.184-10.514
					l-7.35,0.55L933.79,769.06z"/>
				<path d="M953.303,758.022l0.523-3.578l10.129,0.083v2.587l-3.66,0.358l0.357,14.89h-4.294l1.184-14.67L953.303,758.022z"/>
				<path d="M984.928,756.95l-6.11,0.412l-0.66,4.707l6.771,0.495v1.899l-6.221,0.825l0.605,4.239l5.836,0.137l0.137,2.092
					l-9.33,0.688l-1.046-18.083l10.432,0.193L984.928,756.95z"/>
				<path d="M997.285,754.39h3.33l-1.045,15.386l5.146-1.073l0.33,3.192l-8.092,0.661L997.285,754.39z"/>
				<path d="M1041.57,754.858l0.853,17.229l-1.514,0.358l-1.845-5.505l-5.009,0.496l-1.155,4.65l-1.156-0.137l-1.156-17.588
					L1041.57,754.858z M1034.056,764.078l4.514,0.192l-1.514-6.275l-1.706,0.166L1034.056,764.078z"/>
				<path d="M1067.221,755.05l-3.77,9.689l2.752,7.018l-1.018,0.496l-6.717-5.78l-1.596,5.532l-1.928-0.11l-0.824-17.532
					L1067.221,755.05z M1060.561,762.592l2.34-4.899l-5.615,0.496l0.826,4.541L1060.561,762.592z"/>
				<path d="M1086.818,772.335l-4.35-10.293l-0.688,10.458h-1.596l-1.734-18.138h4.541l4.871,11.532l2.119-11.202l4.322-0.33
					l1.596,17.449h-2.146l-1.955-11.531l-2.201,11.697L1086.818,772.335z"/>
				<path d="M1118.414,754.858l0.854,17.229l-1.514,0.358l-1.844-5.505l-5.01,0.496l-1.156,4.65l-1.156-0.137l-1.156-17.588
					L1118.414,754.858z M1110.9,764.078l4.514,0.192l-1.514-6.275l-1.707,0.166L1110.9,764.078z"/>
				<path d="M1141.533,757.858l-7.568,0.412l1.127,10.707l6.551-0.11v2.229l-2.918,0.385l-0.164,2.478l-2.201,0.22l-0.605-2.312
					l-3.193,0.578l-2.01-18.083l11.367,1.102L1141.533,757.858z"/>
				<path d="M1164.266,772.087l-1.514,0.358l-1.844-5.505l-5.008,0.496l-1.156,4.65l-1.156-0.137l-1.156-17.092h10.982
					L1164.266,772.087z M1154.303,752.133l5.945,0.881l2.891-1.872l-0.799-2.642l-2.615,1.761l-5.201,0.083L1154.303,752.133z
					 M1160.414,764.271l-1.514-6.275l-1.707,0.166l-1.293,5.917L1160.414,764.271z"/>
				<path d="M1175.662,754.362h13.32l-1.871,17.258l-9.744,0.688L1175.662,754.362z M1180.285,769.06l4.623-0.688l1.184-10.514
					l-7.348,0.55L1180.285,769.06z"/>
			</g>
		</g>
		<g>
			<g>
				<path fill="#FFFFFF" d="M903.748,948.624l13.156,1.293l-4.816,11.396l-4.32-0.331l-1.597,5.615l-1.459-0.138L903.748,948.624z
					 M910.657,957.845l1.899-4.872h-5.945l0.854,4.651L910.657,957.845z"/>
				<path fill="#FFFFFF" d="M936.693,951.212l-6.109,0.412l-0.66,4.707l6.77,0.495v1.899l-6.22,0.825l0.605,4.239l5.835,0.137
					l0.138,2.092l-9.331,0.688l-1.045-18.083l10.432,0.193L936.693,951.212z"/>
				<path fill="#FFFFFF" d="M961.162,949.312l-3.771,9.689l2.753,7.018l-1.019,0.496l-6.716-5.78l-1.597,5.532l-1.926-0.11
					l-0.826-17.532L961.162,949.312z M954.501,956.854l2.34-4.899l-5.614,0.496l0.825,4.541L954.501,956.854z"/>
				<path fill="#FFFFFF" d="M982.52,966.542l-6.716-10.211l-0.716,10.376h-1.568l-1.734-18.056h4.514l5.725,11.615l0.826-10.899
					l1.597-0.192l1.046,17.174L982.52,966.542z"/>
				<path fill="#FFFFFF" d="M1007.483,949.12l0.853,17.229l-1.514,0.358l-1.844-5.505l-5.01,0.496l-1.155,4.65l-1.156-0.137
					l-1.155-17.588L1007.483,949.12z M999.969,958.34l4.514,0.192l-1.514-6.275l-1.706,0.166L999.969,958.34z"/>
				<path fill="#FFFFFF" d="M1027.768,966.597l-4.35-10.293l-0.688,10.458h-1.597l-1.733-18.138h4.541l4.871,11.532l2.119-11.202
					l4.322-0.33l1.596,17.449h-2.146l-1.955-11.531l-2.201,11.697L1027.768,966.597z"/>
				<path fill="#FFFFFF" d="M1056.639,956.495l4.652,2.23l-1.68,8.146l-10.623-0.44l-1.102-17.808l10.816,0.165L1056.639,956.495z
					 M1055.51,951.569l-5.367,0.578l1.268,3.798h2.367L1055.51,951.569z M1056.639,964.505l1.486-4.293l-7.129-0.908l1.238,5.063
					L1056.639,964.505z"/>
				<path fill="#FFFFFF" d="M1082.346,948.734l0.99,17.944l-10.68-0.494l-0.688-17.533l2.146-0.027l1.9,13.734l3.275,0.578
					l0.494-14.202H1082.346z"/>
				<path fill="#FFFFFF" d="M1105.135,952.12l-7.57,0.412l1.129,10.707l6.551-0.11v2.229l-9.082,1.349l-2.01-18.083l11.367,1.102
					L1105.135,952.12z"/>
				<path fill="#FFFFFF" d="M1115.924,948.624h13.32l-1.871,17.258l-9.744,0.688L1115.924,948.624z M1120.547,963.321l4.623-0.688
					l1.184-10.514l-7.348,0.55L1120.547,963.321z"/>
				<path fill="#FFFFFF" d="M1140.006,956.908c0-0.991,0.688-1.733,1.652-1.733c0.963,0,1.623,0.715,1.623,1.733
					c0,0.991-0.66,1.734-1.678,1.734C1140.666,958.643,1140.006,957.899,1140.006,956.908z"/>
				<path fill="#FFFFFF" d="M1162.547,956.495l4.652,2.23l-1.68,8.146l-10.623-0.44l-1.102-17.808l10.816,0.165L1162.547,956.495z
					 M1161.418,951.569l-5.367,0.578l1.268,3.798h2.367L1161.418,951.569z M1162.547,964.505l1.486-4.293l-7.129-0.908l1.238,5.063
					L1162.547,964.505z"/>
				<path fill="#FFFFFF" d="M1190.949,949.312l-3.77,9.689l2.752,7.018l-1.018,0.496l-6.717-5.78l-1.596,5.532l-1.928-0.11
					l-0.824-17.532L1190.949,949.312z M1184.289,956.854l2.34-4.899l-5.615,0.496l0.826,4.541L1184.289,956.854z"/>
			</g>
			<g id="Porto_1_">
				<path fill="none" stroke="#FFFFFF" stroke-width="3" stroke-miterlimit="10" d="M905.379,804.052l35.521,3.493l-13.006,30.766
					l-11.666-0.892l-4.311,15.16l-3.938-0.372L905.379,804.052z M924.031,828.947l5.127-13.153h-16.051l2.303,12.559
					L924.031,828.947z"/>
				<path fill="none" stroke="#FFFFFF" stroke-width="3" stroke-miterlimit="10" d="M944.764,804.052h35.967l-5.053,46.595
					l-26.307,1.858L944.764,804.052z M957.248,843.735l12.484-1.857l3.195-28.388l-19.841,1.485L957.248,843.735z"/>
				<path fill="none" stroke="#FFFFFF" stroke-width="3" stroke-miterlimit="10" d="M1023.312,805.91l-10.181,26.158l7.432,18.95
					l-2.75,1.337L999.68,836.75l-4.311,14.937l-5.201-0.297l-2.229-47.338L1023.312,805.91z M1005.328,826.272l6.316-13.229
					l-15.16,1.338l2.229,12.262L1005.328,826.272z"/>
				<path fill="none" stroke="#FFFFFF" stroke-width="3" stroke-miterlimit="10" d="M1028.29,813.937l1.411-9.661l27.348,0.223
					v6.985l-9.884,0.967l0.966,40.203h-11.592l3.195-39.609L1028.29,813.937z"/>
				<path fill="none" stroke="#FFFFFF" stroke-width="3" stroke-miterlimit="10" d="M1062.623,804.052h35.967l-5.053,46.595
					l-26.307,1.858L1062.623,804.052z M1075.107,843.735l12.484-1.857l3.195-28.388l-19.842,1.485L1075.107,843.735z"/>
				<path fill="none" stroke="#FFFFFF" stroke-width="3" stroke-miterlimit="10" d="M1123.855,800.411l35.148,17.611l-1.857,22.146
					l-31.062,15.828L1123.855,800.411z M1132.475,814.679l2.156,27.645l14.49-8.396l0.074-9.29L1132.475,814.679z"/>
				<path fill="none" stroke="#FFFFFF" stroke-width="3" stroke-miterlimit="10" d="M1190.512,811.038l-16.496,1.114l-1.783,12.708
					l18.279,1.337v5.128l-16.793,2.229l1.635,11.444l15.754,0.371l0.371,5.648l-25.191,1.857l-2.824-48.824l28.164,0.521
					L1190.512,811.038z"/>
				<path fill="none" stroke="#FFFFFF" stroke-width="3" stroke-miterlimit="10" d="M938.709,871.977l-22.07,3.196l2.006,30.542
					l11.072-1.04l3.716-10.775l-9.512-1.561l-0.817-5.202h18.578l-4.014,26.009l-28.016,1.041l-4.979-48.973l34.035,0.744V871.977z"
					/>
				<path fill="none" stroke="#FFFFFF" stroke-width="3" stroke-miterlimit="10" d="M979.283,866.626l2.303,46.52l-4.086,0.967
					l-4.979-14.863l-13.524,1.338l-3.121,12.559l-3.122-0.371l-3.121-47.486L979.283,866.626z M958.996,891.521l12.187,0.521
					l-4.087-16.942l-4.607,0.445L958.996,891.521z"/>
				<path fill="none" stroke="#FFFFFF" stroke-width="3" stroke-miterlimit="10" d="M991.691,865.362h8.992l-2.824,41.541
					l13.896-2.898l0.892,8.621l-21.848,1.783L991.691,865.362z"/>
				<path fill="none" stroke="#FFFFFF" stroke-width="3" stroke-miterlimit="10" d="M1025.132,865.288l2.749,48.75l-9.512-0.446
					l0.446-47.857L1025.132,865.288z"/>
				<path fill="none" stroke="#FFFFFF" stroke-width="3" stroke-miterlimit="10" d="M1063.922,913.666l-18.132-27.569l-1.933,28.016
					h-4.235l-4.682-48.75h12.188l15.456,31.361l2.23-29.429l4.309-0.521l2.824,46.371L1063.922,913.666z"/>
				<path fill="none" stroke="#FFFFFF" stroke-width="3" stroke-miterlimit="10" d="M1111.482,866.552l1.783,47.264l-4.088-0.074
					l-4.979-18.059l-14.045,1.338l-1.709,15.605l-5.127,0.223l-2.676-47.561l6.91,0.446l3.643,22.146l10.701,0.445l3.27-22.219
					L1111.482,866.552z"/>
				<path fill="none" stroke="#FFFFFF" stroke-width="3" stroke-miterlimit="10" d="M1151.686,866.626l2.303,46.52l-4.088,0.967
					l-4.979-14.863l-13.525,1.338l-3.121,12.559l-3.121-0.371l-3.121-47.486L1151.686,866.626z M1131.396,891.521l12.188,0.521
					l-4.086-16.942l-4.607,0.445L1131.396,891.521z"/>
				<path fill="none" stroke="#FFFFFF" stroke-width="3" stroke-miterlimit="10" d="M1172.416,887.954l18.281-1.561l0.967,27.272
					l-28.24,0.446l0.447-4.236l17.463-3.789l0.893-10.33l-17.91,1.486l-1.783-31.955l25.34,0.446l-0.445,6.614l-16.424,1.783
					L1172.416,887.954z"/>
			</g>
			<g id="_x2014__x__x__x2014__3_">
				<g>
					<polygon fill-rule="evenodd" clip-rule="evenodd" fill="#FFFFFF" points="903.939,933.664 1033.297,935.104 1031.852,932.352 
						904.762,932.352 					"/>
				</g>
				<g>
					<polygon fill-rule="evenodd" clip-rule="evenodd" fill="#FFFFFF" points="1189.639,933.791 1060.279,932.352 1061.727,935.104 
						1188.816,935.104 					"/>
				</g>
				<g>
					<polygon fill-rule="evenodd" clip-rule="evenodd" fill="#FFFFFF" points="1038.957,931.133 1043.291,929.078 1051.77,929.078 
						1053.824,932.352 1046.49,940.639 					"/>
				</g>
			</g>
			<g id="_x2014__x__x__x2014__2_">
				<g>
					<polygon fill-rule="evenodd" clip-rule="evenodd" fill="#FFFFFF" points="903.939,784.664 1033.297,786.104 1031.852,783.352 
						904.762,783.352 					"/>
				</g>
				<g>
					<polygon fill-rule="evenodd" clip-rule="evenodd" fill="#FFFFFF" points="1189.639,784.792 1060.279,783.352 1061.727,786.104 
						1188.816,786.104 					"/>
				</g>
				<g>
					<polygon fill-rule="evenodd" clip-rule="evenodd" fill="#FFFFFF" points="1038.957,782.133 1043.291,780.078 1051.77,780.078 
						1053.824,783.352 1046.49,791.639 					"/>
				</g>
			</g>
			<g>
				<path fill="#FFFFFF" d="M916.918,753.83l0.661,17.505l-1.514-0.027l-1.845-6.688l-5.201,0.495l-0.633,5.78l-1.899,0.083
					l-0.991-17.615l2.561,0.165l1.348,8.202l3.964,0.165l1.211-8.229L916.918,753.83z"/>
				<path fill="#FFFFFF" d="M929.166,753.362h13.321l-1.872,17.258l-9.742,0.688L929.166,753.362z M933.79,768.06l4.624-0.688
					l1.184-10.514l-7.35,0.55L933.79,768.06z"/>
				<path fill="#FFFFFF" d="M953.303,757.022l0.523-3.578l10.129,0.083v2.587l-3.66,0.358l0.357,14.89h-4.294l1.184-14.67
					L953.303,757.022z"/>
				<path fill="#FFFFFF" d="M984.928,755.95l-6.11,0.412l-0.66,4.707l6.771,0.495v1.899l-6.221,0.825l0.605,4.239l5.836,0.137
					l0.137,2.092l-9.33,0.688l-1.046-18.083l10.432,0.193L984.928,755.95z"/>
				<path fill="#FFFFFF" d="M997.285,753.39h3.33l-1.045,15.386l5.146-1.073l0.33,3.192l-8.092,0.661L997.285,753.39z"/>
				<path fill="#FFFFFF" d="M1041.57,753.858l0.853,17.229l-1.514,0.358l-1.845-5.505l-5.009,0.496l-1.155,4.65l-1.156-0.137
					l-1.156-17.588L1041.57,753.858z M1034.056,763.078l4.514,0.192l-1.514-6.275l-1.706,0.166L1034.056,763.078z"/>
				<path fill="#FFFFFF" d="M1067.221,754.05l-3.77,9.689l2.752,7.018l-1.018,0.496l-6.717-5.78l-1.596,5.532l-1.928-0.11
					l-0.824-17.532L1067.221,754.05z M1060.561,761.592l2.34-4.899l-5.615,0.496l0.826,4.541L1060.561,761.592z"/>
				<path fill="#FFFFFF" d="M1086.818,771.335l-4.35-10.293l-0.688,10.458h-1.596l-1.734-18.138h4.541l4.871,11.532l2.119-11.202
					l4.322-0.33l1.596,17.449h-2.146l-1.955-11.531l-2.201,11.697L1086.818,771.335z"/>
				<path fill="#FFFFFF" d="M1118.414,753.858l0.854,17.229l-1.514,0.358l-1.844-5.505l-5.01,0.496l-1.156,4.65l-1.156-0.137
					l-1.156-17.588L1118.414,753.858z M1110.9,763.078l4.514,0.192l-1.514-6.275l-1.707,0.166L1110.9,763.078z"/>
				<path fill="#FFFFFF" d="M1141.533,756.858l-7.568,0.412l1.127,10.707l6.551-0.11v2.229l-2.918,0.385l-0.164,2.478l-2.201,0.22
					l-0.605-2.312l-3.193,0.578l-2.01-18.083l11.367,1.102L1141.533,756.858z"/>
				<path fill="#FFFFFF" d="M1164.266,771.087l-1.514,0.358l-1.844-5.505l-5.008,0.496l-1.156,4.65l-1.156-0.137l-1.156-17.092
					h10.982L1164.266,771.087z M1154.303,751.133l5.945,0.881l2.891-1.872l-0.799-2.642l-2.615,1.761l-5.201,0.083L1154.303,751.133
					z M1160.414,763.271l-1.514-6.275l-1.707,0.166l-1.293,5.917L1160.414,763.271z"/>
				<path fill="#FFFFFF" d="M1175.662,753.362h13.32l-1.871,17.258l-9.744,0.688L1175.662,753.362z M1180.285,768.06l4.623-0.688
					l1.184-10.514l-7.348,0.55L1180.285,768.06z"/>
			</g>
		</g>
	</g>
	<g id="_x32_014-en">
		<g>
			<path fill="#FFF7BD" d="M905.387,590.537v-4.823l33.193-33.901c10.922-11.063,18.297-19.858,18.297-32.341
				c0-14.326-9.078-19.149-23.404-19.149c-9.787,0-26.666,3.688-26.666,3.688l-0.709-4.823c0,0,15.744-3.688,27.518-3.688
				c17.162,0,28.652,6.241,28.652,23.972c0,15.178-9.221,25.106-18.156,34.043l-31.773,32.058h52.908v4.965H905.387z"/>
			<path fill="#FFF7BD" d="M1043.406,545.997c0,36.171-13.475,45.816-32.199,45.816c-18.723,0-32.34-9.646-32.34-46.101
				c0-40.567,13.191-50.213,32.197-50.213C1030.924,495.5,1043.406,505.43,1043.406,545.997z M984.256,545.997
				c0,33.476,10.781,40.993,26.951,40.993s26.809-7.518,26.809-41.277c0-36.312-9.361-45.391-26.951-45.391
				C993.902,500.322,984.256,508.976,984.256,545.997z"/>
			<path fill="#FFF7BD" d="M1091.211,496.918h5.107v93.619h-5.107V502.45l-26.1,17.873l-2.412-4.114L1091.211,496.918z"/>
			<path fill="#FFF7BD" d="M1177.457,571.812h-47.094v-4.255l30.639-70.64h5.533l-30.072,70.072h40.994v-33.901h5.105v33.901h13.051
				v4.822h-13.051v18.725h-5.105V571.812z"/>
		</g>
		<g>
			<path fill="#FFF7BD" d="M976.754,600.226h3.83l4.004,15.292h-1.914l-1.078-3.674h-5.941l-1.033,3.674h-1.914L976.754,600.226z
				 M976.072,610.083h5.127l-2.111-8.163h-0.859L976.072,610.083z"/>
			<path fill="#FFF7BD" d="M995.582,610.523v4.994h-1.914v-15.292h5.348c3.234,0,4.928,1.738,4.928,4.973
				c0,3.257-1.693,5.325-4.928,5.325H995.582z M998.992,608.763c2.092,0,2.992-1.519,2.992-3.564c0-2.024-0.9-3.212-2.992-3.212
				h-3.41v6.776H998.992z"/>
			<path fill="#FFF7BD" d="M1018.434,609.841h-3.389v5.677h-1.891v-15.292h5.434c3.213,0,4.93,1.496,4.93,4.73
				c0,2.222-0.836,3.784-2.686,4.423l2.795,6.139h-2.113l-2.574-5.699L1018.434,609.841z M1018.588,602.008h-3.543v6.095h3.564
				c2.092,0,2.928-1.386,2.928-3.124C1021.537,603.086,1020.48,602.008,1018.588,602.008z"/>
			<path fill="#FFF7BD" d="M1032.967,600.226h1.914v15.292h-1.914V600.226z"/>
			<path fill="#FFF7BD" d="M1044.965,615.518v-15.292h1.893v13.51h6.271v1.782H1044.965z"/>
			<path fill="#FFF7BD" d="M1073.607,615.518v-1.717l4.137-4.158c1.783-1.805,2.861-3.059,2.861-4.73s-1.057-2.332-2.949-2.332
				c-1.518,0-3.807,0.462-3.807,0.462l-0.131-1.716c0,0,2.398-0.572,4.334-0.572c2.883,0,4.533,1.21,4.533,3.938
				c0,2.311-1.057,3.676-2.883,5.502l-3.586,3.52h6.82v1.805H1073.607z"/>
			<path fill="#FFF7BD" d="M1100.809,602.888c0,0-2.068-0.353-3.785-0.353c-2.311,0-3.652,1.408-3.674,4.754
				c0,0,1.957-0.859,3.41-0.859c2.992,0,4.818,1.365,4.818,4.467c0,3.125-1.914,4.863-5.039,4.863c-3.432,0-5.17-2.729-5.17-7.547
				c0-5.633,2.375-7.459,5.654-7.459c1.629,0,3.961,0.439,3.961,0.439L1100.809,602.888z M1093.326,608.851
				c0.045,2.86,0.947,5.149,3.213,5.149c1.893,0,3.059-1.101,3.059-3.104c0-1.914-1.188-2.771-2.971-2.771
				C1095.088,608.125,1093.326,608.851,1093.326,608.851z"/>
			<path fill="#FFF7BD" d="M1111.73,604.75v2.939c0,1.206,0.166,1.668,0.859,1.668c0.359,0,1.027-0.064,1.027-0.064l0.051,0.898
				c0,0-0.758,0.141-1.207,0.141c-1.295,0-1.809-0.641-1.809-2.361v-3.221h-0.859v-0.962h0.859v-1.95h1.078v1.95h1.859v0.962
				H1111.73z"/>
			<path fill="#FFF7BD" d="M1118.932,610.191v-9.176h1.092v3.042c0,0,1.025-0.411,1.809-0.411c1.707,0,2.156,1.053,2.156,3.195v3.35
				h-1.09v-3.336c0-1.451-0.18-2.221-1.246-2.221c-0.719,0-1.629,0.347-1.629,0.347v5.21H1118.932z"/>
		</g>
	</g>
	<g id="_x32_014-en_1_">
		<g>
			<path fill="#FFF7BD" d="M905.387,712.537v-4.823l33.193-33.901c10.922-11.063,18.297-19.858,18.297-32.341
				c0-14.326-9.078-19.149-23.404-19.149c-9.787,0-26.666,3.688-26.666,3.688l-0.709-4.823c0,0,15.744-3.688,27.518-3.688
				c17.162,0,28.652,6.241,28.652,23.972c0,15.178-9.221,25.106-18.156,34.043l-31.773,32.058h52.908v4.965H905.387z"/>
			<path fill="#FFF7BD" d="M1043.406,667.997c0,36.171-13.475,45.816-32.199,45.816c-18.723,0-32.34-9.646-32.34-46.101
				c0-40.567,13.191-50.213,32.197-50.213C1030.924,617.5,1043.406,627.43,1043.406,667.997z M984.256,667.997
				c0,33.476,10.781,40.993,26.951,40.993s26.809-7.518,26.809-41.277c0-36.312-9.361-45.391-26.951-45.391
				C993.902,622.322,984.256,630.976,984.256,667.997z"/>
			<path fill="#FFF7BD" d="M1091.211,618.918h5.107v93.619h-5.107V624.45l-26.1,17.873l-2.412-4.114L1091.211,618.918z"/>
			<path fill="#FFF7BD" d="M1177.457,693.812h-47.094v-4.255l30.639-70.64h5.533l-30.072,70.072h40.994v-33.901h5.105v33.901h13.051
				v4.822h-13.051v18.725h-5.105V693.812z"/>
		</g>
		<g>
			<path fill="#FFF7BD" d="M960.203,737.736v-1.717l4.139-4.158c1.781-1.805,2.859-3.059,2.859-4.729
				c0-1.672-1.057-2.332-2.949-2.332c-1.518,0-3.807,0.461-3.807,0.461l-0.131-1.715c0,0,2.396-0.572,4.334-0.572
				c2.883,0,4.533,1.209,4.533,3.938c0,2.312-1.057,3.676-2.881,5.502l-3.588,3.521h6.82v1.805h-9.33V737.736z"/>
			<path fill="#FFF7BD" d="M987.404,725.105c0,0-2.068-0.352-3.785-0.352c-2.311,0-3.652,1.408-3.674,4.754
				c0,0,1.957-0.859,3.41-0.859c2.992,0,4.818,1.365,4.818,4.467c0,3.125-1.914,4.863-5.039,4.863c-3.434,0-5.172-2.729-5.172-7.547
				c0-5.633,2.377-7.459,5.656-7.459c1.627,0,3.961,0.439,3.961,0.439L987.404,725.105z M979.922,731.068
				c0.045,2.861,0.947,5.15,3.213,5.15c1.893,0,3.059-1.102,3.059-3.104c0-1.914-1.188-2.771-2.971-2.771
				C981.684,730.344,979.922,731.068,979.922,731.068z"/>
			<path fill="#FFF7BD" d="M1017.234,737.736h-1.848v-0.617c0,0-1.562,0.84-3.014,0.84c-2.883,0-3.939-2.201-3.939-5.699
				c0-3.766,1.453-5.744,4.533-5.744c0.924,0,2.135,0.242,2.42,0.287v-4.797h1.848V737.736z M1015.387,735.58v-7.195
				c-0.285-0.045-1.408-0.221-2.311-0.221c-1.957,0-2.771,1.453-2.771,4.137c0,2.42,0.639,3.982,2.332,3.982
				C1013.869,736.283,1015.387,735.58,1015.387,735.58z"/>
			<path fill="#FFF7BD" d="M1035.1,736.129l0.043,1.432c0,0-2.178,0.418-4.092,0.418c-3.277,0-4.445-2.113-4.445-5.654
				c0-3.873,1.695-5.811,4.555-5.811c2.861,0,4.379,1.717,4.379,5.105l-0.109,1.387h-6.932c0,1.893,0.66,3.322,2.686,3.322
				C1032.744,736.328,1035.1,736.129,1035.1,736.129z M1033.668,731.553c0-2.398-0.793-3.453-2.508-3.453
				c-1.695,0-2.662,1.1-2.684,3.453H1033.668z"/>
			<path fill="#FFF7BD" d="M1059.736,722.443h3.83l4.004,15.293h-1.914l-1.078-3.674h-5.941l-1.033,3.674h-1.914L1059.736,722.443z
				 M1059.057,732.301h5.125l-2.109-8.162h-0.859L1059.057,732.301z"/>
			<path fill="#FFF7BD" d="M1081.998,722.443c2.729,0,4.555,1.232,4.555,3.809c0,1.959-0.684,3.035-1.893,3.631
				c1.363,0.482,2.332,1.496,2.332,3.562c0,3.061-1.98,4.291-4.752,4.291h-5.59v-15.293H1081.998z M1078.543,724.182v4.996h3.498
				c1.695,0,2.553-1.057,2.553-2.664c0-1.518-0.99-2.332-2.684-2.332H1078.543z M1078.543,730.826v5.191h3.631
				c1.629,0,2.838-0.812,2.838-2.707c0-2.045-1.869-2.484-2.926-2.484H1078.543z"/>
			<path fill="#FFF7BD" d="M1101.797,732.059h-3.389v5.678h-1.893v-15.293h5.436c3.213,0,4.928,1.496,4.928,4.73
				c0,2.223-0.836,3.785-2.684,4.424l2.795,6.139h-2.113l-2.574-5.699L1101.797,732.059z M1101.951,724.227h-3.543v6.094h3.564
				c2.09,0,2.926-1.385,2.926-3.123C1104.898,725.305,1103.844,724.227,1101.951,724.227z"/>
			<path fill="#FFF7BD" d="M1116.33,722.443h1.914v15.293h-1.914V722.443z"/>
			<path fill="#FFF7BD" d="M1128.328,737.736v-15.293h1.893v13.51h6.271v1.783H1128.328z"/>
		</g>
	</g>
</g>
<g id="Graphics">
</g>
<g id="Sponsors">
</g>
</svg>
