<?xml version="1.0" encoding="utf-8"?>
<!-- Generator: Adobe Illustrator 16.0.0, SVG Export Plug-In . SVG Version: 6.00 Build 0)  -->
<!DOCTYPE svg PUBLIC "-//W3C//DTD SVG 1.1//EN" "http://www.w3.org/Graphics/SVG/1.1/DTD/svg11.dtd">
<svg version="1.1" id="Layer_1" xmlns="http://www.w3.org/2000/svg" xmlns:xlink="http://www.w3.org/1999/xlink" x="0px" y="0px"
	 width="300px" height="597px" viewBox="137.5 312 300 597" enable-background="new 137.5 312 300 597" xml:space="preserve">
<g id="Landing">
	<g>
		<g id="APRb">
			<g>
				<path fill="#981D25" d="M164.823,334.592h28.655l22.334,93.102h-15.067l-5.517-19.238h-33.098l-4.844,19.238H142.22
					L164.823,334.592z M165.361,394.461h27.041l-10.896-46.684h-4.979L165.361,394.461z"/>
				<path fill="#981D25" d="M239.355,399.17v28.521h-15.203V334.59h32.425c20.046,0,31.481,10.631,31.481,31.35
					s-11.438,33.229-31.481,33.229L239.355,399.17L239.355,399.17z M256.577,385.312c11.032,0,16.01-8.072,16.01-19.373
					c0-11.166-4.978-17.49-16.01-17.49h-17.222v36.863H256.577L256.577,385.312z"/>
				<path fill="#981D25" d="M278.438,414.104h8.881v13.59h-8.881V414.104z"/>
				<path fill="#981D25" d="M331.876,395h-17.221v32.691h-14.935V334.59h33.498c20.183,0,31.213,9.016,31.213,29.734
					c0,13.723-4.979,22.332-14.799,26.906l14.935,36.459h-16.55l-13.184-32.826L331.876,395z M333.22,348.449h-18.563v33.098h18.834
					c10.358,0,15.473-7.398,15.473-16.953C348.962,354.369,342.907,348.449,333.22,348.449z"/>
				<path fill="#981D25" d="M431.837,393.25c0,24.756-9.282,35.922-32.289,35.922c-7.131,0-23.812-1.615-23.812-1.615v-94.98H390.4
					v30.002c0,0,8.342-3.498,15.875-3.498C423.495,359.078,431.837,371.188,431.837,393.25z M416.903,393.25
					c0-13.049-4.037-20.986-12.513-20.986c-7.267,0-13.991,2.287-13.991,2.287v41.168c0,0,6.457,0.672,9.147,0.672
					C413.942,416.391,416.903,406.436,416.903,393.25z"/>
			</g>
		</g>
		<g>
			<path fill="#981D25" d="M172.275,312.221h3.828l4.004,15.293h-1.914l-1.077-3.676h-5.94l-1.033,3.676h-1.914L172.275,312.221z
				 M171.594,322.078h5.127l-2.111-8.164h-0.858L171.594,322.078z"/>
			<path fill="#981D25" d="M194.536,312.221c2.729,0,4.555,1.232,4.555,3.807c0,1.959-0.683,3.037-1.894,3.633
				c1.363,0.482,2.332,1.496,2.332,3.562c0,3.061-1.979,4.291-4.752,4.291h-5.59v-15.293H194.536L194.536,312.221z M191.081,313.959
				v4.994h3.498c1.694,0,2.553-1.057,2.553-2.662c0-1.518-0.989-2.332-2.685-2.332H191.081z M191.081,320.604v5.193h3.631
				c1.629,0,2.839-0.814,2.839-2.707c0-2.045-1.869-2.486-2.927-2.486H191.081z"/>
			<path fill="#981D25" d="M214.335,321.836h-3.39v5.678h-1.891v-15.293h5.435c3.213,0,4.929,1.496,4.929,4.73
				c0,2.223-0.836,3.785-2.686,4.424l2.795,6.139h-2.112l-2.573-5.699L214.335,321.836z M214.488,314.004h-3.543v6.094h3.564
				c2.092,0,2.928-1.387,2.928-3.125C217.438,315.082,216.382,314.004,214.488,314.004z"/>
			<path fill="#981D25" d="M228.867,312.221h1.915v15.293h-1.915V312.221z"/>
			<path fill="#981D25" d="M240.866,327.514v-15.293h1.894v13.51h6.271v1.783H240.866L240.866,327.514z"/>
			<path fill="#981D25" d="M260.152,322.518v4.996h-1.913v-15.293h5.348c3.233,0,4.929,1.738,4.929,4.973
				c0,3.258-1.692,5.324-4.929,5.324H260.152z M263.564,320.758c2.09,0,2.992-1.52,2.992-3.564c0-2.021-0.902-3.213-2.992-3.213
				h-3.412v6.777H263.564z"/>
			<path fill="#981D25" d="M283.005,321.836h-3.389v5.678h-1.892v-15.293h5.435c3.213,0,4.93,1.496,4.93,4.73
				c0,2.223-0.837,3.785-2.687,4.424l2.796,6.139h-2.113l-2.573-5.699L283.005,321.836z M283.159,314.004h-3.543v6.094h3.563
				c2.092,0,2.928-1.387,2.928-3.125C286.107,315.082,285.052,314.004,283.159,314.004z"/>
			<path fill="#981D25" d="M297.014,319.967c0-5.172,1.562-7.967,5.939-7.967c4.379,0,5.94,2.773,5.94,7.967
				c0,5.324-1.562,7.789-5.94,7.789C298.554,327.756,297.014,325.18,297.014,319.967z M306.915,319.967
				c0-4.137-0.99-6.205-3.961-6.205c-2.992,0-3.96,2.045-3.96,6.205c0,4.158,0.925,6.006,3.96,6.006
				C305.97,325.973,306.915,324.234,306.915,319.967z"/>
			<path fill="#981D25" d="M323.747,321.836h-3.389v5.678h-1.894v-15.293h5.437c3.212,0,4.928,1.496,4.928,4.73
				c0,2.223-0.836,3.785-2.685,4.424l2.795,6.139h-2.112l-2.574-5.699L323.747,321.836z M323.901,314.004h-3.543v6.094h3.563
				c2.09,0,2.926-1.387,2.926-3.125C326.849,315.082,325.794,314.004,323.901,314.004z"/>
			<path fill="#981D25" d="M343.396,325.906c2.288,0,3.477-0.902,3.477-3.08v-10.605h1.894v10.605c0,3.41-1.737,4.885-5.368,4.885
				c-3.521,0-5.259-1.475-5.259-4.885v-10.605h1.913v10.605C340.052,325.004,341.218,325.906,343.396,325.906z"/>
			<path fill="#981D25" d="M364.188,312.221c2.729,0,4.555,1.232,4.555,3.807c0,1.959-0.683,3.037-1.894,3.633
				c1.365,0.482,2.332,1.496,2.332,3.562c0,3.061-1.979,4.291-4.752,4.291h-5.59v-15.293H364.188L364.188,312.221z M360.731,313.959
				v4.994h3.5c1.692,0,2.551-1.057,2.551-2.662c0-1.518-0.99-2.332-2.685-2.332H360.731z M360.731,320.604v5.193h3.631
				c1.629,0,2.838-0.814,2.838-2.707c0-2.045-1.869-2.486-2.926-2.486H360.731z"/>
			<path fill="#981D25" d="M383.517,327.514h-1.894v-6.559l-4.709-8.734h2.136l3.498,6.711l3.455-6.711h2.155l-4.644,8.734
				L383.517,327.514L383.517,327.514z"/>
		</g>
	</g>
	<g id="_x3C_img_x3E__Porto">
		<g>
			<g>
				<path d="M141.567,886.125l13.156,1.293l-4.815,11.396l-4.32-0.332l-1.597,5.613l-1.459-0.137L141.567,886.125z M148.477,895.346
					l1.898-4.873h-5.944l0.854,4.652L148.477,895.346z"/>
				<path d="M174.514,888.713l-6.109,0.412l-0.66,4.707l6.771,0.494v1.898l-6.222,0.824l0.604,4.24l5.836,0.137l0.138,2.092
					l-9.331,0.688l-1.045-18.082l10.434,0.191L174.514,888.713z"/>
				<path d="M198.98,886.812l-3.771,9.688l2.753,7.02l-1.02,0.494l-6.715-5.777l-1.598,5.529l-1.927-0.107l-0.826-17.533
					L198.98,886.812z M192.32,894.354l2.34-4.896l-5.614,0.496l0.825,4.541L192.32,894.354z"/>
				<path d="M220.339,904.043l-6.716-10.211l-0.716,10.375h-1.568l-1.733-18.055h4.515l5.726,11.613l0.825-10.898l1.599-0.191
					l1.045,17.174L220.339,904.043z"/>
				<path d="M245.303,886.621l0.854,17.229l-1.514,0.357l-1.845-5.504l-5.011,0.496l-1.155,4.648l-1.155-0.137l-1.154-17.588
					L245.303,886.621z M237.788,895.84l4.515,0.193l-1.515-6.275l-1.706,0.166L237.788,895.84z"/>
				<path d="M265.587,904.098l-4.351-10.293l-0.688,10.457h-1.598l-1.732-18.137h4.541l4.871,11.531l2.118-11.201l4.321-0.33
					l1.597,17.449h-2.146l-1.955-11.531l-2.201,11.697L265.587,904.098z"/>
				<path d="M294.458,893.996l4.652,2.229l-1.681,8.146l-10.623-0.441l-1.103-17.807l10.815,0.164L294.458,893.996z M293.329,889.07
					l-5.367,0.576l1.269,3.799h2.367L293.329,889.07z M294.458,902.006l1.485-4.293l-7.129-0.908l1.238,5.062L294.458,902.006z"/>
				<path d="M320.165,886.234l0.99,17.943l-10.681-0.494l-0.688-17.531l2.146-0.027l1.899,13.734l3.275,0.576l0.493-14.201H320.165
					L320.165,886.234z"/>
				<path d="M342.954,889.621l-7.569,0.412l1.129,10.707l6.552-0.111v2.23l-9.082,1.348l-2.011-18.082l11.366,1.102L342.954,889.621
					z"/>
				<path d="M353.743,886.125h13.32l-1.871,17.258l-9.744,0.688L353.743,886.125z M358.366,900.822l4.623-0.689l1.184-10.514
					l-7.348,0.551L358.366,900.822z"/>
				<path d="M377.825,894.408c0-0.99,0.688-1.732,1.651-1.732s1.623,0.715,1.623,1.732c0,0.992-0.659,1.732-1.678,1.732
					C378.485,896.143,377.825,895.4,377.825,894.408z"/>
				<path d="M400.366,893.996l4.651,2.229l-1.681,8.146l-10.623-0.441l-1.102-17.807l10.814,0.164L400.366,893.996z M399.237,889.07
					l-5.367,0.576l1.269,3.799h2.366L399.237,889.07z M400.366,902.006l1.485-4.293l-7.129-0.908l1.237,5.062L400.366,902.006z"/>
				<path d="M428.769,886.812l-3.771,9.688l2.752,7.02l-1.018,0.494l-6.718-5.777l-1.597,5.529l-1.928-0.107l-0.824-17.533
					L428.769,886.812z M422.108,894.354l2.34-4.896l-5.615,0.496l0.826,4.541L422.108,894.354z"/>
			</g>
			<g id="Porto_2_">
				<path fill="none" stroke="#000000" stroke-width="3" stroke-miterlimit="10" d="M143.198,741.553l35.521,3.492l-13.006,30.766
					l-11.666-0.891l-4.312,15.16l-3.938-0.373L143.198,741.553z M161.852,766.447l5.127-13.152h-16.052l2.304,12.559
					L161.852,766.447z"/>
				<path fill="none" stroke="#000000" stroke-width="3" stroke-miterlimit="10" d="M182.583,741.553h35.967l-5.053,46.594
					l-26.308,1.859L182.583,741.553z M195.066,781.236l12.484-1.857l3.194-28.389l-19.841,1.484L195.066,781.236z"/>
				<path fill="none" stroke="#000000" stroke-width="3" stroke-miterlimit="10" d="M261.132,743.41l-10.182,26.158l7.432,18.949
					l-2.75,1.338l-18.133-15.605l-4.312,14.938l-5.201-0.297l-2.229-47.338L261.132,743.41z M243.146,763.771l6.315-13.229
					l-15.159,1.338l2.229,12.262L243.146,763.771z"/>
				<path fill="none" stroke="#000000" stroke-width="3" stroke-miterlimit="10" d="M266.109,751.438l1.41-9.66L294.868,742v6.986
					l-9.884,0.967l0.966,40.203h-11.593l3.195-39.609L266.109,751.438z"/>
				<path fill="none" stroke="#000000" stroke-width="3" stroke-miterlimit="10" d="M300.442,741.553h35.967l-5.053,46.594
					l-26.308,1.859L300.442,741.553z M312.927,781.236l12.483-1.857l3.195-28.389l-19.843,1.484L312.927,781.236z"/>
				<path fill="none" stroke="#000000" stroke-width="3" stroke-miterlimit="10" d="M361.675,737.912l35.147,17.611l-1.857,22.145
					l-31.062,15.828L361.675,737.912z M370.294,752.18l2.156,27.646l14.49-8.396l0.073-9.291L370.294,752.18z"/>
				<path fill="none" stroke="#000000" stroke-width="3" stroke-miterlimit="10" d="M428.331,748.539l-16.496,1.113l-1.782,12.709
					l18.278,1.336v5.129l-16.793,2.229l1.636,11.443l15.754,0.371l0.371,5.646l-25.19,1.857l-2.824-48.824l28.164,0.521
					L428.331,748.539z"/>
				<path fill="none" stroke="#000000" stroke-width="3" stroke-miterlimit="10" d="M176.527,809.477l-22.069,3.197l2.006,30.541
					l11.072-1.039l3.716-10.773l-9.512-1.562l-0.817-5.203h18.578l-4.015,26.01l-28.015,1.041l-4.979-48.973l34.035,0.744V809.477
					L176.527,809.477z"/>
				<path fill="none" stroke="#000000" stroke-width="3" stroke-miterlimit="10" d="M217.104,804.127l2.303,46.52l-4.086,0.969
					l-4.979-14.863l-13.524,1.338l-3.121,12.561l-3.121-0.371l-3.121-47.486L217.104,804.127z M196.814,829.021l12.188,0.521
					l-4.087-16.943l-4.606,0.445L196.814,829.021z"/>
				<path fill="none" stroke="#000000" stroke-width="3" stroke-miterlimit="10" d="M229.512,802.863h8.99l-2.822,41.541
					l13.896-2.898l0.893,8.621l-21.849,1.783L229.512,802.863z"/>
				<path fill="none" stroke="#000000" stroke-width="3" stroke-miterlimit="10" d="M262.951,802.789l2.749,48.75l-9.513-0.447
					l0.445-47.855L262.951,802.789z"/>
				<path fill="none" stroke="#000000" stroke-width="3" stroke-miterlimit="10" d="M301.741,851.166l-18.132-27.568l-1.934,28.018
					h-4.234l-4.683-48.75h12.188l15.456,31.359l2.229-29.43l4.31-0.52l2.823,46.369L301.741,851.166z"/>
				<path fill="none" stroke="#000000" stroke-width="3" stroke-miterlimit="10" d="M349.302,804.053l1.782,47.266l-4.088-0.074
					l-4.979-18.061l-14.045,1.34l-1.709,15.604l-5.127,0.223l-2.677-47.561l6.91,0.445l3.644,22.146l10.7,0.445l3.271-22.219
					L349.302,804.053z"/>
				<path fill="none" stroke="#000000" stroke-width="3" stroke-miterlimit="10" d="M389.505,804.127l2.304,46.52l-4.088,0.969
					l-4.979-14.863l-13.525,1.338l-3.12,12.561l-3.121-0.371l-3.12-47.486L389.505,804.127z M369.216,829.021l12.188,0.521
					l-4.086-16.943l-4.607,0.445L369.216,829.021z"/>
				<path fill="none" stroke="#000000" stroke-width="3" stroke-miterlimit="10" d="M410.235,825.455l18.28-1.562l0.968,27.271
					l-28.24,0.447l0.447-4.236l17.463-3.789l0.893-10.33l-17.909,1.486l-1.782-31.955l25.34,0.443l-0.445,6.615l-16.424,1.783
					L410.235,825.455z"/>
			</g>
			<g>
				<polygon points="141.759,871.164 271.116,872.604 269.671,869.852 142.581,869.852 				"/>
			</g>
			<g>
				<polygon points="427.458,871.291 298.099,869.852 299.546,872.604 426.636,872.604 				"/>
			</g>
			<g>
				<polygon points="276.775,868.633 281.109,866.578 289.589,866.578 291.645,869.852 284.311,878.139 				"/>
			</g>
			<g>
				<polygon points="141.759,722.164 271.116,723.604 269.671,720.852 142.581,720.852 				"/>
			</g>
			<g>
				<polygon points="427.458,722.293 298.099,720.852 299.546,723.604 426.636,723.604 				"/>
			</g>
			<g>
				<polygon points="276.775,719.633 281.109,717.578 289.589,717.578 291.645,720.852 284.311,729.139 				"/>
			</g>
			<g>
				<path d="M154.736,691.33l0.662,17.506l-1.515-0.027l-1.846-6.688l-5.2,0.494l-0.634,5.781l-1.898,0.082l-0.991-17.615
					l2.561,0.166l1.349,8.201l3.964,0.166l1.211-8.23L154.736,691.33z"/>
				<path d="M166.984,690.863h13.322l-1.873,17.258l-9.742,0.688L166.984,690.863z M171.609,705.561l4.623-0.688l1.185-10.514
					l-7.351,0.549L171.609,705.561z"/>
				<path d="M191.122,694.521l0.522-3.576l10.129,0.082v2.588l-3.66,0.355l0.357,14.893h-4.294l1.185-14.67L191.122,694.521z"/>
				<path d="M222.747,693.451l-6.108,0.412l-0.66,4.707l6.771,0.494v1.898l-6.222,0.824l0.604,4.24l5.837,0.137l0.137,2.092
					l-9.33,0.688l-1.045-18.082l10.432,0.191L222.747,693.451z"/>
				<path d="M235.104,690.891h3.33l-1.045,15.387l5.146-1.072l0.33,3.189l-8.092,0.662L235.104,690.891z"/>
				<path d="M279.391,691.359l0.853,17.229l-1.515,0.357l-1.845-5.506l-5.01,0.496l-1.153,4.65l-1.156-0.137l-1.156-17.588
					L279.391,691.359z M271.875,700.578l4.516,0.191l-1.516-6.273l-1.706,0.166L271.875,700.578z"/>
				<path d="M305.04,691.551l-3.771,9.689l2.753,7.018l-1.02,0.496l-6.717-5.781l-1.597,5.533l-1.928-0.111l-0.824-17.529
					L305.04,691.551z M298.38,699.092l2.341-4.896l-5.615,0.494l0.826,4.541L298.38,699.092z"/>
				<path d="M324.638,708.836l-4.351-10.293L319.6,709h-1.597l-1.733-18.137h4.541l4.871,11.529l2.119-11.199l4.321-0.33
					l1.597,17.447h-2.146l-1.955-11.529l-2.201,11.695L324.638,708.836z"/>
				<path d="M356.233,691.359l0.854,17.229l-1.514,0.357l-1.845-5.506l-5.01,0.496l-1.156,4.65l-1.155-0.137l-1.156-17.588
					L356.233,691.359z M348.72,700.578l4.515,0.191l-1.515-6.273l-1.707,0.166L348.72,700.578z"/>
				<path d="M379.353,694.359l-7.567,0.41l1.127,10.707l6.551-0.109v2.229l-2.918,0.385l-0.164,2.48l-2.2,0.219l-0.604-2.311
					l-3.192,0.578l-2.011-18.084l11.367,1.102L379.353,694.359z"/>
				<path d="M402.085,708.588l-1.514,0.357l-1.845-5.506l-5.008,0.496l-1.156,4.65l-1.155-0.137l-1.156-17.094h10.982
					L402.085,708.588z M392.122,688.633l5.945,0.881l2.891-1.871L400.159,685l-2.615,1.762l-5.201,0.082L392.122,688.633z
					 M398.233,700.771l-1.515-6.275l-1.707,0.166l-1.293,5.918L398.233,700.771z"/>
				<path d="M413.481,690.863h13.319l-1.871,17.258l-9.744,0.688L413.481,690.863z M418.104,705.561l4.623-0.688l1.185-10.514
					l-7.349,0.549L418.104,705.561z"/>
			</g>
		</g>
		<g>
			<g>
				<path fill="#FFFFFF" d="M141.567,885.125l13.156,1.293l-4.815,11.396l-4.32-0.332l-1.597,5.613l-1.459-0.137L141.567,885.125z
					 M148.477,894.346l1.898-4.873h-5.944l0.854,4.652L148.477,894.346z"/>
				<path fill="#FFFFFF" d="M174.514,887.713l-6.109,0.412l-0.66,4.707l6.771,0.494v1.898l-6.222,0.824l0.604,4.24l5.836,0.137
					l0.138,2.092l-9.331,0.688l-1.045-18.082l10.434,0.191L174.514,887.713z"/>
				<path fill="#FFFFFF" d="M198.98,885.812l-3.771,9.688l2.753,7.02l-1.02,0.494l-6.715-5.777l-1.598,5.529l-1.927-0.107
					l-0.826-17.533L198.98,885.812z M192.32,893.354l2.34-4.896l-5.614,0.496l0.825,4.541L192.32,893.354z"/>
				<path fill="#FFFFFF" d="M220.339,903.043l-6.716-10.211l-0.716,10.375h-1.568l-1.733-18.055h4.515l5.726,11.613l0.825-10.898
					l1.599-0.191l1.045,17.174L220.339,903.043z"/>
				<path fill="#FFFFFF" d="M245.303,885.621l0.854,17.229l-1.514,0.357l-1.845-5.504l-5.011,0.496l-1.155,4.648l-1.155-0.137
					l-1.154-17.588L245.303,885.621z M237.788,894.84l4.515,0.193l-1.515-6.275l-1.706,0.166L237.788,894.84z"/>
				<path fill="#FFFFFF" d="M265.587,903.098l-4.351-10.293l-0.688,10.457h-1.598l-1.732-18.137h4.541l4.871,11.531l2.118-11.201
					l4.321-0.33l1.597,17.449h-2.146l-1.955-11.531l-2.201,11.697L265.587,903.098z"/>
				<path fill="#FFFFFF" d="M294.458,892.996l4.652,2.229l-1.681,8.146l-10.623-0.441l-1.103-17.807l10.815,0.164L294.458,892.996z
					 M293.329,888.07l-5.367,0.576l1.269,3.799h2.367L293.329,888.07z M294.458,901.006l1.485-4.293l-7.129-0.908l1.238,5.062
					L294.458,901.006z"/>
				<path fill="#FFFFFF" d="M320.165,885.234l0.99,17.943l-10.681-0.494l-0.688-17.531l2.146-0.027l1.899,13.734l3.275,0.576
					l0.493-14.201H320.165L320.165,885.234z"/>
				<path fill="#FFFFFF" d="M342.954,888.621l-7.569,0.412l1.129,10.707l6.552-0.111v2.23l-9.082,1.348l-2.011-18.082l11.366,1.102
					L342.954,888.621z"/>
				<path fill="#FFFFFF" d="M353.743,885.125h13.32l-1.871,17.258l-9.744,0.688L353.743,885.125z M358.366,899.822l4.623-0.689
					l1.184-10.514l-7.348,0.551L358.366,899.822z"/>
				<path fill="#FFFFFF" d="M377.825,893.408c0-0.99,0.688-1.732,1.651-1.732s1.623,0.715,1.623,1.732
					c0,0.992-0.659,1.732-1.678,1.732C378.485,895.143,377.825,894.4,377.825,893.408z"/>
				<path fill="#FFFFFF" d="M400.366,892.996l4.651,2.229l-1.681,8.146l-10.623-0.441l-1.102-17.807l10.814,0.164L400.366,892.996z
					 M399.237,888.07l-5.367,0.576l1.269,3.799h2.366L399.237,888.07z M400.366,901.006l1.485-4.293l-7.129-0.908l1.237,5.062
					L400.366,901.006z"/>
				<path fill="#FFFFFF" d="M428.769,885.812l-3.771,9.688l2.752,7.02l-1.018,0.494l-6.718-5.777l-1.597,5.529l-1.928-0.107
					l-0.824-17.533L428.769,885.812z M422.108,893.354l2.34-4.896l-5.615,0.496l0.826,4.541L422.108,893.354z"/>
			</g>
			<g id="Porto_1_">
				<path fill="none" stroke="#FFFFFF" stroke-width="3" stroke-miterlimit="10" d="M143.198,740.553l35.521,3.492l-13.006,30.766
					l-11.666-0.891l-4.312,15.16l-3.938-0.373L143.198,740.553z M161.852,765.447l5.127-13.152h-16.052l2.304,12.559
					L161.852,765.447z"/>
				<path fill="none" stroke="#FFFFFF" stroke-width="3" stroke-miterlimit="10" d="M182.583,740.553h35.967l-5.053,46.594
					l-26.308,1.859L182.583,740.553z M195.066,780.236l12.484-1.857l3.194-28.389l-19.841,1.484L195.066,780.236z"/>
				<path fill="none" stroke="#FFFFFF" stroke-width="3" stroke-miterlimit="10" d="M261.132,742.41l-10.182,26.158l7.432,18.949
					l-2.75,1.338l-18.133-15.605l-4.312,14.938l-5.201-0.297l-2.229-47.338L261.132,742.41z M243.146,762.771l6.315-13.229
					l-15.159,1.338l2.229,12.262L243.146,762.771z"/>
				<path fill="none" stroke="#FFFFFF" stroke-width="3" stroke-miterlimit="10" d="M266.109,750.438l1.41-9.66L294.868,741v6.986
					l-9.884,0.967l0.966,40.203h-11.593l3.195-39.609L266.109,750.438z"/>
				<path fill="none" stroke="#FFFFFF" stroke-width="3" stroke-miterlimit="10" d="M300.442,740.553h35.967l-5.053,46.594
					l-26.308,1.859L300.442,740.553z M312.927,780.236l12.483-1.857l3.195-28.389l-19.843,1.484L312.927,780.236z"/>
				<path fill="none" stroke="#FFFFFF" stroke-width="3" stroke-miterlimit="10" d="M361.675,736.912l35.147,17.611l-1.857,22.145
					l-31.062,15.828L361.675,736.912z M370.294,751.18l2.156,27.646l14.49-8.396l0.073-9.291L370.294,751.18z"/>
				<path fill="none" stroke="#FFFFFF" stroke-width="3" stroke-miterlimit="10" d="M428.331,747.539l-16.496,1.113l-1.782,12.709
					l18.278,1.336v5.129l-16.793,2.229l1.636,11.443l15.754,0.371l0.371,5.646l-25.19,1.857l-2.824-48.824l28.164,0.521
					L428.331,747.539z"/>
				<path fill="none" stroke="#FFFFFF" stroke-width="3" stroke-miterlimit="10" d="M176.527,808.477l-22.069,3.197l2.006,30.541
					l11.072-1.039l3.716-10.773l-9.512-1.562l-0.817-5.203h18.578l-4.015,26.01l-28.015,1.041l-4.979-48.973l34.035,0.744V808.477
					L176.527,808.477z"/>
				<path fill="none" stroke="#FFFFFF" stroke-width="3" stroke-miterlimit="10" d="M217.104,803.127l2.303,46.52l-4.086,0.969
					l-4.979-14.863l-13.524,1.338l-3.121,12.561l-3.121-0.371l-3.121-47.486L217.104,803.127z M196.814,828.021l12.188,0.521
					l-4.087-16.943l-4.606,0.445L196.814,828.021z"/>
				<path fill="none" stroke="#FFFFFF" stroke-width="3" stroke-miterlimit="10" d="M229.512,801.863h8.99l-2.822,41.541
					l13.896-2.898l0.893,8.621l-21.849,1.783L229.512,801.863z"/>
				<path fill="none" stroke="#FFFFFF" stroke-width="3" stroke-miterlimit="10" d="M262.951,801.789l2.749,48.75l-9.513-0.447
					l0.445-47.855L262.951,801.789z"/>
				<path fill="none" stroke="#FFFFFF" stroke-width="3" stroke-miterlimit="10" d="M301.741,850.166l-18.132-27.568l-1.934,28.018
					h-4.234l-4.683-48.75h12.188l15.456,31.359l2.229-29.43l4.31-0.52l2.823,46.369L301.741,850.166z"/>
				<path fill="none" stroke="#FFFFFF" stroke-width="3" stroke-miterlimit="10" d="M349.302,803.053l1.782,47.266l-4.088-0.074
					l-4.979-18.061l-14.045,1.34l-1.709,15.604l-5.127,0.223l-2.677-47.561l6.91,0.445l3.644,22.146l10.7,0.445l3.271-22.219
					L349.302,803.053z"/>
				<path fill="none" stroke="#FFFFFF" stroke-width="3" stroke-miterlimit="10" d="M389.505,803.127l2.304,46.52l-4.088,0.969
					l-4.979-14.863l-13.525,1.338l-3.12,12.561l-3.121-0.371l-3.12-47.486L389.505,803.127z M369.216,828.021l12.188,0.521
					l-4.086-16.943l-4.607,0.445L369.216,828.021z"/>
				<path fill="none" stroke="#FFFFFF" stroke-width="3" stroke-miterlimit="10" d="M410.235,824.455l18.28-1.562l0.968,27.271
					l-28.24,0.447l0.447-4.236l17.463-3.789l0.893-10.33l-17.909,1.486l-1.782-31.955l25.34,0.443l-0.445,6.615l-16.424,1.783
					L410.235,824.455z"/>
			</g>
			<g id="_x2014__x__x__x2014__3_">
				<g>
					<polygon fill="#FFFFFF" points="141.759,870.164 271.116,871.604 269.671,868.852 142.581,868.852 					"/>
				</g>
				<g>
					<polygon fill="#FFFFFF" points="427.458,870.291 298.099,868.852 299.546,871.604 426.636,871.604 					"/>
				</g>
				<g>
					<polygon fill="#FFFFFF" points="276.775,867.633 281.109,865.578 289.589,865.578 291.645,868.852 284.311,877.139 					"/>
				</g>
			</g>
			<g id="_x2014__x__x__x2014__2_">
				<g>
					<polygon fill="#FFFFFF" points="141.759,721.164 271.116,722.604 269.671,719.852 142.581,719.852 					"/>
				</g>
				<g>
					<polygon fill="#FFFFFF" points="427.458,721.293 298.099,719.852 299.546,722.604 426.636,722.604 					"/>
				</g>
				<g>
					<polygon fill="#FFFFFF" points="276.775,718.633 281.109,716.578 289.589,716.578 291.645,719.852 284.311,728.139 					"/>
				</g>
			</g>
			<g>
				<path fill="#FFFFFF" d="M154.736,690.33l0.662,17.506l-1.515-0.027l-1.846-6.688l-5.2,0.494l-0.634,5.781l-1.898,0.082
					l-0.991-17.615l2.561,0.166l1.349,8.201l3.964,0.166l1.211-8.23L154.736,690.33z"/>
				<path fill="#FFFFFF" d="M166.984,689.863h13.322l-1.873,17.258l-9.742,0.688L166.984,689.863z M171.609,704.561l4.623-0.688
					l1.185-10.514l-7.351,0.549L171.609,704.561z"/>
				<path fill="#FFFFFF" d="M191.122,693.521l0.522-3.576l10.129,0.082v2.588l-3.66,0.355l0.357,14.893h-4.294l1.185-14.67
					L191.122,693.521z"/>
				<path fill="#FFFFFF" d="M222.747,692.451l-6.108,0.412l-0.66,4.707l6.771,0.494v1.898l-6.222,0.824l0.604,4.24l5.837,0.137
					l0.137,2.092l-9.33,0.688l-1.045-18.082l10.432,0.191L222.747,692.451z"/>
				<path fill="#FFFFFF" d="M235.104,689.891h3.33l-1.045,15.387l5.146-1.072l0.33,3.189l-8.092,0.662L235.104,689.891z"/>
				<path fill="#FFFFFF" d="M279.391,690.359l0.853,17.229l-1.515,0.357l-1.845-5.506l-5.01,0.496l-1.153,4.65l-1.156-0.137
					l-1.156-17.588L279.391,690.359z M271.875,699.578l4.516,0.191l-1.516-6.273l-1.706,0.166L271.875,699.578z"/>
				<path fill="#FFFFFF" d="M305.04,690.551l-3.771,9.689l2.753,7.018l-1.02,0.496l-6.717-5.781l-1.597,5.533l-1.928-0.111
					l-0.824-17.529L305.04,690.551z M298.38,698.092l2.341-4.896l-5.615,0.494l0.826,4.541L298.38,698.092z"/>
				<path fill="#FFFFFF" d="M324.638,707.836l-4.351-10.293L319.6,708h-1.597l-1.733-18.137h4.541l4.871,11.529l2.119-11.199
					l4.321-0.33l1.597,17.447h-2.146l-1.955-11.529l-2.201,11.695L324.638,707.836z"/>
				<path fill="#FFFFFF" d="M356.233,690.359l0.854,17.229l-1.514,0.357l-1.845-5.506l-5.01,0.496l-1.156,4.65l-1.155-0.137
					l-1.156-17.588L356.233,690.359z M348.72,699.578l4.515,0.191l-1.515-6.273l-1.707,0.166L348.72,699.578z"/>
				<path fill="#FFFFFF" d="M379.353,693.359l-7.567,0.41l1.127,10.707l6.551-0.109v2.229l-2.918,0.385l-0.164,2.48l-2.2,0.219
					l-0.604-2.311l-3.192,0.578l-2.011-18.084l11.367,1.102L379.353,693.359z"/>
				<path fill="#FFFFFF" d="M402.085,707.588l-1.514,0.357l-1.845-5.506l-5.008,0.496l-1.156,4.65l-1.155-0.137l-1.156-17.094
					h10.982L402.085,707.588z M392.122,687.633l5.945,0.881l2.891-1.871L400.159,684l-2.615,1.762l-5.201,0.082L392.122,687.633z
					 M398.233,699.771l-1.515-6.275l-1.707,0.166l-1.293,5.918L398.233,699.771z"/>
				<path fill="#FFFFFF" d="M413.481,689.863h13.319l-1.871,17.258l-9.744,0.688L413.481,689.863z M418.104,704.561l4.623-0.688
					l1.185-10.514l-7.349,0.549L418.104,704.561z"/>
			</g>
		</g>
	</g>
	<g id="_x32_014-en">
		<g>
			<path fill="#FFF7BD" d="M143.206,527.037v-4.822l33.192-33.902c10.922-11.061,18.297-19.855,18.297-32.34
				c0-14.326-9.077-19.148-23.403-19.148c-9.787,0-26.666,3.688-26.666,3.688l-0.709-4.822c0,0,15.744-3.688,27.519-3.688
				c17.162,0,28.651,6.24,28.651,23.971c0,15.18-9.221,25.107-18.155,34.043l-31.772,32.061h52.907v4.965L143.206,527.037
				L143.206,527.037z"/>
			<path fill="#FFF7BD" d="M281.227,482.498c0,36.17-13.477,45.814-32.199,45.814s-32.34-9.646-32.34-46.102
				c0-40.566,13.189-50.213,32.196-50.213C268.743,432,281.227,441.93,281.227,482.498z M222.075,482.498
				c0,33.475,10.78,40.992,26.95,40.992s26.81-7.52,26.81-41.277c0-36.311-9.36-45.391-26.95-45.391
				C231.723,436.822,222.075,445.477,222.075,482.498z"/>
			<path fill="#FFF7BD" d="M329.03,433.418h5.106v93.619h-5.106v-88.086l-26.101,17.873l-2.412-4.115L329.03,433.418z"/>
			<path fill="#FFF7BD" d="M415.276,508.312h-47.095v-4.256l30.64-70.641h5.532l-30.071,70.072h40.994v-33.9h5.104v33.9h13.051v4.82
				h-13.051v18.727h-5.104V508.312z"/>
		</g>
		<g>
			<path fill="#FFF7BD" d="M214.573,536.727h3.829l4.005,15.291h-1.914l-1.078-3.674h-5.94l-1.033,3.674h-1.914L214.573,536.727z
				 M213.893,546.584h5.127l-2.111-8.164h-0.859L213.893,546.584z"/>
			<path fill="#FFF7BD" d="M233.4,547.023v4.992h-1.914v-15.291h5.349c3.233,0,4.929,1.738,4.929,4.975
				c0,3.256-1.693,5.324-4.929,5.324H233.4L233.4,547.023z M236.812,545.264c2.092,0,2.992-1.52,2.992-3.562
				c0-2.025-0.9-3.213-2.992-3.213h-3.41v6.775H236.812L236.812,545.264z"/>
			<path fill="#FFF7BD" d="M256.253,546.342h-3.39v5.676h-1.891v-15.291h5.435c3.213,0,4.93,1.496,4.93,4.73
				c0,2.221-0.836,3.783-2.687,4.422l2.795,6.139h-2.112l-2.573-5.697L256.253,546.342z M256.407,538.508h-3.543v6.096h3.563
				c2.092,0,2.928-1.387,2.928-3.125C259.355,539.586,258.3,538.508,256.407,538.508z"/>
			<path fill="#FFF7BD" d="M270.786,536.727h1.914v15.291h-1.914V536.727z"/>
			<path fill="#FFF7BD" d="M282.784,552.018v-15.291h1.893v13.512h6.271v1.779H282.784z"/>
			<path fill="#FFF7BD" d="M311.427,552.018v-1.717l4.138-4.158c1.782-1.805,2.86-3.059,2.86-4.729s-1.058-2.332-2.949-2.332
				c-1.519,0-3.808,0.463-3.808,0.463l-0.131-1.717c0,0,2.397-0.572,4.334-0.572c2.884,0,4.533,1.211,4.533,3.939
				c0,2.311-1.058,3.676-2.884,5.502l-3.586,3.52h6.819v1.805h-9.328L311.427,552.018L311.427,552.018z"/>
			<path fill="#FFF7BD" d="M338.628,539.389c0,0-2.067-0.354-3.785-0.354c-2.311,0-3.65,1.408-3.674,4.754
				c0,0,1.957-0.859,3.41-0.859c2.992,0,4.817,1.365,4.817,4.467c0,3.125-1.913,4.863-5.038,4.863c-3.433,0-5.171-2.729-5.171-7.547
				c0-5.633,2.375-7.459,5.654-7.459c1.629,0,3.961,0.439,3.961,0.439L338.628,539.389z M331.146,545.352
				c0.045,2.859,0.946,5.148,3.213,5.148c1.893,0,3.059-1.1,3.059-3.104c0-1.914-1.188-2.771-2.971-2.771
				C332.907,544.625,331.146,545.352,331.146,545.352z"/>
			<path fill="#FFF7BD" d="M349.55,541.25v2.939c0,1.205,0.166,1.668,0.858,1.668c0.358,0,1.026-0.064,1.026-0.064l0.052,0.898
				c0,0-0.759,0.141-1.207,0.141c-1.295,0-1.81-0.641-1.81-2.361v-3.221h-0.858v-0.961h0.858v-1.951h1.077v1.951h1.859v0.961H349.55
				z"/>
			<path fill="#FFF7BD" d="M356.751,546.691v-9.178h1.093v3.043c0,0,1.024-0.412,1.81-0.412c1.707,0,2.155,1.055,2.155,3.195v3.352
				h-1.09v-3.338c0-1.449-0.181-2.221-1.246-2.221c-0.72,0-1.629,0.348-1.629,0.348v5.211H356.751L356.751,546.691z"/>
		</g>
	</g>
	<g id="_x32_014-en_1_">
		<g>
			<path fill="#FFF7BD" d="M143.206,649.037v-4.822l33.192-33.902c10.922-11.061,18.297-19.855,18.297-32.34
				c0-14.326-9.077-19.148-23.403-19.148c-9.787,0-26.666,3.688-26.666,3.688l-0.709-4.822c0,0,15.744-3.688,27.519-3.688
				c17.162,0,28.651,6.24,28.651,23.971c0,15.18-9.221,25.107-18.155,34.043l-31.772,32.061h52.907v4.965L143.206,649.037
				L143.206,649.037z"/>
			<path fill="#FFF7BD" d="M281.227,604.498c0,36.17-13.477,45.814-32.199,45.814s-32.34-9.646-32.34-46.102
				c0-40.566,13.189-50.213,32.196-50.213C268.743,554,281.227,563.93,281.227,604.498z M222.075,604.498
				c0,33.475,10.78,40.992,26.95,40.992s26.81-7.52,26.81-41.277c0-36.311-9.36-45.391-26.95-45.391
				C231.723,558.822,222.075,567.477,222.075,604.498z"/>
			<path fill="#FFF7BD" d="M329.03,555.418h5.106v93.619h-5.106v-88.086l-26.101,17.873l-2.412-4.115L329.03,555.418z"/>
			<path fill="#FFF7BD" d="M415.276,630.312h-47.095v-4.256l30.64-70.641h5.532l-30.071,70.072h40.994v-33.9h5.104v33.9h13.051v4.82
				h-13.051v18.727h-5.104V630.312z"/>
		</g>
		<g>
			<path fill="#FFF7BD" d="M198.021,674.236v-1.717l4.14-4.158c1.78-1.807,2.858-3.061,2.858-4.729c0-1.672-1.058-2.332-2.949-2.332
				c-1.518,0-3.807,0.461-3.807,0.461l-0.131-1.715c0,0,2.396-0.572,4.334-0.572c2.883,0,4.532,1.209,4.532,3.938
				c0,2.312-1.058,3.676-2.881,5.502l-3.589,3.521h6.82v1.807h-9.33L198.021,674.236L198.021,674.236z"/>
			<path fill="#FFF7BD" d="M225.225,661.605c0,0-2.068-0.354-3.785-0.354c-2.312,0-3.652,1.408-3.674,4.754
				c0,0,1.957-0.857,3.409-0.857c2.991,0,4.817,1.363,4.817,4.467c0,3.125-1.914,4.861-5.039,4.861
				c-3.434,0-5.172-2.729-5.172-7.547c0-5.633,2.377-7.459,5.656-7.459c1.627,0,3.961,0.439,3.961,0.439L225.225,661.605z
				 M217.741,667.568c0.045,2.859,0.946,5.148,3.213,5.148c1.894,0,3.06-1.102,3.06-3.104c0-1.914-1.188-2.771-2.972-2.771
				C219.503,666.844,217.741,667.568,217.741,667.568z"/>
			<path fill="#FFF7BD" d="M255.055,674.236h-1.85v-0.617c0,0-1.562,0.84-3.014,0.84c-2.883,0-3.939-2.201-3.939-5.699
				c0-3.766,1.453-5.744,4.533-5.744c0.924,0,2.135,0.242,2.42,0.287v-4.797h1.85V674.236L255.055,674.236z M253.206,672.08v-7.195
				c-0.285-0.045-1.408-0.221-2.312-0.221c-1.957,0-2.771,1.453-2.771,4.137c0,2.42,0.64,3.982,2.332,3.982
				C251.688,672.783,253.206,672.08,253.206,672.08z"/>
			<path fill="#FFF7BD" d="M272.919,672.629l0.043,1.432c0,0-2.178,0.42-4.092,0.42c-3.277,0-4.445-2.113-4.445-5.654
				c0-3.873,1.695-5.812,4.556-5.812c2.861,0,4.379,1.719,4.379,5.105l-0.108,1.387h-6.933c0,1.895,0.66,3.322,2.688,3.322
				C270.562,672.828,272.919,672.629,272.919,672.629z M271.486,668.053c0-2.396-0.793-3.453-2.508-3.453
				c-1.694,0-2.662,1.102-2.685,3.453H271.486z"/>
			<path fill="#FFF7BD" d="M297.556,658.943h3.83l4.004,15.293h-1.914l-1.077-3.674h-5.941l-1.033,3.674h-1.913L297.556,658.943z
				 M296.876,668.801h5.125l-2.108-8.162h-0.858L296.876,668.801z"/>
			<path fill="#FFF7BD" d="M319.817,658.943c2.729,0,4.555,1.23,4.555,3.809c0,1.959-0.685,3.035-1.894,3.631
				c1.363,0.482,2.332,1.496,2.332,3.562c0,3.061-1.979,4.291-4.752,4.291h-5.59v-15.293H319.817z M316.362,660.682v4.996h3.498
				c1.694,0,2.553-1.057,2.553-2.664c0-1.518-0.99-2.332-2.685-2.332H316.362z M316.362,667.326v5.189h3.631
				c1.629,0,2.838-0.811,2.838-2.707c0-2.045-1.869-2.482-2.926-2.482H316.362L316.362,667.326z"/>
			<path fill="#FFF7BD" d="M339.616,668.559h-3.39v5.68h-1.894v-15.293h5.437c3.214,0,4.929,1.496,4.929,4.729
				c0,2.225-0.836,3.785-2.685,4.424l2.795,6.141h-2.112l-2.574-5.699L339.616,668.559z M339.771,660.727h-3.544v6.096h3.563
				c2.091,0,2.927-1.387,2.927-3.123C342.718,661.805,341.663,660.727,339.771,660.727z"/>
			<path fill="#FFF7BD" d="M354.149,658.943h1.913v15.293h-1.913V658.943z"/>
			<path fill="#FFF7BD" d="M366.147,674.236v-15.293h1.893v13.51h6.271v1.783H366.147z"/>
		</g>
	</g>
</g>
</svg>
