<?xml version="1.0" encoding="utf-8"?>
<!-- Generator: Adobe Illustrator 16.0.0, SVG Export Plug-In . SVG Version: 6.00 Build 0)  -->
<!DOCTYPE svg PUBLIC "-//W3C//DTD SVG 1.1//EN" "http://www.w3.org/Graphics/SVG/1.1/DTD/svg11.dtd">
<svg version="1.1" xmlns="http://www.w3.org/2000/svg" xmlns:xlink="http://www.w3.org/1999/xlink" x="0px" y="0px" width="64px"
	 height="65px" viewBox="1250.5 1015.5 64 65" enable-background="new 1250.5 1015.5 64 65" xml:space="preserve">
<g id="Background_x23_2">
</g>
<g id="Background_x23_1">
</g>
<g id="Location">
</g>
<g id="CTA:_Icons">
	<g id="Icon:_TIckets_1_">
		<g>
			<rect x="1276.158" y="1048.237" width="4.132" height="2.525"/>
			<path d="M1282.414,1032.867c-0.377,0-0.732,0.149-1.003,0.418l-5.507,5.506l2.013,2.021l3.075-3.069v7.564h2.854v-7.564
				l3.064,3.069l2.023-2.021l-5.51-5.506C1283.157,1033.017,1282.793,1032.867,1282.414,1032.867z"/>
			<rect x="1284.547" y="1048.237" width="4.132" height="2.525"/>
			<path d="M1250.5,1016.5v64h64v-64H1250.5z M1297.237,1048.236h-4.132v2.525h4.132V1071c0,1.379-1.12,2.498-2.502,2.498h-7.641
				c-1.374,0-2.495-1.119-2.495-2.498c0-1.158-0.941-2.104-2.104-2.104c-1.152,0-2.093,0.945-2.093,2.104
				c0,1.381-1.121,2.498-2.506,2.498h-7.641c-0.661,0-1.29-0.261-1.759-0.73c-0.47-0.469-0.735-1.105-0.735-1.768v-20.238h4.131
				v-2.525h-4.131v-20.24c0-1.379,1.12-2.496,2.494-2.496h7.64c1.384,0,2.505,1.117,2.505,2.496c0,1.162,0.942,2.102,2.095,2.102
				c0.561,0,1.096-0.217,1.488-0.613c0.401-0.396,0.615-0.924,0.615-1.486c0-0.661,0.266-1.299,0.734-1.768
				c0.468-0.469,1.099-0.729,1.761-0.729h7.641c1.382,0,2.502,1.119,2.502,2.496V1048.236z"/>
		</g>
		<g>
			<g>
				<rect x="1276.158" y="1047.237" fill="#FFFFFF" width="4.132" height="2.525"/>
				<path fill="#FFFFFF" d="M1282.414,1031.867c-0.377,0-0.732,0.149-1.003,0.418l-5.507,5.506l2.013,2.021l3.075-3.069v7.564h2.854
					v-7.564l3.064,3.069l2.023-2.021l-5.51-5.506C1283.157,1032.017,1282.793,1031.867,1282.414,1031.867z"/>
				<rect x="1284.547" y="1047.237" fill="#FFFFFF" width="4.132" height="2.525"/>
				<path fill="#FFFFFF" d="M1250.5,1015.5v64h64v-64H1250.5z M1297.237,1047.236h-4.132v2.525h4.132V1070
					c0,1.379-1.12,2.498-2.502,2.498h-7.641c-1.374,0-2.495-1.119-2.495-2.498c0-1.158-0.941-2.104-2.104-2.104
					c-1.152,0-2.093,0.945-2.093,2.104c0,1.381-1.121,2.498-2.506,2.498h-7.641c-0.661,0-1.29-0.261-1.759-0.73
					c-0.47-0.469-0.735-1.105-0.735-1.768v-20.238h4.131v-2.525h-4.131v-20.24c0-1.379,1.12-2.496,2.494-2.496h7.64
					c1.384,0,2.505,1.117,2.505,2.496c0,1.162,0.942,2.102,2.095,2.102c0.561,0,1.096-0.217,1.488-0.613
					c0.401-0.396,0.615-0.924,0.615-1.486c0-0.661,0.266-1.299,0.734-1.768c0.468-0.469,1.099-0.729,1.761-0.729h7.641
					c1.382,0,2.502,1.119,2.502,2.496V1047.236z"/>
			</g>
		</g>
	</g>
</g>
<g id="Landing">
</g>
<g id="Graphics">
</g>
<g id="Sponsors">
</g>
</svg>
