<?xml version="1.0" encoding="utf-8"?>
<!-- Generator: Adobe Illustrator 16.0.0, SVG Export Plug-In . SVG Version: 6.00 Build 0)  -->
<!DOCTYPE svg PUBLIC "-//W3C//DTD SVG 1.1//EN" "http://www.w3.org/Graphics/SVG/1.1/DTD/svg11.dtd">
<svg version="1.1" xmlns="http://www.w3.org/2000/svg" xmlns:xlink="http://www.w3.org/1999/xlink" x="0px" y="0px" width="64px"
	 height="65px" viewBox="1364.5 1015.5 64 65" enable-background="new 1364.5 1015.5 64 65" xml:space="preserve">
<g id="Background_x23_2">
</g>
<g id="Background_x23_1">
</g>
<g id="Location">
</g>
<g id="CTA:_Icons">
	<g id="Icon:_CFP_2_">
		<g>
			<path d="M1411.5,1042.74v6.721c0,6.764-5.714,12.479-12.479,12.479l0,0v6.719h8.16v3.84h-20.16v-3.84h8.16v-6.719
				c-6.765,0-12.48-5.715-12.48-12.479v-6.721h3.841v6.721c0,4.682,3.955,8.639,8.64,8.639h3.84l0,0
				c4.683,0,8.641-3.957,8.641-8.639v-6.721H1411.5z M1389.421,1049.461v-19.201c0-3.069,2.69-5.761,5.76-5.761h3.84
				c2.743,0,5.178,2.152,5.667,4.801h-5.708v1.921h5.802v1.918h-5.802v1.921h5.802v1.92h-5.802v1.92h5.802v1.92h-5.802v1.921h5.802
				v1.918h-5.802v1.92h5.802v1.922h-5.802v1.918h5.708c-0.489,2.648-2.924,4.801-5.667,4.801h-3.84
				C1392.111,1055.219,1389.421,1052.527,1389.421,1049.461z M1364.5,1016.5v64h64v-64H1364.5z"/>
		</g>
		<g>
			<path fill="#FFFFFF" d="M1411.5,1041.74v6.721c0,6.764-5.714,12.479-12.479,12.479l0,0v6.719h8.16v3.84h-20.16v-3.84h8.16v-6.719
				c-6.765,0-12.48-5.715-12.48-12.479v-6.721h3.841v6.721c0,4.682,3.955,8.639,8.64,8.639h3.84l0,0
				c4.683,0,8.641-3.957,8.641-8.639v-6.721H1411.5z M1389.421,1048.461v-19.201c0-3.069,2.69-5.761,5.76-5.761h3.84
				c2.743,0,5.178,2.152,5.667,4.801h-5.708v1.921h5.802v1.918h-5.802v1.921h5.802v1.92h-5.802v1.92h5.802v1.92h-5.802v1.921h5.802
				v1.918h-5.802v1.92h5.802v1.922h-5.802v1.918h5.708c-0.489,2.648-2.924,4.801-5.667,4.801h-3.84
				C1392.111,1054.219,1389.421,1051.527,1389.421,1048.461z M1364.5,1015.5v64h64v-64H1364.5z"/>
		</g>
	</g>
</g>
<g id="Landing">
</g>
<g id="Graphics">
</g>
<g id="Sponsors">
</g>
</svg>
