<?xml version="1.0" encoding="utf-8"?>
<!-- Generator: Adobe Illustrator 16.0.0, SVG Export Plug-In . SVG Version: 6.00 Build 0)  -->
<!DOCTYPE svg PUBLIC "-//W3C//DTD SVG 1.1//EN" "http://www.w3.org/Graphics/SVG/1.1/DTD/svg11.dtd">
<svg version="1.1" id="Layer_1" xmlns="http://www.w3.org/2000/svg" xmlns:xlink="http://www.w3.org/1999/xlink" x="0px" y="0px"
	 width="200px" height="200px" viewBox="0 0 200 200" enable-background="new 0 0 200 200" xml:space="preserve">
<g>
	<path opacity="0.3" fill="#CCCCCC" d="M100,199c-54.589,0-99-44.411-99-99S45.411,1,100,1s99,44.411,99,99S154.589,199,100,199z"/>
	<path fill="#CCCCCC" d="M100,2c54.037,0,98,43.962,98,98c0,54.037-43.963,98-98,98c-54.038,0-98-43.963-98-98
		C2,45.962,45.962,2,100,2 M100,0C44.771,0,0,44.771,0,100s44.771,100,100,100s100-44.771,100-100S155.229,0,100,0L100,0z"/>
</g>
<path id="Microphone_4_" d="M110.566,48.245v6.716c0,4.686-3.965,8.637-8.647,8.637l0,0h-3.838c-4.684,0-8.64-3.951-8.64-8.637
	v-6.716h-3.844v6.716c0,6.762,5.719,12.475,12.483,12.475v6.724H89.92V78h20.161v-3.841h-8.162v-6.724l0,0
	c6.772,0,12.483-5.713,12.483-12.475v-6.716H110.566z M92.323,54.961v-19.2c0-3.066,2.689-5.761,5.758-5.761h3.838
	c2.745,0,5.183,2.152,5.667,4.805h-5.707v1.92h5.801v1.917h-5.801v1.922h5.801v1.919h-5.801v1.919h5.801v1.92h-5.801v1.922h5.801
	v1.915h-5.801v1.922h5.801V54h-5.801v1.919h5.707c-0.484,2.651-2.922,4.806-5.667,4.806h-3.838
	C95.012,60.725,92.323,58.028,92.323,54.961z"/>
</svg>
