<?xml version="1.0" encoding="utf-8"?>
<!-- Generator: Adobe Illustrator 16.0.0, SVG Export Plug-In . SVG Version: 6.00 Build 0)  -->
<!DOCTYPE svg PUBLIC "-//W3C//DTD SVG 1.1//EN" "http://www.w3.org/Graphics/SVG/1.1/DTD/svg11.dtd">
<svg version="1.1" id="Layer_1" xmlns="http://www.w3.org/2000/svg" xmlns:xlink="http://www.w3.org/1999/xlink" x="0px" y="0px"
	 width="200px" height="200px" viewBox="0 0 200 200" enable-background="new 0 0 200 200" xml:space="preserve">
<g>
	<path opacity="0.3" fill="#CCCCCC" d="M100,199c-54.589,0-99-44.411-99-99S45.411,1,100,1s99,44.411,99,99S154.589,199,100,199z"/>
	<path fill="#CCCCCC" d="M100,2c54.037,0,98,43.962,98,98c0,54.037-43.963,98-98,98c-54.038,0-98-43.963-98-98
		C2,45.962,45.962,2,100,2 M100,0C44.771,0,0,44.771,0,100s44.771,100,100,100s100-44.771,100-100S155.229,0,100,0L100,0z"/>
</g>
<g id="Translation">
	<path d="M77.137,54.662v-6.088h-6.365c-2.463,0-4.47-2.133-4.47-4.754V30.093c0-2.622,2.005-4.756,4.47-4.756h28.463
		c2.462,0,4.466,2.135,4.466,4.756v13.726c0,2.622-2.002,4.754-4.466,4.754v3.337c4.302,0,7.804-3.63,7.804-8.092V30.093
		c0-4.461-3.502-8.093-7.804-8.093H70.772c-4.305,0-7.806,3.632-7.806,8.093v13.726c0,4.462,3.501,8.092,7.806,8.092H73.8v5.915
		c0,0.907,0.585,1.731,1.457,2.051c0.249,0.092,0.502,0.137,0.753,0.137c0.608,0,1.194-0.263,1.606-0.75l6.212-7.353h6.2v-3.336
		H82.28L77.137,54.662z"/>
	<path d="M129.229,39.988h-19.27v3.337h19.27c2.463,0,4.469,2.134,4.469,4.756v13.724c0,2.622-2.004,4.756-4.469,4.756h-6.365v6.09
		l-5.143-6.089h-16.955c-2.464,0-4.468-2.134-4.468-4.757V48.082c0-2.623,2.004-4.756,4.468-4.756v-3.337
		c-4.304,0-7.806,3.631-7.806,8.092v13.726c0,4.464,3.501,8.094,7.806,8.094h15.404l6.215,7.355
		c0.412,0.483,0.996,0.745,1.604,0.745c0.25,0,0.504-0.044,0.754-0.135c0.871-0.321,1.459-1.146,1.459-2.055v-5.911h3.027
		c4.305,0,7.805-3.63,7.805-8.093V48.082C137.033,43.619,133.533,39.988,129.229,39.988z"/>
	<g>
		<path d="M110.084,63.492v-17.17h9.035c3.27,0,4.943,2.085,4.943,4.376c0,2.137-1.34,3.604-2.961,3.939
			c1.855,0.283,3.295,2.059,3.295,4.195c0,2.601-1.697,4.66-4.994,4.66L110.084,63.492L110.084,63.492z M120.33,51.342
			c0-1.056-0.771-1.802-2.008-1.802h-4.584v3.604h4.584C119.559,53.144,120.33,52.448,120.33,51.342z M120.664,58.318
			c0-1.082-0.773-1.958-2.188-1.958h-4.738v3.914h4.738C119.84,60.275,120.664,59.553,120.664,58.318z"/>
	</g>
	<g>
		<path d="M86.933,45.093l-1.081-2.909H78.49l-1.083,2.909h-4.145l6.616-17.171h4.583l6.616,17.171H86.933z M82.169,31.578
			l-2.676,7.389h5.355L82.169,31.578z"/>
	</g>
</g>
</svg>
