<?xml version="1.0" encoding="utf-8"?>
<!-- Generator: Adobe Illustrator 16.0.0, SVG Export Plug-In . SVG Version: 6.00 Build 0)  -->
<!DOCTYPE svg PUBLIC "-//W3C//DTD SVG 1.1//EN" "http://www.w3.org/Graphics/SVG/1.1/DTD/svg11.dtd">
<svg version="1.1" xmlns="http://www.w3.org/2000/svg" xmlns:xlink="http://www.w3.org/1999/xlink" x="0px" y="0px" width="200px"
	 height="200px" viewBox="0 0 200 200" enable-background="new 0 0 200 200" xml:space="preserve">
<g id="Gold">
</g>
<g id="Bronze">
</g>
<g id="Supporters">
	<g>
		<g>
			<path fill-rule="evenodd" clip-rule="evenodd" fill="#0358A5" d="M49.253,92.935l-0.484,5.557
				c-0.788-0.591-1.595-1.038-2.431-1.338c-0.834-0.294-1.698-0.435-2.578-0.435c-2.093,0-3.761,0.766-4.995,2.321
				c-1.242,1.552-1.852,3.624-1.852,6.244c0,2.61,0.625,4.709,1.887,6.26c1.267,1.555,2.95,2.33,5.051,2.33
				c0.821,0,1.666-0.124,2.525-0.382c0.856-0.255,1.726-0.643,2.603-1.151l0.34,5.968c-1,0.351-2.001,0.618-3.009,0.796
				c-1.001,0.163-2.015,0.253-3.03,0.253c-3.803,0-6.765-1.239-8.885-3.717c-2.124-2.472-3.187-5.934-3.187-10.356
				c0-4.239,1.048-7.596,3.139-10.082c2.087-2.483,4.934-3.724,8.513-3.724c1.204,0,2.341,0.123,3.412,0.36
				C47.352,92.082,48.34,92.451,49.253,92.935L49.253,92.935z M60.14,109.772c-1.56,0-2.682,0.221-3.375,0.645
				c-0.688,0.423-1.02,1.12-1.02,2.073c0,0.679,0.177,1.242,0.552,1.659c0.361,0.424,0.848,0.643,1.462,0.643
				c0.956,0,1.747-0.411,2.366-1.237c0.613-0.822,0.915-1.896,0.915-3.217v-0.565H60.14L60.14,109.772z M66.053,108.427v10.312
				h-4.609l-0.118-3.071c-0.635,1.128-1.389,1.971-2.272,2.502c-0.901,0.53-1.975,0.792-3.226,0.792c-1.575,0-2.823-0.568-3.76-1.7
				c-0.932-1.139-1.396-2.653-1.396-4.547c0-2.194,0.678-3.806,2.03-4.862c1.354-1.049,3.442-1.578,6.268-1.578h2.071v-0.275
				c0-1.065-0.317-1.889-0.969-2.46c-0.648-0.584-1.593-0.862-2.831-0.862c-0.612,0-1.303,0.127-2.079,0.404
				c-0.781,0.275-1.609,0.679-2.51,1.205l-0.083-4.456c0.862-0.458,1.799-0.808,2.806-1.031c1.008-0.217,2.119-0.34,3.323-0.34
				c2.539,0,4.392,0.813,5.576,2.408C65.454,102.473,66.053,104.992,66.053,108.427L66.053,108.427z M80.121,99.526l-0.511,4.76
				c-0.709-0.52-1.422-0.908-2.141-1.175c-0.724-0.262-1.41-0.401-2.07-0.401c-0.649,0-1.147,0.149-1.507,0.441
				c-0.349,0.288-0.524,0.711-0.524,1.25c0,0.692,0.713,1.294,2.16,1.799c0.448,0.161,0.809,0.284,1.079,0.388
				c1.645,0.62,2.795,1.385,3.451,2.286c0.653,0.898,0.978,2.122,0.978,3.689c0,2.083-0.631,3.712-1.911,4.917
				c-1.276,1.201-3.034,1.799-5.277,1.799c-0.949,0-1.89-0.096-2.819-0.273c-0.927-0.189-1.839-0.467-2.733-0.853l0.333-5.045
				c0.757,0.484,1.527,0.854,2.334,1.116c0.806,0.25,1.616,0.384,2.444,0.384c0.775,0,1.357-0.142,1.751-0.409
				c0.401-0.269,0.592-0.666,0.592-1.204c0-0.796-0.8-1.504-2.381-2.096c-0.394-0.154-0.706-0.272-0.938-0.359
				c-1.612-0.669-2.749-1.424-3.387-2.259c-0.639-0.83-0.949-1.92-0.949-3.268c0-2.061,0.634-3.653,1.914-4.804
				c1.275-1.144,3.069-1.716,5.391-1.716c0.747,0,1.535,0.09,2.321,0.267C78.519,98.931,79.318,99.195,80.121,99.526L80.121,99.526z
				 M91.466,109.772c-1.557,0-2.679,0.221-3.37,0.645c-0.688,0.423-1.032,1.12-1.032,2.073c0,0.679,0.185,1.242,0.549,1.659
				c0.371,0.424,0.858,0.643,1.467,0.643c0.965,0,1.751-0.411,2.364-1.237c0.617-0.822,0.924-1.896,0.924-3.217v-0.565H91.466
				L91.466,109.772z M97.378,108.427v10.312H92.77l-0.12-3.071c-0.632,1.128-1.389,1.971-2.276,2.502
				c-0.893,0.53-1.969,0.792-3.224,0.792c-1.566,0-2.825-0.568-3.754-1.7c-0.934-1.139-1.407-2.653-1.407-4.547
				c0-2.194,0.688-3.806,2.036-4.862c1.361-1.049,3.447-1.578,6.266-1.578h2.077v-0.275c0-1.065-0.325-1.889-0.968-2.46
				c-0.651-0.584-1.597-0.862-2.833-0.862c-0.607,0-1.296,0.127-2.079,0.404c-0.779,0.275-1.614,0.679-2.506,1.205l-0.086-4.456
				c0.866-0.458,1.798-0.808,2.808-1.031c1-0.217,2.118-0.34,3.318-0.34c2.539,0,4.396,0.813,5.581,2.408
				C96.783,102.473,97.378,104.992,97.378,108.427L97.378,108.427z M107.631,103.439c-1.052,0-1.895,0.467-2.507,1.422
				c-0.621,0.948-0.924,2.237-0.924,3.865c0,1.653,0.291,2.954,0.883,3.896c0.58,0.933,1.395,1.401,2.426,1.401
				c0.979,0,1.749-0.459,2.327-1.37c0.579-0.928,0.867-2.15,0.867-3.688c0-1.648-0.288-2.987-0.859-3.998
				C109.269,103.953,108.532,103.439,107.631,103.439L107.631,103.439z M98.878,89.982h5.322v11.775
				c0.613-1.101,1.344-1.915,2.183-2.458c0.838-0.529,1.806-0.806,2.909-0.806c2.082,0,3.743,0.922,4.985,2.75
				c1.239,1.828,1.863,4.282,1.863,7.363c0,3.118-0.635,5.641-1.918,7.558c-1.271,1.92-2.941,2.871-4.992,2.871
				c-1.227,0-2.319-0.358-3.281-1.082c-0.946-0.722-1.735-1.778-2.329-3.162v3.947h-4.742V89.982L98.878,89.982z M117.357,89.982
				h5.32v28.757h-5.32V89.982L117.357,89.982z M134.013,109.772c-1.56,0-2.692,0.221-3.373,0.645
				c-0.69,0.423-1.038,1.12-1.038,2.073c0,0.679,0.191,1.242,0.557,1.659c0.371,0.424,0.858,0.643,1.467,0.643
				c0.965,0,1.756-0.411,2.368-1.237c0.608-0.822,0.921-1.896,0.921-3.217v-0.565H134.013L134.013,109.772z M139.921,108.427v10.312
				h-4.614l-0.111-3.071c-0.628,1.128-1.391,1.971-2.281,2.502c-0.893,0.53-1.958,0.792-3.217,0.792c-1.572,0-2.829-0.568-3.766-1.7
				c-0.929-1.139-1.393-2.653-1.393-4.547c0-2.194,0.68-3.806,2.029-4.862c1.361-1.049,3.449-1.578,6.268-1.578h2.078v-0.275
				c0-1.065-0.332-1.889-0.973-2.46c-0.648-0.584-1.595-0.862-2.825-0.862c-0.615,0-1.306,0.127-2.084,0.404
				c-0.773,0.275-1.612,0.679-2.505,1.205l-0.09-4.456c0.87-0.458,1.807-0.808,2.809-1.031c1.004-0.217,2.119-0.34,3.322-0.34
				c2.534,0,4.393,0.813,5.582,2.408C139.325,102.473,139.921,104.992,139.921,108.427L139.921,108.427z M158.032,107.199v11.54
				h-5.269v-10.132c0-1.551-0.219-2.704-0.652-3.453c-0.43-0.753-1.083-1.132-1.972-1.132c-0.914,0-1.659,0.472-2.214,1.422
				c-0.555,0.946-0.83,2.219-0.83,3.82v9.475h-5.324V99.022h4.832v3.544c0.613-1.322,1.4-2.336,2.357-3.029
				c0.967-0.695,2.05-1.043,3.261-1.043c1.897,0,3.334,0.75,4.326,2.223C157.543,102.203,158.032,104.362,158.032,107.199
				L158.032,107.199z M173.187,99.526l-0.377,4.945c-0.514-0.361-1.031-0.631-1.545-0.807c-0.511-0.17-1.019-0.257-1.532-0.257
				c-1.314,0-2.361,0.493-3.137,1.479c-0.771,0.981-1.161,2.321-1.161,3.999c0,1.654,0.407,2.973,1.233,3.964
				c0.829,0.98,1.932,1.47,3.312,1.47c0.582,0,1.137-0.095,1.674-0.278c0.533-0.186,1.053-0.477,1.556-0.861l0.117,5.187
				c-0.679,0.293-1.428,0.527-2.251,0.683c-0.816,0.165-1.709,0.23-2.667,0.23c-2.515,0-4.55-0.951-6.12-2.866
				c-1.564-1.899-2.353-4.402-2.353-7.481c0-3.236,0.793-5.78,2.376-7.64c1.58-1.86,3.755-2.798,6.516-2.798
				c0.673,0,1.366,0.09,2.088,0.263C171.646,98.923,172.389,99.177,173.187,99.526L173.187,99.526z M184.092,109.772
				c-1.56,0-2.682,0.221-3.368,0.645c-0.696,0.423-1.036,1.12-1.036,2.073c0,0.679,0.189,1.242,0.549,1.659
				c0.372,0.424,0.855,0.643,1.469,0.643c0.968,0,1.759-0.411,2.369-1.237c0.609-0.822,0.919-1.896,0.919-3.217v-0.565H184.092
				L184.092,109.772z M190,108.427v10.312h-4.607l-0.115-3.071c-0.626,1.128-1.393,1.971-2.279,2.502
				c-0.886,0.53-1.963,0.792-3.217,0.792c-1.577,0-2.83-0.568-3.766-1.7c-0.923-1.139-1.399-2.653-1.399-4.547
				c0-2.194,0.679-3.806,2.032-4.862c1.355-1.049,3.451-1.578,6.27-1.578h2.075v-0.275c0-1.065-0.32-1.889-0.964-2.46
				c-0.652-0.584-1.602-0.862-2.834-0.862c-0.608,0-1.309,0.127-2.08,0.404c-0.777,0.275-1.613,0.679-2.504,1.205l-0.091-4.456
				c0.866-0.458,1.798-0.808,2.808-1.031c1.012-0.217,2.117-0.34,3.319-0.34c2.534,0,4.397,0.813,5.576,2.408
				C189.408,102.473,190,104.992,190,108.427z"/>
			<path fill-rule="evenodd" clip-rule="evenodd" fill="#F05825" d="M38.948,128.954l-6.399-5.798l0.646,3.482
				c-10.514-3.553-18.016-12.791-17.973-23.558c0.042-10.944,7.875-20.276,18.691-23.636C20.59,80.5,10.053,90.689,10,103.072
				c-0.047,12.209,10.148,22.354,23.216,23.694l0.005,0.035l-3.766,1.983L38.948,128.954L38.948,128.954z M54.337,74.834
				L33.004,90.158l3.254-10.826l-10.741-7.334L54.337,74.834z"/>
			<g>
				<g>
					<path fill="#231F20" d="M80.171,130.523v-6.913h-2.193v-1.487h6.142v1.487h-2.304v6.913H80.171z"/>
					<path fill="#231F20" d="M94.332,122.123v5.021c0,1.016-0.322,1.854-0.963,2.517c-0.642,0.649-1.445,0.974-2.416,0.974
						c-0.968,0-1.77-0.324-2.404-0.974c-0.65-0.663-0.973-1.501-0.973-2.517v-5.021h1.655v5.189c0,0.53,0.16,0.973,0.48,1.33
						c0.32,0.366,0.731,0.55,1.23,0.55c0.498,0,0.91-0.184,1.23-0.55c0.319-0.357,0.481-0.8,0.481-1.33v-5.189H94.332z"/>
					<path fill="#231F20" d="M104.646,130.513c-0.231,0.089-0.455,0.133-0.672,0.133c-0.522,0-0.994-0.279-1.42-0.839
						c-0.104-0.134-0.23-0.342-0.381-0.625l-0.056-0.091c-0.007-0.007-0.015-0.022-0.023-0.044l-0.021-0.044
						c-0.021-0.031-0.037-0.057-0.044-0.078c-0.016-0.039-0.029-0.068-0.046-0.09l-0.201-0.348
						c-0.148-0.246-0.293-0.429-0.436-0.549c-0.163-0.155-0.34-0.234-0.526-0.234h-0.693v2.819h-1.645v-8.4h3.346
						c0.784,0,1.435,0.279,1.958,0.838c0.499,0.537,0.747,1.189,0.747,1.959c0,0.991-0.428,1.756-1.285,2.292l-0.077,0.046
						c-0.03,0.022-0.057,0.036-0.078,0.044c-0.069,0.045-0.137,0.078-0.202,0.101c0.142,0.104,0.28,0.272,0.413,0.503
						c0.037,0.061,0.095,0.161,0.168,0.303c0.067,0.126,0.124,0.224,0.168,0.29c0.127,0.216,0.258,0.366,0.392,0.448
						c0.112,0.067,0.235,0.101,0.369,0.101c0.073,0,0.156-0.011,0.246-0.033V130.513z M100.126,126.239h1.432
						c0.403,0,0.729-0.139,0.974-0.415c0.225-0.246,0.335-0.547,0.335-0.904c0-0.351-0.108-0.653-0.324-0.905
						c-0.236-0.271-0.54-0.404-0.906-0.404h-1.51V126.239z"/>
					<path fill="#231F20" d="M108.57,130.523v-8.4h1.656v8.4H108.57z"/>
					<path fill="#231F20" d="M114.936,128.062c0.321,0.335,0.687,0.604,1.097,0.805c0.439,0.224,0.861,0.336,1.264,0.336
						c0.352,0,0.634-0.052,0.85-0.156c0.254-0.133,0.41-0.351,0.471-0.649c0.014-0.059,0.021-0.118,0.021-0.178
						c0-0.456-0.327-0.787-0.983-0.997l-0.505-0.156c-0.163-0.052-0.312-0.103-0.446-0.156c-0.32-0.112-0.665-0.245-1.028-0.402
						c-0.546-0.23-0.93-0.634-1.151-1.208c-0.112-0.283-0.171-0.567-0.171-0.852c0-0.304,0.063-0.61,0.192-0.916
						c0.215-0.528,0.599-0.925,1.152-1.188c0.439-0.207,0.939-0.311,1.498-0.311c0.09,0,0.179,0.002,0.269,0.011
						c1.059,0.059,1.98,0.384,2.763,0.973l-0.807,1.431c-0.58-0.647-1.267-0.998-2.057-1.052h-0.133
						c-0.695,0-1.098,0.271-1.209,0.807c-0.024,0.097-0.035,0.186-0.035,0.269c0,0.425,0.251,0.724,0.75,0.895l1.243,0.426
						c0.267,0.098,0.502,0.186,0.704,0.268c0.237,0.104,0.436,0.198,0.593,0.28c0.506,0.269,0.842,0.635,1.006,1.097
						c0.083,0.215,0.124,0.442,0.124,0.682c0,0.246-0.041,0.503-0.124,0.771c-0.164,0.537-0.518,0.963-1.062,1.276
						c-0.515,0.29-1.101,0.436-1.756,0.436c-0.626,0-1.22-0.094-1.778-0.278c-0.529-0.173-0.971-0.405-1.321-0.694L114.936,128.062z
						"/>
					<path fill="#231F20" d="M132.117,130.523h-1.645v-5.951l-0.088,0.716l-1.545,5.123h-1.566l-1.532-5.111l-0.102-0.728v5.951
						h-1.654v-8.4h2.28l1.735,6.007l0.056,0.727l0.033-0.727l1.768-6.007h2.26V130.523z"/>
					<path fill="#231F20" d="M141.893,123.028c0.701,0.68,1.053,1.548,1.053,2.606v1.398c0,1.044-0.352,1.908-1.053,2.596
						c-0.679,0.67-1.51,1.006-2.494,1.006c-0.985,0-1.812-0.336-2.484-1.006c-0.7-0.688-1.051-1.552-1.051-2.596v-1.398
						c0-1.059,0.351-1.927,1.051-2.606c0.672-0.664,1.499-0.994,2.484-0.994C140.383,122.034,141.214,122.364,141.893,123.028z
						 M141.266,125.578c0-0.625-0.186-1.135-0.559-1.531c-0.359-0.373-0.797-0.561-1.319-0.561c-0.524,0-0.964,0.188-1.321,0.561
						c-0.373,0.396-0.559,0.906-0.559,1.531v1.499c0,0.62,0.186,1.126,0.559,1.522c0.357,0.379,0.797,0.571,1.321,0.571
						c0.522,0,0.96-0.192,1.319-0.571c0.373-0.396,0.559-0.902,0.559-1.522V125.578z"/>
				</g>
			</g>
		</g>
	</g>
</g>
<g id="Advisor">
</g>
<g id="Producer">
</g>
<g id="Organizers">
</g>
</svg>
