<?xml version="1.0" encoding="utf-8"?>
<!-- Generator: Adobe Illustrator 16.0.0, SVG Export Plug-In . SVG Version: 6.00 Build 0)  -->
<!DOCTYPE svg PUBLIC "-//W3C//DTD SVG 1.1//EN" "http://www.w3.org/Graphics/SVG/1.1/DTD/svg11.dtd">
<svg version="1.1" xmlns="http://www.w3.org/2000/svg" xmlns:xlink="http://www.w3.org/1999/xlink" x="0px" y="0px" width="200px"
	 height="200px" viewBox="0 0 200 200" enable-background="new 0 0 200 200" xml:space="preserve">
<g id="Gold">
</g>
<g id="Bronze">
</g>
<g id="Supporters">
	<path id="Code_Climate" d="M30,130.248c0-18.698,0-37.396,0-56.096c0.057-1.114,0.107-2.228,0.174-3.341
		c0.275-4.566,2.225-8.072,6.284-10.406C55.2,49.634,73.966,38.904,92.607,27.963c5.222-3.065,9.968-3.157,15.086,0.015
		c5.436,3.368,11.053,6.441,16.592,9.638c13.262,7.656,26.535,15.297,39.785,22.974c3.808,2.206,5.908,5.533,5.915,9.979
		c0.027,19.539,0.007,39.077,0.011,58.616c0.001,4.357-1.938,7.675-5.618,9.848c-8.564,5.053-17.198,9.988-25.803,14.972
		c-10.706,6.201-21.387,12.445-32.13,18.583c-4.156,2.374-8.438,2.387-12.649-0.036c-19.059-10.967-38.127-21.915-57.156-32.933
		c-1.423-0.821-2.88-1.917-3.767-3.254C31.64,134.51,30.932,132.304,30,130.248z M100.064,93.627c0,0.021,0,0.041,0,0.061
		c-19.533,0-39.067-0.005-58.602,0.005c-3.258,0.002-4.361,1.144-4.362,4.396c0,9.907,0.083,19.816-0.051,29.723
		c-0.039,2.892,1.196,4.615,3.54,5.965c18.97,10.929,37.928,21.877,56.872,32.847c1.81,1.048,3.505,1.053,5.284,0.021
		c19.184-11.118,38.365-22.241,57.568-33.325c1.955-1.128,2.857-2.694,2.854-4.903c-0.011-10.328-0.001-20.655-0.007-30.984
		c0-2.499-1.314-3.804-3.792-3.804C139.602,93.627,119.835,93.627,100.064,93.627z M88.54,52.013
		c-7.165,7.134-14.307,14.244-21.247,21.155c2.386,2.374,4.812,4.788,7.301,7.265c4.502-4.508,9.154-9.167,13.897-13.917
		c4.707,4.711,9.382,9.392,13.88,13.894c2.49-2.468,4.924-4.881,7.328-7.265C102.696,66.15,95.587,59.051,88.54,52.013z
		 M131.514,66.064C124.442,59,117.292,51.859,110.38,44.954c-3.975,3.962-8.058,8.031-11.936,11.897
		c2.289,2.28,4.689,4.671,7.22,7.192c1.435-1.528,2.996-3.192,4.699-5.006c4.82,4.822,9.5,9.503,14.085,14.087
		C126.842,70.733,129.241,68.336,131.514,66.064z M87.711,128.055c-7.656-0.022-13.65-6.074-13.609-13.738
		c0.041-7.671,6.084-13.733,13.679-13.726c7.674,0.008,13.791,6.133,13.776,13.791C101.542,122.075,95.463,128.079,87.711,128.055z
		 M87.739,106.619c-4.216,0.041-7.718,3.658-7.629,7.878c0.089,4.185,3.614,7.608,7.795,7.573c4.154-0.036,7.641-3.567,7.637-7.735
		C95.538,110.131,91.944,106.578,87.739,106.619z M106.322,114.377c0-3.924,0.049-7.848-0.027-11.77
		c-0.025-1.322,0.433-1.703,1.701-1.652c3.681,0.151,7.425-0.181,11.032,0.386c6.502,1.021,10.852,6.812,10.657,13.452
		c-0.191,6.497-4.919,11.952-11.421,12.689c-3.6,0.407-7.27,0.197-10.908,0.258c-1.03,0.017-1.036-0.719-1.035-1.454
		C106.324,122.316,106.322,118.346,106.322,114.377z M112.319,106.55c0,5.27,0,10.38,0,15.486c3.981,0.322,7.817,0.383,10.069-3.606
		c1.647-2.921,1.552-5.952-0.318-8.749C119.701,106.139,116.055,106.291,112.319,106.55z M142.241,106.47
		c2.757-0.005,5.512-0.038,8.267,0.002c0.957,0.013,1.378-0.295,1.319-1.287c-0.057-0.978-0.062-1.964-0.001-2.941
		c0.062-1.002-0.382-1.288-1.324-1.281c-4.857,0.033-9.715,0.042-14.574,0.008c-1.058-0.007-1.354,0.408-1.35,1.417
		c0.029,7.94,0.032,15.882-0.003,23.824c-0.004,1.15,0.376,1.568,1.542,1.553c3.876-0.05,7.753-0.019,11.63-0.019
		c4.217,0,4.186,0,4.087-4.274c-0.021-0.996-0.378-1.294-1.323-1.279c-2.521,0.04-5.045,0.012-7.567,0.011
		c-0.773-0.001-1.548-0.001-2.336-0.001c0-1.871,0-3.524,0-5.336c2.6,0,5.115-0.065,7.624,0.027c1.331,0.05,1.784-0.348,1.77-1.72
		c-0.042-3.795,0.015-3.795-3.731-3.791c-1.894,0.003-3.787,0.001-5.701,0.001c0-1.716,0-3.203,0-4.914
		C141.23,106.47,141.736,106.47,142.241,106.47z M69.412,126.042c2.76-1.71,2.777-1.978,0.574-4.261
		c-0.13-0.135-0.275-0.258-0.385-0.406c-0.867-1.185-1.64-1.463-3.078-0.491c-3.117,2.107-7.187,1.418-9.679-1.321
		c-2.557-2.808-2.718-7.179-0.377-10.336c2.116-2.855,5.994-3.774,9.301-2.208c0.883,0.421,1.879,1.298,2.63,1.127
		c0.844-0.195,1.472-1.339,2.194-2.07c0.131-0.133,0.246-0.284,0.39-0.402c0.976-0.796,0.686-1.437-0.172-2.126
		c-2.102-1.685-4.468-2.643-7.148-2.911c-7.799-0.777-14.799,5.063-15.202,12.716c-0.437,8.235,5.645,14.729,13.945,14.715
		C64.837,128.13,67.224,127.396,69.412,126.042z M96.648,140.401c0.729,1.309,1.459,2.618,2.329,4.18
		c0.861-1.591,1.573-2.905,2.474-4.563c0.271,1.631,0.473,2.848,0.669,4.019c0.658,0,1.155,0,1.826,0
		c-0.51-2.986-0.998-5.859-1.489-8.731c-0.139-0.008-0.28-0.018-0.42-0.026c-0.994,1.801-1.986,3.602-3.08,5.58
		c-1.118-2.033-2.11-3.837-3.103-5.64c-0.136,0.031-0.271,0.065-0.407,0.097c-0.489,2.893-0.978,5.785-1.468,8.687
		c0.729,0,1.308,0,1.86,0c0.185-1.26,0.354-2.401,0.521-3.542C96.457,140.439,96.553,140.421,96.648,140.401z M120.099,135.503
		c0,2.891,0,5.676,0,8.524c1.862,0,3.654,0,5.462,0c0-0.572,0-1.049,0-1.694c-1.25,0-2.392,0-3.626,0
		c0.031-0.663,0.054-1.15,0.077-1.694c1.084-0.048,2.037-0.09,2.991-0.132c0-0.615,0-1.064,0-1.604
		c-1.017-0.047-1.975-0.092-2.954-0.137c0-0.595,0-1.076,0-1.72c1.249,0,2.394,0,3.542,0c0-0.609,0-1.055,0-1.544
		C123.711,135.503,121.914,135.503,120.099,135.503z M75.882,136.624c-1.685,1.767-1.613,4.833,0.151,6.452
		c1.796,1.648,4.509,1.582,6.168-0.198c-0.493-0.764-0.878-1.36-2.05-0.746c-1.08,0.563-2.218,0.177-2.966-0.863
		c-0.777-1.083-0.698-2.216,0.096-3.243c0.737-0.95,1.795-1.328,2.86-0.743c1.028,0.565,1.527,0.185,2.036-0.745
		C80.367,134.799,77.568,134.854,75.882,136.624z M112.953,143.981c-1.136,0.21-1.859,0.269-2.351-0.755
		c-0.326-0.683-3.333-0.564-3.824,0.043c-0.741,0.919-0.741,0.919-2.265,0.671c1.356-2.926,2.691-5.802,4.205-9.066
		C110.221,138.103,111.557,140.979,112.953,143.981z M108.725,138.955c-0.402,0.877-0.664,1.453-0.963,2.106c0.695,0,1.247,0,1.92,0
		C109.371,140.377,109.126,139.839,108.725,138.955z M114.797,144.029c0.673,0,1.206,0,1.909,0c0-2.312,0-4.562,0-6.83
		c0.743-0.085,1.324-0.152,1.9-0.22c0-0.544,0-0.991,0-1.504c-1.966,0-3.854,0-5.792,0c0,0.561,0,1.039,0,1.547
		c0.643,0.047,1.189,0.088,1.982,0.147C114.797,139.513,114.797,141.73,114.797,144.029z M83.925,144.021c1.709,0,3.315,0,4.963,0
		c0-0.551,0-0.999,0-1.646c-1.055,0-2.049,0-3.19,0c0-2.407,0-4.622,0-6.9c-0.649,0-1.144,0-1.772,0
		C83.925,138.397,83.925,141.208,83.925,144.021z M90.487,144.055c0.649,0,1.151,0,1.677,0c0-2.882,0-5.7,0-8.568
		c-0.613,0-1.146,0-1.677,0C90.487,138.413,90.487,141.246,90.487,144.055z"/>
</g>
<g id="Advisor">
</g>
<g id="Producer">
</g>
<g id="Organizers">
</g>
</svg>
