<?xml version="1.0" encoding="utf-8"?>
<!-- Generator: Adobe Illustrator 16.0.0, SVG Export Plug-In . SVG Version: 6.00 Build 0)  -->
<!DOCTYPE svg PUBLIC "-//W3C//DTD SVG 1.1//EN" "http://www.w3.org/Graphics/SVG/1.1/DTD/svg11.dtd">
<svg version="1.1" xmlns="http://www.w3.org/2000/svg" xmlns:xlink="http://www.w3.org/1999/xlink" x="0px" y="0px" width="200px"
	 height="200px" viewBox="0 0 200 200" enable-background="new 0 0 200 200" xml:space="preserve">
<g id="Gold">
</g>
<g id="Supporters">
</g>
<g id="Advisor">
	<g id="Designa">
		<circle fill-rule="evenodd" clip-rule="evenodd" fill="#1C2348" cx="100" cy="100" r="75"/>
		<g>
			
				<polygon fill-rule="evenodd" clip-rule="evenodd" fill="#FFFFFF" stroke="#1C2348" stroke-width="3" stroke-miterlimit="10" points="
				100,85.08 119.937,91.967 119.937,114.92 100,108.297 			"/>
			
				<polygon fill-rule="evenodd" clip-rule="evenodd" fill="#FFFFFF" stroke="#1C2348" stroke-width="3" stroke-miterlimit="10" points="
				120.592,91.967 120.592,114.92 140.266,108.297 140.266,85.08 			"/>
			
				<polygon fill-rule="evenodd" clip-rule="evenodd" fill="#FFFFFF" stroke="#1C2348" stroke-width="3" stroke-miterlimit="10" points="
				100.328,84.621 120.264,91.573 140.004,84.621 120.264,77.67 			"/>
		</g>
		<g>
			
				<polygon fill-rule="evenodd" clip-rule="evenodd" fill="#FFFFFF" stroke="#1C2348" stroke-width="3" stroke-miterlimit="10" points="
				59.078,85.08 79.014,92.032 79.014,114.92 59.078,108.297 			"/>
			
				<polygon fill-rule="evenodd" clip-rule="evenodd" fill="#FFFFFF" stroke="#1C2348" stroke-width="3" stroke-miterlimit="10" points="
				79.605,92.032 79.605,114.92 99.345,108.36 99.345,85.08 			"/>
			
				<polygon fill-rule="evenodd" clip-rule="evenodd" fill="#FFFFFF" stroke="#1C2348" stroke-width="3" stroke-miterlimit="10" points="
				59.406,84.688 79.342,91.573 99.082,84.688 79.342,77.67 			"/>
		</g>
		
			<polygon fill-rule="evenodd" clip-rule="evenodd" fill="#FFFFFF" stroke="#1C2348" stroke-width="3" stroke-miterlimit="10" points="
			79.408,53.603 99.345,60.554 99.345,83.441 79.408,76.882 		"/>
		
			<polygon fill-rule="evenodd" clip-rule="evenodd" fill="#FFFFFF" stroke="#1C2348" stroke-width="3" stroke-miterlimit="10" points="
			100,60.554 100,83.441 119.675,76.882 119.675,53.603 		"/>
		
			<polygon fill-rule="evenodd" clip-rule="evenodd" fill="#FFFFFF" stroke="#1C2348" stroke-width="3" stroke-miterlimit="10" points="
			79.802,53.209 99.673,60.16 119.413,53.209 99.673,46.192 		"/>
		<path fill-rule="evenodd" clip-rule="evenodd" fill="#FFFFFF" d="M141.171,139.779v-2.387c0.207-0.023,0.437-0.093,0.69-0.188
			c0.344-0.139,0.734-0.352,1.148-0.655v-3.37c-0.735,0.256-1.355,0.49-1.838,0.725v-2.362c0.574-0.188,1.172-0.377,1.838-0.563
			c0-0.047,0.023-0.092,0.023-0.139c0-0.07,0-0.165,0-0.26c0-0.654-0.207-1.145-0.667-1.451c-0.277-0.234-0.689-0.373-1.195-0.443
			v-2.95c0.185,0,0.391,0,0.598,0c1.953,0,3.377,0.376,4.274,1.148c0.872,0.771,1.333,2.011,1.333,3.696v5.524
			c0,0.328,0.045,0.562,0.114,0.68c0.093,0.117,0.23,0.187,0.437,0.187c0.184,0,0.368-0.022,0.552-0.069
			c0.208-0.048,0.459-0.142,0.804-0.281v2.435c-0.781,0.373-1.47,0.655-2.067,0.841c-0.598,0.164-1.171,0.26-1.7,0.26
			c-0.69,0-1.218-0.143-1.609-0.376c-0.39-0.279-0.621-0.654-0.689-1.171c-0.644,0.517-1.311,0.914-2,1.171
			C141.194,139.779,141.171,139.779,141.171,139.779z M141.171,125.735v2.95c-0.253-0.025-0.528-0.047-0.804-0.047
			c-0.782,0-1.562,0.186-2.366,0.562c-0.805,0.373-1.586,0.937-2.344,1.661l0.045-3.441c0.827-0.585,1.724-1.005,2.734-1.287
			C139.24,125.899,140.16,125.783,141.171,125.735L141.171,125.735z M141.171,131.542v2.362c-0.482,0.234-0.85,0.445-1.103,0.657
			c-0.482,0.373-0.734,0.866-0.734,1.404c0,0.442,0.138,0.794,0.389,1.075c0.277,0.259,0.645,0.398,1.104,0.398
			c0.114,0,0.229-0.022,0.344-0.047v2.387c-0.689,0.26-1.425,0.376-2.206,0.376c-1.309,0-2.297-0.328-2.964-0.961
			c-0.666-0.677-1.011-1.638-1.011-2.903c0-1.122,0.505-2.035,1.494-2.738C137.288,132.968,138.851,132.291,141.171,131.542
			L141.171,131.542z M109.738,146.708v-2.622c1.034,0,1.816-0.14,2.367-0.42c0.552-0.305,0.827-0.725,0.827-1.266
			c0-0.49-0.275-0.889-0.827-1.192c-0.551-0.281-1.333-0.42-2.321-0.42c-0.023,0-0.023,0-0.046,0v-3.115
			c0.322,0.096,0.736,0.142,1.195,0.188c0.598,0.071,1.057,0.116,1.425,0.163c1.447,0.213,2.573,0.656,3.332,1.335
			c0.757,0.701,1.149,1.615,1.149,2.763c0,1.497-0.62,2.645-1.838,3.417C113.805,146.287,112.037,146.686,109.738,146.708
			L109.738,146.708z M109.738,136.034v-2.621c0.712,0,1.288-0.211,1.724-0.654c0.458-0.423,0.689-1.009,0.689-1.711
			s-0.231-1.287-0.689-1.729c-0.436-0.424-1.011-0.633-1.724-0.658v-2.644c0.207-0.022,0.414-0.022,0.644-0.022h6.915v2.926h-1.906
			c0.206,0.326,0.367,0.702,0.482,1.075c0.091,0.398,0.161,0.819,0.161,1.287c0,1.242-0.368,2.248-1.08,2.974
			c-0.735,0.748-1.815,1.265-3.286,1.522c-0.344,0.07-0.803,0.117-1.355,0.162C110.105,135.966,109.898,135.987,109.738,136.034
			L109.738,136.034z M119.251,139.896v-13.901h4.273v1.755c0.689-0.701,1.379-1.216,2.114-1.545c0.735-0.327,1.585-0.469,2.55-0.469
			c1.47,0,2.62,0.446,3.423,1.383c0.804,0.911,1.195,2.245,1.195,3.979v8.799h-4.297v-8.189c0-0.983-0.161-1.711-0.459-2.153
			c-0.321-0.469-0.804-0.703-1.47-0.703c-0.598,0-1.148,0.188-1.654,0.561c-0.506,0.376-0.988,0.913-1.402,1.638v8.848H119.251z
			 M109.738,126.017v2.644c-0.022,0-0.022,0-0.046,0c-0.736,0-1.309,0.213-1.769,0.658c-0.437,0.442-0.667,1.027-0.667,1.729
			s0.23,1.288,0.667,1.711c0.46,0.443,1.033,0.654,1.769,0.654c0.024,0,0.024,0,0.046,0v2.621c-0.758,0.141-1.126,0.421-1.126,0.867
			c0,0.327,0.368,0.607,1.126,0.771v3.115c-1.033,0-1.815,0.139-2.366,0.396c-0.575,0.307-0.851,0.68-0.851,1.195
			c0,0.562,0.276,0.982,0.804,1.287c0.529,0.28,1.31,0.42,2.366,0.42c0.024,0,0.024,0,0.046,0v2.622c-0.068,0-0.115,0-0.183,0
			c-2.206,0-3.93-0.373-5.17-1.101c-1.24-0.702-1.861-1.708-1.861-2.995c0-0.796,0.299-1.499,0.919-2.084
			c0.619-0.584,1.516-1.053,2.688-1.357c-0.528-0.163-0.919-0.397-1.195-0.679c-0.252-0.281-0.391-0.632-0.391-1.029
			c0-0.539,0.207-0.982,0.575-1.333c0.391-0.352,0.941-0.609,1.724-0.797c-1.218-0.352-2.115-0.914-2.711-1.663
			c-0.576-0.748-0.874-1.686-0.874-2.83c0-1.569,0.62-2.765,1.815-3.584C106.177,126.507,107.739,126.087,109.738,126.017
			L109.738,126.017z M74.997,140.177v-2.994c0.413,0.092,0.896,0.163,1.447,0.163c0.85,0,1.724-0.163,2.574-0.469
			c0.874-0.327,1.746-0.772,2.596-1.405v2.882c-0.918,0.632-1.883,1.074-2.917,1.381c-1.035,0.305-2.138,0.469-3.31,0.469
			C75.249,140.203,75.111,140.177,74.997,140.177L74.997,140.177z M74.997,133.717v-2.153h2.619
			c-0.068-0.889-0.346-1.591-0.781-2.106c-0.459-0.49-1.058-0.748-1.771-0.748c-0.044,0-0.067,0-0.067,0v-2.974h0.023
			c2.136,0,3.837,0.681,5.077,2.084c1.241,1.382,1.861,3.302,1.861,5.733v0.164H74.997L74.997,133.717z M83.705,139.148v-3.091
			c0.874,0.397,1.678,0.702,2.412,0.913c0.736,0.234,1.355,0.329,1.838,0.329c0.689,0,1.218-0.071,1.54-0.233
			c0.345-0.189,0.529-0.469,0.529-0.798c0-0.303-0.137-0.562-0.391-0.797c-0.252-0.233-0.85-0.537-1.769-0.91
			c-0.092-0.048-0.252-0.117-0.459-0.212c-2.621-1.102-3.93-2.504-3.93-4.237c0-1.31,0.482-2.388,1.448-3.182
			c0.965-0.819,2.229-1.195,3.838-1.195c0.85,0,1.654,0.095,2.412,0.259c0.759,0.21,1.516,0.468,2.229,0.842v3.067
			c-0.919-0.493-1.7-0.845-2.413-1.079c-0.711-0.209-1.355-0.326-1.953-0.326c-0.505,0-0.896,0.094-1.172,0.279
			c-0.298,0.189-0.436,0.446-0.436,0.797c0,0.421,0.781,0.983,2.344,1.638c0.621,0.26,1.126,0.469,1.493,0.634
			c0.988,0.445,1.723,0.959,2.16,1.59c0.459,0.61,0.69,1.359,0.69,2.296c0,1.404-0.482,2.526-1.472,3.3
			c-0.965,0.773-2.344,1.172-4.136,1.172c-0.896,0-1.724-0.096-2.551-0.282C85.175,139.757,84.418,139.5,83.705,139.148
			L83.705,139.148z M96.412,139.896v-13.901h4.296v13.901H96.412L96.412,139.896z M96.25,121.498c0-0.631,0.23-1.193,0.667-1.639
			c0.436-0.467,0.987-0.701,1.631-0.701c0.666,0,1.195,0.234,1.655,0.68c0.437,0.443,0.643,1.006,0.643,1.66
			c0,0.657-0.206,1.218-0.643,1.663c-0.46,0.444-0.989,0.679-1.655,0.679c-0.644,0-1.195-0.234-1.631-0.679
			C96.48,122.694,96.25,122.155,96.25,121.498z M61.233,135.94v-5.945c-0.368-0.28-0.759-0.49-1.148-0.654
			c-0.415-0.14-0.804-0.212-1.219-0.212c-0.184,0-0.345,0-0.506,0.025v-3.395c0.391,0.045,0.781,0.14,1.149,0.279
			c0.621,0.212,1.195,0.54,1.724,0.983v-7.63h4.296v20.503h-4.136v-1.144c-0.575,0.49-1.172,0.841-1.792,1.075
			c-0.392,0.142-0.805,0.258-1.242,0.303v-3.346c0.139,0,0.276,0.022,0.415,0.022c0.436,0,0.85-0.092,1.24-0.209
			C60.406,136.433,60.819,136.222,61.233,135.94L61.233,135.94z M74.997,125.735v2.974c-0.713,0.023-1.287,0.258-1.748,0.748
			c-0.482,0.516-0.78,1.218-0.918,2.132l2.666-0.025v2.153h-2.689v0.048c0,1.101,0.391,1.967,1.126,2.621
			c0.437,0.374,0.942,0.632,1.563,0.797v2.994c-2.16-0.069-3.86-0.724-5.125-1.94c-1.31-1.335-1.976-3.138-1.976-5.455
			c0-2.129,0.644-3.84,1.954-5.126C71.137,126.368,72.86,125.735,74.997,125.735z M58.36,129.154
			c-0.803,0.092-1.47,0.42-1.976,1.005c-0.598,0.681-0.896,1.615-0.896,2.809c0,1.147,0.298,2.084,0.896,2.785
			c0.529,0.586,1.172,0.937,1.976,1.031v3.346c-0.298,0.047-0.596,0.073-0.896,0.073c-1.931,0-3.469-0.681-4.665-2.015
			c-1.172-1.335-1.769-3.067-1.769-5.221c0-2.176,0.597-3.909,1.792-5.266c1.195-1.334,2.735-1.988,4.642-1.988
			c0.3,0,0.598,0,0.896,0.046V129.154z"/>
	</g>
</g>
<g id="Producer">
</g>
<g id="Organizers">
</g>
</svg>
