<?xml version="1.0" encoding="utf-8"?>
<!-- Generator: Adobe Illustrator 16.0.0, SVG Export Plug-In . SVG Version: 6.00 Build 0)  -->
<!DOCTYPE svg PUBLIC "-//W3C//DTD SVG 1.1//EN" "http://www.w3.org/Graphics/SVG/1.1/DTD/svg11.dtd">
<svg version="1.1" xmlns="http://www.w3.org/2000/svg" xmlns:xlink="http://www.w3.org/1999/xlink" x="0px" y="0px" width="200px"
	 height="200px" viewBox="0 0 200 200" enable-background="new 0 0 200 200" xml:space="preserve">
<g id="Gold">
</g>
<g id="Silver">
</g>
<g id="Bronze">
</g>
<g id="Supporters">
	<g id="Eloquent">
		<path fill="#929497" d="M71.425,67.628c-0.64-0.887-1.354-1.379-1.896-1.379c-0.566,0-1.108,0.246-1.478,0.64
			c-0.246,0.271-0.443,0.665-0.443,1.183c-0.024,0.887,0.764,1.157,1.725,1.182c1.945,0.05,3.816,1.207,3.816,3.571
			c0.025,2.488-1.97,3.646-3.94,3.646c-1.33,0-2.955-0.862-3.866-2.463l1.699-0.911c0.566,0.936,1.429,1.379,2.191,1.379
			c0.985,0,1.922-0.566,1.922-1.65c0-1.034-0.887-1.526-1.848-1.551c-2.044-0.05-3.694-0.912-3.694-3.202
			c-0.024-2.414,1.922-3.769,3.892-3.769c1.256,0,2.586,0.689,3.596,2.217L71.425,67.628z"/>
		<path fill="#929497" d="M78.863,64.401v1.995h-2.462v5.911c0,1.133,1.231,2.02,2.684,2.02v1.97c-2.487,0-4.654-1.649-4.654-3.989
			V59.599h1.971v4.803H78.863z"/>
		<path fill="#929497" d="M83.814,76.42c-2.167,0-3.842-1.797-3.842-3.891v-8.078h1.995v8.078c0,1.034,0.837,1.896,1.847,1.896
			c1.035,0,1.872-0.862,1.872-1.896v-8.078h1.971v8.078C87.657,74.623,86.057,76.42,83.814,76.42z"/>
		<path fill="#929497" d="M89.357,72.85v-4.704c0-1.995,1.773-3.966,3.965-3.793c0.665,0.049,1.453,0.345,1.896,1.157V59.5h1.995
			v16.797h-1.502l-0.395-1.231c-0.443,1.01-1.306,1.38-2.044,1.38C90.589,76.445,89.357,74.894,89.357,72.85z M91.352,72.85
			c0,0.984,0.888,1.625,1.971,1.625c1.06,0,1.896-0.887,1.896-1.749v-4.679c-0.024-0.985-0.665-1.7-1.896-1.7
			c-1.059,0-1.971,0.788-1.971,1.799V72.85z"/>
		<path fill="#929497" d="M101.328,61.864c0,0.715-0.616,1.231-1.281,1.231c-0.641,0-1.206-0.517-1.206-1.231
			c0-0.763,0.565-1.256,1.206-1.256C100.712,60.608,101.328,61.102,101.328,61.864z M101.057,76.297h-1.97V64.451h1.97V76.297z"/>
		<path fill="#929497" d="M110.711,72.505c0,2.635-2.02,3.915-4.014,3.915c-2.02,0-3.99-1.28-3.99-3.915v-4.311
			c0-2.66,1.995-3.892,3.99-3.892c2.02,0,4.014,1.231,4.014,3.892V72.505z M108.717,68.194c0-1.256-1.01-1.921-2.02-1.921
			c-0.985,0-2.02,0.665-2.02,1.921v4.311c0,1.256,1.034,1.896,2.02,1.896c1.01,0,2.02-0.641,2.02-1.896V68.194z"/>
		<path fill="#EE4749" d="M188.138,72.823H177.41v-4.052c0-1.82-1.479-2.049-3.301-2.049c-1.818,0-3.298,0.229-3.298,2.049v4.052
			h-5.396c-1.686,0-1.862,1.364-1.862,3.047c0,1.689,0.177,3.054,1.862,3.054h5.396v31.493h-3.205v-4.596v-0.681V92.531
			c0-5.94-4.816-10.756-10.756-10.756c-1.617,0-3.151,0.36-4.525,0.998c-0.492-0.845-1.654-0.998-3.009-0.998
			c-1.801,0-3.259,0.269-3.259,2.068v9.365c0,0.155,0,11.777,0,11.932v5.272l-2.368,0.004h-9.142h-0.499
			c-2.296,0-4.16-1.861-4.16-4.161v-5.107h8.435l0.001-0.004c6.356-0.071,6.426-5.71,6.426-5.887v-0.007v-2.773
			c0-5.912-4.793-10.702-10.701-10.702c-5.911,0-10.702,4.79-10.702,10.702v2.958c-0.261,0.023-0.53,0.039-0.812,0.039
			c-0.185,0-0.365-0.007-0.541-0.016v-2.25v-0.678v-8.688c0-1.8-1.503-2.068-3.356-2.068c-1.854,0-3.355,0.269-3.355,2.068v8.007
			h-0.004c0,0.037,0.004,0.072,0.004,0.109v1.249v12.778c0,2.297-1.866,4.157-4.161,4.157c-2.298,0-4.163-1.86-4.163-4.157V93.209
			V91.96c0-0.037,0.005-0.072,0.005-0.109h-0.005v-8.007c0-1.8-1.458-2.068-3.254-2.068c-1.799,0-3.258,0.269-3.258,2.068v4.018
			c-0.233-0.021-0.464-0.032-0.688-0.032c-0.537,0-1.105,0.061-1.654,0.151c-1.715-3.666-5.432-6.205-9.745-6.205
			c-5.94,0-10.757,4.815-10.757,10.756v12.297c-0.228,0.017-0.461,0.031-0.706,0.031c-0.222,0-0.435-0.011-0.643-0.026V92.531
			c0-5.94-4.813-10.756-10.756-10.756c-5.941,0-10.757,4.815-10.757,10.756v13.29c0,1.645,0.37,3.201,1.028,4.596H54.74
			c-2.748-0.584-5.298-2.124-7.531-4.376c3.349-5.423,5.565-12.552,6.058-20.475c0.105-1.206,0.159-2.448,0.159-3.718
			c0-11.98-4.822-21.711-10.749-21.711c-5.924,0-10.729,9.713-10.729,21.696h0.018c0,0.006,0,0.01,0,0.015
			c0,1.27,0.055,2.512,0.156,3.718c0.492,7.916,2.706,15.039,6.051,20.46c-1.894,1.904-4.015,3.302-6.282,4.044
			c-0.424,0.138-1.701,0.347-2.213,0.347c-0.04,0-0.082,0-0.123,0h-0.822H26.38h-5.181c0,0-0.33,0-0.496,0
			c-2.298,0-4.159-1.861-4.159-4.161v-5.111h8.315v0.004c0.039,0,0.074-0.003,0.112-0.004h0.004l0,0
			c6.355-0.069,6.426-5.71,6.426-5.887v-0.007v-2.773c0-5.912-4.791-10.702-10.698-10.702C14.791,81.775,10,86.565,10,92.478v13.399
			c0,5.639,4.367,10.26,9.905,10.669l0.202,0.001l10.497,0.031c0,0,0.471,0,0.709,0c4.171,0,8.062-1.802,11.382-4.92
			c3.32,3.118,7.212,4.92,11.381,4.92c0.222,0,0.664,0,0.664,0l10.702-0.002c0.018,0.001,0.036,0.002,0.055,0.002
			c4.39,0,8.16-2.627,9.831-6.395c0.524,0.084,1.062,0.139,1.567,0.139c0.529,0,1.088-0.061,1.628-0.146
			c1.672,3.77,5.444,6.402,9.835,6.402c1.43,0,2.794-0.281,4.044-0.788v22.542c0,1.854,1.502,2.168,3.354,2.168
			c1.854,0,3.356-0.314,3.356-2.168v-31.124c0-0.167-0.003-0.1-0.003-0.508c0-0.354,0.003-0.576,0.003-0.879V93.318
			c0.209-0.015,0.423-0.026,0.645-0.026c0.24,0,0.505,0.013,0.729,0.03c0.005,0.116-0.004,0.069-0.004,0.346v12.153
			c0,5.941,4.815,10.757,10.755,10.757c5.941,0,10.757-4.815,10.757-10.757v-4.908c0.182,0.013,0.362,0.021,0.539,0.021
			c0.266,0,0.539-0.015,0.813-0.041v4.983c0,5.728,4.505,10.408,10.167,10.688c0,0,10.161,0.017,10.182,0.017l5.086-0.007
			c0.076,0,0.431,0.004,0.535,0.004c1.799,0,3.258-1.459,3.258-3.259v-6.816c0-0.037,0-0.074,0-0.112v-1.25V93.209v-0.844
			c0-2.3,1.86-4.16,4.159-4.16s4.16,1.86,4.16,4.16v12.775v1.25c0,0.038,0,0.075-0.004,0.112h0.004v6.816c0,0.034,0,0.153,0,0.178
			c0,0.262,0.053,0.515,0.143,0.759c0.414,1.343,1.695,2.322,3.214,2.322c0.16,0,0.896,0,1.116,0h7.383c0.273,0,1.169,0,1.36,0
			c1.822,0,3.301-1.477,3.301-3.299V78.924h10.728c1.686,0,1.862-1.364,1.862-3.054C190,74.188,189.823,72.823,188.138,72.823z
			 M20.703,87.938c2.295,0,4.156,1.861,4.156,4.157v2.691c0,0,0.008,0.46-0.45,0.46c-0.457,0-6.957,0.004-7.407,0.004
			s-0.458-0.451-0.458-0.451v-2.704C16.544,89.799,18.405,87.938,20.703,87.938z M41.275,96.612
			c-1.443-3.624-2.392-7.772-2.692-12.225c-0.029-0.855-0.043-1.739-0.043-2.637c0-0.113,0-0.221,0-0.334H38.52
			C38.57,73.038,40.5,66.3,42.877,66.3c2.406,0,3.975,6.918,3.975,15.451c0,0.897-0.015,1.781-0.043,2.637
			c-0.301,4.452-1.25,8.601-2.693,12.225c-0.016,0.015-0.93,2.146-1.424,3.093C42.2,98.76,41.291,96.627,41.275,96.612z
			 M69.543,105.987c0,2.297-1.863,4.157-4.162,4.157c-2.3,0-4.159-1.86-4.159-4.157V91.96c0-2.299,1.859-4.163,4.159-4.163
			c2.299,0,4.162,1.864,4.162,4.163V105.987z M88.239,110.145c-2.296,0-4.159-1.86-4.159-4.157V91.96
			c0-2.299,1.863-4.163,4.159-4.163c2.299,0,4.163,1.864,4.163,4.163v14.027C92.402,108.284,90.538,110.145,88.239,110.145z
			 M134.049,87.938c2.295,0,4.156,1.861,4.156,4.157v2.711c0,0,0.006,0.45-0.449,0.45c-0.454,0-6.969-0.006-7.42-0.006
			c-0.45,0-0.447-0.448-0.447-0.448v-2.707C129.889,89.799,131.753,87.938,134.049,87.938z"/>
	</g>
</g>
<g id="Advisor">
</g>
<g id="Producer">
</g>
<g id="Organizers">
</g>
</svg>
