<?xml version="1.0" encoding="utf-8"?>
<!-- Generator: Adobe Illustrator 16.0.0, SVG Export Plug-In . SVG Version: 6.00 Build 0)  -->
<!DOCTYPE svg PUBLIC "-//W3C//DTD SVG 1.1//EN" "http://www.w3.org/Graphics/SVG/1.1/DTD/svg11.dtd">
<svg version="1.1" xmlns="http://www.w3.org/2000/svg" xmlns:xlink="http://www.w3.org/1999/xlink" x="0px" y="0px" width="200px"
	 height="150px" viewBox="0 0 200 150" enable-background="new 0 0 200 150" xml:space="preserve">
<g id="Gold">
</g>
<g id="Silver">
</g>
<g id="Bronze">
	<path id="Engine_Yard_1_" fill="#E82329" d="M0,61.45h14.427v4.554H5.179v5.84h9.073v4.555H5.179v6.222h9.248v4.555H0V61.45
		 M17.66,68.089v19.086h4.555V76.641c0-2.676,1.112-4.832,4.345-4.866c3.197,0,4.136,2.19,4.136,5.041v10.359h4.554V75.667
		c0-3.371-1.182-8.135-7.405-8.169c-3.406-0.034-5.11,1.634-5.944,3.129c0.035-0.903,0.035-1.704,0.035-2.538H17.66 M58.507,84.915
		V68.089h-4.589v2.572c-1.078-1.877-3.442-3.129-6.188-3.129c-5.284,0-9.734,3.964-9.734,10.187c0,5.875,4.242,10.046,9.734,10.046
		c3.232,0,5.249-1.703,6.188-3.406v1.6c0,3.858-2.955,5.736-5.667,5.736c-0.556,0-1.564-0.141-2.503-0.661
		c-0.834-0.418-1.563-1.077-1.981-1.946h-5.284c0.696,2.954,3.546,6.5,9.491,6.5c3.928,0,7.126-1.738,8.759-3.928
		C57.916,90.06,58.507,88.043,58.507,84.915 M42.55,77.579c0-3.406,2.607-5.805,5.701-5.805c1.981,0,3.407,0.765,4.311,1.912
		c0.939,1.111,1.391,2.642,1.391,4.102c-0.035,1.634-0.625,3.06-1.634,4.067c-1.007,1.043-2.364,1.634-4.068,1.634
		c-3.302,0-5.701-2.537-5.701-5.875V77.579z M62.227,87.175h4.553V68.09h-4.553V87.175z M70.57,68.089v19.086h4.553V76.641
		c0-2.676,1.113-4.832,4.346-4.866c3.198,0,4.136,2.19,4.136,5.041v10.359h4.554V75.667c0-3.371-1.183-8.135-7.405-8.169
		c-3.406-0.034-5.109,1.634-5.944,3.129c0.035-0.903,0.035-1.704,0.035-2.538H70.57 M94.591,79.144h15.365
		c0.383-3.337-0.486-6.326-2.816-8.725c-1.772-1.843-4.275-2.921-7.125-2.921c-5.771,0-10.012,4.763-10.012,10.186
		c0,5.319,4.207,10.081,10.081,10.081c1.982,0,3.859-0.556,5.458-1.668c1.598-1.077,2.955-2.677,3.858-4.798h-4.692
		c-0.869,1.564-2.365,2.573-4.589,2.573C97.511,83.906,94.8,82.203,94.591,79.144 M94.66,75.667c0.175-1.877,2.017-4.31,5.388-4.31
		c3.338-0.035,5.25,2.503,5.423,4.31H94.66z M127.13,77.962v9.212h5.179v-9.212l7.856-16.512h-5.562l-4.901,11.68l-4.867-11.68
		h-5.598L127.13,77.962 M158.312,87.174V68.089h-4.554v2.781c-0.835-1.529-2.955-3.372-6.433-3.372
		c-5.353,0-9.698,4.103-9.698,10.116c0,5.389,3.581,10.15,9.698,10.15c2.678,0,5.216-1.111,6.433-3.337v2.746H158.312
		 M142.183,77.684c0-2.954,2.085-5.944,5.771-5.944c2.747,0,4.519,1.564,5.319,3.373c0.382,0.834,0.556,1.772,0.521,2.676
		c-0.068,0.939-0.278,1.843-0.73,2.677c-0.869,1.738-2.537,3.06-5.075,3.06c-4.102,0-5.805-3.442-5.805-5.806V77.684z
		 M162.102,68.089v19.086h4.555v-10.29c0-3.303,1.633-4.798,4.832-4.798h0.208v-4.589c-2.884,0.035-4.45,1.391-5.283,3.095v-2.504
		H162.102 M192.38,87.175V61.45h-4.553v9.107c-0.696-1.112-2.747-3.06-6.397-3.06c-5.179,0-9.594,3.929-9.594,10.116
		c0,5.562,3.789,10.15,9.664,10.15c3.894,0,5.701-1.912,6.536-3.337v2.747H192.38 M176.39,77.579c0-2.989,2.156-5.84,5.875-5.84
		c1.633,0,3.094,0.626,4.136,1.669c1.043,1.008,1.705,2.433,1.705,4.102c0.068,1.669-0.556,3.164-1.635,4.241
		c-1.077,1.078-2.572,1.738-4.241,1.738c-3.511,0-5.84-2.642-5.84-5.875V77.579z M57.559,61.905h4.173l3.502,3.48v-6.585
		c0-1.42-1.152-2.57-2.569-2.57c-0.615,0-1.175,0.215-1.616,0.573c-0.544-1.396-1.899-2.391-3.49-2.391
		c-2.068,0-3.744,1.677-3.744,3.744C53.814,60.227,55.491,61.905,57.559,61.905 M195.009,62.014v2.384h0.67v-2.384h0.657V61.45
		h-1.985v0.563H195.009 M196.728,64.397h0.63V62.24l0.784,2.157h0.444l0.784-2.172v2.172H200V61.45h-0.85l-0.777,2.043l-0.79-2.043
		h-0.855V64.397z"/>
</g>
<g id="Supporters">
</g>
<g id="Advisor">
</g>
<g id="Producer">
</g>
<g id="Organizers">
</g>
</svg>
