<?xml version="1.0" encoding="utf-8"?>
<!-- Generator: Adobe Illustrator 16.0.0, SVG Export Plug-In . SVG Version: 6.00 Build 0)  -->
<!DOCTYPE svg PUBLIC "-//W3C//DTD SVG 1.1//EN" "http://www.w3.org/Graphics/SVG/1.1/DTD/svg11.dtd">
<svg version="1.1" id="Layer_1" xmlns="http://www.w3.org/2000/svg" xmlns:xlink="http://www.w3.org/1999/xlink" x="0px" y="0px"
	 width="200px" height="150px" viewBox="0 -15 200 150" enable-background="new 0 -15 200 150" xml:space="preserve">
<g id="Gold">
</g>
<g id="Supporters">
</g>
<g id="Advisor">
</g>
<g id="Producer">
</g>
<g id="Organizers">
	<g id="Eventick">
		<g>
			<path fill="#231F20" d="M32.365,65.818h-2.629v11.638h4.719v-5.08h3.789V81.2H23.535v-3.744h1.912v-26.04H23.5V47.67h14.454
				v8.644h-3.787v-4.898h-4.43V62.08h2.629v-2.488h4.077v8.535h-4.077L32.365,65.818L32.365,65.818z"/>
			<path fill="#231F20" d="M50.313,51.416h-1.908l3.459,19.23h0.324l3.426-19.23h-1.875V47.67h8.218v3.746h-2.125l-5.407,29.786
				h-4.792L44.26,51.416h-2.125V47.67h8.179L50.313,51.416L50.313,51.416z"/>
			<path fill="#231F20" d="M74.896,65.818h-2.634v11.638h4.724v-5.08h3.782V81.2H66.065v-3.744h1.911v-26.04h-1.945V47.67h14.45
				v8.644h-3.785v-4.898h-4.434V62.08h2.634v-2.488h4.071v8.535h-4.071V65.818z"/>
			<path fill="#231F20" d="M91.546,47.67l6.056,19.557V51.416h-2.31V47.67h8.508v3.746h-1.905v29.786h-4.292l-6.704-21.643v17.898
				h1.98v3.745H84.66v-3.745h1.987V51.416H84.66V47.67H91.546z"/>
			<path fill="#231F20" d="M112.238,77.456h1.979v-26.04h-3.102v4.898h-3.781V47.67h18.021v8.644h-3.787v-4.898h-3.094v26.041h2.301
				V81.2h-8.539v-3.744H112.238z"/>
			<path fill="#231F20" d="M128.633,77.456h1.983v-26.04h-1.983V47.67h8.221v3.746h-1.984v26.041h1.984v3.745h-8.221V77.456z"/>
			<path fill="#231F20" d="M144.171,81.2l-3.28-3.744v-26.04l3.28-3.746h7.531l3.101,3.746v4.898h-4.293v-4.898h-5.402v26.041h5.402
				v-5.081h4.292v5.081l-3.1,3.745h-7.531V81.2L144.171,81.2z"/>
			<path fill="#231F20" d="M167.236,64.777l-2.596,5.365v7.312h1.983V81.2h-8.222v-3.744h1.981v-26.04h-1.981V47.67h8.222v3.746
				h-1.983v10.73l5.19-10.73h-1.911V47.67h7.389v3.746h-1.547l-3.68,7.526l4.793,18.514h1.624V81.2h-4.976L167.236,64.777z"/>
		</g>
		
			<radialGradient id="SVGID_1_" cx="1153.9385" cy="-223.6787" r="2.1515" fx="1153.8464" fy="-223.6946" gradientTransform="matrix(3.474 0 0 3.4712 -3873.5564 812.5143)" gradientUnits="userSpaceOnUse">
			<stop  offset="0" style="stop-color:#F7981D"/>
			<stop  offset="0.2549" style="stop-color:#F89E1A"/>
			<stop  offset="0.596" style="stop-color:#FBAF12"/>
			<stop  offset="0.9845" style="stop-color:#FFCB06"/>
			<stop  offset="1" style="stop-color:#FFCC05"/>
		</radialGradient>
		<polygon fill="url(#SVGID_1_)" stroke="#F7991C" stroke-width="0.75" stroke-miterlimit="10" points="136.883,40.384 
			132.984,38.138 129.125,40.401 129.855,35.647 126.746,32.288 131.046,31.598 132.98,27.282 134.963,31.559 139.282,32.288 
			136.134,35.607 		"/>
	</g>
</g>
</svg>
