<?xml version="1.0" encoding="utf-8"?>
<!-- Generator: Adobe Illustrator 16.0.0, SVG Export Plug-In . SVG Version: 6.00 Build 0)  -->
<!DOCTYPE svg PUBLIC "-//W3C//DTD SVG 1.1//EN" "http://www.w3.org/Graphics/SVG/1.1/DTD/svg11.dtd">
<svg version="1.1" xmlns="http://www.w3.org/2000/svg" xmlns:xlink="http://www.w3.org/1999/xlink" x="0px" y="0px" width="200px"
	 height="200px" viewBox="0 0 200 200" enable-background="new 0 0 200 200" xml:space="preserve">
<g id="Gold">
</g>
<g id="Supporters">
</g>
<g id="Advisor">
	<g id="Globo.com">
		<path fill="#003CFF" d="M58.212,102.634c0,10.149-7.316,16.118-17.934,16.118c-3.819,0-13.728-1.716-13.728-6.829
			c0-1.747,1.941-4.077,3.755-4.077c2.977,0,5.312,2.749,10.686,2.749c4.531,0,7.917-3.013,7.897-6.665v-2.201h-0.13
			c-1.941,2.849-5.114,4.402-9.386,4.402C29.598,106.131,25,97.521,25,88.263c0-9.386,5.956-18.126,15.344-18.126
			c3.171,0,6.797,1.425,8.544,4.273c0.582-2.459,2.072-3.886,4.661-3.886c2.72,0,4.663,2.074,4.663,5.181V102.634z M41.574,78.682
			c-4.856,0-7.251,5.05-7.251,9.387c0,4.984,2.395,9.517,7.251,9.517c4.984,0,7.315-4.662,7.315-9.193
			C48.889,83.861,46.687,78.682,41.574,78.682z"/>
		<path fill="#003CFF" d="M60.51,62.83c0-3.108,1.941-5.18,4.662-5.18c2.717,0,4.66,2.072,4.66,5.18v37.734
			c0,3.108-1.943,5.179-4.66,5.179c-2.721,0-4.662-2.07-4.662-5.179V62.83z"/>
		<path fill="#003CFF" d="M105.081,88.2c0,9.71-6.668,17.931-16.702,17.931c-10.035,0-16.702-8.221-16.702-17.931
			c0-9.453,6.861-18.063,16.702-18.063C98.219,70.136,105.081,78.747,105.081,88.2z M80.999,88.2c0,4.466,2.329,9.386,7.379,9.386
			s7.38-4.92,7.38-9.386c0-4.468-2.266-9.518-7.38-9.518S80.999,83.732,80.999,88.2z"/>
		<path fill="#003CFF" d="M106.864,62.83c0-3.108,1.944-5.18,4.663-5.18c2.719,0,4.661,2.072,4.661,5.18v10.544
			c2.461-2.136,5.632-3.237,8.87-3.237c10.033,0,15.019,9.387,15.019,18.451c0,8.804-5.956,17.544-15.343,17.544
			c-3.172,0-6.796-1.425-8.545-4.272c-0.582,2.46-2.072,3.884-4.661,3.884c-2.719,0-4.663-2.07-4.663-5.179V62.83z M123.502,97.586
			c4.855,0,7.251-5.05,7.251-9.386c0-4.403-2.396-9.518-7.251-9.518c-4.984,0-7.315,4.661-7.315,9.193
			C116.187,92.406,118.388,97.586,123.502,97.586z"/>
		<path fill="#003CFF" d="M175,88.2c0,9.71-6.668,17.931-16.702,17.931c-10.035,0-16.703-8.221-16.703-17.931
			c0-9.453,6.863-18.063,16.703-18.063S175,78.747,175,88.2z M150.917,88.2c0,4.466,2.331,9.386,7.381,9.386
			c5.049,0,7.379-4.92,7.379-9.386c0-4.468-2.265-9.518-7.379-9.518S150.917,83.732,150.917,88.2z"/>
		<path fill="#003CFF" d="M48.01,142.35c-2.658,0-4.822-2.164-4.822-4.821s2.164-4.82,4.822-4.82s4.82,2.163,4.82,4.82
			S50.668,142.35,48.01,142.35z"/>
		<path fill="#003CFF" d="M67.144,142.35c-8.559,0-15.013-6.916-15.013-16.086c0-9.086,6.595-16.2,15.013-16.2
			c4.009,0,10.37,1.508,10.37,5.556c0,2.038-1.445,4.312-3.52,4.312c-1.031,0-1.974-0.362-2.971-0.747
			c-1.07-0.411-2.177-0.837-3.483-0.837c-4.453,0-6.445,3.976-6.445,7.916c0,3.781,2.258,7.803,6.445,7.803
			c1.133,0,2.669-0.586,3.903-1.057c0.943-0.358,1.687-0.643,2.154-0.643c2.123,0,3.916,1.819,3.916,3.973
			C77.514,140.834,70.392,142.35,67.144,142.35z"/>
		<path fill="#003CFF" d="M91.863,142.35c-8.557,0-15.011-6.916-15.011-16.086c0-9.086,6.594-16.2,15.011-16.2
			c8.418,0,15.012,7.114,15.012,16.2C106.875,135.434,100.421,142.35,91.863,142.35z M91.863,118.348
			c-4.156,0-6.048,4.104-6.048,7.916c0,3.758,1.893,7.803,6.048,7.803c4.157,0,6.049-4.045,6.049-7.803
			C97.912,122.451,96.02,118.348,91.863,118.348z"/>
		<path fill="#003CFF" d="M147.948,142.011c-2.639,0-4.482-2.03-4.482-4.937v-14.208c0-3.158-1.708-5.198-4.35-5.198
			c-2.678,0-4.407,2.04-4.407,5.198v14.208c0,2.906-1.843,4.937-4.48,4.937c-2.638,0-4.482-2.03-4.482-4.937v-14.208
			c0-3.158-1.707-5.198-4.35-5.198c-3.833,0-4.406,3.256-4.406,5.198v14.208c0,2.906-1.843,4.937-4.481,4.937
			s-4.482-2.03-4.482-4.937v-21.737c0-2.904,1.844-4.935,4.482-4.935c1.996,0,3.429,0.977,3.964,2.65
			c2.042-1.959,4.571-2.989,7.359-2.989c3.348,0,6.26,1.351,8.448,3.918c2.237-2.359,5.63-3.918,8.592-3.918
			c7.128,0,11.558,4.362,11.558,11.388v15.623C152.429,139.98,150.586,142.011,147.948,142.011z"/>
	</g>
</g>
<g id="Producer">
</g>
<g id="Organizers">
</g>
</svg>
