<?xml version="1.0" encoding="utf-8"?>
<!-- Generator: Adobe Illustrator 16.0.0, SVG Export Plug-In . SVG Version: 6.00 Build 0)  -->
<!DOCTYPE svg PUBLIC "-//W3C//DTD SVG 1.1//EN" "http://www.w3.org/Graphics/SVG/1.1/DTD/svg11.dtd">
<svg version="1.1" xmlns="http://www.w3.org/2000/svg" xmlns:xlink="http://www.w3.org/1999/xlink" x="0px" y="0px" width="290px"
	 height="200px" viewBox="0 0 290 200" enable-background="new 0 0 290 200" xml:space="preserve">
<g id="Gold">
</g>
<g id="Silver">
	<g id="livingsocial">
		<g id="symbol">
			<path fill-rule="evenodd" clip-rule="evenodd" fill="#E8B926" d="M257.698,37c1.474,0.273,2.968,0.437,4.415,0.855
				c6.09,1.761,11.38,4.798,15.473,9.726c5.307,6.389,3.957,14.612-1.52,19.82c-3.017,2.869-6.681,4.268-10.785,4.618
				c-2.703,0.231-5.392,0.221-8.051-0.409c-1.711-0.405-3.265-1.204-4.841-1.945c-0.018-0.033-0.037-0.067-0.055-0.103
				c-0.035-1.845-0.62-3.558-1.293-5.241c-0.549-1.373-1.135-2.735-2.236-3.788c-0.007-0.048-0.014-0.096-0.021-0.144
				c0.448-0.765,0.797-1.571,1.029-2.427c0.656-2.414,0.803-4.855,0.583-7.353c-0.354-4.031-2.401-6.486-6.295-7.348
				c1.033-1.375,2.104-2.718,3.478-3.777c1.764-1.36,3.793-2.062,5.982-2.349c0.233-0.031,0.48,0.01,0.691-0.137
				C255.401,37,256.549,37,257.698,37z"/>
			<path fill-rule="evenodd" clip-rule="evenodd" fill="#E90B8C" d="M252.335,69.562c0.018,0.035,0.037,0.069,0.055,0.103
				c0.047,2.147-0.754,3.912-2.234,5.47c-1.661,1.748-3.39,3.379-5.652,4.299c-2.731,1.11-5.371,0.773-7.904-0.661
				c-0.04-0.825,0.068-1.646,0.008-2.477c-0.101-1.405-0.899-2.613-2.209-3.043c-0.764-0.251-1.569-0.358-2.382-0.329
				c-0.54-2.012-0.252-3.973,0.388-5.905c0.538-1.625,1.349-3.1,2.49-4.384c0.897,0.44,1.772,0.924,2.744,1.205
				c1.65,0.477,3.306,0.286,4.958,0.085c0.844-0.103,1.697-0.239,2.464-0.662c0.041,0.013,0.082,0.023,0.124,0.031
				c0.465,0.813,1.159,1.441,1.756,2.146C248.439,67.203,250.199,68.632,252.335,69.562z"/>
			<path fill-rule="evenodd" clip-rule="evenodd" fill="#5FB7DC" d="M234.894,62.487c-2.321-1.492-3.717-3.686-4.566-6.234
				c-0.8-2.401-0.848-4.874-0.376-7.358c0.443-2.333,1.877-3.826,4.042-4.625c3.144-1.16,6.391-1.539,9.722-1.073
				c0.088,0.013,0.168,0.079,0.251,0.12c-0.523,0.99-1.181,1.901-1.643,2.929c-0.973,2.164-1.48,4.419-1.368,6.795
				c0.087,1.849,0.568,3.613,1.226,5.334c-1.718,0.308-3.289,0.979-4.754,1.915C236.475,60.897,235.729,61.743,234.894,62.487z"/>
			<path fill-rule="evenodd" clip-rule="evenodd" fill="#628139" d="M242.182,58.374c-0.658-1.721-1.139-3.485-1.226-5.334
				c-0.112-2.376,0.395-4.631,1.368-6.795c0.461-1.027,1.119-1.938,1.643-2.929c0.045-0.018,0.089-0.035,0.134-0.054
				c3.895,0.861,5.941,3.316,6.295,7.348c0.22,2.497,0.073,4.938-0.583,7.353c-0.232,0.855-0.581,1.662-1.029,2.427
				c-0.246-0.222-0.483-0.455-0.74-0.663c-1.721-1.396-3.678-1.75-5.813-1.312L242.182,58.374z"/>
			<path fill-rule="evenodd" clip-rule="evenodd" fill="#EF812C" d="M236.494,78.796c-0.167,1.841-1.217,2.885-3.006,3.308
				c-4.684,1.104-6.766-3.61-5.841-6.801c0.245-0.845,0.813-1.387,1.609-1.7c0.871-0.344,1.777-0.531,2.714-0.567
				C232.574,75.665,234.211,77.484,236.494,78.796z"/>
			<path fill-rule="evenodd" clip-rule="evenodd" fill="#6D2A77" d="M234.894,62.487c0.834-0.744,1.581-1.59,2.534-2.198
				c1.465-0.936,3.036-1.607,4.754-1.915l0.05,0.041c0.743,1.732,1.701,3.34,2.83,4.848c-0.766,0.423-1.619,0.56-2.463,0.662
				c-1.652,0.201-3.308,0.392-4.958-0.085c-0.972-0.281-1.847-0.765-2.744-1.205C234.895,62.586,234.895,62.536,234.894,62.487z"/>
			<path fill-rule="evenodd" clip-rule="evenodd" fill="#CE1F41" d="M236.494,78.796c-2.283-1.312-3.92-3.131-4.524-5.761
				c0.014-0.038,0.029-0.075,0.047-0.111c0.813-0.029,1.618,0.078,2.382,0.329c1.311,0.43,2.108,1.638,2.209,3.043
				c0.06,0.83-0.048,1.651-0.008,2.477C236.568,78.794,236.533,78.803,236.494,78.796z"/>
			<path fill-rule="evenodd" clip-rule="evenodd" fill="#BE2328" d="M252.335,69.562c-2.136-0.931-3.896-2.359-5.393-4.122
				c-0.598-0.705-1.292-1.333-1.756-2.146c1.414-0.648,2.761-1.384,3.62-2.761c1.101,1.053,1.687,2.415,2.236,3.788
				C251.715,66.005,252.3,67.718,252.335,69.562z"/>
			<path fill-rule="evenodd" clip-rule="evenodd" fill="#67262D" d="M248.806,60.533c-0.858,1.377-2.206,2.112-3.62,2.761
				c-0.042-0.008-0.084-0.019-0.125-0.031c-1.129-1.508-2.087-3.115-2.83-4.848c2.135-0.438,4.093-0.084,5.813,1.312
				c0.257,0.208,0.494,0.441,0.74,0.663C248.792,60.438,248.799,60.485,248.806,60.533z"/>
		</g>
		<path id="type" fill-rule="evenodd" clip-rule="evenodd" fill="#020202" d="M116,142.664c-0.571-0.314-1.224-0.277-1.835-0.408
			c-7.728-1.652-8.526-10.108-5.135-14.353c1.412-1.767,3.197-3.068,5.033-4.326c0.426-0.292,0.861-0.572,1.42-0.942
			c-1.279-0.188-2.385-0.42-3.434-0.862c-3.136-1.323-5.117-3.73-6.138-6.884c-1.674-5.169-2.037-10.427-0.094-15.591
			c2.074-5.514,6.256-8.578,12.024-9.46c3.838-0.588,7.561,0.194,11.237,1.229c1.188,0.335,1.802,1.181,1.993,2.371
			c0.106,0.663,0.149,1.329,0.149,2c-0.002,9.495,0.015,18.99-0.01,28.486c-0.009,3.662-0.233,7.307-1.535,10.792
			c-1.797,4.812-5.272,7.394-10.377,7.808c-0.114,0.01-0.244-0.021-0.283,0.14C118.01,142.664,117.005,142.664,116,142.664z
			 M126.12,103.177c0-2.798-0.012-5.167,0.01-7.535c0.004-0.434-0.124-0.622-0.547-0.745c-1.945-0.562-3.926-0.809-5.946-0.781
			c-3.792,0.052-6.484,1.821-8.114,5.223c-1.308,2.728-1.502,5.646-1.422,8.607c0.065,2.403,0.366,4.744,1.42,6.959
			c1.984,4.171,8.062,5.095,11.124,2.159c2.069-1.983,3.137-4.42,3.395-7.217C126.256,107.487,126.07,105.113,126.12,103.177z
			 M126.033,118.813c-3.018,2.577-5.937,5.049-8.832,7.549c-1.611,1.391-3.211,2.804-4.239,4.721
			c-1.287,2.401-0.674,5.281,1.386,6.555c2.543,1.573,6.687,1.084,8.78-1.038c1.16-1.175,1.778-2.637,2.202-4.198
			c0.453-1.669,0.666-3.379,0.691-5.1C126.063,124.513,126.033,121.722,126.033,118.813z M0,122.277
			c0.35,0.93,0.884,1.691,1.881,2.008c1.68,0.531,3.671-0.587,3.665-2.983c-0.038-13.896-0.018-27.791-0.021-41.687
			c0-0.285-0.014-0.574-0.058-0.855c-0.201-1.291-1.254-2.226-2.556-2.284C1.354,76.404,0.5,77.279,0,78.634
			C0,93.182,0,107.729,0,122.277z M290,121.99c-0.215,0.061-0.162,0.274-0.215,0.413c-0.547,1.432-1.683,2.167-3.088,1.98
			c-1.409-0.188-2.26-1.105-2.419-2.657c-0.048-0.472-0.052-0.956-0.008-1.428c0.205-2.197,2.442-3.377,4.392-2.362
			c0.796,0.415,1.007,1.187,1.338,1.9C290,120.555,290,121.272,290,121.99z M289.443,120.858c0-0.071,0.001-0.144,0-0.215
			c-0.026-1.59-0.768-2.461-2.127-2.499c-1.443-0.04-2.345,0.815-2.512,2.346c-0.052,0.482-0.026,0.957,0.054,1.422
			c0.273,1.589,1.707,2.393,3.152,1.746C289.214,123.121,289.429,122.029,289.443,120.858z M261.717,118.187
			c-0.936,1.564-1.902,2.827-3.18,3.816c-6.202,4.803-15.158,2.059-17.77-5.456c-1.271-3.657-1.404-7.439-1.072-11.251
			c0.248-2.853,0.91-5.6,2.301-8.134c2.294-4.182,5.91-6.422,10.535-7.193c4.08-0.681,8.042,0.012,11.961,1.063
			c1.667,0.447,2.296,1.33,2.415,3.046c0.031,0.453,0.05,0.907,0.05,1.36c0.003,8.467,0.001,16.935,0.003,25.401
			c0,0.455-0.001,0.91-0.134,1.351c-0.385,1.271-1.51,1.977-2.881,1.812c-1.223-0.146-2.18-1.216-2.226-2.51
			c-0.019-0.525-0.003-1.053-0.003-1.579C261.717,119.413,261.717,118.911,261.717,118.187z M261.454,102.622
			c0-2.272-0.015-4.546,0.013-6.818c0.006-0.486-0.122-0.701-0.606-0.843c-2.061-0.605-4.164-0.862-6.3-0.785
			c-1.27,0.047-2.51,0.317-3.671,0.871c-2.709,1.292-4.138,3.602-4.942,6.354c-1.014,3.47-1.119,7.021-0.685,10.587
			c0.231,1.903,0.712,3.75,1.776,5.392c0.932,1.437,2.194,2.402,3.928,2.587c1.913,0.203,3.733-0.175,5.329-1.268
			c3.444-2.357,4.933-5.792,5.14-9.833C261.542,106.79,261.454,104.704,261.454,102.622z M163.637,107.028
			c-0.04-3.384,0.369-6.513,1.73-9.456c1.977-4.273,5.389-6.712,9.949-7.573c3.128-0.591,6.237-0.442,9.23,0.729
			c3.559,1.394,5.834,4.06,6.901,7.644c1.726,5.797,1.622,11.618-0.582,17.28c-2.086,5.36-6.947,8.544-12.716,8.617
			c-3.05,0.038-5.945-0.468-8.497-2.259c-2.914-2.044-4.425-4.988-5.273-8.34C163.815,111.436,163.6,109.157,163.637,107.028z
			 M169.142,105.929c0.006,3.396,0.479,6.304,1.277,8.434c2.013,5.373,6.481,6.229,9.992,5.173c2.796-0.841,4.405-2.962,5.339-5.582
			c1.617-4.538,1.517-9.14,0.186-13.729c-0.536-1.849-1.496-3.451-3.061-4.641c-2.972-2.259-9.107-2.226-11.911,2.749
			C169.532,100.872,169.178,103.638,169.142,105.929z M76.661,92.392c-0.078-1.248-1.021-2.274-2.159-2.425
			c-1.398-0.185-2.499,0.453-2.945,1.722c-0.152,0.431-0.187,0.881-0.186,1.339c0.005,8.778,0.004,17.556,0.004,26.334
			c0,0.622-0.009,1.244,0.001,1.865c0.032,1.78,1.405,2.979,3.17,2.776c1.408-0.162,2.38-1.349,2.381-2.927
			c0.003-5.357,0.005-10.715-0.002-16.072c-0.002-1.668,0.244-3.293,0.9-4.825c1.402-3.277,3.589-5.69,7.377-5.931
			c2.829-0.18,5.407,0.833,6.506,4.334c0.346,1.101,0.486,2.235,0.485,3.392c-0.004,6.242,0,12.484-0.004,18.728
			c0,0.854,0.103,1.673,0.677,2.355c0.746,0.888,1.953,1.206,3.056,0.817c1.154-0.406,1.843-1.4,1.844-2.702
			c0.004-6.458,0-12.916,0.004-19.373c0.001-1.006-0.01-2.008-0.146-3.006c-0.513-3.758-2.199-6.686-5.855-8.179
			c-2.051-0.839-4.216-1.051-6.403-0.888c-3.479,0.259-6.319,1.714-8.322,4.646c-0.072,0.104-0.098,0.278-0.375,0.277
			C76.669,93.896,76.708,93.142,76.661,92.392z M151.597,123.86c4.241-0.987,6.909-3.737,7.451-7.692
			c0.613-4.471-0.954-7.576-4.962-9.795c-1.592-0.881-3.304-1.475-5.027-2.04c-1.519-0.498-3.031-1.02-4.368-1.931
			c-1.65-1.126-2.342-2.677-1.962-4.642c0.364-1.884,1.633-2.933,3.428-3.329c2.917-0.645,5.686-0.15,8.302,1.269
			c0.439,0.238,0.874,0.507,1.344,0.663c1.45,0.482,2.779-0.487,2.841-2.008c0.044-1.093-0.522-1.806-1.394-2.324
			c-3.835-2.283-7.952-2.861-12.282-1.921c-3.815,0.828-7.242,3.489-7.521,8.544c-0.183,3.304,0.961,5.929,3.848,7.694
			c1.58,0.967,3.313,1.567,5.056,2.148c1.763,0.588,3.557,1.101,5.157,2.093c1.807,1.121,2.626,2.733,2.351,4.847
			c-0.279,2.141-1.503,3.52-3.565,4.112c-2.332,0.67-4.634,0.37-6.908-0.334c-1.329-0.412-2.507-1.163-3.782-1.692
			c-1.639-0.68-3.129,0.299-3.139,2.033c-0.006,1.131,0.715,1.768,1.617,2.26c2.992,1.632,6.17,2.524,9.616,2.394
			C149.002,124.263,150.307,124.161,151.597,123.86z M203.43,100.932c0.936-3.073,2.639-5.507,5.925-6.31
			c3.081-0.753,5.977-0.22,8.5,1.822c0.485,0.393,0.979,0.766,1.567,0.988c1.626,0.617,3.164-0.386,3.239-2.126
			c0.04-0.926-0.354-1.648-1.074-2.23c-2.782-2.252-5.99-3.278-9.535-3.391c-6.318-0.199-11.554,3.192-13.612,9.155
			c-1.999,5.79-1.879,11.663,0.271,17.405c1.437,3.835,4.22,6.394,8.218,7.436c4.445,1.159,8.763,0.641,12.907-1.317
			c0.861-0.407,1.723-0.836,2.413-1.519c0.761-0.752,0.927-1.921,0.428-2.841c-0.435-0.802-1.326-1.136-2.421-0.913
			c-0.713,0.145-1.346,0.474-1.966,0.835c-1.698,0.989-3.517,1.545-5.485,1.688c-4.295,0.311-7.548-1.729-9.046-5.762
			c-0.834-2.246-1.092-4.59-1.072-7.165C202.646,104.861,202.841,102.868,203.43,100.932z M38.192,112.541
			c-1.92-5.209-3.837-10.42-5.758-15.629c-0.651-1.766-1.277-3.541-1.983-5.284c-0.552-1.362-1.872-1.931-3.302-1.537
			c-1.319,0.363-1.958,1.434-1.775,2.938c0.05,0.409,0.184,0.788,0.324,1.168c3.208,8.67,6.414,17.341,9.628,26.008
			c0.347,0.937,0.614,1.911,1.159,2.763c0.831,1.299,2.544,1.384,3.515,0.184c0.366-0.452,0.575-0.985,0.775-1.523
			c2.628-7.081,5.259-14.161,7.888-21.241c0.837-2.257,1.697-4.505,2.496-6.775c0.667-1.896-0.311-3.447-2.222-3.625
			c-1.332-0.124-2.363,0.56-2.851,1.904c-1.154,3.181-2.302,6.364-3.456,9.546c-1.388,3.828-2.78,7.656-4.221,11.627
			C38.3,112.801,38.24,112.673,38.192,112.541z M280.933,79.482c0-1.8-1.154-3.032-2.819-3.021
			c-1.606,0.012-2.733,1.255-2.734,3.041c-0.002,13.989,0,27.979-0.003,41.968c0,0.513,0.091,0.999,0.321,1.453
			c0.572,1.129,1.834,1.707,3.075,1.421c1.311-0.303,2.157-1.363,2.158-2.75c0.005-7.03,0.002-14.061,0.002-21.092
			C280.933,93.496,280.934,86.489,280.933,79.482z M20.22,92.922c0-1.821-1.132-3.063-2.789-3.067
			c-1.635-0.004-2.764,1.252-2.764,3.089c-0.002,9.354-0.002,18.71,0,28.064c0.001,1.742,1.191,3.011,2.789,2.99
			c1.625-0.021,2.763-1.258,2.764-3.013c0.001-4.665,0-9.33,0-13.996C20.22,102.3,20.221,97.611,20.22,92.922z M63.048,96.822
			c-0.001-1.459,0.035-2.92-0.036-4.376c-0.084-1.763-1.728-2.915-3.438-2.488c-1.316,0.328-2.075,1.398-2.076,2.966
			c-0.003,9.354-0.002,18.706,0.001,28.06c0,0.285,0.019,0.576,0.076,0.854c0.302,1.471,1.779,2.412,3.246,2.084
			c1.467-0.328,2.222-1.348,2.224-3.06c0.007-4.641,0.002-9.281,0.002-13.922C63.049,103.567,63.051,100.195,63.048,96.822z
			 M227.409,121.043c0,0.285,0.003,0.578,0.067,0.853c0.334,1.432,1.546,2.263,3.045,2.11c1.423-0.145,2.41-1.307,2.41-2.888
			c0.005-9.398,0.005-18.796,0-28.193c0-1.839-1.11-2.986-2.838-2.974c-1.607,0.013-2.686,1.202-2.687,2.971
			c-0.001,4.687,0,9.373,0,14.061C227.406,111.669,227.405,116.356,227.409,121.043z M285.833,120.978
			c0-0.096-0.016-0.194,0.002-0.286c0.088-0.447-0.278-1.115,0.225-1.311c0.646-0.252,1.414-0.229,2.073,0.141
			c0.592,0.332,0.673,1.182,0.084,1.546c-0.474,0.293-0.254,0.434-0.068,0.719c0.154,0.236,0.688,0.484,0.266,0.789
			c-0.384,0.276-0.466-0.312-0.702-0.489c-0.284-0.215-0.33-0.689-0.836-0.677c-0.367,0.009-0.603,0.048-0.53,0.491
			c0.019,0.116,0.006,0.238,0,0.356c-0.009,0.174-0.041,0.365-0.255,0.363c-0.2-0.002-0.257-0.176-0.257-0.355
			C285.832,121.836,285.833,121.406,285.833,120.978z M286.818,119.799c-0.243-0.057-0.486,0.01-0.491,0.578
			c-0.004,0.569,0.292,0.546,0.667,0.526c0.438-0.022,1.022,0.088,1.011-0.574C287.995,119.704,287.425,119.849,286.818,119.799z"/>
	</g>
</g>
<g id="Bronze">
</g>
<g id="Supporters">
</g>
<g id="Advisor">
</g>
<g id="Producer">
</g>
<g id="Organizers">
</g>
</svg>
