<?xml version="1.0" encoding="utf-8"?>
<!-- Generator: Adobe Illustrator 16.0.0, SVG Export Plug-In . SVG Version: 6.00 Build 0)  -->
<!DOCTYPE svg PUBLIC "-//W3C//DTD SVG 1.1//EN" "http://www.w3.org/Graphics/SVG/1.1/DTD/svg11.dtd">
<svg version="1.1" xmlns="http://www.w3.org/2000/svg" xmlns:xlink="http://www.w3.org/1999/xlink" x="0px" y="0px" width="200px"
	 height="200px" viewBox="0 0 200 200" enable-background="new 0 0 200 200" xml:space="preserve">
<g id="Gold">
</g>
<g id="Supporters">
</g>
<g id="Advisor">
</g>
<g id="Producer">
	<g id="Casa_de_Eventos__x5B_p_x5D__1_">
		<path fill-rule="evenodd" clip-rule="evenodd" fill="#017991" d="M126.483,33c0,1.679-0.015,3.285,0.003,4.892
			c0.072,7.747,0.244,15.498,0.192,23.245c-0.023,3.824-0.113,7.678-1.15,11.418c-1.496,5.397-4.516,9.95-7.997,14.23
			c-5.572,6.851-12.203,12.614-18.923,18.282c-0.987,0.832-2,1.633-2.965,2.488c-0.447,0.396-0.756,0.461-1.278,0.062
			c-6.858-5.215-13.558-10.614-19.301-17.081c-4.311-4.856-8.131-10.016-10.061-16.349c-0.862-2.823-0.908-5.716-0.951-8.618
			c-0.151-10.37-0.307-20.737-0.459-31.105c-0.009-0.463-0.002-0.924-0.002-1.464C84.526,33,105.388,33,126.483,33z M94.631,70.521
			c-2.786-0.893-4.88-2.356-6.303-4.682c-1.867-3.048-2.278-6.38-1.643-9.84c0.815-4.429,4.186-7.797,8.145-8.168
			c3.354-0.315,6.553,0.304,9.57,1.816c0.558,0.277,1.125,0.531,1.748,0.825c0.17-1.142,0.312-2.127,0.472-3.199
			c-4.231-1.383-8.497-2.294-12.958-1.61C83.317,47.256,79.634,57.062,82.68,65.091c1.728,4.556,5.303,7.067,9.958,8.145
			c1.955,0.454,1.959,0.438,1.979,2.47c0.036,3.567,2.393,6.476,5.922,6.966c2.117,0.292,4.286,0.215,6.433,0.282
			c0.808,0.029,1.618,0.007,2.402,0.007c0-0.664,0-1.177,0-1.751c-2.353,0-4.613-0.022-6.87,0.012
			c-1.283,0.019-2.277-0.521-3.136-1.396c-1.73-1.761-1.254-3.961-1.287-5.931c1.923-0.48,3.777-0.769,5.502-1.416
			c2.915-1.087,2.334-0.473,2.465-3.55c0-0.065-0.045-0.127-0.097-0.265c-2.418,1.428-4.948,2.467-7.88,2.343
			c0-2.166-0.061-4.21,0.017-6.25c0.069-1.758,0.756-2.346,2.5-2.367c1.831-0.024,3.661-0.026,5.491-0.033
			c1.103-0.002,2.206,0,3.354,0c0-0.604,0-1.091,0-1.622c-4.933,0-9.825,0-14.802,0C94.631,63.997,94.631,67.179,94.631,70.521z"/>
		<path fill-rule="evenodd" clip-rule="evenodd" fill="#017991" d="M98.892,151.285c1.064-2.635,2.04-5.043,3.007-7.455
			c1.308-3.254,2.595-6.52,3.939-9.754c0.138-0.328,0.626-0.727,0.953-0.73c5.349-0.043,10.695-0.029,16.044-0.021
			c0.101,0,0.2,0.047,0.365,0.088c0,0.449,0,0.896,0,1.518c-0.452,0-0.905,0-1.353,0c-2.587,0-5.17-0.014-7.754,0.01
			c-1.754,0.012-2.397,0.516-2.494,2.242c-0.111,1.959-0.025,3.93-0.025,6.014c2.668,0,5.377,0,8.188,0
			c0.025,0.479,0.046,0.852,0.074,1.354c-2.776,0-5.487,0-8.37,0c0.097,2.463-0.382,4.828,0.44,7.113
			c0.585,1.623,1.864,2.6,3.55,2.744c2.142,0.186,4.301,0.141,6.45,0.189c0.42,0.01,0.836,0.002,1.325,0.002c0,0.584,0,1.033,0,1.43
			c-2.973,0-5.933,0.092-8.883-0.037c-1.684-0.07-3.131-0.924-4.328-2.15c-1.558-1.6-2.016-3.598-2.032-5.721
			c-0.033-4.129-0.011-8.256-0.011-12.385c0-0.342,0-0.686,0-1.023c-0.065-0.014-0.136-0.025-0.203-0.041
			c-1.012,2.428-2.026,4.857-3.034,7.287c-1.854,4.467-3.691,8.938-5.58,13.391c-0.156,0.367-0.593,0.727-0.98,0.861
			c-0.691,0.24-0.968-0.283-1.218-0.859c-2.804-6.475-5.642-12.936-8.421-19.42c-0.341-0.791-0.747-1.037-1.593-1.018
			c-2.727,0.062-5.456,0.01-8.185,0.047c-1.684,0.02-2.363,0.648-2.423,2.334c-0.067,1.932-0.016,3.863-0.016,5.91
			c2.738,0,5.445,0,8.227,0c0,0.484,0,0.859,0,1.371c-2.729,0-5.437,0-8.184,0c0,2.098-0.185,4.082,0.046,6.018
			c0.305,2.574,2.191,3.922,5.171,3.984c2.078,0.045,4.154,0.01,6.314,0.01c0,0.568,0,1.041,0,1.682
			c-3.359-0.189-6.734,0.443-10.031-0.555c-2.892-0.871-4.943-3.379-4.994-6.332c-0.089-5.203-0.041-10.408-0.046-15.611
			c0-0.105,0.043-0.205,0.084-0.389c0.296-0.021,0.609-0.064,0.919-0.064c5.635-0.01,11.27,0,16.904-0.037
			c0.754-0.002,1.115,0.223,1.396,0.949c2.028,5.242,4.111,10.461,6.179,15.686C98.463,150.299,98.634,150.674,98.892,151.285z"/>
		<path fill-rule="evenodd" clip-rule="evenodd" fill="#017991" d="M88.333,120.371c-3.64-1.59-6.1-4.039-6.244-8.184
			c2.023,0.816,4.025,1.621,6.213,2.502c0.42-2.77,0.793-5.258,1.18-7.84c1.882,0.842,3.322,2.311,4.197,4.293
			c0.964,2.18,0.695,4.389-0.413,6.414c-0.76,1.393,0.083,2.299,0.605,3.354c0.045,0.084,0.155,0.176,0.246,0.195
			c1.048,0.186,1.54-0.635,2.066-1.262c0.251-0.297,0.435-1.059,0.258-1.258c-3.089-3.43-0.949-9.088,2.216-11.217
			c0.326-0.217,0.633-0.461,0.936-0.682c0.366,2.545,0.729,5.064,1.094,7.59c3.818-0.609,4.665-0.932,6.208-2.334
			c0.645,1.818-0.117,4-2.03,5.635c-1.604,1.373-3.268,2.664-5.713,2.904c0.752,0.801,1.402,0.654,2.044,0.51
			c2.842-0.639,5.632-0.66,8.452,0.26c2.725,0.893,4.478,2.982,6.788,4.924c-1.036,0.178-1.775,0.328-2.525,0.424
			c-1.417,0.188-2.858,0.25-4.259,0.529c-1.223,0.248-2.271-0.053-3.287-0.619c-1.092-0.615-2.157-1.281-3.235-1.922
			c-2.666-1.58-5.383-2.973-8.63-2.861c-2.557,0.086-4.615,1.439-6.781,2.508c-1.153,0.574-2.265,1.248-3.331,1.969
			c-1.24,0.844-2.602,0.955-4.015,0.861c-1.75-0.119-3.499-0.264-5.245-0.414c-0.361-0.031-0.712-0.152-1.125-0.24
			C77.066,122.154,81.707,120.248,88.333,120.371z"/>
		<path fill-rule="evenodd" clip-rule="evenodd" fill="#017991" d="M23.809,146.129c0,3.314,0,6.6,0,9.975c-1.169,0-2.26,0-3.455,0
			c-0.021-0.285-0.061-0.59-0.061-0.9c-0.002-4.553,0.002-9.109,0.006-13.664c0.003-4.758,2.714-7.748,7.451-8.174
			c1.941-0.178,3.868-0.07,5.7,0.705c2.826,1.193,4.39,3.412,4.474,6.4c0.145,5.125,0.045,10.256,0.041,15.383
			c0,0.064-0.048,0.129-0.106,0.266c-1.06,0-2.144,0-3.318,0c0-3.33,0-6.617,0-9.99C30.934,146.129,27.413,146.129,23.809,146.129z
			 M34.504,144.641c0-1.613,0.021-3.117-0.007-4.619c-0.051-2.75-1.575-4.471-4.296-4.896c-2.629-0.414-5.11,0.641-5.926,2.646
			c-0.906,2.229-0.395,4.559-0.49,6.869C27.427,144.641,30.893,144.641,34.504,144.641z"/>
		<path fill-rule="evenodd" clip-rule="evenodd" fill="#017991" d="M58.025,146.117c0,3.316,0,6.605,0,9.984
			c-1.163,0-2.252,0-3.416,0c-0.029-0.213-0.093-0.449-0.093-0.684c0-4.631,0.007-9.26,0.018-13.887
			c0.012-4.846,2.8-7.842,7.661-8.184c2.707-0.191,5.294,0.143,7.495,1.967c1.737,1.436,2.439,3.383,2.48,5.512
			c0.093,4.986,0.038,9.975,0.042,14.963c0,0.1-0.052,0.199-0.093,0.346c-1.074,0-2.139,0-3.327,0c0-3.303,0-6.617,0-10.018
			C65.173,146.117,61.676,146.117,58.025,146.117z M58.086,144.688c3.379,0,6.702,0.012,10.025-0.033
			c0.213-0.004,0.579-0.467,0.59-0.73c0.059-1.32,0.075-2.65,0.009-3.971c-0.144-2.789-1.579-4.387-4.265-4.834
			c-3.276-0.549-5.884,0.973-6.311,3.947C57.877,140.852,58.086,142.703,58.086,144.688z"/>
		<path fill-rule="evenodd" clip-rule="evenodd" fill="#017991" d="M159.494,144.732c0-1.686-0.186-3.395,0.036-5.047
			c0.488-3.682,3.432-6.125,7.419-6.355c1.902-0.111,3.8-0.072,5.594,0.721c2.611,1.152,4.236,3.102,4.381,5.982
			c0.151,2.998,0.194,6.018,0.063,9.02c-0.183,4.176-3.044,6.5-6.839,7.029c-1.995,0.279-4.008,0.195-5.935-0.533
			c-2.908-1.102-4.489-3.24-4.747-6.303c-0.124-1.492-0.021-3.008-0.021-4.514C159.46,144.732,159.478,144.732,159.494,144.732z
			 M162.895,144.734c0,1.363,0.058,2.727-0.01,4.084c-0.198,4.016,2.431,6.094,6.527,5.559c2.341-0.305,3.901-1.674,4.023-4.049
			c0.194-3.746,0.181-7.514-0.012-11.26c-0.121-2.289-1.703-3.666-3.994-3.959c-4.13-0.529-6.73,1.535-6.545,5.543
			C162.948,142.01,162.895,143.377,162.895,144.734z"/>
		<path fill-rule="evenodd" clip-rule="evenodd" fill="#017991" d="M140.928,156.146c-1.023,0-2.059,0-3.299,0
			c0-0.467,0-0.914,0-1.359c0.004-4.629,0.062-9.26-0.032-13.889c-0.026-1.24-0.291-2.596-0.851-3.693
			c-0.973-1.908-3.684-2.635-6.207-1.951c-2.255,0.607-3.597,2.264-3.609,4.605c-0.027,4.988-0.014,9.975-0.015,14.963
			c0,0.391,0,0.779,0,1.262c-1.163,0-2.248,0-3.477,0c0-0.756,0-1.492,0-2.236c0-4.09,0.065-8.182-0.018-12.273
			c-0.095-4.682,2.622-7.775,7.624-8.221c2.242-0.199,4.436,0.033,6.453,1.186c1.94,1.111,3.299,2.803,3.368,4.959
			C141.045,145.006,140.928,150.521,140.928,156.146z"/>
		<path fill-rule="evenodd" clip-rule="evenodd" fill="#017991" d="M53.28,137.482c-2.175-1.443-4.481-1.939-6.827-2.283
			c-1.486-0.221-2.857,0.162-4.005,1.125c-1.304,1.092-1.412,2.688-0.158,3.824c0.885,0.805,1.94,1.463,3.014,2.004
			c1.433,0.729,2.95,1.291,4.441,1.902c3.213,1.318,4.778,3.799,4.358,6.947c-0.348,2.602-2.783,4.801-5.868,5.137
			c-3.303,0.363-6.466-0.367-9.638-1.451c0.118-0.807,0.23-1.566,0.325-2.211c1.555,0.562,3.006,1.281,4.541,1.582
			c1.444,0.287,2.987,0.262,4.467,0.135c1.866-0.16,2.75-1.324,2.745-3.205c-0.005-2.094-1.12-3.723-3.079-4.453
			c-1.676-0.621-3.38-1.17-5.034-1.836c-2.006-0.805-3.781-2.018-4.152-4.287c-0.666-4.047,1.152-6.127,5.115-6.822
			c3.292-0.582,6.484,0.012,9.602,1.092c0.23,0.078,0.536,0.43,0.522,0.637C53.608,135.982,53.436,136.639,53.28,137.482z"/>
		<path fill-rule="evenodd" clip-rule="evenodd" fill="#017991" d="M178.044,152.16c2.163,1.68,4.594,2.16,7.131,2.221
			c0.743,0.018,1.511-0.066,2.232-0.244c1.29-0.316,2.105-1.111,2.315-2.504c0.305-2.002-0.884-4.223-2.79-4.961
			c-1.733-0.672-3.498-1.266-5.234-1.939c-1.866-0.721-3.446-1.818-4.119-3.809c-1.222-3.602,0.901-6.719,4.997-7.359
			c3.489-0.545,6.834,0.088,10.181,1.328c-0.131,0.83-0.256,1.629-0.402,2.566c-2.13-1.34-4.431-1.951-6.818-2.26
			c-1.396-0.184-2.722,0.104-3.856,0.949c-1.445,1.08-1.604,2.85-0.275,4.066c0.831,0.758,1.823,1.389,2.838,1.889
			c1.538,0.76,3.162,1.342,4.741,2.023c2.985,1.289,4.668,3.963,4.196,6.643c-0.549,3.121-2.958,5.164-6.321,5.408
			c-2.953,0.215-5.775-0.4-8.554-1.289c-0.247-0.08-0.527-0.527-0.531-0.811C177.762,153.49,177.929,152.898,178.044,152.16z"/>
		<path fill-rule="evenodd" clip-rule="evenodd" fill="#017991" d="M20.311,134.67c-0.149,0.887-0.273,1.617-0.42,2.486
			c-0.483-0.227-0.861-0.391-1.225-0.578c-2.594-1.332-5.353-1.844-8.235-1.492c-3.56,0.43-6.111,3.545-6.55,7.859
			c-0.564,5.566,2.373,9.848,7.603,10.924c2.576,0.529,5.063,0.113,7.386-1.166c0.278-0.156,0.554-0.311,0.846-0.475
			c0.336,1.762,0.123,2.219-1.413,2.791c-4.771,1.773-9.475,1.809-13.751-1.205c-4.09-2.881-5.201-7.1-4.214-11.811
			c0.949-4.531,3.942-7.33,8.391-8.422C12.65,132.621,16.465,133.447,20.311,134.67z"/>
		<path fill-rule="evenodd" clip-rule="evenodd" fill="#017991" d="M159.658,133.41c0,0.693,0,1.328,0,2.086
			c-2.539,0-5.028,0-7.646,0c0,6.92,0,13.717,0,20.605c-1.207,0-2.294,0-3.491,0c0-6.822,0-13.619,0-20.559
			c-2.632,0-5.157,0-7.744,0c0-0.771,0-1.402,0-2.133C147.034,133.41,153.285,133.41,159.658,133.41z"/>
		<path fill-rule="evenodd" clip-rule="evenodd" fill="#017991" d="M71.206,103.785c2.008,0,3.969,0,6.27,0
			c-1.637-2.039-0.1-4.671-2.452-6.355c0.605-0.062,0.863-0.165,1.066-0.102c1.968,0.628,3.952,1.326,4.759,3.463
			c0.499,1.31,0.871,2.714,1.012,4.107c0.113,1.125-0.346,2.359,1.417,2.652c-3.028,0.246-5.939,0.768-8.807-0.244
			C72.719,106.691,71.607,105.533,71.206,103.785z"/>
		<path fill-rule="evenodd" clip-rule="evenodd" fill="#017991" d="M73.763,101.145c-2.831-0.158-5.586-0.023-8.181-1.166
			c-1.93-0.848-3.078-2.311-3.118-4.086c1.922,0.244,3.861,0.489,6.087,0.77c-1.221-2.255,0.564-4.682-1.462-6.517
			c0.086-0.063,0.176-0.127,0.262-0.192c0.465,0.127,0.967,0.175,1.383,0.39c3.396,1.741,4.531,4.355,4.077,8.067
			C72.673,99.518,72.195,100.6,73.763,101.145z"/>
		<path fill-rule="evenodd" clip-rule="evenodd" fill="#017991" d="M51.245,74.794c1.67,1.058,3.303,2.09,5.178,3.278
			c-0.126-2.544,2.518-3.983,1.442-6.49c0.093-0.036,0.185-0.067,0.277-0.098c0.292,0.205,0.624,0.368,0.87,0.617
			c2.226,2.233,2.643,6.01,0.982,8.724c-0.112,0.184-0.222,0.37-0.358,0.54c-0.741,0.901-1.55,1.789-0.27,2.981
			c-2.627-1.341-5.217-2.479-7.103-4.686C50.945,78.124,50.612,76.583,51.245,74.794z"/>
		<path fill-rule="evenodd" clip-rule="evenodd" fill="#017991" d="M112.055,103.447c2.023,0,3.987,0,6.038,0
			c-0.463,1.807-1.556,3.002-3.32,3.574c-2.264,0.732-4.584,0.668-6.914,0.43c-0.637-0.064-1.273-0.066-1.947-0.096
			c0.247-0.145,0.479-0.338,0.75-0.42c0.78-0.244,0.932-0.781,0.805-1.508c-0.262-1.492,0.097-2.867,0.612-4.285
			c0.863-2.367,2.747-3.36,4.913-4.07c0.268-0.09,0.581-0.04,0.983,0.053c-1.265,1.292-1.29,2.836-1.299,4.423
			C112.674,102.121,112.314,102.689,112.055,103.447z"/>
		<path fill-rule="evenodd" clip-rule="evenodd" fill="#017991" d="M127.439,81.389c-0.815,1.422-0.465,2.766,0.029,4.156
			c0.235,0.676,0.154,1.462,0.235,2.406c1.884-0.681,3.729-1.354,5.644-2.047c0.194,1.856-0.449,3.494-2.076,4.489
			c-1.568,0.962-3.31,1.658-5.016,2.371c-0.84,0.351-1.771,0.477-2.836,0.671c1.381-0.841,0.679-1.753,0.314-2.699
			c-1.331-3.437-0.743-6.536,2.269-8.91c0.346-0.272,0.783-0.421,1.177-0.629C127.264,81.258,127.35,81.323,127.439,81.389z"/>
		<path fill-rule="evenodd" clip-rule="evenodd" fill="#017991" d="M136.521,68.311c0.963-0.678,1.785-1.219,2.562-1.82
			c0.774-0.597,1.504-1.25,2.312-1.93c0.642,1.508,0.685,3.01-0.211,4.46c-1.109,1.803-2.654,3.173-4.428,4.302
			c-0.812,0.516-1.617,1.041-2.533,1.632c0.136-0.325,0.202-0.588,0.344-0.808c0.325-0.506,0.251-0.915-0.192-1.314
			c-1.642-1.462-2.288-3.404-2.62-5.494c-0.242-1.531,1.215-4.61,2.759-5.382C133.647,64.575,136.313,65.815,136.521,68.311z"/>
		<path fill-rule="evenodd" clip-rule="evenodd" fill="#017991" d="M55.937,86.262c1.844,0.64,3.543,1.233,5.249,1.811
			c0.117,0.042,0.271-0.027,0.525-0.057c-0.621-2.142,1.591-4.106,0.122-6.28c0.073-0.076,0.147-0.151,0.224-0.23
			c0.484,0.265,1.024,0.459,1.448,0.805c2.985,2.425,3.281,5.755,1.978,8.903c-0.592,1.419-0.605,1.416,0.399,2.549
			c-2.483-0.234-6.244-1.69-8.097-3.186C56.387,89.449,55.751,87.992,55.937,86.262z"/>
		<path fill-rule="evenodd" clip-rule="evenodd" fill="#017991" d="M131.294,71.366c-0.373,1.591,0.249,2.875,1.055,4.154
			c0.34,0.54,0.396,1.262,0.657,2.166c1.68-1.07,3.337-2.125,5.045-3.211c0.586,1.471,0.38,2.945-0.601,4.304
			c-1.202,1.658-2.824,2.834-4.608,3.798c-0.929,0.506-1.869,0.985-2.98,1.497c1.367-1.178,0.425-2.011-0.196-2.976
			c-1.906-2.976-2.071-5.951,0.213-8.843c0.31-0.394,0.728-0.707,1.098-1.053C131.081,71.254,131.189,71.309,131.294,71.366z"/>
		<path fill-rule="evenodd" clip-rule="evenodd" fill="#017991" d="M48.019,52.786c0.817,2.004,2.263,3.339,3.807,4.777
			c0.644-2.243,3.567-2.749,3.341-5.374c0.1-0.024,0.199-0.048,0.301-0.07c0.263,0.397,0.614,0.765,0.774,1.2
			c1.326,3.599,0.19,6.53-2.751,8.779c-0.825,0.63-1.704,1.144-1.087,2.455c-2.108-2.088-4.234-4.068-5.267-6.894
			C46.494,55.894,46.765,54.329,48.019,52.786z"/>
		<path fill-rule="evenodd" clip-rule="evenodd" fill="#017991" d="M126.915,95.588c-0.266,1.949-1.318,3.435-3.198,4.022
			c-1.854,0.579-3.812,0.848-5.736,1.182c-0.8,0.137-1.632,0.092-2.458,0.132c0,0-0.017-0.093,0.002-0.098
			c1.274-0.513,1.15-1.427,0.979-2.591c-0.557-3.796,0.64-6.56,4.204-8.267c0.357-0.17,0.777-0.216,1.297-0.22
			c-1.149,1.517-0.877,3.134-0.705,4.767c0.052,0.494-0.23,1.023-0.44,1.854C122.939,96.1,124.894,95.848,126.915,95.588z"/>
		<path fill-rule="evenodd" clip-rule="evenodd" fill="#017991" d="M132.69,42.147c0.497,1.962,1.818,2.69,3.219,3.392
			c0.543,0.273,0.945,0.836,1.593,1.435c0.888-1.77,1.763-3.516,2.632-5.244c1.476,0.918,2.205,2.879,1.555,5.102
			c-0.451,1.527-1.143,2.993-1.823,4.439c-0.452,0.957-1.08,1.83-1.751,2.841c0.452-1.672-0.702-1.933-1.775-2.49
			c-3.66-1.896-4.83-4.438-4.234-8.245C132.152,43.059,132.386,42.77,132.69,42.147z"/>
		<path fill-rule="evenodd" clip-rule="evenodd" fill="#017991" d="M51.175,54.35c-1.537-2.422-3.093-4.645-3.667-7.369
			c-0.437-2.086,0.165-3.97,1.631-4.966c0.867,1.732,1.74,3.48,2.618,5.226c0.1,0,0.203,0,0.306,0
			c0.936-2.105,4.12-1.784,4.342-4.663c0.124,0.035,0.244,0.064,0.368,0.098c0.082,0.157,0.208,0.305,0.246,0.471
			c0.445,2,0.612,3.989-0.662,5.772c-0.943,1.316-2.01,2.53-3.592,3.134C51.757,52.438,50.567,52.681,51.175,54.35z"/>
		<path fill-rule="evenodd" clip-rule="evenodd" fill="#017991" d="M141.438,52.714c1.114,1.331,1.444,3,0.653,4.667
			c-0.729,1.534-1.722,2.957-2.729,4.333c-0.708,0.968-1.634,1.779-2.594,2.72c0.828-1.507-0.225-2.037-1.15-2.776
			c-2.96-2.363-3.863-5.232-2.533-8.734c0.144-0.377,0.416-0.702,0.825-1.104c-0.027,2.659,2.887,3.191,3.615,5.704
			C138.917,55.808,140.142,54.305,141.438,52.714z"/>
		<path fill-rule="evenodd" clip-rule="evenodd" fill="#017991" d="M55.225,62.37c0.296,0.323,0.64,0.617,0.886,0.977
			c2.208,3.205,1.625,6.392-0.659,9.142c-0.674,0.813-1.421,1.503-0.206,2.718c-2.744-1.263-5.41-3.376-6.856-5.389
			c-1.111-1.548-1.297-3.203-0.533-4.881c1.575,1.216,3.127,2.42,4.926,3.812c-0.021-2.596,2.894-3.703,2.015-6.328
			C54.939,62.404,55.082,62.387,55.225,62.37z"/>
		<path fill-rule="evenodd" clip-rule="evenodd" fill="#017991" d="M137.505,115c1.062,0.066,2.008,0.129,2.946,0.189
			c-0.287,1.75-1.883,2.227-5.719,1.734c0.093-0.482,0.237-0.955,0.262-1.434c0.109-2.197,1.354-3.602,3.367-3.797
			C138.09,112.738,137.814,113.799,137.505,115z"/>
		<path fill-rule="evenodd" clip-rule="evenodd" fill="#017991" d="M127.295,119.996c0.899,0.338,1.785,0.67,2.669,1.002
			c-0.626,1.627-2.817,1.623-5.913-0.055c0.23-0.453,0.499-0.881,0.674-1.344c0.75-2.002,2.202-2.869,4.376-2.555
			c-0.321,0.449-0.664,0.877-0.945,1.338C127.859,118.863,127.622,119.375,127.295,119.996z"/>
		<path fill-rule="evenodd" clip-rule="evenodd" fill="#017991" d="M43.666,105.475c0.912,0.379,1.823,0.758,2.817,1.172
			c0.248-1.18,0.479-2.26,0.729-3.445c0.912,0.781,1.837,1.604,1.71,2.945c-0.106,1.133-0.457,2.242-0.698,3.363
			C45.706,109.078,43.091,107.33,43.666,105.475z"/>
		<path fill-rule="evenodd" clip-rule="evenodd" fill="#017991" d="M67.541,120.883c-3.009,1.705-5.164,1.725-6.017,0.125
			c0.904-0.336,1.816-0.68,2.781-1.043c-0.646-1.037-1.213-1.951-1.769-2.85c0.999-0.406,2.311-0.176,3.111,0.818
			C66.359,118.82,66.89,119.852,67.541,120.883z"/>
		<path fill-rule="evenodd" clip-rule="evenodd" fill="#017991" d="M55.531,118.078c1.104-0.178,2.044-0.33,3.104-0.5
			c-0.382-1.119-0.736-2.158-1.082-3.174c2.161-0.211,3.404,1.6,3.685,3.529c0.065,0.447,0.219,0.881,0.339,1.352
			C59.586,119.539,57.302,120.574,55.531,118.078z"/>
		<path fill-rule="evenodd" clip-rule="evenodd" fill="#017991" d="M56.732,116.928c-3.836,0.488-5.238,0.062-5.718-1.75
			c0.967-0.053,1.947-0.109,2.989-0.166c-0.282-1.156-0.542-2.205-0.798-3.244c1.58-0.203,3.238,1.541,3.31,3.625
			C56.53,115.885,56.649,116.375,56.732,116.928z"/>
		<path fill-rule="evenodd" clip-rule="evenodd" fill="#017991" d="M73.246,121.336c-2.269,2.09-4.926,2.848-5.879,1.428
			c0.811-0.537,1.624-1.076,2.451-1.625c-0.668-1.025-1.285-1.969-1.803-2.766c1.43-0.846,3.312,0.422,4.29,1.938
			C72.544,120.676,72.904,120.969,73.246,121.336z"/>
		<path fill-rule="evenodd" clip-rule="evenodd" fill="#017991" d="M79.255,120.768c-2.461,2.682-4.13,3.338-5.63,2.221
			c0.729-0.639,1.463-1.275,2.245-1.963c-0.962-0.77-1.805-1.443-2.628-2.102c0.769-0.707,2.081-0.963,3.165-0.314
			C77.414,119.207,78.288,120.021,79.255,120.768z"/>
		<path fill-rule="evenodd" clip-rule="evenodd" fill="#017991" d="M132.923,117.609c0.98,0.141,1.952,0.283,2.9,0.422
			c-0.639,1.756-2.37,2.123-5.801,1.191c0.112-0.547,0.25-1.08,0.327-1.621c0.23-1.625,1.67-3.471,3.681-3.209
			c-0.21,0.49-0.448,0.984-0.626,1.5C133.221,116.418,133.099,116.963,132.923,117.609z"/>
		<path fill-rule="evenodd" clip-rule="evenodd" fill="#017991" d="M123.452,118.375c-0.485,0.748-1.084,1.672-1.778,2.746
			c0.824,0.551,1.629,1.094,2.438,1.639c-0.688,1.289-3.1,1.012-5.882-1.422c0.371-0.4,0.796-0.752,1.087-1.195
			C120.508,118.344,122.361,117.777,123.452,118.375z"/>
		<path fill-rule="evenodd" clip-rule="evenodd" fill="#017991" d="M139.366,113.398c-0.027-0.463,0-0.939-0.097-1.389
			c-0.45-2.094,0.523-3.949,2.383-4.498c0,1.078,0,2.154,0,3.383c0.965-0.17,1.921-0.34,2.867-0.506
			C144.602,112.166,143.266,112.943,139.366,113.398z"/>
		<path fill-rule="evenodd" clip-rule="evenodd" fill="#017991" d="M52.187,113.457c-2.085-0.396-4.575-0.191-5.411-3.133
			c1.084,0.209,2.016,0.389,3.096,0.594c0-1.182,0-2.273,0-3.35c1.029,0.146,2.164,1.141,2.288,2.316
			C52.28,111.043,52.187,112.223,52.187,113.457z"/>
		<path fill-rule="evenodd" clip-rule="evenodd" fill="#017991" d="M112.351,120.848c0.375-0.361,0.761-0.682,1.084-1.053
			c1.233-1.398,3.103-2.121,4.89-0.9c-0.851,0.672-1.718,1.357-2.691,2.125c0.782,0.672,1.527,1.316,2.264,1.951
			C116.493,124.145,114.431,123.344,112.351,120.848z"/>
		<path fill-rule="evenodd" clip-rule="evenodd" fill="#017991" d="M145.019,106.645c0.968-0.395,1.849-0.748,2.725-1.105
			c0.392,1.758-0.912,2.967-4.335,4.021c-0.168-0.514-0.316-1.029-0.506-1.527c-0.685-1.783-0.34-3.963,1.441-4.711
			C144.552,104.348,144.766,105.402,145.019,106.645z"/>
		<path fill-rule="evenodd" clip-rule="evenodd" fill="#017991" d="M200,135.578c0,1.305-0.992,2.277-2.313,2.273
			c-1.292-0.006-2.298-1.016-2.302-2.307c0-1.281,1.029-2.359,2.274-2.373C198.959,133.156,199.998,134.227,200,135.578z
			 M197.669,137.469c1.125,0.01,2.006-0.834,2.01-1.926c0.003-1.049-0.946-1.99-2.003-1.988c-1.006,0.006-1.909,0.887-1.95,1.916
			C195.681,136.539,196.575,137.461,197.669,137.469z"/>
		<path fill-rule="evenodd" clip-rule="evenodd" fill="#017991" d="M197.422,135.549c-0.093,0.613-0.142,0.943-0.191,1.273
			c-0.066-0.002-0.129-0.004-0.194-0.004c0-0.842,0-1.68,0-2.768c0.506,0.154,1.098,0.193,1.441,0.504
			c0.174,0.16-0.1,0.812-0.397,1.211c0.153,0.373,0.309,0.746,0.463,1.115c-0.075,0.041-0.149,0.082-0.22,0.119
			C198.065,136.582,197.807,136.168,197.422,135.549z"/>
	</g>
</g>
<g id="Organizers">
</g>
</svg>
