<?xml version="1.0" encoding="utf-8"?>
<!-- Generator: Adobe Illustrator 16.0.0, SVG Export Plug-In . SVG Version: 6.00 Build 0)  -->
<!DOCTYPE svg PUBLIC "-//W3C//DTD SVG 1.1//EN" "http://www.w3.org/Graphics/SVG/1.1/DTD/svg11.dtd">
<svg version="1.1" xmlns="http://www.w3.org/2000/svg" xmlns:xlink="http://www.w3.org/1999/xlink" x="0px" y="0px" width="200px"
	 height="200px" viewBox="0 0 200 200" enable-background="new 0 0 200 200" xml:space="preserve">
<g id="Gold">
</g>
<g id="Supporters">
</g>
<g id="Advisor">
</g>
<g id="Producer">
</g>
<g id="Organizers">
	<g id="Guava">
		<rect id="Frame_12_" x="15" y="75.714" fill-rule="evenodd" clip-rule="evenodd" fill="none" width="170" height="48.571"/>
		<path id="a_5_" fill-rule="evenodd" clip-rule="evenodd" fill="#D41E58" d="M166.03,76.097c0,0,0.666-0.055,1.396-0.055
			c0.56,0,1.341,0.055,1.341,0.055c2.611,0.266,5.094,1.106,6.891,2.231c0.508,0.317,0.669,0.383,0.669,0.383v-2.13H185v33.827
			h-8.673v-1.982c0,0-0.276,0.198-0.363,0.257c-2.348,1.585-5.168,2.424-8.424,2.44c-3.62,0.021-6.52-1.046-8.777-2.523
			c-4.493-2.937-8.022-7.923-8.022-14.941c0-5.208,1.973-8.965,4.53-11.935C157.877,78.697,161.189,76.6,166.03,76.097
			 M161.5,88.128c-1.132,1.38-2.221,3.33-2.078,6.016c0.189,3.492,2.172,6.004,4.532,7.276c2.368,1.278,5.514,1.175,7.645,0.099
			c3.509-1.774,6.335-7.202,3.775-11.935c-1.384-2.561-4.567-4.972-8.682-4.463C164.368,85.407,162.76,86.591,161.5,88.128"/>
		<path id="v_2_" fill-rule="evenodd" clip-rule="evenodd" fill="#D41E58" d="M128.597,76.582
			c2.546,7.216,5.148,14.374,7.645,21.638c0.752-1.69,1.432-3.52,2.075-5.337c1.894-5.342,3.77-10.84,5.664-16.3h9.25
			c-3.963,11.386-8.081,22.384-11.987,33.827h-9.815c-3.824-11.111-7.793-21.84-11.603-32.966c-0.065-0.19-0.065-0.19-0.29-0.861
			H128.597z"/>
		<path id="a_4_" fill-rule="evenodd" clip-rule="evenodd" fill="#D41E58" d="M99.245,76.097c0,0,0.666-0.055,1.396-0.055
			c0.559,0,1.34,0.055,1.34,0.055c2.611,0.266,5.093,1.106,6.891,2.231c0.507,0.317,0.669,0.383,0.669,0.383v-2.13h8.673v33.827
			h-8.673v-1.982c0,0-0.276,0.198-0.364,0.257c-2.347,1.585-5.167,2.424-8.423,2.44c-3.621,0.021-6.52-1.046-8.777-2.523
			c-4.493-2.937-8.022-7.923-8.022-14.941c0-5.208,1.972-8.965,4.53-11.935C91.091,78.697,94.403,76.6,99.245,76.097 M94.54,88.128
			c-1.132,1.38-2.221,3.33-2.077,6.016c0.188,3.492,2.17,6.004,4.53,7.276c2.369,1.278,5.516,1.175,7.645,0.099
			c3.51-1.774,6.336-7.202,3.776-11.935c-1.386-2.561-4.567-4.972-8.684-4.463C97.409,85.407,95.8,86.591,94.54,88.128"/>
		<path id="u_2_" fill-rule="evenodd" clip-rule="evenodd" fill="#D41E58" d="M52.32,76.582h8.649V95.24
			c0,0-0.122,2.902,1.203,4.685c1.489,2.006,3.458,2.478,4.761,2.478c1.273,0,3.563-0.664,4.961-2.502
			c1.274-1.675,1.218-4.661,1.218-4.661V76.582h8.673v33.827h-8.673v-1.128c-2.245,1.194-4.814,2.088-8.368,1.843
			c-3.818-0.263-6.557-2.102-8.59-4.365c-1.797-2.004-3.859-6.064-3.859-11.962L52.32,76.582z"/>
		<path id="g_150_" fill-rule="evenodd" clip-rule="evenodd" fill="#D41E58" d="M28.583,85.8c-2.432,1.228-4.459,3.814-4.72,6.888
			c-0.663,7.812,7.369,11.868,12.835,8.442c2.101-1.316,4.059-4.106,4.059-7.472c0-3.675-2.346-6.548-4.625-7.761
			c-1.232-0.655-3.19-1.001-5.002-0.776C30.174,85.238,29.244,85.465,28.583,85.8 M25.86,112.981c0,0,2.286,2.707,6.321,2.658
			c6.616-0.081,7.661-3.687,7.727-6.554c-0.002-0.028,0-0.162,0-0.162l-0.094,0.065c-1.642,1.053-4.165,1.983-6.796,2.134
			c-2.761,0.157-6.27-0.421-9.408-2.141c-4.664-2.559-7.717-7.089-8.43-13.869c0,0-0.068-1.053-0.067-1.556
			c0.002-0.592,0.067-1.355,0.067-1.355c0.379-4.519,2.314-8.245,4.813-10.963c2.531-2.751,6.068-4.681,10.381-5.142
			c0,0,0.754-0.055,1.299-0.055c0.567,0,1.438,0.055,1.438,0.055c3.102,0.337,5.461,1.328,7.562,2.693l-0.002-2.209h8.673
			c0,0,0,29.288,0,31.448c0,4.735-0.941,8.31-3.824,11.206c-3.137,3.151-8.341,5.098-14.486,4.707
			c-4.55-0.291-8.096-2.26-10.835-4.875L25.86,112.981z"/>
	</g>
</g>
</svg>
