<?xml version="1.0" encoding="utf-8"?>
<!-- Generator: Adobe Illustrator 16.0.0, SVG Export Plug-In . SVG Version: 6.00 Build 0)  -->
<!DOCTYPE svg PUBLIC "-//W3C//DTD SVG 1.1//EN" "http://www.w3.org/Graphics/SVG/1.1/DTD/svg11.dtd">
<svg version="1.1" xmlns="http://www.w3.org/2000/svg" xmlns:xlink="http://www.w3.org/1999/xlink" x="0px" y="0px" width="200px"
	 height="200px" viewBox="0 0 200 200" enable-background="new 0 0 200 200" xml:space="preserve">
<g id="Gold">
</g>
<g id="Supporters">
</g>
<g id="Advisor">
	<g id="Tagarela">
		<path fill="#44263A" d="M44.019,122.828c0.214-0.01,0.394-0.03,0.578-0.03c2.889,0,5.779,0.01,8.662-0.01
			c0.458-0.004,0.638,0.137,0.782,0.564c1.363,4.157,5.268,6.731,9.711,6.438c4.025-0.268,7.597-3.508,8.378-7.613
			c0.105-0.562,0.133-1.143,0.204-1.794c-0.291-0.021-0.508-0.044-0.727-0.044c-1.666-0.003-3.322,0.006-4.988-0.003
			c-2.221-0.01-3.589-1.393-3.593-3.631c0-10.263,0-20.523,0.003-30.785c0-2.181,1.403-3.593,3.575-3.593
			c3.965-0.002,7.932-0.004,11.901,0c2.089,0.001,3.529,1.43,3.529,3.514c0.003,11.467,0.02,22.935-0.007,34.403
			c-0.025,8.93-6.053,16.548-14.635,18.575c-10.947,2.596-21.6-4.543-23.375-15.667C44.011,123.072,44.019,122.988,44.019,122.828z"
			/>
		<path fill="#44263A" d="M30.396,72.699c0,3.197,0,6.367,0,9.604c2.92,0,5.774,0,8.676,0c0,3.213,0,6.356,0,9.603
			c-2.863,0-5.736,0-8.642,0c-0.017,0.302-0.032,0.501-0.032,0.704c-0.003,3.016-0.022,6.021,0.003,9.04
			c0.02,2.471,0.571,4.775,2.317,6.656c1.517,1.637,3.471,2.441,5.599,2.899c0.241,0.056,0.484,0.101,0.765,0.155
			c0,2.988,0,5.967,0,9.071c-1.181-0.09-2.337-0.12-3.479-0.277c-4.812-0.647-8.833-2.766-11.889-6.586
			c-1.844-2.305-2.79-5.011-3.124-7.885c-0.314-2.696-0.521-5.419-0.55-8.132c-0.073-7.062-0.023-14.127-0.023-21.19
			c0-2.313,1.352-3.693,3.658-3.707c2.031-0.012,4.069-0.003,6.105,0C29.965,72.657,30.146,72.683,30.396,72.699z"/>
		<path fill="#44263A" d="M137.011,101.392c-0.628,4.633,3.215,8.552,9.24,9.504c0,3.12,0,6.254,0,9.485
			c-0.661-0.035-1.315-0.04-1.956-0.11c-8.848-0.948-15.659-7.527-16.922-16.367c-0.12-0.861-0.186-1.737-0.19-2.605
			c-0.03-5.088-0.033-10.179-0.037-15.269c-0.003-2.283,1.419-3.699,3.689-3.699c3.922,0,7.849-0.002,11.781,0
			c2.158,0,3.586,1.43,3.589,3.595c0.005,3.969,0.005,7.937,0,11.905c-0.003,2.047-1.331,3.471-3.383,3.54
			c-1.682,0.058-3.372,0.021-5.051,0.024C137.532,101.392,137.285,101.392,137.011,101.392z"/>
		<path fill="#44263A" d="M50.927,101.328c0.52-4.784-3.3-8.689-9.243-9.511c0-3.132,0-6.273,0-9.574
			c1.29,0.16,2.576,0.23,3.823,0.487c8.029,1.634,14.002,8.071,15.053,16.218c0.142,1.065,0.199,2.151,0.202,3.229
			c0.023,4.818,0.012,9.638,0.01,14.454c0,2.347-1.411,3.755-3.761,3.755c-3.842,0.002-7.684,0.002-11.528,0
			c-2.359,0-3.762-1.39-3.769-3.744c-0.01-3.863-0.01-7.726,0-11.589c0.007-2.384,1.373-3.725,3.765-3.725
			C47.281,101.328,49.09,101.328,50.927,101.328z"/>
		<path fill="#44263A" d="M160.881,82.327c2.015,0.026,3.884,0.25,5.674,0.854c7.417,2.479,11.791,7.663,13.135,15.297
			c0.411,2.365,0.264,4.841,0.284,7.266c0.047,3.677,0.015,7.353,0.013,11.025c-0.003,2.153-1.443,3.611-3.581,3.615
			c-3.965,0.01-7.934,0.01-11.899,0c-2.096-0.004-3.568-1.477-3.575-3.573c-0.007-3.987-0.01-7.976,0.003-11.964
			c0.003-2.073,1.453-3.513,3.533-3.52c1.705-0.01,3.409-0.032,5.113,0.007c0.604,0.019,0.685-0.23,0.641-0.738
			c-0.433-4.657-3.42-7.841-8.104-8.603c-1.239-0.203-1.239-0.203-1.239-1.489c0-2.452,0-4.902,0-7.354
			C160.881,82.908,160.881,82.664,160.881,82.327z"/>
		<path fill="#44263A" d="M93.69,101.328c0.177-3.812-2.14-8.729-9.266-9.511c0-3.137,0-6.28,0-9.598
			c1.472,0.204,2.914,0.304,4.321,0.611c7.719,1.7,13.648,8.305,14.575,16.187c0.1,0.824,0.147,1.659,0.154,2.484
			c0.026,5.048,0.038,10.092,0.056,15.14c0.004,1.6-0.631,2.829-2.149,3.464c-0.446,0.188-0.963,0.271-1.455,0.273
			c-3.967,0.021-7.938,0.018-11.899,0.007c-2.118-0.003-3.561-1.456-3.564-3.57c-0.003-3.966,0-7.935,0-11.903
			c0.003-2.181,1.41-3.581,3.584-3.584c1.642-0.004,3.282,0,4.924,0C93.196,101.328,93.423,101.328,93.69,101.328z"/>
		<path fill="#44263A" d="M158.297,120.314c-2.358,0-4.615,0.075-6.868-0.028c-1.53-0.07-2.731-1.462-2.859-2.993
			c-0.02-0.31-0.027-0.622-0.027-0.933c0-14.251,0-28.502,0-42.756c0-0.287,0-0.571,0-0.891c0.22-0.024,0.382-0.059,0.541-0.059
			c1.871-0.003,3.735-0.018,5.605,0c2.218,0.023,3.604,1.43,3.604,3.645c0,14.438,0,28.877,0,43.314
			C158.297,119.845,158.297,120.072,158.297,120.314z"/>
		<path fill="#44263A" d="M124.853,82.22c0,3.291,0,6.417,0,9.513c-1.028,0.249-2.043,0.428-3.02,0.748
			c-3.975,1.317-6.305,4.575-6.305,8.746c-0.003,6.104,0,12.215,0,18.321c0,0.25,0,0.499,0,0.72
			c-0.067,0.054-0.105,0.099-0.13,0.099c-2.141,0.01-4.289,0.087-6.424-0.007c-1.904-0.08-3.23-1.531-3.23-3.451
			c0-5.629-0.15-11.268,0.128-16.882c0.375-7.699,5.928-15.305,14.757-17.215C121.994,82.514,123.408,82.417,124.853,82.22z"/>
	</g>
</g>
<g id="Producer">
</g>
<g id="Organizers">
</g>
</svg>
