<?xml version="1.0" encoding="utf-8"?>
<!-- Generator: Adobe Illustrator 16.0.0, SVG Export Plug-In . SVG Version: 6.00 Build 0)  -->
<!DOCTYPE svg PUBLIC "-//W3C//DTD SVG 1.1//EN" "http://www.w3.org/Graphics/SVG/1.1/DTD/svg11.dtd">
<svg version="1.1" xmlns="http://www.w3.org/2000/svg" xmlns:xlink="http://www.w3.org/1999/xlink" x="0px" y="0px" width="200px"
	 height="200px" viewBox="0 0 200 200" enable-background="new 0 0 200 200" xml:space="preserve">
<g id="Gold">
</g>
<g id="Supporters">
</g>
<g id="Advisor">
	<g id="Novatec">
		<path fill="#231F20" d="M3.949,90.121c0.176,1.453,0.176,2.902,0.176,4.355h0.113c1.685-2.961,5.521-5.053,9.12-5.053
			c6.911,0,10.221,3.894,10.221,10.628v17.249h-3.835v-15.044c0-6.036-1.685-9.347-7.372-9.347c-0.815,0-8.247,0.521-8.247,10.451
			v13.939H0.29V96.103c0-1.449-0.173-4.008-0.29-5.981H3.949z"/>
		<path fill="#231F20" d="M45.646,117.998c-8.423,0-14.4-6.1-14.4-14.288c0-8.188,5.978-14.284,14.4-14.284
			c8.478,0,14.46,6.097,14.46,14.284C60.106,111.898,54.124,117.998,45.646,117.998 M45.646,92.91
			c-6.271,0-10.221,4.705-10.221,10.8c0,6.101,3.949,10.801,10.221,10.801c6.331,0,10.28-4.7,10.28-10.801
			C55.927,97.615,51.978,92.91,45.646,92.91"/>
		<polygon fill="#231F20" points="79.095,117.301 74.797,117.301 63.766,90.121 68.353,90.121 77.007,113.003 77.12,113.003 
			85.773,90.121 90.13,90.121 		"/>
		<path fill="#231F20" d="M112.604,100.636v-0.697c0-4.705-2.264-7.028-6.969-7.028c-3.197,0-5.982,1.101-8.306,3.192l-2.323-2.727
			c2.496-2.556,6.39-3.948,11.498-3.948c5.344,0,9.931,3.016,9.931,9.637V111.2c0,2.093,0.235,4.646,0.467,6.101h-3.718
			c-0.231-1.336-0.349-2.962-0.349-4.416h-0.113c-2.21,3.601-5.23,5.113-9.582,5.113c-4.823,0-9.355-2.672-9.355-7.957
			c0-8.826,10.396-9.405,16.899-9.405H112.604z M110.63,103.77c-3.894,0-12.661,0.29-12.661,5.746c0,3.604,3.311,4.995,6.39,4.995
			c5.574,0,8.246-3.948,8.246-8.767v-1.975H110.63z"/>
		<path fill="#231F20" d="M139.432,93.607h-7.839v16.026c0,4.066,1.567,4.877,3.949,4.877c1.336,0,2.785-0.403,3.948-1.046
			l0.173,3.546c-1.391,0.639-3.248,0.987-5.168,0.987c-2.902,0-6.737-1.277-6.737-7.26V93.607h-5.747v-3.486h5.747v-7.665h3.835
			v7.665h7.839V93.607z"/>
		<path fill="#231F20" d="M147.388,104.757c0.463,5.457,4.588,9.754,9.99,9.754c4.062,0,7.196-2.264,8.708-4.7l2.962,2.437
			c-3.192,4.066-7.2,5.751-11.67,5.751c-8.074,0-14.057-6.1-14.057-14.288c0-8.188,5.982-14.284,13.708-14.284
			c8.242,0.057,13.006,6.156,13.006,13.587v1.744H147.388z M165.855,101.623c0-5.172-3.311-8.713-8.826-8.713
			c-4.995,0-9.523,4.238-9.523,8.713H165.855z"/>
		<path fill="#231F20" d="M196.866,96.51c-1.277-1.974-3.776-3.6-6.793-3.6c-6.331-0.118-10.221,4.587-10.221,10.8
			c0,6.214,3.89,10.919,10.221,10.801c3.017,0,5.516-1.626,6.793-3.6l3.134,2.382c-2.668,3.138-6.271,4.646-9.927,4.705
			c-8.885,0.113-14.404-6.1-14.404-14.288c0-8.188,5.52-14.4,14.404-14.284c3.655,0.057,7.259,1.569,9.927,4.702L196.866,96.51z"/>
		<path fill="#231F20" d="M134.466,74.448c0.173,2.021,1.702,3.613,3.701,3.613c1.504,0,2.668-0.84,3.227-1.744l1.097,0.903
			c-1.181,1.508-2.668,2.13-4.323,2.13c-2.991,0-5.205-2.258-5.205-5.291c0-3.031,2.214-5.291,5.075-5.291
			c3.054,0.021,4.818,2.281,4.818,5.033v0.647H134.466z M141.31,73.284c0-1.913-1.227-3.226-3.272-3.226
			c-1.849,0-3.524,1.571-3.524,3.226H141.31z"/>
		<path fill="#231F20" d="M155.483,79.094h-1.42v-1.678h-0.047c-0.924,1.354-2.579,1.935-3.91,1.935
			c-3.143,0-5.356-2.258-5.356-5.289c0-3.033,2.214-5.293,5.356-5.293c1.331,0,2.986,0.582,3.91,1.937h0.047v-7.873h1.42V79.094z
			 M150.106,78.061c2.322,0,4.02-1.744,4.02-4c0-2.26-1.697-4.003-4.02-4.003c-2.349,0-3.811,1.743-3.811,4.003
			C146.296,76.317,147.758,78.061,150.106,78.061"/>
		<path fill="#231F20" d="M159.612,66.188c-0.517,0-1.033-0.433-1.033-1.033c0-0.603,0.517-1.034,1.033-1.034
			c0.518,0,1.034,0.431,1.034,1.034C160.646,65.756,160.13,66.188,159.612,66.188 M160.322,79.094h-1.42V69.026h1.42V79.094z"/>
		<path fill="#231F20" d="M168.947,70.318h-2.907v5.936c0,1.504,0.584,1.807,1.466,1.807c0.496,0,1.034-0.151,1.462-0.387
			l0.063,1.311c-0.517,0.237-1.206,0.366-1.916,0.366c-1.075,0-2.495-0.473-2.495-2.688v-6.344h-2.126v-1.292h2.126v-2.838h1.42
			v2.838h2.907V70.318z"/>
		<path fill="#231F20" d="M175.698,79.35c-3.117,0-5.331-2.258-5.331-5.291c0-3.031,2.214-5.291,5.331-5.291
			c3.142,0,5.355,2.26,5.355,5.291C181.054,77.092,178.84,79.35,175.698,79.35 M175.698,70.058c-2.323,0-3.785,1.743-3.785,4.001
			c0,2.258,1.462,4.001,3.785,4.001c2.344,0,3.81-1.744,3.81-4.001C179.508,71.801,178.042,70.058,175.698,70.058"/>
		<path fill="#231F20" d="M183.784,72.167c0-0.903-0.042-1.678-0.084-3.14h1.396v1.872h0.046c0.407-1.076,1.462-2.13,3.227-2.13
			c0.407,0,0.752,0.042,1.054,0.13l-0.281,1.397c-0.172-0.065-0.429-0.107-0.819-0.107c-2.15,0-3.117,1.872-3.117,3.226v5.678h-1.42
			V72.167z"/>
		<path fill="#231F20" d="M197.228,72.918v-0.256c0-1.743-0.84-2.604-2.579-2.604c-1.185,0-2.219,0.41-3.075,1.185l-0.861-1.012
			c0.924-0.945,2.365-1.462,4.256-1.462c1.982,0,3.68,1.117,3.68,3.571v4.495c0,0.775,0.084,1.723,0.172,2.26h-1.378
			c-0.084-0.496-0.126-1.099-0.126-1.636h-0.046c-0.815,1.333-1.933,1.893-3.546,1.893c-1.785,0-3.466-0.987-3.466-2.945
			c0-3.271,3.853-3.487,6.26-3.487H197.228z M196.496,74.082c-1.44,0-4.688,0.105-4.688,2.13c0,1.332,1.227,1.849,2.365,1.849
			c2.066,0,3.054-1.462,3.054-3.248v-0.731H196.496z"/>
	</g>
</g>
<g id="Producer">
</g>
<g id="Organizers">
</g>
</svg>
