<?xml version="1.0" encoding="utf-8"?>
<!-- Generator: Adobe Illustrator 16.0.0, SVG Export Plug-In . SVG Version: 6.00 Build 0)  -->
<!DOCTYPE svg PUBLIC "-//W3C//DTD SVG 1.1//EN" "http://www.w3.org/Graphics/SVG/1.1/DTD/svg11.dtd">
<svg version="1.1" xmlns="http://www.w3.org/2000/svg" xmlns:xlink="http://www.w3.org/1999/xlink" x="0px" y="0px" width="400px"
	 height="200px" viewBox="0 0 400 200" enable-background="new 0 0 400 200" xml:space="preserve">
<g id="Gold">
	<g id="_x3C_img_x3E__Tempest">
		<g id="Symbol">
			<path fill="#2F518E" d="M33.1,151.765l95.663,25.635l0.239-0.898l-95.666-25.635C33.255,151.169,33.174,151.472,33.1,151.765z"/>
			<path fill="#2F518E" d="M29.415,150.781c0.057-0.317,0.104-0.625,0.141-0.925L0.24,141.999L0,142.897L29.415,150.781z"/>
			<path fill="#2F518E" d="M34.666,145.981l95.645,25.627l0.361-1.348l-95.655-25.632C34.905,145.078,34.789,145.527,34.666,145.981
				z"/>
			<path fill="#2F518E" d="M30.126,144.011c0.048-0.209,0.103-0.434,0.151-0.648l-28.364-7.601l-0.362,1.348l28.435,7.62
				C30.029,144.492,30.068,144.261,30.126,144.011z"/>
			<path fill="#2F518E" d="M35.944,140.12l95.918,25.7l0.48-1.794l-96.076-25.745C36.16,138.892,36.054,139.505,35.944,140.12z"/>
			<path fill="#2F518E" d="M31.862,137.103l-28.279-7.578l-0.48,1.794l28.274,7.575C31.535,138.304,31.691,137.71,31.862,137.103z"
				/>
			<path fill="#2F518E" d="M37.038,134.206l96.377,25.823l0.6-2.243L37.56,131.94C37.366,132.718,37.194,133.472,37.038,134.206z"/>
			<path fill="#2F518E" d="M33.792,130.931l-28.537-7.646l-0.6,2.246l28.394,7.607C33.284,132.407,33.533,131.673,33.792,130.931z"
				/>
			<path fill="#2F518E" d="M82.854,137.39l-2.12-0.568c-0.026,0.705-0.234,1.219-1.62,0.742c0.485-0.308,0.662-0.652,0.649-1.001
				L39.44,125.757c-0.333,0.926-0.626,1.805-0.888,2.648l96.411,25.838l0.726-2.695l-50.676-13.579
				C84.206,138.392,83.459,138.032,82.854,137.39z"/>
			<path fill="#2F518E" d="M36.169,124.88l-29.243-7.834l-0.723,2.693l28.872,7.736C35.419,126.614,35.785,125.747,36.169,124.88z"
				/>
			<path fill="#2F518E" d="M38.664,118.864l-30.063-8.059l-0.844,3.145l29.694,7.957C37.883,120.876,38.289,119.856,38.664,118.864z
				"/>
			<path fill="#2F518E" d="M75.71,131.208c-0.38,0.433-0.708,0.633-1,0.684l1.442,0.387
				C76.006,131.897,75.859,131.528,75.71,131.208z"/>
			<path fill="#2F518E" d="M72.324,129.271c-0.83,0.039,0.042,0.715-0.385,1.562c-0.956-0.784-1.072-2.07-1.177-3.367l-1.246-0.334
				c-0.021,1.074,0.574,2.305,0.99,2.795c-0.783,0.008-1.576-1.424-2.021-3.071l-26.646-7.144c-0.26,0.643-0.527,1.287-0.803,1.943
				c-0.157,0.376-0.3,0.732-0.447,1.094l33.415,8.953C73.331,131.196,72.864,129.907,72.324,129.271z"/>
			<path fill="#2F518E" d="M79.09,130.935c2.426-1.518,1.483,2.366,4.09,3.229l0.094,0.023c0.156,0.047,0.323,0.086,0.508,0.11
				c-0.016,0.005-0.029,0.007-0.044,0.013l52.781,14.145l0.841-3.145l-57.466-15.4C79.69,130.361,79.244,130.405,79.09,130.935z"/>
			<path fill="#2F518E" d="M76.906,126.272l61.161,16.391l0.963-3.594l-64.189-17.197C75.808,123.327,76.551,124.782,76.906,126.272
				z"/>
			<path fill="#2F518E" d="M35.046,112.927c0.624-1.027,0.467-1.359,0.173-1.67l-24.948-6.687l-0.964,3.591l25.63,6.868
				C34.765,114.446,34.702,113.726,35.046,112.927z"/>
			<path fill="#2F518E" d="M68.145,123.828c-0.87-0.215-1.739-0.425-2.607-0.642c0.29-1.229,1.273-1.309,1.291-2.994
				c-1.138,0.068-0.941,2.35-2.203,2.217c-1.846,0.062,0.246-1.221-0.008-2.207c-0.064-0.258-0.806,0.641-0.777,0.914
				c-0.092-0.791-0.105-1.484-0.104-2.22l-19.596-5.251c-0.405,1.145-0.832,2.312-1.291,3.503l25.292,6.774
				C68.141,123.892,68.141,123.86,68.145,123.828z"/>
			<path fill="#2F518E" d="M63.688,115.005c-0.985,0.039-0.82,0.669-0.651,1.348l0.702,0.19
				C63.731,116.074,63.719,115.579,63.688,115.005z"/>
			<path fill="#2F518E" d="M44.867,111.484l13.192,3.535c-0.331-1.558-0.575-2.927-0.457-4.453l-11.516-3.086
				C45.717,108.809,45.31,110.14,44.867,111.484z"/>
			<path fill="#2F518E" d="M59.023,115.278l2.615,0.701c-0.41-1.16-1.128-1.637-0.435-4.346
				C60.222,112.427,59.676,113.942,59.023,115.278z"/>
			<path fill="#2F518E" d="M96.745,124.238c-1.796,0.052-0.315-1.88-1.055-2.468c-1.015,1.091-1.119,0.07-1.814,0.656
				c-0.482-1.426-0.319-2.114-2.351-1.68c0.083-0.342,0.169-0.684,0.254-1.023l-23.223-6.225c1.272,1.896,2.755,3.688,4.13,5.439
				l66.93,17.934l1.086-4.04l-43.792-11.733C97.154,122.061,97.199,123.099,96.745,124.238z"/>
			<path fill="#2F518E" d="M35.453,108.616c-0.167-1.197-0.859,0.417-1.434-0.908c0.335,0.773-0.224-3.641-0.271-3.377
				c0.009-0.054,0.024-0.098,0.038-0.146l-0.673-0.178c-0.007,0.236-0.013,0.479-0.016,0.717c-0.159-0.388-0.413-0.645-0.641-0.896
				l-2.431-0.651c-0.128,0.065-0.271,0.111-0.444,0.129c-0.469,0.686-0.053,2.84-1.16,2.479c0.227-1.016,0.44-2.057,0.82-2.818
				l-17.301-4.633l-1.083,4.037l24.232,6.494C35.279,108.657,35.441,108.54,35.453,108.616z"/>
			<path fill="#2F518E" d="M40.258,107.036c0.335-0.41,0.284-0.793,0.109-1.089l-0.404-0.107c0.012,0.007,0.02,0.017,0.031,0.026
				C39.772,106.587,39.621,107.884,40.258,107.036z"/>
			<path fill="#2F518E" d="M92.294,117.624c-0.047-1.078-0.495-0.312-1.115,0.064l1.031,0.277
				C92.242,117.852,92.268,117.739,92.294,117.624z"/>
			<path fill="#2F518E" d="M43.619,102.344c-0.427-0.827-0.083-1.47,0.497-2.08l-1.303-0.347c0.06,0.213,0.112,0.42,0.148,0.607
				C43.056,101.003,41.582,103.613,43.619,102.344z"/>
			<path fill="#2F518E" d="M100.424,115.354l-0.966-0.26c0.17,1.475-0.236,2.881-0.917,4.068c-2.383-0.481-2.193-2.516-2.875-4.021
				c-0.783,1.193-0.185,2.451,0.459,3.872l45.046,12.07l1.202-4.489l-40.413-10.828
				C101.255,116.185,100.794,115.886,100.424,115.354z"/>
			<path fill="#2F518E" d="M32.159,97.317c-1.346-0.273-1.313,1.732-2.2,2.219c-0.091-0.532,0.49-1.567,1.195-2.742l-17.542-4.701
				l-1.199,4.489l18.004,4.824C30.217,99.727,31.479,99.011,32.159,97.317z"/>
			<path fill="#2F518E" d="M41.43,104.358l1.052,0.28c0.371-2.087-0.853-3.213-1.604-4.626
				C41.21,101.448,41.53,103.193,41.43,104.358z"/>
			<path fill="#2F518E" d="M33.328,102.188l1.334,0.358c0.312-0.41,0.666-0.881,1.02-1.604
				C34.216,100.657,33.601,101.243,33.328,102.188z"/>
			<path fill="#2F518E" d="M80.184,109.932l-14.256-3.823c0.037,0.337-0.041,0.693-0.319,1.092c1.384-0.711,1.634,1.957,3.262,2.455
				c-1.845,0.423-0.828,1.302,0.24,2.119l18.445,4.944c0.147-0.972,0.742-2.747,0.825-3.372c-0.981-0.156-0.75,1.686-1.551,1.829
				c-0.472-0.804-0.182-2.067,0.229-3.405l-1.486-0.396c-0.265,0.543-0.574,0.465-0.555-0.148l-0.478-0.127
				c-0.06,0.246-0.113,0.493-0.196,0.705c-1.05,0.039-1.187-0.48-1.191-1.078l-1.886-0.506c-0.229,0.649-0.392,1.404-0.82,1.73
				C80.484,111.331,80.325,110.625,80.184,109.932z"/>
			<path fill="#2F518E" d="M90.155,117.415c0.672-1.852,0.298-3.072,0.545-4.668l-0.886-0.234c-0.567,1.113-0.935,2.777-1.692,4.355
				L90.155,117.415z"/>
			<path fill="#2F518E" d="M56.711,108.452c-0.306-1.287,0.516-3.703,1.496-4.409l-8.81-2.36c-0.807,1.348-1.602,2.787-2.42,4.162
				L56.711,108.452z"/>
			<path fill="#2F518E" d="M58.457,107.095c-0.837-0.088-1.294,0.454-1.49,1.428l0.947,0.252
				C58.049,108.247,58.217,107.695,58.457,107.095z"/>
			<path fill="#2F518E" d="M85.375,109.851c-0.06-0.002-0.114,0.018-0.167,0.035l0.144,0.036
				C85.358,109.897,85.367,109.876,85.375,109.851z"/>
			<path fill="#2F518E" d="M82.773,109.212c-0.144-0.055-0.271-0.074-0.388-0.086l0.426,0.115
				C82.797,109.231,82.789,109.222,82.773,109.212z"/>
			<path fill="#2F518E" d="M59.992,100.847c0.919,0.299,1.257-0.365,2.211-0.007c-1.026,1.478,0.864,2.435,2.318,3.501l15.454,4.143
				c-0.013-0.593,0.119-1.115,0.581-1.475c-1.179-2.102-2.719-3.002-3.398-4.574l-0.875-0.234c-0.014,0.488-0.111,0.98-0.417,1.447
				c-0.311-0.545-0.586-1.111-0.73-1.758l-1.533-0.408c-0.245,0.293-0.487,0.589-0.734,0.879c0.094-0.492,0.112-0.814,0.095-1.052
				l-2.428-0.651c-0.006,0.007-0.008,0.014-0.011,0.021c-0.451,0.828-0.55,0.457-0.497-0.158l-1.265-0.338
				c-0.244,0.26-0.449,0.579-0.579,1.025c-0.793-0.346-1.274-0.876-1.482-1.576l-1.152-0.311c-0.066,0.039-0.142,0.07-0.229,0.078
				c-0.177-0.059-0.312-0.148-0.429-0.252l-6.805-1.823C58.832,98.431,59.52,99.577,59.992,100.847z"/>
			<path fill="#2F518E" d="M87.971,108.281c-0.781-0.081-0.889,1.354-1.136,2.038l0.625,0.169
				C87.702,109.71,87.916,108.948,87.971,108.281z"/>
			<path fill="#2F518E" d="M85.897,109.98c-0.001,0.032-0.004,0.056-0.009,0.085l0.082,0.022
				C85.944,110.052,85.925,110.022,85.897,109.98z"/>
			<path fill="#2F518E" d="M47.108,97.129c0.511-1.38-1.733-3.335-2.09-2.722C46.141,95.059,45.983,96.479,47.108,97.129z"/>
			<path fill="#2F518E" d="M33.311,92.632c0.127-0.477,0.474-1.06,0.962-1.689l-18.99-5.09l-1.323,4.941l17.915,4.799
				C32.498,94.554,33.086,93.491,33.311,92.632z"/>
			<path fill="#2F518E" d="M50.144,100.488l6.439,1.726c0.431-0.49,2.107-0.42,2.243-1.101c0.288-1.481-1.579-2.728-2.653-4.304
				l-1.91-0.511C52.698,96.997,51.381,98.579,50.144,100.488z"/>
			<path fill="#2F518E" d="M43.339,96.755c0.912,0.359,0.755,1.37,0.954,2.166l0.983,0.264c0.539-0.493,1.023-1.021,1.184-1.662
				c-1.223-0.475-1.514-3.77-2.609-2.85C44.864,95.745,44.478,96.384,43.339,96.755z"/>
			<path fill="#2F518E" d="M43.792,98.789c-1.151-1.108-1.062-2.964-2.153-4.108c-0.177,0.971,0.264,2.393,0.702,3.718
				L43.792,98.789z"/>
			<path fill="#2F518E" d="M126.275,117.207c-0.158-0.765-0.723-1.331-1.447-1.999l-12.979-3.479
				c0.02,0.078,0.042,0.156,0.055,0.229c-0.357,0.09-0.69-0.115-1.008-0.486l-15.869-4.25c1.326,2.788,5.855,5.22,7.812,7.388
				l39.882,10.687l1.322-4.939l-17.323-4.641C126.479,116.138,126.248,116.592,126.275,117.207z"/>
			<path fill="#2F518E" d="M99.474,113.708c-0.167-0.241-0.352-0.434-0.565-0.529c0.07,0.142,0.115,0.281,0.169,0.422
				L99.474,113.708z"/>
			<path fill="#2F518E" d="M91.101,111.257c-0.108,0.032-0.21,0.074-0.307,0.123l0.247,0.068
				C91.067,111.382,91.078,111.325,91.101,111.257z"/>
			<path fill="#2F518E" d="M67.128,96.53c-0.802-0.043-0.853,1.148-1.104,2.008l0.57,0.153
				C66.614,98.066,66.787,97.351,67.128,96.53z"/>
			<path fill="#2F518E" d="M63.907,92.197l-1.66-0.446c-0.157,1.047,0.918,1.35,1.1,2.194C63.28,92.466,63.772,93.188,63.907,92.197
				z"/>
			<path fill="#2F518E" d="M57.307,96.204l7.145,1.914c-0.167-1.881,1.407-4.928-1.105-4.173c-1.026,1.937-2.083-0.599-2.998-1.286
				c-1.461,0.512-2.755,1.296-3.888,2.354C56.742,95.41,57.024,95.806,57.307,96.204z"/>
			<path fill="#2F518E" d="M40.509,85.925l-23.553-6.309l-1.444,5.389L34.905,90.2C36.288,88.691,38.376,87.044,40.509,85.925z"/>
			<path fill="#2F518E" d="M76.234,101.274l0.638,0.171c-0.108-0.671-0.083-1.468,0.143-2.483
				C75.977,99.365,76.13,100.257,76.234,101.274z"/>
			<path fill="#2F518E" d="M75.198,99.622c-0.329,0.361-0.649,0.739-0.967,1.117l0.802,0.213
				C75.027,100.544,75.076,100.103,75.198,99.622z"/>
			<path fill="#2F518E" d="M98.93,107.356c-0.956-1.473-1.531-3.174-1.749-5.091c-0.811-0.437-0.436,1.953,0.004,2.21
				c-0.509,1.828-1.32-0.479-1.305-1.424c-1.043,1.104-1.346,2.163-1.173,3.172L98.93,107.356z"/>
			<path fill="#2F518E" d="M100.183,105.765c-0.662-0.01-0.744,0.932-0.944,1.674l1.484,0.398
				C100.318,107.28,100.455,106.399,100.183,105.765z"/>
			<path fill="#2F518E" d="M126.991,113.46c0.311,0.598,0.287,1.047,0.142,1.452l17.141,4.593l1.444-5.387l-30.563-8.193
				C119.174,108.401,123.067,110.957,126.991,113.46z"/>
			<path fill="#2F518E" d="M70.388,98.989c-0.245,0.193-0.506,0.352-0.765,0.516l0.545,0.146
				C70.232,99.372,70.312,99.126,70.388,98.989z"/>
			<path fill="#2F518E" d="M121.081,113.291c-0.685-0.566-1.395-1.548-1.769-2.271c-2.217,0.791-4.162-1.73-5.342-2.969
				c-1.06,1.523,1.589,0.809,0.53,2.336c-0.333-0.463-1.227-1.162-1.562-0.385c0.077-0.758-0.827-2.068-1.963-3.24
				c-1.084,0.789-0.167,2.518,0.477,3.947L121.081,113.291z"/>
			<path fill="#2F518E" d="M71.682,98.206c-0.784-0.26-0.804,0.749-0.917,1.604l0.487,0.129
				C71.36,99.302,71.577,98.506,71.682,98.206z"/>
			<path fill="#2F518E" d="M122.698,112.956c-0.078,0.348-0.205,0.557-0.364,0.67l1.207,0.324
				C123.258,113.652,122.974,113.333,122.698,112.956z"/>
			<path fill="#2F518E" d="M110.185,110.374c-0.562-1.058-1.068-2.373-1.55-3.082c-0.83,0.037,0.042,0.716-0.385,1.559
				c-1.338-1.553-1.672-3.711-3.138-5.186c-0.739,0.479,1.173,3.109,0.412,5.068c-0.865-1.689-3.173-2.51-3.271-4.666
				c-1.034,0.469,0.458,2.746-0.792,3.967L110.185,110.374z"/>
			<path fill="#2F518E" d="M72.722,98.46c-0.645-0.013-0.736,0.891-0.93,1.623l0.857,0.232
				C72.569,99.993,72.549,99.489,72.722,98.46z"/>
			<path fill="#2F518E" d="M90.906,94.099c8.341,2.822,15.517,6.578,22.271,10.631l32.706,8.762l1.445-5.386l-64.854-17.38
				C84.714,92.012,87.479,92.942,90.906,94.099z"/>
			<path fill="#2F518E" d="M42.971,84.905c3.13-0.85,3.123,0.059,5.266,0.908c0.025-0.352,0.032-0.691,0.025-1.023
				c0.11-0.701,0.012-1.885-0.19-3.283l-29.503-7.906l-1.445,5.389l24.271,6.504C41.928,85.254,42.456,85.054,42.971,84.905z"/>
			<path fill="#2F518E" d="M77.495,88.044c0.296-1.25-0.578-4.035-1.447-3.115C77.098,85.622,76.125,87.542,77.495,88.044z"/>
			<path fill="#2F518E" d="M101.682,90.677c-0.087-0.418-0.143-0.85-0.174-1.295L99.7,88.894c-0.148,0.213-0.31,0.42-0.494,0.625
				c-0.245-0.238-0.391-0.541-0.47-0.881l-10.903-2.922c0.068,0.344,0.072,0.678-0.075,0.986c-0.569-0.225-0.721-0.703-0.804-1.221
				l-0.469-0.125c0.058,0.312,0.022,0.646-0.29,0.965c-0.187-0.377-0.345-0.771-0.491-1.175l-0.414-0.11
				c0.099,0.484,0.061,1.004-0.266,1.549c-0.77-0.569-1.288-1.295-1.704-2.078l-1.899-0.508c-0.052,0.981-0.039,2,0.224,2.856
				c-0.607,0.833-0.963-0.159-1.56-0.386c-0.169,0.695-0.342,1.389-0.512,2.085c0.371,0.376,0.775,0.718,1.19,1.042l66.732,17.881
				l1.444-5.388l-46.914-12.571C101.924,89.985,101.815,90.397,101.682,90.677z"/>
			<path fill="#2F518E" d="M52.209,76.315c-0.7-0.17-1.416-0.046-2.505-0.131c0.502,1.013,0.908,2.084,1.334,3.139
				C51.531,78.421,51.9,77.393,52.209,76.315z"/>
			<path fill="#2F518E" d="M46.833,74.731l-26.655-7.144l-1.444,5.388l29.233,7.832C47.659,78.87,47.202,76.628,46.833,74.731z"/>
			<path fill="#2F518E" d="M81.458,83.337l1.484,0.398c-0.462-1.011-0.846-2.065-1.445-2.988
				C81.64,81.286,81.535,82.253,81.458,83.337z"/>
			<path fill="#2F518E" d="M117.016,88.929c-1.276,0.557-5.954-1.209-4.833-3.135l-3.586-0.963c0.288,0.475,0.62,1.084,1.133,2.061
				c0.818,1.81,2.474,2.324,2.091,2.969c0,0-0.711,0.865-1.481,0.301c-1.65-2.414-1.144-3.735-3.479-4.834
				c-0.744-0.01-0.75,1.199-1.029,1.955c-0.613-0.84-0.638-2.045-0.521-3.33l-0.984-0.261c-0.076,0.876-0.162,1.748-0.449,2.559
				c-1.08-1.519-1.377,0.726-1.728,2.63l46.957,12.582l1.444-5.385l-36.797-9.863C114.805,87.142,115.922,88.03,117.016,88.929z"/>
			<path fill="#2F518E" d="M102.191,83.118l-0.896-0.242c-0.227,1.875-0.304,3.752-1.241,5.444l1.452,0.388
				C101.491,87.024,101.794,85.169,102.191,83.118z"/>
			<path fill="#2F518E" d="M90.175,79.899c-0.05,0.084-0.104,0.198-0.179,0.352c0.077,2.168,0.069,3.284,0.876,5.008
				c0.185,1.206-2.461-1.404-1.172,0.266c-0.002,0.008-0.012,0.008-0.015,0.02l8.971,2.4c-0.043-1.404,0.487-3.156-0.251-4.143
				c-1.03,2.49-3.093-0.621-4.554-1.673c-0.312,1.224,0.516,1.753-0.25,3.249c-1.663-1.41-1.467-3.532-2.523-5.238L90.175,79.899z"
				/>
			<path fill="#2F518E" d="M54.456,73.765c-0.039,0.037-0.068,0.083-0.095,0.139c0.012,0.006,0.017,0.008,0.03,0.008
				C54.415,73.864,54.436,73.813,54.456,73.765z"/>
			<path fill="#2F518E" d="M85.04,84.3l0.407,0.107c-0.275-0.816-0.548-1.634-0.956-2.371C83.728,82.427,84.558,83.242,85.04,84.3z"
				/>
			<path fill="#2F518E" d="M52.888,75.684l0.195,0.052c0.38-0.267,0.725-0.689,1.045-1.285c-0.917-0.576-1.91-0.977-2.919-0.551
				C51.414,74.456,52.195,75.088,52.888,75.684z"/>
			<path fill="#2F518E" d="M86.238,84.616l0.615,0.166c-0.033-0.189-0.073-0.381-0.146-0.544
				C86.14,84.153,86.129,84.321,86.238,84.616z"/>
			<path fill="#2F518E" d="M88.133,82.933c-1.12,0.358-0.799,1.176-0.503,2.058l1.154,0.31C88.305,84.71,87.905,83.62,88.133,82.933
				z"/>
			<path fill="#2F518E" d="M46.684,73.955c0.045-1.667-0.14-3.682-0.315-5.794L21.79,61.575l-1.442,5.388l26.352,7.063
				C46.695,74.001,46.69,73.978,46.684,73.955z"/>
			<path fill="#2F518E" d="M55.452,70.601c-0.006-0.002-0.015-0.008-0.023-0.012l-2.968-0.797c-0.229,0.045-0.456,0.104-0.672,0.201
				c1.615,0.705,2.37,1.908,0.391,1.926c0.389,0.363,1.622,0.764,2.559,1.125C54.981,72.356,55.217,71.548,55.452,70.601z"/>
			<path fill="#2F518E" d="M51.147,70.716C52.109,71.455,47.855,68.177,51.147,70.716L51.147,70.716z"/>
			<path fill="#2F518E" d="M46.13,61.65l-22.729-6.089l-1.444,5.389l24.355,6.525C46.159,65.527,46.038,63.522,46.13,61.65z"/>
			<path fill="#2F518E" d="M105.543,79.482c-0.84,1.042-1.035,2.288-1.155,3.552l0.987,0.267
				C105.527,81.97,105.741,80.599,105.543,79.482z"/>
			<path fill="#2F518E" d="M110.18,84.59c-0.759-0.776-1.406-1.938-1.777-3.296c-0.744-0.015-0.749,1.193-1.032,1.953
				c0.267,0.291,0.475,0.527,0.661,0.764L110.18,84.59z"/>
			<path fill="#2F518E" d="M112.72,85.271l1.864,0.498c-1.127-0.827-2.512-1.882-3.439-2.148
				C111.63,84.196,112.164,84.739,112.72,85.271z"/>
			<path fill="#2F518E" d="M50.159,65.903c1.583,0.734,2.241,2.391,2.38,2.949c1.067,0.125,2.214,0.549,3.065,1.094
				c0.247-1.066,0.49-2.277,0.744-3.664c0.107-0.625,0.224-1.219,0.354-1.797l-2.578-0.691c-0.182,0.034-0.395,0.021-0.673-0.109
				c0.004-0.025,0.006-0.047,0.011-0.068l-2.516-0.674c-0.001,0.007-0.007,0.01-0.01,0.014c2.045,0.469,4.156,3.284,4.913,4.056
				C54.117,66.013,51.921,65.589,50.159,65.903z"/>
			<path fill="#2F518E" d="M112.203,79.355l-0.742-0.2c-0.284-0.054-0.563-0.088-0.852-0.08c0.685,1.357,3.744,1.276,4.3,2.709
				c1.25,1.285-1.223-0.785-2.604-0.637c0.477,1.187,2.502,1.438,3.261,2.459c-1.565,1.057-3.077-1.66-5.076-1.803
				c1.508,1.656,3.859,2.801,5.541,4.352l34.689,9.294l1.442-5.386l-35.127-9.414C115.723,81.556,114.102,80.02,112.203,79.355z"/>
			<path fill="#2F518E" d="M103.19,77.8c-1.165,1.387-1.582,2.9-1.808,4.432l0.938,0.252C102.612,81.016,102.932,79.463,103.19,77.8
				z"/>
			<path fill="#2F518E" d="M52.223,61.517c0.543,0.881,2.066,1.208,2.97,1.895l1.647,0.439c0.462-1.937,1.048-3.652,1.767-5.303
				l-4.493-1.201c-0.214,0.068-0.388,0.212-0.479,0.505c0.483,0.231,0.136,0.54-0.22,0.84c0.565,0.104,3.047,0.811,1.564,0.903
				c-1.997,0.015-0.689,0.184-2.736,0.115C53.906,60.071,53.237,61.406,52.223,61.517z"/>
			<path fill="#2F518E" d="M52.649,62.728l0.798,0.215c-0.076-0.191-0.247-0.32-0.613-0.345
				C52.784,62.661,52.722,62.702,52.649,62.728z"/>
			<path fill="#2F518E" d="M111.238,74.263c0.944,1.643,1.816,3.328,4.569,3.882c1.478,1.126-1.968,0.063-2.736-0.12
				c0.837,0.501,1.35,0.999,1.864,1.395l37.392,10.018l1.444-5.391l-42.3-11.334C112.228,73.548,112.979,74.634,111.238,74.263z"/>
			<path fill="#2F518E" d="M47.815,55.657l-22.802-6.111l-1.444,5.389l22.601,6.055C46.331,58.921,46.792,57.054,47.815,55.657z"/>
			<path fill="#2F518E" d="M53.069,53.161c0.545,1.282-1.467,2.379-1.92,2.158c0.431,0.787,4.583,0.605,4.913,1.873
				c0,0.002-0.004,0.002-0.007,0.002l2.815,0.755c0.767-1.663,1.683-3.291,2.752-5.039l-34.997-9.378l-1.445,5.389l23.089,6.187
				C49.329,53.981,50.865,53.267,53.069,53.161z"/>
			<path fill="#2F518E" d="M103.141,64.544c2.273,1.574,5.488,2.585,7.171,4.523c-0.819,1.416-1.147-1.001-2.604-0.643
				c1.229,1.324,2.849,2.412,4.69,3.365c-0.117,0.3-0.392,0.344-0.715,0.31l42.259,11.323l1.442-5.389l-48.986-13.127
				C105.922,65.788,104.126,64.499,103.141,64.544z"/>
			<path fill="#2F518E" d="M65.037,47.552c0.036-0.052,0.073-0.091,0.108-0.143l-36.909-9.89l-1.444,5.388l35.185,9.427
				C62.887,50.872,63.904,49.31,65.037,47.552z"/>
			<path fill="#2F518E" d="M103.113,57.915c-0.397,1.047-2.316-0.422-2.855,0.398c-0.212,1.182,1.478-0.352,2.601,0.642
				c-0.137,0.503-0.733,0.247-1.166,0.264c2.43,1.481,1.369,3.093,4.044,3.753c1.479,1.127-1.97,0.062-2.731-0.117
				c-0.013,0.227,0.065,0.397,0.213,0.529l2.057,0.552c0.482,0.071,0.938,0.159,1.247,0.335l49.03,13.139l1.442-5.391L97.087,55.97
				C98.516,57.812,100.494,57.272,103.113,57.915z"/>
			<path fill="#2F518E" d="M70.834,42.487l-40.988-10.98l-1.445,5.385l37.175,9.961C67.651,44.194,69.352,43.069,70.834,42.487z"/>
			<path fill="#2F518E" d="M80.424,47.2c0.315-0.843,0.818-1.38,1.412-1.764l-2.312-0.619C79.359,45.889,79.838,46.958,80.424,47.2z
				"/>
			<path fill="#2F518E" d="M83.889,48.552c1.826-0.57,4.453-1.367,7.943-0.439l-7.959-2.131c-0.727,0.464-1.492,0.734-2.189,0.516
				C81.417,48.281,82.78,48.835,83.889,48.552z"/>
			<path fill="#2F518E" d="M94.508,50.278c-1.134-0.066-1.117-1.05-2.21,0.008c1.041,1.918,2.233,1.276,4.034,1.543
				c-0.135,1.24-1.646,0.209-1.944,1.179c0.141,0.884,2.626-0.483,3.505-0.796c-1.062,1.457,0.206,2.212,2.612,2.852
				c-0.417,0.412-1.639,0.432-0.776,0.916c-0.008,0.007-0.02,0.01-0.029,0.02l57.465,15.395l1.444-5.385L91.852,48.122
				C93.395,49.226,95.154,48.704,94.508,50.278z"/>
			<path fill="#2F518E" d="M75.94,40.669c0.503,0.137,0.248,0.737,0.267,1.17c1.1,0.117,1.376-1.136,2.073-1.699
				c-0.348,3.366,0.923-0.469,3.376-0.271c-0.323,2.395-2.411,1.87-3.103,3.65c0.885,0.285,3.053-1.624,4.282-1.705
				c0.951,1.871-1.797,1.609-2.595,1.57c-0.253,0.246-0.413,0.525-0.537,0.811L82.706,45c1.206-0.483,2.606-0.647,3.695-1.315
				c0.383-0.416,0.58-0.623,0.47-0.328c-0.15,0.125-0.308,0.23-0.47,0.328c-0.424,0.466-1.092,1.198-1.85,1.809l74.226,19.885
				l1.442-5.385L31.457,25.491l-1.443,5.391l41.941,11.237C73.396,41.731,74.66,41.626,75.94,40.669z"/>
			<polygon fill="#2F518E" points="161.832,53.978 129.59,45.339 33.07,19.478 31.628,24.866 160.388,59.368 			"/>
		</g>
		<g id="Logotype">
			<path fill="#443F46" d="M341.174,156.003c0,0.465,0.122,0.836,0.369,1.119c0.242,0.285,0.599,0.424,1.059,0.424
				c0.423,0,0.759-0.102,1.008-0.314c0.253-0.213,0.376-0.529,0.376-0.952c0-0.339-0.099-0.601-0.298-0.781
				c-0.195-0.176-0.427-0.317-0.692-0.423l-1.917-0.693c-0.751-0.266-1.322-0.637-1.704-1.117c-0.383-0.481-0.57-1.1-0.57-1.852
				c0-0.434,0.067-0.847,0.215-1.237c0.146-0.388,0.375-0.728,0.691-1.019c0.317-0.29,0.724-0.52,1.22-0.693
				c0.492-0.17,1.086-0.256,1.789-0.256c1.239,0,2.156,0.264,2.75,0.791c0.593,0.527,0.894,1.274,0.894,2.236v0.435h-2.454
				c0-0.554-0.093-0.96-0.269-1.216c-0.177-0.256-0.488-0.389-0.939-0.389c-0.341,0-0.646,0.098-0.901,0.289
				c-0.256,0.192-0.386,0.479-0.386,0.861c0,0.262,0.084,0.503,0.247,0.711c0.166,0.212,0.481,0.391,0.941,0.537l1.642,0.551
				c0.858,0.293,1.463,0.672,1.818,1.139c0.36,0.469,0.539,1.105,0.539,1.908c0,0.569-0.101,1.061-0.296,1.478
				c-0.199,0.415-0.473,0.759-0.82,1.038c-0.354,0.275-0.771,0.473-1.25,0.593c-0.482,0.12-1.016,0.179-1.594,0.179
				c-0.767,0-1.403-0.071-1.909-0.218c-0.509-0.144-0.913-0.361-1.206-0.651c-0.301-0.291-0.508-0.645-0.624-1.058
				c-0.121-0.417-0.179-0.884-0.179-1.396v-0.378h2.451V156.003z"/>
			<path fill="#443F46" d="M350.12,155.075c0,0.318,0.024,0.623,0.072,0.921c0.044,0.296,0.119,0.56,0.224,0.788
				c0.108,0.232,0.246,0.416,0.42,0.557c0.166,0.14,0.377,0.205,0.629,0.205c0.464,0,0.798-0.163,1.012-0.492
				c0.214-0.33,0.354-0.83,0.434-1.504h2.454c-0.054,1.24-0.385,2.185-0.99,2.829c-0.608,0.649-1.562,0.97-2.87,0.97
				c-0.989,0-1.762-0.164-2.312-0.496c-0.557-0.33-0.964-0.764-1.229-1.307c-0.266-0.539-0.425-1.146-0.487-1.818
				c-0.056-0.672-0.087-1.346-0.087-2.017c0-0.716,0.048-1.401,0.149-2.058c0.098-0.662,0.297-1.248,0.591-1.764
				c0.297-0.515,0.723-0.922,1.28-1.228c0.551-0.303,1.291-0.454,2.215-0.454c0.793,0,1.441,0.127,1.948,0.386
				c0.506,0.257,0.905,0.62,1.196,1.087c0.293,0.469,0.488,1.037,0.595,1.703c0.104,0.667,0.159,1.409,0.159,2.225v0.615h-5.404
				V155.075z M352.831,151.523c-0.039-0.31-0.108-0.573-0.208-0.794c-0.096-0.217-0.236-0.381-0.416-0.492
				c-0.178-0.113-0.405-0.172-0.681-0.172c-0.278,0-0.508,0.064-0.682,0.191c-0.18,0.124-0.32,0.29-0.428,0.492
				c-0.105,0.205-0.18,0.436-0.224,0.684c-0.048,0.252-0.072,0.504-0.072,0.752v0.416h2.791
				C352.896,152.192,352.872,151.833,352.831,151.523z"/>
			<path fill="#443F46" d="M361.851,151.553c-0.038-0.251-0.095-0.479-0.184-0.687c-0.085-0.202-0.207-0.365-0.363-0.492
				c-0.161-0.125-0.374-0.186-0.637-0.186c-0.331,0-0.601,0.072-0.81,0.225c-0.209,0.153-0.368,0.375-0.474,0.674
				c-0.109,0.297-0.18,0.674-0.219,1.127c-0.038,0.457-0.06,0.994-0.06,1.614c0,0.661,0.022,1.224,0.06,1.692
				c0.039,0.469,0.109,0.854,0.219,1.156c0.105,0.303,0.251,0.523,0.445,0.664c0.188,0.14,0.438,0.205,0.739,0.205
				c0.461,0,0.8-0.195,1.011-0.59c0.215-0.398,0.316-1.031,0.316-1.9h2.61c0,1.396-0.311,2.464-0.938,3.193
				c-0.629,0.735-1.665,1.1-3.118,1.1c-0.685,0-1.283-0.084-1.789-0.247c-0.509-0.166-0.932-0.462-1.269-0.892
				c-0.336-0.427-0.591-1-0.762-1.721c-0.171-0.721-0.255-1.613-0.255-2.681c0-1.097,0.105-2.002,0.318-2.722
				c0.206-0.719,0.503-1.295,0.888-1.722c0.381-0.427,0.837-0.728,1.366-0.901c0.526-0.17,1.108-0.256,1.741-0.256
				c1.267,0,2.219,0.369,2.855,1.108c0.641,0.737,0.962,1.741,0.962,3.008h-2.61C361.895,152.058,361.877,151.802,361.851,151.553z"
				/>
			<path fill="#443F46" d="M371.176,157.884c-0.292,0.527-0.666,0.905-1.125,1.127c-0.465,0.225-0.993,0.338-1.586,0.338
				c-0.871,0-1.539-0.228-2.007-0.684c-0.471-0.455-0.703-1.217-0.703-2.285v-7.896h2.729v7.344c0,0.553,0.091,0.938,0.278,1.155
				c0.186,0.218,0.482,0.329,0.891,0.329c0.961,0,1.444-0.588,1.444-1.762v-7.066h2.731v10.647h-2.609v-1.247H371.176z"/>
			<path fill="#443F46" d="M378.083,148.483v1.424h0.038c0.276-0.513,0.613-0.923,1.008-1.232c0.396-0.311,0.876-0.467,1.447-0.467
				c0.079,0,0.162,0.005,0.246,0.01c0.085,0.008,0.171,0.018,0.246,0.029v2.612c-0.144-0.015-0.284-0.024-0.423-0.029
				c-0.139-0.007-0.28-0.01-0.424-0.01c-0.239,0-0.478,0.032-0.715,0.098c-0.237,0.068-0.455,0.176-0.65,0.327
				c-0.198,0.148-0.357,0.347-0.477,0.594c-0.12,0.244-0.177,0.544-0.177,0.9v6.392h-2.731v-10.647H378.083z"/>
			<path fill="#443F46" d="M384.711,144.844v2.337h-2.734v-2.337H384.711z M384.711,148.483v10.647h-2.734v-10.647H384.711z"/>
			<path fill="#443F46" d="M389.778,145.437v3.047h1.582v1.861h-1.582v5.762c0,0.42,0.062,0.717,0.189,0.898
				c0.125,0.176,0.385,0.266,0.778,0.266c0.105,0,0.213-0.002,0.316-0.008c0.108-0.01,0.203-0.017,0.298-0.031v1.899
				c-0.305,0-0.596,0.013-0.879,0.029c-0.285,0.022-0.586,0.032-0.903,0.032c-0.527,0-0.958-0.039-1.297-0.11
				c-0.336-0.073-0.59-0.218-0.77-0.437c-0.178-0.218-0.299-0.504-0.364-0.859c-0.069-0.357-0.102-0.807-0.102-1.346v-6.096h-1.384
				v-1.861h1.384v-3.047H389.778z"/>
			<path fill="#443F46" d="M392.841,160.573c0.505,0,0.865-0.131,1.081-0.395c0.218-0.264,0.348-0.611,0.391-1.048l-2.991-10.647
				h2.848l1.587,7.363h0.036l1.384-7.363h2.73l-2.569,9.938c-0.244,0.883-0.468,1.596-0.683,2.146
				c-0.223,0.547-0.479,0.97-0.773,1.267c-0.298,0.299-0.655,0.491-1.073,0.582c-0.413,0.092-0.939,0.139-1.57,0.139h-1.111v-2.036
				C392.37,160.554,392.603,160.573,392.841,160.573z"/>
			<path fill="#443F46" d="M314.539,162.653v2.334h-2.729v-2.334H314.539z M314.539,166.294v10.646h-2.729v-10.646H314.539z"/>
			<path fill="#443F46" d="M318.894,166.294v1.248h0.04c0.291-0.527,0.663-0.914,1.13-1.158c0.459-0.244,0.988-0.365,1.582-0.365
				c0.87,0,1.54,0.236,2.006,0.713c0.469,0.473,0.702,1.244,0.702,2.314v7.895h-2.728V169.6c0-0.554-0.095-0.942-0.28-1.157
				c-0.185-0.217-0.482-0.327-0.891-0.327c-0.964,0-1.444,0.586-1.444,1.761v7.064h-2.727v-10.646H318.894z"/>
			<path fill="#443F46" d="M329.322,163.247v3.047h1.584v1.86h-1.584v5.759c0,0.423,0.065,0.723,0.19,0.898
				c0.124,0.182,0.387,0.27,0.781,0.27c0.103,0,0.212-0.003,0.316-0.01c0.108-0.008,0.206-0.018,0.297-0.029v1.898
				c-0.305,0-0.596,0.013-0.881,0.032c-0.283,0.02-0.584,0.026-0.9,0.026c-0.529,0-0.96-0.033-1.295-0.107
				c-0.336-0.072-0.596-0.219-0.773-0.434c-0.176-0.221-0.301-0.508-0.364-0.862c-0.067-0.356-0.099-0.806-0.099-1.345v-6.097
				h-1.386v-1.86h1.386v-3.047H329.322z"/>
			<path fill="#443F46" d="M333.995,172.884c0,0.319,0.024,0.625,0.067,0.922c0.048,0.296,0.122,0.56,0.229,0.791
				c0.104,0.232,0.244,0.416,0.413,0.553c0.175,0.139,0.385,0.209,0.633,0.209c0.462,0,0.799-0.163,1.012-0.495
				c0.212-0.329,0.355-0.83,0.435-1.504h2.456c-0.055,1.24-0.387,2.185-0.992,2.829c-0.605,0.647-1.564,0.97-2.87,0.97
				c-0.989,0-1.761-0.163-2.315-0.493c-0.554-0.33-0.962-0.767-1.226-1.307c-0.268-0.541-0.427-1.149-0.484-1.82
				c-0.06-0.672-0.09-1.346-0.09-2.018c0-0.715,0.051-1.398,0.147-2.061c0.099-0.658,0.296-1.244,0.599-1.76
				c0.292-0.516,0.717-0.923,1.271-1.229c0.555-0.303,1.294-0.453,2.215-0.453c0.793,0,1.445,0.127,1.952,0.388
				c0.508,0.257,0.91,0.615,1.198,1.087c0.29,0.469,0.487,1.035,0.595,1.699c0.102,0.668,0.155,1.408,0.155,2.227v0.615h-5.399
				V172.884z M336.703,169.333c-0.039-0.312-0.108-0.576-0.208-0.793c-0.099-0.217-0.239-0.383-0.414-0.493
				c-0.18-0.112-0.405-0.171-0.685-0.171c-0.276,0-0.499,0.066-0.682,0.19c-0.176,0.124-0.319,0.29-0.424,0.495
				c-0.106,0.205-0.181,0.43-0.229,0.682c-0.043,0.252-0.067,0.503-0.067,0.752v0.415h2.788
				C336.771,170.003,336.742,169.642,336.703,169.333z"/>
			<path fill="#443F46" d="M343.472,162.812v14.128h-2.732v-14.128H343.472z"/>
			<path fill="#443F46" d="M348.042,162.812v14.128h-2.732v-14.128H348.042z"/>
			<path fill="#443F46" d="M352.612,162.653v2.334h-2.729v-2.334H352.612z M352.612,166.294v10.646h-2.729v-10.646H352.612z"/>
			<path fill="#443F46" d="M362.328,176.406c0,1.372-0.337,2.402-1.016,3.089c-0.682,0.686-1.82,1.027-3.417,1.027
				c-1.162,0-2.052-0.246-2.68-0.742c-0.628-0.496-0.939-1.199-0.939-2.107h2.611c0,0.342,0.137,0.613,0.416,0.811
				c0.133,0.094,0.273,0.166,0.424,0.221c0.15,0.051,0.314,0.078,0.486,0.078c0.554,0,0.943-0.182,1.169-0.535
				c0.223-0.356,0.339-0.799,0.339-1.326v-1.406h-0.044c-0.276,0.396-0.616,0.716-1.02,0.95c-0.403,0.239-0.822,0.356-1.254,0.356
				c-1.084,0-1.898-0.41-2.445-1.235s-0.82-2.207-0.82-4.147c0-0.618,0.037-1.253,0.105-1.9c0.074-0.645,0.225-1.23,0.457-1.75
				c0.229-0.52,0.569-0.945,1.008-1.277c0.444-0.326,1.035-0.492,1.771-0.492c0.385,0,0.778,0.104,1.19,0.316
				c0.408,0.211,0.746,0.592,1.008,1.146h0.044v-1.187h2.606V176.406z M356.915,173.001c0.036,0.332,0.101,0.625,0.2,0.883
				c0.099,0.257,0.241,0.462,0.417,0.613c0.177,0.151,0.413,0.229,0.701,0.229c0.291,0,0.534-0.078,0.725-0.229
				c0.189-0.151,0.342-0.359,0.455-0.625c0.113-0.262,0.193-0.581,0.236-0.959c0.047-0.377,0.074-0.787,0.074-1.233
				c0-1.296-0.107-2.214-0.31-2.754c-0.206-0.54-0.576-0.811-1.118-0.811c-0.306,0-0.547,0.068-0.73,0.198
				c-0.189,0.131-0.335,0.344-0.44,0.645c-0.105,0.295-0.173,0.693-0.209,1.186c-0.032,0.494-0.048,1.1-0.048,1.81
				C356.867,172.324,356.883,172.676,356.915,173.001z"/>
			<path fill="#443F46" d="M366.406,172.884c0,0.319,0.022,0.625,0.068,0.922c0.047,0.296,0.124,0.56,0.229,0.791
				c0.105,0.232,0.245,0.416,0.417,0.553c0.171,0.139,0.381,0.209,0.633,0.209c0.465,0,0.798-0.163,1.009-0.495
				c0.208-0.329,0.354-0.83,0.434-1.504h2.457c-0.053,1.24-0.385,2.185-0.991,2.829c-0.607,0.647-1.562,0.97-2.871,0.97
				c-0.99,0-1.759-0.163-2.315-0.493c-0.553-0.33-0.965-0.767-1.228-1.307c-0.263-0.541-0.422-1.149-0.483-1.82
				c-0.059-0.672-0.092-1.346-0.092-2.018c0-0.715,0.051-1.398,0.153-2.061c0.096-0.658,0.293-1.244,0.591-1.76
				c0.297-0.516,0.724-0.923,1.276-1.229c0.555-0.303,1.294-0.453,2.217-0.453c0.796,0,1.441,0.127,1.949,0.388
				c0.508,0.257,0.906,0.615,1.198,1.087c0.291,0.469,0.49,1.035,0.595,1.699c0.103,0.668,0.157,1.408,0.157,2.227v0.615h-5.403
				V172.884z M369.116,169.333c-0.038-0.312-0.108-0.576-0.208-0.793c-0.096-0.217-0.237-0.383-0.417-0.493
				c-0.173-0.112-0.404-0.171-0.68-0.171c-0.281,0-0.508,0.066-0.685,0.19c-0.176,0.124-0.319,0.29-0.425,0.495
				s-0.182,0.43-0.229,0.682c-0.046,0.252-0.068,0.503-0.068,0.752v0.415h2.789C369.182,170.003,369.156,169.642,369.116,169.333z"
				/>
			<path fill="#443F46" d="M375.665,166.294v1.248h0.041c0.291-0.527,0.666-0.914,1.129-1.158c0.465-0.244,0.99-0.365,1.582-0.365
				c0.872,0,1.542,0.236,2.01,0.713c0.47,0.473,0.702,1.244,0.702,2.314v7.895h-2.731V169.6c0-0.554-0.093-0.942-0.276-1.157
				c-0.185-0.217-0.48-0.327-0.892-0.327c-0.963,0-1.444,0.586-1.444,1.761v7.064h-2.733v-10.646H375.665z"/>
			<path fill="#443F46" d="M387.844,169.36c-0.032-0.249-0.091-0.477-0.172-0.682c-0.091-0.202-0.212-0.371-0.37-0.492
				c-0.159-0.127-0.369-0.191-0.633-0.191c-0.327,0-0.599,0.076-0.814,0.23c-0.21,0.153-0.368,0.375-0.473,0.671
				c-0.105,0.296-0.181,0.674-0.219,1.128c-0.038,0.457-0.06,0.994-0.06,1.613c0,0.657,0.022,1.221,0.06,1.692
				c0.038,0.466,0.113,0.854,0.219,1.157c0.104,0.303,0.254,0.525,0.443,0.662c0.192,0.139,0.441,0.209,0.745,0.209
				c0.46,0,0.795-0.197,1.01-0.593c0.208-0.397,0.314-1.03,0.314-1.899h2.613c0,1.396-0.313,2.461-0.938,3.193
				c-0.628,0.732-1.667,1.099-3.117,1.099c-0.688,0-1.284-0.083-1.791-0.247c-0.505-0.166-0.928-0.461-1.267-0.891
				c-0.336-0.428-0.592-1.001-0.765-1.721c-0.169-0.721-0.255-1.611-0.255-2.682c0-1.096,0.104-2.002,0.316-2.722
				c0.209-0.718,0.508-1.292,0.891-1.722c0.382-0.43,0.839-0.727,1.365-0.9c0.527-0.171,1.108-0.256,1.742-0.256
				c1.266,0,2.22,0.368,2.859,1.107c0.642,0.738,0.959,1.741,0.959,3.008h-2.613C387.895,169.87,387.878,169.612,387.844,169.36z"/>
			<path fill="#443F46" d="M394.089,172.884c0,0.319,0.027,0.625,0.067,0.922c0.048,0.296,0.126,0.56,0.231,0.791
				c0.104,0.232,0.241,0.416,0.416,0.553c0.17,0.139,0.379,0.209,0.633,0.209c0.462,0,0.798-0.163,1.008-0.495
				c0.212-0.329,0.358-0.83,0.438-1.504h2.453c-0.054,1.24-0.383,2.185-0.991,2.829c-0.607,0.647-1.562,0.97-2.868,0.97
				c-0.988,0-1.762-0.163-2.315-0.493c-0.557-0.33-0.962-0.767-1.226-1.307c-0.269-0.541-0.427-1.149-0.488-1.82
				c-0.056-0.672-0.086-1.346-0.086-2.018c0-0.715,0.048-1.398,0.147-2.061c0.101-0.658,0.294-1.244,0.592-1.76
				c0.298-0.516,0.725-0.923,1.275-1.229c0.558-0.303,1.297-0.453,2.219-0.453c0.792,0,1.44,0.127,1.949,0.388
				c0.508,0.257,0.91,0.615,1.197,1.087c0.293,0.469,0.491,1.035,0.595,1.699c0.104,0.668,0.156,1.408,0.156,2.227v0.615h-5.402
				V172.884z M396.802,169.333c-0.042-0.312-0.11-0.576-0.208-0.793c-0.098-0.217-0.238-0.383-0.417-0.493
				c-0.177-0.112-0.406-0.171-0.681-0.171c-0.279,0-0.506,0.066-0.686,0.19c-0.176,0.124-0.318,0.29-0.422,0.495
				c-0.105,0.205-0.183,0.43-0.231,0.682c-0.04,0.252-0.067,0.503-0.067,0.752v0.415h2.793
				C396.867,170.003,396.838,169.642,396.802,169.333z"/>
			<path fill="#231F20" d="M181.078,108.903h-7.745v14.346c0,4.759,0.357,5.826,4.832,5.826c0.924,0,2.271-0.145,3.478-0.286v7.884
				c-2.06,0.498-4.617,0.781-6.531,0.781c-2.988,0-6.96-0.426-9.304-2.344c-2.916-2.415-2.916-6.746-2.916-10.299v-15.908h-5.896
				v-8.312h6.324l0.925-10.581l9.088-0.71v11.291h7.745V108.903z"/>
			<path fill="#231F20" d="M192.971,120.479l-0.068,1.777c0,4.261,2.412,7.741,6.956,7.741c3.2,0,6.393-2.344,6.393-5.684
				l9.661,0.711c0,1.777-4.192,12.43-16.408,12.43c-10.794,0-17.825-7.527-17.825-18.252c0-10.654,6.32-19.251,17.542-19.251
				c5.042,0,10.229,2.272,13.211,6.394c2.986,4.119,3.763,9.234,3.696,14.134H192.971z M205.684,114.302
				c-0.212-3.908-1.492-7.531-6.035-7.531c-4.617,0-6.394,3.41-6.745,7.531H205.684z"/>
			<path fill="#231F20" d="M228.793,100.661v5.54h0.145c1.846-4.261,5.324-6.25,10.012-6.25c4.761,0,7.743,1.989,9.876,6.25
				c1.844-4.261,6.035-6.25,10.51-6.25c3.196,0,6.677,1.14,8.806,3.694c2.419,2.842,1.922,6.963,1.922,10.583v22.515h-10.443V117.64
				c0-1.422,0.142-4.974-0.214-6.324c-0.567-2.272-2.271-2.91-4.471-2.91c-1.851,0-3.766,1.064-4.548,2.771
				c-0.781,1.701-0.712,4.543-0.712,6.463v19.104h-10.44V117.64c0-3.768,0.711-9.307-4.688-9.307c-5.469,0-5.255,5.4-5.255,9.307
				v19.104h-10.441v-36.082H228.793z"/>
			<path fill="#231F20" d="M284.519,100.661v5.328h0.143c1.917-3.978,4.758-6.038,9.377-6.038c4.829,0,8.24,2.132,10.652,6.25
				c2.276,3.835,2.7,8.171,2.7,12.573c0,8.879-3.269,18.68-13.78,18.68c-3.551,0-6.816-1.492-8.307-4.688h-0.144v16.123h-10.444
				v-48.229H284.519z M285.159,120.052c0,2.275-0.213,5.326,0.994,7.316c0.994,1.562,2.839,2.7,4.688,2.7
				c5.397,0,5.611-7.884,5.611-11.579c0-3.691-0.283-11.148-5.54-11.148c-2.06,0-3.765,1.136-4.688,2.91
				c-1.065,1.92-1.065,4.121-1.065,6.25V120.052z"/>
			<path fill="#231F20" d="M319.629,120.479l-0.069,1.777c0,4.261,2.418,7.741,6.961,7.741c3.195,0,6.393-2.344,6.393-5.684
				l9.659,0.711c0,1.777-4.19,12.43-16.406,12.43c-10.8,0-17.831-7.527-17.831-18.252c0-10.654,6.323-19.251,17.547-19.251
				c5.041,0,10.227,2.272,13.211,6.394c2.98,4.119,3.762,9.234,3.692,14.134H319.629z M332.345,114.302
				c-0.212-3.908-1.489-7.531-6.035-7.531c-4.617,0-6.393,3.41-6.75,7.531H332.345z"/>
			<path fill="#231F20" d="M366.485,111.458c-0.921-3.408-3.624-4.83-7.031-4.83c-2.132,0-5.398,0.569-5.398,3.199
				c0,6.745,21.663-0.924,21.663,15.342c0,3.762-1.776,7.102-4.828,9.304c-3.271,2.271-7.243,2.981-11.224,2.981
				c-7.53,0-14.562-2.557-16.478-10.652l9.021-1.279c0.71,3.693,4.616,4.829,7.955,4.829c1.987,0,6.321-0.71,6.321-3.411
				c0-2.412-2.131-2.839-4.048-3.051c-2.487-0.286-8.452-1.351-10.726-2.132c-4.261-1.491-7.103-5.186-7.103-9.731
				c0-8.879,7.742-12.075,15.414-12.075c7.101,0,11.719,2.702,14.205,9.446L366.485,111.458z"/>
			<path fill="#231F20" d="M399.43,108.903h-7.74v14.346c0,4.759,0.353,5.826,4.833,5.826c0.923,0,2.269-0.145,3.478-0.286v7.884
				c-2.06,0.498-4.613,0.781-6.535,0.781c-2.983,0-6.957-0.426-9.305-2.344c-2.91-2.415-2.91-6.746-2.91-10.299v-15.908h-5.896
				v-8.312h6.321l0.923-10.581l9.092-0.71v11.291h7.74V108.903z"/>
		</g>
	</g>
</g>
<g id="Supporters">
</g>
<g id="Advisor">
</g>
<g id="Producer">
</g>
<g id="Organizers">
</g>
</svg>
