<?xml version="1.0" encoding="utf-8"?>
<!-- Generator: Adobe Illustrator 16.0.0, SVG Export Plug-In . SVG Version: 6.00 Build 0)  -->
<!DOCTYPE svg PUBLIC "-//W3C//DTD SVG 1.1//EN" "http://www.w3.org/Graphics/SVG/1.1/DTD/svg11.dtd">
<svg version="1.1" xmlns="http://www.w3.org/2000/svg" xmlns:xlink="http://www.w3.org/1999/xlink" x="0px" y="0px" width="200px"
	 height="200px" viewBox="0 0 200 200" enable-background="new 0 0 200 200" xml:space="preserve">
<g id="Gold">
</g>
<g id="Supporters">
</g>
<g id="Advisor">
	<g id="Casa_do_Cödigo">
		<g>
			<g>
				<path fill="#231F20" d="M105.046,97.76c-1.22,0.945-2.36,1.519-3.417,1.726c-1.06,0.207-2.187,0.311-3.384,0.311
					c-1.45,0-2.808-0.248-4.074-0.742c-1.266-0.496-2.371-1.249-3.314-2.262c-0.944-1.013-1.691-2.307-2.244-3.883
					c-0.552-1.577-0.828-3.447-0.828-5.611c0-2.254,0.304-4.171,0.914-5.749c0.61-1.576,1.416-2.864,2.417-3.865
					c1.001-1.001,2.123-1.731,3.366-2.193c1.243-0.46,2.508-0.691,3.797-0.691c1.381,0,2.509,0.077,3.384,0.225
					c0.875,0.15,1.887,0.432,3.038,0.846l-1.485,2.278c-1.104-0.529-2.681-0.793-4.729-0.793c-0.944,0-1.876,0.172-2.797,0.518
					c-0.921,0.345-1.744,0.91-2.469,1.691c-0.725,0.783-1.306,1.808-1.744,3.074c-0.437,1.266-0.655,2.819-0.655,4.66
					c0,1.658,0.207,3.107,0.622,4.351c0.415,1.243,0.983,2.278,1.708,3.107c0.725,0.829,1.576,1.45,2.555,1.864
					c0.977,0.414,2.042,0.622,3.194,0.622c1.035,0,1.938-0.104,2.709-0.312c0.771-0.207,1.42-0.471,1.95-0.793L105.046,97.76z"/>
			</g>
			<g>
				<path fill="#231F20" d="M105.046,125.882c-1.22,0.944-2.36,1.518-3.418,1.727c-1.059,0.205-2.186,0.31-3.383,0.31
					c-1.45,0-2.808-0.246-4.074-0.742c-1.266-0.494-2.371-1.248-3.314-2.261c-0.944-1.013-1.692-2.308-2.244-3.885
					c-0.552-1.576-0.829-3.447-0.829-5.609c0-2.255,0.305-4.171,0.915-5.749c0.61-1.575,1.416-2.865,2.417-3.866
					c1.001-1.002,2.124-1.731,3.366-2.191c1.243-0.461,2.508-0.691,3.797-0.691c1.381,0,2.509,0.074,3.384,0.226
					c0.875,0.149,1.887,0.431,3.038,0.846l-1.485,2.277c-1.104-0.528-2.681-0.794-4.729-0.794c-0.944,0-1.875,0.172-2.796,0.519
					c-0.921,0.345-1.744,0.908-2.469,1.69c-0.726,0.784-1.306,1.808-1.744,3.073c-0.437,1.266-0.656,2.821-0.656,4.661
					c0,1.656,0.207,3.106,0.622,4.35c0.414,1.242,0.983,2.279,1.708,3.107c0.725,0.828,1.576,1.45,2.555,1.865
					c0.977,0.413,2.042,0.62,3.193,0.62c1.036,0,1.939-0.104,2.709-0.311c0.771-0.208,1.421-0.472,1.951-0.793L105.046,125.882z"/>
			</g>
			<g>
				<path fill="#231F20" d="M106.705,83.398c0.875-0.529,1.893-0.92,3.056-1.174c1.162-0.252,2.376-0.38,3.642-0.38
					c1.197,0,2.158,0.162,2.882,0.483c0.726,0.323,1.278,0.743,1.657,1.261c0.381,0.518,0.633,1.087,0.76,1.708
					c0.126,0.621,0.19,1.243,0.19,1.864c0,1.38-0.035,2.728-0.104,4.04c-0.069,1.311-0.104,2.554-0.104,3.729
					c0,0.851,0.155,1.673,0.467,2.468c0.31,0.794,0.811,1.479,1.501,2.054h-2.451c-0.714,0-1.312-0.805-1.795-2.417h-0.173
					c-0.207,0.322-0.465,0.64-0.777,0.949c-0.311,0.312-0.685,0.587-1.122,0.829c-0.438,0.243-1.024,0.444-1.76,0.605
					c-0.737,0.16-1.473,0.242-2.21,0.242c-0.736,0-1.421-0.115-2.054-0.346c-0.634-0.23-1.18-0.558-1.64-0.984
					c-0.461-0.425-0.823-0.938-1.088-1.536c-0.265-0.598-0.397-1.277-0.397-2.037c0-1.012,0.391-2.059,1.174-3.142
					c0.782-1.081,1.887-1.708,3.314-1.881c1.427-0.173,2.934-0.258,4.522-0.258c0.322,0,0.639,0,0.95,0
					c0.311,0,0.627,0.023,0.949,0.068c0.069-0.69,0.104-1.312,0.104-1.865c0-1.265-0.254-2.152-0.76-2.658
					c-0.507-0.507-1.428-0.76-2.762-0.76c-0.392,0-0.811,0.03-1.259,0.087c-0.45,0.057-0.91,0.138-1.381,0.242
					c-0.472,0.104-0.92,0.23-1.347,0.379s-0.799,0.317-1.121,0.501L106.705,83.398z M111.124,97.242c0.645,0,1.3-0.086,1.968-0.259
					c0.667-0.173,1.186-0.391,1.554-0.656c0.368-0.265,0.673-0.558,0.915-0.881c0.241-0.322,0.42-0.633,0.535-0.932v-2.865
					c-0.322-0.023-0.65-0.041-0.984-0.052c-0.333-0.011-0.662-0.018-0.983-0.018c-1.036,0-2.083,0.041-3.142,0.121
					c-1.059,0.082-1.812,0.421-2.261,1.019c-0.449,0.599-0.673,1.187-0.673,1.761c0,0.806,0.287,1.467,0.862,1.984
					C109.49,96.983,110.227,97.242,111.124,97.242z"/>
			</g>
			<g>
				<path fill="#231F20" d="M130.181,94.687c0-0.69-0.207-1.23-0.622-1.623c-0.414-0.391-0.926-0.719-1.536-0.984
					c-0.61-0.263-1.277-0.518-2.002-0.758c-0.725-0.243-1.393-0.553-2.003-0.934c-0.61-0.379-1.122-0.867-1.536-1.467
					c-0.415-0.598-0.622-1.403-0.622-2.416c0-1.657,0.471-2.872,1.416-3.642c0.943-0.771,2.255-1.157,3.935-1.157
					c1.243,0,2.284,0.109,3.125,0.328c0.839,0.219,1.57,0.478,2.192,0.777l-0.655,2.278c-0.531-0.253-1.168-0.478-1.917-0.672
					c-0.749-0.195-1.548-0.294-2.4-0.294c-1.013,0-1.755,0.173-2.227,0.519s-0.707,0.944-0.707,1.795
					c0,0.599,0.207,1.064,0.621,1.397c0.414,0.334,0.926,0.634,1.536,0.897c0.61,0.266,1.277,0.524,2.002,0.777
					c0.725,0.254,1.392,0.587,2.002,1.002c0.609,0.414,1.122,0.937,1.536,1.57c0.415,0.633,0.622,1.467,0.622,2.504
					c0,0.737-0.121,1.428-0.363,2.072c-0.241,0.644-0.615,1.196-1.122,1.656c-0.506,0.461-1.134,0.824-1.881,1.089
					c-0.748,0.264-1.628,0.396-2.641,0.396c-1.312,0-2.429-0.127-3.349-0.379c-0.921-0.253-1.692-0.553-2.314-0.897l0.829-2.349
					c0.53,0.3,1.22,0.576,2.072,0.83c0.852,0.253,1.715,0.379,2.59,0.379c0.988,0,1.806-0.195,2.451-0.587
					C129.859,96.402,130.181,95.7,130.181,94.687z"/>
			</g>
			<g>
				<path fill="#231F20" d="M135.686,83.398c0.875-0.529,1.893-0.92,3.056-1.174c1.162-0.252,2.376-0.38,3.642-0.38
					c1.197,0,2.158,0.162,2.883,0.483c0.726,0.323,1.277,0.743,1.657,1.261c0.38,0.518,0.633,1.087,0.759,1.708
					c0.126,0.621,0.189,1.243,0.189,1.864c0,1.38-0.034,2.728-0.103,4.04c-0.069,1.311-0.104,2.554-0.104,3.729
					c0,0.851,0.156,1.673,0.466,2.468c0.311,0.794,0.812,1.479,1.502,2.054h-2.452c-0.713,0-1.312-0.805-1.795-2.417h-0.172
					c-0.207,0.322-0.466,0.64-0.777,0.949c-0.31,0.312-0.685,0.587-1.123,0.829c-0.437,0.243-1.023,0.444-1.76,0.605
					c-0.737,0.16-1.473,0.242-2.209,0.242c-0.737,0-1.422-0.115-2.054-0.346c-0.634-0.23-1.18-0.558-1.64-0.984
					c-0.461-0.425-0.823-0.938-1.088-1.536c-0.264-0.598-0.396-1.277-0.396-2.037c0-1.012,0.391-2.059,1.174-3.142
					c0.782-1.081,1.887-1.708,3.314-1.881c1.427-0.173,2.934-0.258,4.522-0.258c0.321,0,0.638,0,0.95,0
					c0.31,0,0.627,0.023,0.949,0.068c0.069-0.69,0.103-1.312,0.103-1.865c0-1.265-0.253-2.152-0.759-2.658
					c-0.506-0.507-1.427-0.76-2.761-0.76c-0.392,0-0.812,0.03-1.26,0.087c-0.45,0.057-0.91,0.138-1.381,0.242
					c-0.472,0.104-0.921,0.23-1.347,0.379s-0.8,0.317-1.122,0.501L135.686,83.398z M140.105,97.242c0.644,0,1.3-0.086,1.967-0.259
					c0.667-0.173,1.186-0.391,1.554-0.656c0.368-0.265,0.673-0.558,0.915-0.881c0.242-0.322,0.42-0.633,0.536-0.932v-2.865
					c-0.322-0.023-0.651-0.041-0.984-0.052c-0.334-0.011-0.662-0.018-0.984-0.018c-1.036,0-2.083,0.041-3.141,0.121
					c-1.059,0.082-1.812,0.421-2.261,1.019c-0.45,0.599-0.674,1.187-0.674,1.761c0,0.806,0.288,1.467,0.863,1.984
					C138.472,96.983,139.208,97.242,140.105,97.242z"/>
			</g>
			<g>
				<path fill="#231F20" d="M173.178,93.444c0,1.174,0.011,2.238,0.035,3.194c0.023,0.955,0.127,1.893,0.31,2.813h-1.863
					l-0.69-2.451h-0.139c-0.461,0.805-1.127,1.472-2.003,2.001c-0.874,0.53-1.899,0.794-3.073,0.794
					c-2.301,0-4.01-0.725-5.126-2.176c-1.117-1.449-1.674-3.715-1.674-6.8c0-2.946,0.696-5.185,2.089-6.715
					c1.392-1.53,3.308-2.297,5.747-2.297c0.852,0,1.525,0.048,2.021,0.139c0.494,0.092,1.03,0.242,1.605,0.448v-7.18h2.762V93.444z
					 M166.205,97.38c1.174,0,2.105-0.304,2.796-0.915c0.69-0.609,1.162-1.535,1.416-2.779v-8.562
					c-0.414-0.322-0.886-0.553-1.416-0.69c-0.529-0.139-1.23-0.208-2.105-0.208c-1.588,0-2.831,0.524-3.729,1.572
					c-0.898,1.047-1.346,2.722-1.346,5.023c0,0.944,0.074,1.818,0.224,2.624c0.15,0.806,0.396,1.497,0.742,2.071
					c0.345,0.576,0.8,1.03,1.365,1.363C164.714,97.214,165.399,97.38,166.205,97.38z"/>
			</g>
			<g>
				<path fill="#231F20" d="M174.877,90.751c0-2.922,0.651-5.161,1.951-6.715c1.299-1.553,3.171-2.33,5.61-2.33
					c1.289,0,2.411,0.213,3.367,0.639c0.954,0.426,1.744,1.036,2.365,1.83c0.622,0.793,1.081,1.749,1.38,2.865
					s0.45,2.353,0.45,3.711c0,2.923-0.651,5.161-1.952,6.715c-1.3,1.553-3.169,2.33-5.61,2.33c-1.289,0-2.411-0.213-3.366-0.639
					c-0.955-0.426-1.743-1.036-2.364-1.829c-0.622-0.795-1.083-1.75-1.382-2.866C175.027,93.347,174.877,92.109,174.877,90.751z
					 M177.744,90.751c0,0.875,0.087,1.715,0.259,2.521c0.173,0.805,0.443,1.506,0.811,2.105c0.369,0.599,0.852,1.082,1.45,1.45
					s1.323,0.552,2.175,0.552c3.131,0.023,4.695-2.187,4.695-6.628c0-0.897-0.086-1.749-0.259-2.555
					c-0.172-0.805-0.443-1.506-0.811-2.105s-0.851-1.077-1.449-1.434c-0.599-0.356-1.323-0.535-2.176-0.535
					C179.309,84.101,177.744,86.31,177.744,90.751z"/>
			</g>
			<g>
				<path fill="#231F20" d="M121.133,119.013c0,6.179-4.315,8.871-8.319,8.871c-4.488,0-8.009-3.313-8.009-8.596
					c0-5.558,3.693-8.836,8.284-8.836C117.888,110.452,121.133,113.938,121.133,119.013z M107.912,119.185
					c0,3.66,2.071,6.422,5.04,6.422c2.9,0,5.074-2.729,5.074-6.49c0-2.832-1.415-6.386-5.005-6.386
					C109.465,112.73,107.912,116.044,107.912,119.185z M117.509,103.581l-4.212,4.938h-2.14l3.004-4.938H117.509z"/>
			</g>
			<g>
				<path fill="#231F20" d="M137.808,102.995v20.194c0,1.483,0.069,3.174,0.138,4.315h-2.693l-0.138-2.9h-0.103
					c-0.897,1.864-2.899,3.279-5.627,3.279c-4.039,0-7.18-3.419-7.18-8.493c-0.034-5.557,3.453-8.938,7.491-8.938
					c2.589,0,4.281,1.207,5.041,2.519h0.069v-9.976H137.808z M134.805,117.598c0-0.382-0.035-0.898-0.139-1.278
					c-0.448-1.898-2.105-3.487-4.384-3.487c-3.142,0-5.005,2.764-5.005,6.421c0,3.384,1.692,6.179,4.937,6.179
					c2.037,0,3.901-1.38,4.453-3.624c0.104-0.415,0.139-0.828,0.139-1.312V117.598z"/>
			</g>
			<g>
				<path fill="#231F20" d="M162.219,125.054c0,3.866-0.793,6.179-2.381,7.663c-1.657,1.483-4.005,2.002-6.11,2.002
					c-2.001,0-4.211-0.483-5.557-1.38l0.759-2.349c1.105,0.725,2.831,1.347,4.902,1.347c3.106,0,5.385-1.623,5.385-5.868v-1.829
					h-0.069c-0.898,1.552-2.727,2.796-5.316,2.796c-4.143,0-7.111-3.522-7.111-8.147c0-5.661,3.693-8.836,7.559-8.836
					c2.9,0,4.453,1.483,5.212,2.863h0.069l0.104-2.519h2.693c-0.104,1.174-0.139,2.554-0.139,4.556V125.054z M159.182,117.39
					c0-0.519-0.035-0.967-0.174-1.346c-0.552-1.795-2.001-3.245-4.246-3.245c-2.899,0-4.971,2.45-4.971,6.317
					c0,3.278,1.692,6.007,4.936,6.007c1.899,0,3.59-1.175,4.211-3.108c0.174-0.517,0.243-1.104,0.243-1.622V117.39z"/>
			</g>
			<g>
				<path fill="#231F20" d="M180.459,119.013c0,6.179-4.314,8.871-8.319,8.871c-4.488,0-8.008-3.313-8.008-8.596
					c0-5.558,3.693-8.836,8.284-8.836C177.215,110.452,180.459,113.938,180.459,119.013z M167.238,119.185
					c0,3.66,2.071,6.422,5.041,6.422c2.899,0,5.073-2.729,5.073-6.49c0-2.832-1.415-6.386-5.005-6.386
					C168.792,112.73,167.238,116.044,167.238,119.185z"/>
			</g>
			<g>
				<path fill="#231F20" d="M144.208,106.102c0,1.035-0.726,1.863-1.933,1.863c-1.104,0-1.829-0.828-1.829-1.863
					s0.759-1.898,1.898-1.898C143.447,104.203,144.208,105.031,144.208,106.102z M140.824,127.505v-16.708h3.039v16.708H140.824z"/>
			</g>
		</g>
		<g>
			<polygon fill="#B6D66B" points="70.765,89.099 70.765,74.476 70.764,74.476 70.764,74.869 38.174,74.869 23.813,74.869 
				23.813,89.231 23.813,110.769 23.813,125.128 38.174,125.128 70.764,125.128 70.764,125.655 70.765,125.655 70.765,111.032 
				37.834,111.032 37.834,89.099 			"/>
			<polygon fill="#93C43E" points="38.174,125.128 23.813,125.128 23.813,110.769 23.813,89.231 23.813,74.869 38.174,74.869 
				70.764,74.869 70.764,74.476 70.764,60.859 23.813,60.859 10,74.869 10,125.128 23.813,139.142 70.764,139.142 70.764,125.655 
				70.764,125.128 			"/>
		</g>
	</g>
</g>
<g id="Producer">
</g>
<g id="Organizers">
</g>
</svg>
