<?xml version="1.0" encoding="utf-8"?>
<!-- Generator: Adobe Illustrator 16.0.0, SVG Export Plug-In . SVG Version: 6.00 Build 0)  -->
<!DOCTYPE svg PUBLIC "-//W3C//DTD SVG 1.1//EN" "http://www.w3.org/Graphics/SVG/1.1/DTD/svg11.dtd">
<svg version="1.1" id="Layer_1" xmlns="http://www.w3.org/2000/svg" xmlns:xlink="http://www.w3.org/1999/xlink" x="0px" y="0px"
	 width="200px" height="200px" viewBox="0 0 200 200" enable-background="new 0 0 200 200" xml:space="preserve">
<g id="Gold">
</g>
<g id="Bronze">
</g>
<g id="Supporters">
	<g id="E.Life">
		<g id="E.Life_Logo">
			<path d="M167.5,107.503c-6.407,0.003-12.812,0.017-19.22-0.008c-0.64-0.002-0.789,0.18-0.787,0.788
				c0.005,2.022,0.317,3.958,1.327,5.749c0.875,1.556,2.174,2.442,3.967,2.435c3.504-0.016,6.715-1.037,9.694-2.964
				c0.929,1.997,1.86,3.987,2.771,5.986c0.055,0.117-0.001,0.384-0.099,0.456c-4.801,3.583-10.016,5.844-16.15,4.54
				c-3.86-0.821-6.831-3.079-8.687-6.566c-3.133-5.886-4.016-12.116-1.831-18.481c2.05-5.97,6.296-9.696,12.605-10.825
				c8.441-1.51,16.18,4.955,16.275,13.546c0.004,0.263,0.09,0.524,0.136,0.786C167.5,104.464,167.5,105.983,167.5,107.503z
				 M157.982,101.065c-0.083-1.826-0.616-3.418-1.831-4.717c-1.128-1.205-2.933-1.543-4.389-0.912
				c-1.702,0.737-3.514,3.726-3.403,5.628C151.532,101.065,154.708,101.065,157.982,101.065z M131.462,74.742
				c-0.146,0.05-0.285,0.126-0.435,0.149c-2.87,0.435-5.595,1.251-7.965,3.002c-2.34,1.728-3.863,3.98-4.163,6.916
				c-0.15,1.482-0.133,2.983-0.131,4.477c0.002,0.548-0.164,0.688-0.687,0.665c-0.894-0.041-1.79-0.012-2.756-0.012
				c0,2.362-0.005,4.659,0.017,6.954c0.001,0.125,0.226,0.327,0.374,0.357c0.741,0.158,1.488,0.337,2.241,0.379
				c0.708,0.039,0.811,0.349,0.809,0.979c-0.021,8.214-0.015,16.427-0.015,24.641c0,0.28,0,0.558,0,0.854c3.411,0,6.763,0,10.165,0
				c0-8.688,0-17.318,0-26.004c1.752,0,3.45,0,5.19,0c0.012-0.26,0.029-0.468,0.029-0.675c0.002-2.255-0.022-4.51,0.017-6.766
				c0.012-0.611-0.178-0.75-0.757-0.734c-1.486,0.04-2.977,0.013-4.509,0.013c0-0.864,0.034-1.647-0.008-2.426
				c-0.104-1.976,0.803-3.391,2.462-4.312c0.981-0.544,2.062-0.913,3.161-1.387c-0.481-2.304-0.979-4.688-1.477-7.072
				C132.506,74.742,131.983,74.742,131.462,74.742z M57.719,113.882c0.939,2.01,1.851,3.935,2.724,5.877
				c0.078,0.171-0.014,0.561-0.161,0.675c-3.571,2.757-7.554,4.598-12.097,4.807c-4.935,0.227-9.128-1.562-11.842-5.762
				c-4.061-6.282-4.974-13.154-2.398-20.2c2.048-5.602,6.2-9.084,12.145-10.228c8.173-1.571,15.778,4.198,16.445,12.484
				c0.152,1.891,0.136,3.795,0.233,5.689c0.029,0.558-0.126,0.712-0.695,0.71c-6.173-0.02-12.345-0.003-18.517-0.027
				c-0.646-0.002-0.854,0.152-0.834,0.816c0.054,1.92,0.33,3.762,1.236,5.494c0.946,1.81,2.392,2.729,4.412,2.653
				c3.238-0.119,6.256-1.002,8.996-2.761C57.461,114.047,57.559,113.985,57.719,113.882z M43.513,101.432c3.289,0,6.493,0,9.733,0
				c-0.115-1.761-0.615-3.316-1.761-4.602c-1.158-1.299-3.157-1.742-4.61-0.91C44.788,97.117,43.919,99.122,43.513,101.432z
				 M80.505,76.522c0,9.947-0.018,19.895,0.012,29.841c0.008,2.822,0.081,5.649,0.256,8.466c0.185,2.965,0.736,5.874,1.83,8.662
				c0.208,0.531,0.471,0.689,1.032,0.683c2.753-0.033,5.507-0.017,8.262-0.017c0.226,0,0.454,0,0.681,0
				c0-0.144,0.017-0.218-0.002-0.281c-1.533-5.233-2.084-10.587-2.063-16.027c0.043-10.446,0.013-20.893,0.013-31.339
				c0-0.167,0.05-0.355-0.013-0.493c-0.075-0.166-0.244-0.413-0.374-0.413c-3.181-0.023-6.36-0.019-9.635-0.019
				C80.505,75.96,80.505,76.241,80.505,76.522z M108.365,89.904c-3.341,0-6.625,0-9.899,0c0,11.436,0,22.818,0,34.229
				c3.308,0,6.576,0,9.899,0C108.365,112.682,108.365,101.283,108.365,89.904z M100.346,85.635c2.545,1.245,5.04,0.935,7.26-0.844
				c2.938-2.354,2.803-6.634-0.303-8.756c-2.102-1.436-4.404-1.589-6.668-0.408c-2.068,1.078-3.316,2.781-3.384,4.886
				C97.246,83.102,98.413,84.69,100.346,85.635z"/>
			<path fill="#FFB909" d="M73.51,124.007c3.486-2.364,3.413-7.116-0.127-9.292c-2.526-1.553-6.082-1.067-8.091,1.113
				c-1.129,1.227-1.752,2.664-1.542,4.344c0.368,2.938,2.868,5.009,5.951,5.013C71.104,125.216,72.37,124.781,73.51,124.007z"/>
		</g>
	</g>
</g>
<g id="Advisor">
</g>
<g id="Producer">
</g>
<g id="Organizers">
</g>
</svg>
