<?xml version="1.0" encoding="utf-8"?>
<!-- Generator: Adobe Illustrator 16.0.0, SVG Export Plug-In . SVG Version: 6.00 Build 0)  -->
<!DOCTYPE svg PUBLIC "-//W3C//DTD SVG 1.1//EN" "http://www.w3.org/Graphics/SVG/1.1/DTD/svg11.dtd">
<svg version="1.1" id="Layer_1" xmlns="http://www.w3.org/2000/svg" xmlns:xlink="http://www.w3.org/1999/xlink" x="0px" y="0px"
	 width="200px" height="120px" viewBox="0 0 200 120" enable-background="new 0 0 200 120" xml:space="preserve">
<g id="Gold">
</g>
<g id="Supporters">
</g>
<g id="Advisor">
</g>
<g id="Producer">
</g>
<g id="Organizers">
	<g id="Eventick">
		<g>
			<path fill="#231F20" d="M32.365,55.819h-2.629v11.637h4.719v-5.08h3.789V71.2H23.535v-3.744h1.912v-26.04H23.5V37.67h14.454
				v8.644h-3.787v-4.898h-4.43v10.664h2.629v-2.488h4.077v8.535h-4.077L32.365,55.819L32.365,55.819z"/>
			<path fill="#231F20" d="M50.313,41.416h-1.908l3.459,19.23h0.324l3.426-19.23h-1.875V37.67h8.218v3.746h-2.125l-5.407,29.786
				h-4.792l-5.373-29.786h-2.125V37.67h8.179L50.313,41.416L50.313,41.416z"/>
			<path fill="#231F20" d="M74.896,55.819h-2.634v11.637h4.724v-5.08h3.782V71.2H66.065v-3.744h1.911v-26.04h-1.945V37.67h14.45
				v8.644h-3.785v-4.898h-4.434v10.664h2.634v-2.488h4.071v8.535h-4.071V55.819z"/>
			<path fill="#231F20" d="M91.546,37.67l6.056,19.557V41.416h-2.31V37.67h8.508v3.746h-1.906v29.786h-4.292l-6.704-21.643v17.898
				h1.98v3.745h-8.218v-3.745h1.987V41.416h-1.987V37.67H91.546z"/>
			<path fill="#231F20" d="M112.238,67.456h1.979v-26.04h-3.102v4.898h-3.781V37.67h18.021v8.644h-3.787v-4.898h-3.094v26.041h2.302
				V71.2h-8.54v-3.744H112.238z"/>
			<path fill="#231F20" d="M128.633,67.456h1.983v-26.04h-1.983V37.67h8.221v3.746h-1.985v26.041h1.985v3.745h-8.221V67.456z"/>
			<path fill="#231F20" d="M144.171,71.2l-3.28-3.744v-26.04l3.28-3.746h7.531l3.1,3.746v4.898h-4.292v-4.898h-5.403v26.041h5.403
				v-5.081h4.292v5.081l-3.1,3.745h-7.531V71.2z"/>
			<path fill="#231F20" d="M167.236,54.777l-2.596,5.365v7.313h1.984V71.2h-8.222v-3.744h1.982v-26.04h-1.982V37.67h8.222v3.746
				h-1.984v10.731l5.191-10.731h-1.911V37.67h7.388v3.746h-1.546l-3.68,7.526l4.793,18.514h1.624V71.2h-4.975L167.236,54.777z"/>
		</g>
		
			<radialGradient id="SVGID_1_" cx="1011.7314" cy="405.9141" r="2.1515" fx="1011.6393" fy="405.8982" gradientTransform="matrix(3.474 0 0 -3.4712 -3379.5291 1435.0902)" gradientUnits="userSpaceOnUse">
			<stop  offset="0" style="stop-color:#F7981D"/>
			<stop  offset="0.2549" style="stop-color:#F89E1A"/>
			<stop  offset="0.596" style="stop-color:#FBAF12"/>
			<stop  offset="0.9845" style="stop-color:#FFCB06"/>
			<stop  offset="1" style="stop-color:#FFCC05"/>
		</radialGradient>
		<polygon fill="url(#SVGID_1_)" stroke="#F7991C" stroke-width="0.75" stroke-miterlimit="10" points="136.883,30.384 
			132.985,28.138 129.125,30.401 129.855,25.647 126.746,22.288 131.046,21.598 132.98,17.282 134.963,21.559 139.282,22.288 
			136.134,25.607 		"/>
	</g>
</g>
</svg>
