<?xml version="1.0" encoding="utf-8"?>
<!-- Generator: Adobe Illustrator 16.0.0, SVG Export Plug-In . SVG Version: 6.00 Build 0)  -->
<!DOCTYPE svg PUBLIC "-//W3C//DTD SVG 1.1//EN" "http://www.w3.org/Graphics/SVG/1.1/DTD/svg11.dtd">
<svg version="1.1" id="Layer_1" xmlns="http://www.w3.org/2000/svg" xmlns:xlink="http://www.w3.org/1999/xlink" x="0px" y="0px"
	 width="200px" height="120px" viewBox="0 0 200 120" enable-background="new 0 0 200 120" xml:space="preserve">
<g id="Gold">
</g>
<g id="Supporters">
</g>
<g id="Advisor">
</g>
<g id="Producer">
</g>
<g id="Organizers">
	<g id="Frevo_on_Rails">
		<g>
			<g>
				<path fill="#981D25" d="M79.638,58.208h-3.752v-16.36h-2.373v-3.356h2.372v-1.543c0-5.687,1.462-7.27,5.49-7.27
					c1.308,0,4.151,0.355,4.151,0.355l-0.039,3.084c0,0-2.056-0.081-3.282-0.081c-1.975,0-2.568,0.87-2.568,3.954v1.501h5.412v3.356
					h-5.412L79.638,58.208L79.638,58.208z"/>
			</g>
			<g opacity="0.2">
				<path fill="#981D25" d="M76.785,57.308v-16.36h-2.372v-1.556h2.372v-2.443c0-5.485,1.353-6.37,4.59-6.37
					c0.821,0,2.317,0.151,3.241,0.254l-0.017,1.353c-0.708-0.023-1.681-0.05-2.393-0.05c-3.201,0-3.469,2.398-3.469,4.854v2.401
					h5.412v1.556h-5.412v16.36H76.785L76.785,57.308z"/>
				<path fill="#FF1D25" d="M80.398,31.521c-2.561,0.93-2.562,3.906-2.562,5.469v1.501v1.556v1.8v14.56h-0.152V41.848v-1.8v-1.556
					v-1.543c0-2.404,0.278-3.927,0.851-4.656C78.791,31.967,79.221,31.636,80.398,31.521 M81.375,29.678
					c-4.028,0-5.49,1.583-5.49,7.269v1.544h-2.372v3.356h2.372v16.36h3.752V41.848h5.412v-3.356h-5.412v-1.501
					c0-3.083,0.593-3.954,2.568-3.954c1.226,0,3.282,0.081,3.282,0.081l0.039-3.084C85.525,30.033,82.682,29.678,81.375,29.678
					L81.375,29.678z"/>
			</g>
			<path fill="#981D25" d="M88.094,38.491h3.713v2.328c0,0,2.805-2.094,6.441-2.806v3.954c-3.636,0.708-6.441,2.412-6.441,2.412
				v13.829h-3.713V38.491z"/>
			<g opacity="0.2">
				<path fill="#981D25" d="M88.994,57.308V39.391h1.912v3.217l1.438-1.067c0.023-0.018,2.149-1.579,5.004-2.387v2.085
					c-3.388,0.793-5.896,2.301-6.008,2.369l-0.433,0.263v13.436L88.994,57.308L88.994,57.308z"/>
				<path fill="#FF1D25" d="M90.006,40.291v0.528v3.588v12h-0.112V40.291H90.006 M96.449,40.395v0.145
					c-0.412,0.111-0.808,0.23-1.188,0.355C95.626,40.725,96.024,40.554,96.449,40.395 M98.249,38.014
					c-3.636,0.713-6.442,2.806-6.442,2.806v-2.328h-3.712v19.717h3.712V44.379c0,0,2.806-1.703,6.442-2.412V38.014L98.249,38.014z"
					/>
			</g>
			<path fill="#981D25" d="M115.672,54.847l0.081,2.963c0,0-4.507,0.831-7.864,0.831c-5.927-0.039-8.062-3.319-8.062-10.154
				c0-7.351,3.165-10.435,8.418-10.435c5.456,0,8.179,2.809,8.179,9.129l-0.235,2.727h-12.566c0,3.557,1.268,5.294,4.783,5.294
				C111.444,55.203,115.672,54.847,115.672,54.847z M112.709,46.986c0-4.109-1.304-5.613-4.464-5.613
				c-3.082,0-4.622,1.619-4.661,5.613H112.709z"/>
			<g opacity="0.2">
				<path fill="#981D25" d="M107.893,57.741c-5.156-0.035-7.165-2.629-7.165-9.254c0-6.415,2.458-9.535,7.518-9.535
					c5.033,0,7.279,2.538,7.279,8.229l-0.161,1.827h-12.641v0.9c0,2.659,0.589,6.194,5.683,6.194c2.198,0,4.963-0.18,6.394-0.285
					l0.033,1.237C113.423,57.285,110.323,57.741,107.893,57.741z M108.245,40.473c-3.7,0-5.519,2.127-5.561,6.504l-0.009,0.909
					h10.934v-0.9C113.609,42.481,111.955,40.473,108.245,40.473z"/>
				<path fill="#FF1D25" d="M113.086,41.512c1.051,1.168,1.528,2.993,1.537,5.594l-0.088,1.003h-0.027v-1.124
					C114.509,45.177,114.3,43.029,113.086,41.512 M102.101,44.235c-0.222,0.899-0.309,1.839-0.318,2.733l-0.018,1.818h0.057v1.123
					c0,3.658,1.337,5.915,3.983,6.739c-2.676-0.564-4.179-2.54-4.179-8.161C101.628,47.067,101.721,45.574,102.101,44.235
					 M108.245,38.053c-5.253,0-8.418,3.084-8.418,10.435c0,6.835,2.137,10.115,8.062,10.154c3.357,0,7.865-0.831,7.865-0.831
					l-0.081-2.963c0,0-4.228,0.356-7.267,0.356c-3.518,0-4.783-1.737-4.783-5.294h12.566l0.235-2.727
					C116.424,40.861,113.7,38.053,108.245,38.053L108.245,38.053z M103.582,46.986c0.039-3.994,1.579-5.613,4.662-5.613
					c3.16,0,4.464,1.503,4.464,5.613H103.582L103.582,46.986z"/>
			</g>
			<path fill="#981D25" d="M121.72,38.491l4.267,16.595h1.304l4.311-16.595h3.829l-5.336,19.717h-6.951l-5.296-19.717H121.72z"/>
			<g opacity="0.2">
				<polygon fill="#981D25" points="123.832,57.308 119.021,39.391 121.021,39.391 125.29,55.987 127.986,55.987 132.296,39.391 
					134.253,39.391 129.404,57.308 				"/>
				<path fill="#FF1D25" d="M133.077,40.291l-2.122,7.845l2.037-7.845H133.077 M120.324,40.291l2.905,11.295l-3.034-11.295H120.324
					 M135.43,38.491h-3.829l-4.311,16.595h-1.304l-4.267-16.595h-3.873l5.296,19.717h6.951L135.43,38.491L135.43,38.491z"/>
			</g>
			<path fill="#981D25" d="M154.239,48.168c0,6.639-1.896,10.473-8.613,10.473c-6.757,0-8.696-3.675-8.696-10.473
				c0-6.599,2.214-10.116,8.696-10.116C151.868,38.053,154.239,41.651,154.239,48.168z M150.449,48.168
				c0-4.7-1.305-6.753-4.821-6.753c-3.796,0-4.901,1.895-4.901,6.753c0,4.901,0.831,7.074,4.901,7.074
				C149.697,55.243,150.449,52.874,150.449,48.168z"/>
			<g opacity="0.2">
				<path fill="#981D25" d="M145.626,57.741c-5.684,0-7.796-2.595-7.796-9.573c0-6.545,2.259-9.216,7.796-9.216
					c5.406,0,7.713,2.755,7.713,9.216C153.339,55.057,151.177,57.741,145.626,57.741z M145.626,40.516c-4.813,0-5.8,3.059-5.8,7.653
					c0,4.202,0.443,7.974,5.8,7.974c5.28,0,5.722-3.939,5.722-7.974C151.35,44.605,150.698,40.516,145.626,40.516z"/>
				<path fill="#FF1D25" d="M149.513,40.663c2.345,1.274,2.927,3.974,2.927,7.507c0,4.708-0.907,7.15-3.354,8.136
					c3.163-1.656,3.161-5.712,3.161-8.136C152.249,46.426,152.247,42.535,149.513,40.663 M141.234,40.886
					c-1.371,1.157-2.309,3.317-2.309,7.282c0,3.153,0.28,6.461,2.877,7.996c-2.235-1.066-3.073-3.497-3.073-7.996
					C138.73,44.38,139.461,42.079,141.234,40.886 M145.626,38.053c-6.482,0-8.696,3.518-8.696,10.116
					c0,6.798,1.939,10.473,8.696,10.473c6.717,0,8.613-3.833,8.613-10.473C154.239,41.651,151.868,38.053,145.626,38.053
					L145.626,38.053z M145.626,55.243c-4.069,0-4.9-2.173-4.9-7.074c0-4.859,1.105-6.753,4.9-6.753c3.519,0,4.821,2.054,4.821,6.753
					C150.449,52.874,149.696,55.243,145.626,55.243L145.626,55.243z"/>
			</g>
		</g>
		<g>
			<g>
				<g>
					<path fill="#B3B3B3" d="M91.648,79.85c0,6.637-1.894,10.473-8.615,10.473c-6.753,0-8.69-3.676-8.69-10.473
						c0-6.601,2.211-10.116,8.69-10.116C89.277,69.731,91.648,73.328,91.648,79.85z M87.858,79.85c0-4.706-1.304-6.759-4.825-6.759
						c-3.79,0-4.897,1.899-4.897,6.759c0,4.896,0.827,7.07,4.897,7.07C87.106,86.92,87.858,84.55,87.858,79.85z"/>
				</g>
				<g>
					<path fill="#B3B3B3" d="M95.643,89.884V70.166h3.713v1.147c0,0,3.237-1.582,5.691-1.582c5.488,0,6.796,2.965,6.796,9.838
						v10.314h-3.757V79.612c0-4.469-0.514-6.4-3.674-6.4c-2.213,0-5.056,1.183-5.056,1.183v15.489H95.643z"/>
				</g>
				<g>
					<path fill="#B3B3B3" d="M125.317,70.166h3.714v2.332c0,0,2.805-2.092,6.441-2.804v3.951c-3.638,0.712-6.441,2.409-6.441,2.409
						v13.83h-3.714V70.166z"/>
				</g>
				<g>
					<path fill="#B3B3B3" d="M152.699,85.183c0.039,1.343,0.751,1.737,1.935,1.896l-0.116,3.198c-2.766,0-3.91-0.432-5.017-1.42
						c0,0-3.441,1.466-6.879,1.466c-3.556,0-5.532-2.298-5.532-6.207c0-4.03,2.136-5.568,6.324-5.926l5.532-0.475v-1.42
						c0-2.017-1.068-3.008-2.926-3.008c-2.924,0-7.586,0.554-7.586,0.554l-0.158-3.318c0,0,4.939-0.789,7.941-0.789
						c4.229,0,6.481,1.855,6.481,6.518V85.183L152.699,85.183z M143.849,81.031c-2.055,0.16-2.964,1.146-2.964,3.006
						c0,1.975,0.87,3.042,2.41,3.042c2.53,0,5.653-0.987,5.653-0.987v-5.455L143.849,81.031z"/>
				</g>
				<g>
					<path fill="#B3B3B3" d="M157.995,62.185h3.752v4.151h-3.752V62.185z M157.995,70.166h3.752v19.718h-3.752V70.166z"/>
				</g>
				<g>
					<path fill="#B3B3B3" d="M166.848,61.751h3.751v28.133h-3.751V61.751z"/>
				</g>
				<g>
					<path fill="#B3B3B3" d="M189.287,73.725c0,0-4.54-0.634-6.991-0.634c-2.374,0-3.792,0.591-3.792,2.529
						c0,1.501,0.909,1.936,4.502,2.531C188.22,78.98,190,80.167,190,84.038c0,4.625-2.963,6.284-7.782,6.284
						c-2.646,0-7.231-0.872-7.231-0.872l0.159-3.203c0,0,4.737,0.673,6.754,0.673c3.001,0,4.35-0.631,4.35-2.765
						c0-1.66-0.833-2.055-4.35-2.608c-4.94-0.829-7.153-1.818-7.153-5.85c0-4.425,3.559-5.964,7.312-5.964
						c2.925,0,7.31,0.829,7.31,0.829L189.287,73.725z"/>
				</g>
			</g>
			<g>
				<g>
					<path fill="#B3B3B3" d="M91.648,79.85c0,6.637-1.894,10.473-8.615,10.473c-6.753,0-8.69-3.676-8.69-10.473
						c0-6.601,2.211-10.116,8.69-10.116C89.277,69.731,91.648,73.328,91.648,79.85z M87.858,79.85c0-4.706-1.304-6.759-4.825-6.759
						c-3.79,0-4.897,1.899-4.897,6.759c0,4.896,0.827,7.07,4.897,7.07C87.106,86.92,87.858,84.55,87.858,79.85z"/>
				</g>
				<g>
					<path fill="#B3B3B3" d="M95.643,89.884V70.166h3.713v1.147c0,0,3.237-1.582,5.691-1.582c5.488,0,6.796,2.965,6.796,9.838
						v10.314h-3.757V79.612c0-4.469-0.514-6.4-3.674-6.4c-2.213,0-5.056,1.183-5.056,1.183v15.489H95.643z"/>
				</g>
				<g>
					<path fill="#B3B3B3" d="M125.317,70.166h3.714v2.332c0,0,2.805-2.092,6.441-2.804v3.951c-3.638,0.712-6.441,2.409-6.441,2.409
						v13.83h-3.714V70.166z"/>
				</g>
				<g>
					<path fill="#B3B3B3" d="M152.699,85.183c0.039,1.343,0.751,1.737,1.935,1.896l-0.116,3.198c-2.766,0-3.91-0.432-5.017-1.42
						c0,0-3.441,1.466-6.879,1.466c-3.556,0-5.532-2.298-5.532-6.207c0-4.03,2.136-5.568,6.324-5.926l5.532-0.475v-1.42
						c0-2.017-1.068-3.008-2.926-3.008c-2.924,0-7.586,0.554-7.586,0.554l-0.158-3.318c0,0,4.939-0.789,7.941-0.789
						c4.229,0,6.481,1.855,6.481,6.518V85.183L152.699,85.183z M143.849,81.031c-2.055,0.16-2.964,1.146-2.964,3.006
						c0,1.975,0.87,3.042,2.41,3.042c2.53,0,5.653-0.987,5.653-0.987v-5.455L143.849,81.031z"/>
				</g>
				<g>
					<path fill="#B3B3B3" d="M157.995,62.185h3.752v4.151h-3.752V62.185z M157.995,70.166h3.752v19.718h-3.752V70.166z"/>
				</g>
				<g>
					<path fill="#B3B3B3" d="M166.848,61.751h3.751v28.133h-3.751V61.751z"/>
				</g>
				<g>
					<path fill="#B3B3B3" d="M189.288,73.725c0,0-4.542-0.634-6.994-0.634c-2.372,0-3.79,0.591-3.79,2.529
						c0,1.501,0.909,1.936,4.502,2.531C188.22,78.98,190,80.167,190,84.038c0,4.625-2.963,6.284-7.783,6.284
						c-2.645,0-7.23-0.872-7.23-0.872l0.157-3.203c0,0,4.739,0.673,6.756,0.673c3.001,0,4.35-0.631,4.35-2.765
						c0-1.66-0.833-2.055-4.35-2.608c-4.94-0.829-7.153-1.818-7.153-5.85c0-4.425,3.559-5.964,7.311-5.964
						c2.925,0,7.311,0.829,7.311,0.829L189.288,73.725z"/>
				</g>
			</g>
			<g>
				<g opacity="0.4">
					<path fill="#B3B3B3" d="M91.648,79.85c0,6.637-1.894,10.473-8.615,10.473c-6.753,0-8.69-3.676-8.69-10.473
						c0-6.601,2.211-10.116,8.69-10.116C89.277,69.731,91.648,73.328,91.648,79.85z M87.858,79.85c0-4.706-1.304-6.759-4.825-6.759
						c-3.79,0-4.897,1.899-4.897,6.759c0,4.896,0.827,7.07,4.897,7.07C87.106,86.92,87.858,84.55,87.858,79.85z"/>
				</g>
				<g opacity="0.4">
					<path fill="#B3B3B3" d="M95.643,89.884V70.166h3.713v1.147c0,0,3.237-1.582,5.691-1.582c5.488,0,6.796,2.965,6.796,9.838
						v10.314h-3.757V79.612c0-4.469-0.514-6.4-3.674-6.4c-2.213,0-5.056,1.183-5.056,1.183v15.489H95.643z"/>
				</g>
				<g opacity="0.4">
					<path fill="#B3B3B3" d="M125.317,70.166h3.714v2.332c0,0,2.805-2.092,6.441-2.804v3.951c-3.638,0.712-6.441,2.409-6.441,2.409
						v13.83h-3.714V70.166z"/>
				</g>
				<g opacity="0.4">
					<path fill="#B3B3B3" d="M152.699,85.183c0.039,1.343,0.751,1.737,1.935,1.896l-0.116,3.198c-2.766,0-3.91-0.432-5.017-1.42
						c0,0-3.441,1.466-6.879,1.466c-3.556,0-5.532-2.298-5.532-6.207c0-4.03,2.136-5.568,6.324-5.926l5.532-0.475v-1.42
						c0-2.017-1.068-3.008-2.926-3.008c-2.924,0-7.586,0.554-7.586,0.554l-0.158-3.318c0,0,4.939-0.789,7.941-0.789
						c4.229,0,6.481,1.855,6.481,6.518V85.183L152.699,85.183z M143.849,81.031c-2.055,0.16-2.964,1.146-2.964,3.006
						c0,1.975,0.87,3.042,2.41,3.042c2.53,0,5.653-0.987,5.653-0.987v-5.455L143.849,81.031z"/>
				</g>
				<g opacity="0.4">
					<path fill="#B3B3B3" d="M157.995,62.185h3.752v4.151h-3.752V62.185z M157.995,70.166h3.752v19.718h-3.752V70.166z"/>
				</g>
				<g opacity="0.4">
					<path fill="#B3B3B3" d="M166.848,61.751h3.751v28.133h-3.751V61.751z"/>
				</g>
				<g opacity="0.4">
					<path fill="#B3B3B3" d="M189.288,73.725c0,0-4.542-0.634-6.994-0.634c-2.372,0-3.79,0.591-3.79,2.529
						c0,1.501,0.909,1.936,4.502,2.531C188.22,78.98,190,80.167,190,84.038c0,4.625-2.963,6.284-7.783,6.284
						c-2.645,0-7.23-0.872-7.23-0.872l0.157-3.203c0,0,4.739,0.673,6.756,0.673c3.001,0,4.35-0.631,4.35-2.765
						c0-1.66-0.833-2.055-4.35-2.608c-4.94-0.829-7.153-1.818-7.153-5.85c0-4.425,3.559-5.964,7.311-5.964
						c2.925,0,7.311,0.829,7.311,0.829L189.288,73.725z"/>
				</g>
			</g>
		</g>
		<g>
			<g>
				
					<linearGradient id="SVGID_1_" gradientUnits="userSpaceOnUse" x1="3.6479" y1="243.2559" x2="3.6479" y2="225.5117" gradientTransform="matrix(1 0 0 -1 45.5 288.5)">
					<stop  offset="0" style="stop-color:#0054C0"/>
					<stop  offset="0.0705" style="stop-color:#136ED0"/>
					<stop  offset="0.1522" style="stop-color:#2384DE"/>
					<stop  offset="0.2487" style="stop-color:#3095E8"/>
					<stop  offset="0.368" style="stop-color:#39A0F0"/>
					<stop  offset="0.5353" style="stop-color:#3EA7F4"/>
					<stop  offset="1" style="stop-color:#3FA9F5"/>
				</linearGradient>
				<polygon fill="url(#SVGID_1_)" points="57.925,50.124 57.925,62.988 40.37,45.245 53.153,45.245 				"/>
				
					<linearGradient id="SVGID_2_" gradientUnits="userSpaceOnUse" x1="-11.3574" y1="249.6562" x2="1.3484" y2="236.9504" gradientTransform="matrix(1 0 0 -1 45.5 288.5)">
					<stop  offset="0" style="stop-color:#981D25"/>
					<stop  offset="0.0357" style="stop-color:#A91D25"/>
					<stop  offset="0.1048" style="stop-color:#C41D25"/>
					<stop  offset="0.1843" style="stop-color:#DA1D25"/>
					<stop  offset="0.2771" style="stop-color:#EB1D25"/>
					<stop  offset="0.3919" style="stop-color:#F61D25"/>
					<stop  offset="0.5529" style="stop-color:#FD1D25"/>
					<stop  offset="1" style="stop-color:#FF1D25"/>
				</linearGradient>
				<polygon fill="url(#SVGID_2_)" points="44.083,35.98 53.153,45.245 27.742,45.245 37.012,35.98 				"/>
				
					<linearGradient id="SVGID_3_" gradientUnits="userSpaceOnUse" x1="-8.4888" y1="243.6494" x2="-26.2358" y2="243.6494" gradientTransform="matrix(1 0 0 -1 45.5 288.5)">
					<stop  offset="0" style="stop-color:#FFDB1E"/>
					<stop  offset="0.5109" style="stop-color:#FED91D"/>
					<stop  offset="0.695" style="stop-color:#FAD219"/>
					<stop  offset="0.8261" style="stop-color:#F3C712"/>
					<stop  offset="0.9315" style="stop-color:#E9B609"/>
					<stop  offset="1" style="stop-color:#E0A600"/>
				</linearGradient>
				<polygon fill="url(#SVGID_3_)" points="37.012,35.98 19.265,53.723 19.265,40.862 24.147,35.98 				"/>
				
					<linearGradient id="SVGID_4_" gradientUnits="userSpaceOnUse" x1="-19.8682" y1="241.2705" x2="-32.6106" y2="228.5281" gradientTransform="matrix(1 0 0 -1 45.5 288.5)">
					<stop  offset="0" style="stop-color:#7AC943"/>
					<stop  offset="0.4321" style="stop-color:#78C842"/>
					<stop  offset="0.5878" style="stop-color:#71C43E"/>
					<stop  offset="0.6988" style="stop-color:#66BD38"/>
					<stop  offset="0.7885" style="stop-color:#55B42E"/>
					<stop  offset="0.8653" style="stop-color:#3FA722"/>
					<stop  offset="0.9327" style="stop-color:#249814"/>
					<stop  offset="0.9928" style="stop-color:#048602"/>
					<stop  offset="1" style="stop-color:#008400"/>
				</linearGradient>
				<polygon fill="url(#SVGID_4_)" points="19.265,66.335 10,57.082 10,50.124 19.265,40.862 				"/>
			</g>
			<g>
				
					<linearGradient id="SVGID_5_" gradientUnits="userSpaceOnUse" x1="2949.7227" y1="1884.1436" x2="2949.7227" y2="1866.4004" gradientTransform="matrix(-1 0 0 1 2968.5 -1809.5)">
					<stop  offset="0" style="stop-color:#0054C0"/>
					<stop  offset="0.0705" style="stop-color:#136ED0"/>
					<stop  offset="0.1522" style="stop-color:#2384DE"/>
					<stop  offset="0.2487" style="stop-color:#3095E8"/>
					<stop  offset="0.368" style="stop-color:#39A0F0"/>
					<stop  offset="0.5353" style="stop-color:#3EA7F4"/>
					<stop  offset="1" style="stop-color:#3FA9F5"/>
				</linearGradient>
				<polygon fill="url(#SVGID_5_)" points="10,69.765 10,56.9 27.554,74.643 14.773,74.643 				"/>
				
					<linearGradient id="SVGID_6_" gradientUnits="userSpaceOnUse" x1="2934.7207" y1="1890.5439" x2="2947.4253" y2="1877.8396" gradientTransform="matrix(-1 0 0 1 2968.5 -1809.5)">
					<stop  offset="0" style="stop-color:#981D25"/>
					<stop  offset="0.0357" style="stop-color:#A91D25"/>
					<stop  offset="0.1048" style="stop-color:#C41D25"/>
					<stop  offset="0.1843" style="stop-color:#DA1D25"/>
					<stop  offset="0.2771" style="stop-color:#EB1D25"/>
					<stop  offset="0.3919" style="stop-color:#F61D25"/>
					<stop  offset="0.5529" style="stop-color:#FD1D25"/>
					<stop  offset="1" style="stop-color:#FF1D25"/>
				</linearGradient>
				<polygon fill="url(#SVGID_6_)" points="23.841,83.906 14.773,74.643 40.181,74.643 30.915,83.906 				"/>
				
					<linearGradient id="SVGID_7_" gradientUnits="userSpaceOnUse" x1="2937.584" y1="1884.5361" x2="2919.8389" y2="1884.5361" gradientTransform="matrix(-1 0 0 1 2968.5 -1809.5)">
					<stop  offset="0" style="stop-color:#FFDB1E"/>
					<stop  offset="0.5109" style="stop-color:#FED91D"/>
					<stop  offset="0.695" style="stop-color:#FAD219"/>
					<stop  offset="0.8261" style="stop-color:#F3C712"/>
					<stop  offset="0.9315" style="stop-color:#E9B609"/>
					<stop  offset="1" style="stop-color:#E0A600"/>
				</linearGradient>
				<polygon fill="url(#SVGID_7_)" points="30.915,83.906 48.661,66.165 48.661,79.024 43.778,83.906 				"/>
				
					<linearGradient id="SVGID_8_" gradientUnits="userSpaceOnUse" x1="2926.2061" y1="1882.1572" x2="2913.4663" y2="1869.4176" gradientTransform="matrix(-1 0 0 1 2968.5 -1809.5)">
					<stop  offset="0" style="stop-color:#7AC943"/>
					<stop  offset="0.4321" style="stop-color:#78C842"/>
					<stop  offset="0.5878" style="stop-color:#71C43E"/>
					<stop  offset="0.6988" style="stop-color:#66BD38"/>
					<stop  offset="0.7885" style="stop-color:#55B42E"/>
					<stop  offset="0.8653" style="stop-color:#3FA722"/>
					<stop  offset="0.9327" style="stop-color:#249814"/>
					<stop  offset="0.9928" style="stop-color:#048602"/>
					<stop  offset="1" style="stop-color:#008400"/>
				</linearGradient>
				<polygon fill="url(#SVGID_8_)" points="48.661,53.551 57.925,62.809 57.925,69.765 48.661,79.024 				"/>
			</g>
		</g>
	</g>
</g>
</svg>
