<?xml version="1.0" encoding="utf-8"?>
<!-- Generator: Adobe Illustrator 16.0.0, SVG Export Plug-In . SVG Version: 6.00 Build 0)  -->
<!DOCTYPE svg PUBLIC "-//W3C//DTD SVG 1.1//EN" "http://www.w3.org/Graphics/SVG/1.1/DTD/svg11.dtd">
<svg version="1.1" xmlns="http://www.w3.org/2000/svg" xmlns:xlink="http://www.w3.org/1999/xlink" x="0px" y="0px" width="200px"
	 height="150px" viewBox="0 0 200 150" enable-background="new 0 0 200 150" xml:space="preserve">
<g id="Gold">
</g>
<g id="Silver">
</g>
<g id="Bronze">
	<g id="gioco">
		<path fill-rule="evenodd" clip-rule="evenodd" fill="#605E5D" d="M180,72.381c-0.14,0.496-0.326,0.984-0.414,1.489
			c-0.689,3.975-2.152,7.589-4.85,10.648c-2.87,3.251-6.495,5.17-10.708,5.991c-3.397,0.662-6.792,0.651-10.127-0.406
			c-4.413-1.401-7.297-4.36-8.261-8.857c-1.569-7.315-0.583-14.253,4.013-20.366c2.87-3.816,6.859-5.945,11.502-6.848
			c3.289-0.64,6.578-0.644,9.814,0.354c4.736,1.461,7.486,4.729,8.591,9.486c0.125,0.537,0.292,1.062,0.44,1.594
			C180,67.771,180,70.076,180,72.381z M169.314,69.755c-0.042-0.862-0.039-1.729-0.132-2.585c-0.489-4.445-4.571-6.457-8.427-4.156
			c-1.43,0.853-2.473,2.078-3.213,3.557c-1.747,3.494-2.175,7.23-1.683,11.031c0.552,4.263,4.402,6.084,8.226,4.051
			c1.517-0.808,2.577-2.055,3.359-3.555C168.809,75.486,169.263,72.668,169.314,69.755z"/>
		<path fill-rule="evenodd" clip-rule="evenodd" fill="#605E5D" d="M72.818,41.264c0.389,0.149,0.782,0.287,1.164,0.45
			c1.659,0.708,2.529,2.161,2.379,3.953c-0.279,3.333-2.351,5.328-5.777,5.484c-0.78,0.036-1.59-0.052-2.351-0.229
			c-1.755-0.409-2.747-1.706-2.792-3.495c-0.079-3.146,1.236-4.996,4.224-5.957c0.124-0.04,0.23-0.136,0.345-0.207
			C70.946,41.264,71.882,41.264,72.818,41.264z"/>
		<path fill-rule="evenodd" clip-rule="evenodd" fill="#605E5D" d="M20,99.375c0.561-3.153,1.118-6.283,1.694-9.523
			c0.19,0.167,0.304,0.243,0.388,0.343c2.561,3.068,5.939,4.422,9.833,4.661c1.987,0.12,3.946-0.031,5.826-0.789
			c1.685-0.679,2.902-1.835,3.684-3.456c0.81-1.682,0.96-3.5,1.137-5.247c-1.079,0.705-2.075,1.584-3.233,2.075
			c-4.953,2.098-13.331,1.339-15.97-6.727c-2.375-7.263-1.571-14.306,2.908-20.645c2.636-3.732,6.391-5.782,10.966-6.319
			c1.812-0.212,3.593-0.188,5.35,0.276c2.009,0.529,3.695,1.56,4.833,3.362c0.107,0.17,0.246,0.323,0.426,0.557
			c0.437-1.137,0.832-2.167,1.242-3.234c2.699,0,5.384,0,8.225,0c-0.194,1.448-0.377,2.853-0.573,4.257
			c-0.54,3.879-1.087,7.758-1.629,11.637c-0.615,4.414-1.208,8.831-1.848,13.24c-0.31,2.131-0.561,4.287-1.088,6.369
			c-1.685,6.651-5.929,10.76-12.645,12.245c-4.918,1.086-9.836,1.24-14.704-0.28C23.066,101.629,21.404,100.862,20,99.375z
			 M32.843,72.491c-0.033,1.626,0.295,3.391,0.866,4.619c0.547,1.18,1.324,2.16,2.59,2.596c3.29,1.127,7.054-0.683,7.708-4.421
			c0.538-3.073,0.872-6.182,1.355-9.266c0.181-1.151-0.133-2.087-0.993-2.785c-0.6-0.486-1.291-0.969-2.019-1.169
			c-3.242-0.893-6.724,0.182-8.395,4.318C33.166,68.338,32.903,70.398,32.843,72.491z"/>
		<path fill-rule="evenodd" clip-rule="evenodd" fill="#605E5D" d="M113.158,68.775c-0.157,3.983-0.778,7.831-2.545,11.417
			c-2.837,5.755-7.496,9.138-13.76,10.346c-3.076,0.595-6.152,0.592-9.195-0.217c-4.803-1.276-7.993-4.286-9.023-9.154
			c-1.549-7.322-0.547-14.259,4.085-20.356c2.866-3.772,6.83-5.867,11.432-6.775c3.07-0.606,6.149-0.63,9.197,0.172
			c5.046,1.328,8.092,4.61,9.193,9.663C112.893,65.473,112.96,67.138,113.158,68.775z M102.299,69.096
			c0.012-0.889,0.004-2.544-0.686-4.104c-0.789-1.786-2.164-2.681-4.114-2.806c-2.772-0.178-4.848,1.048-6.266,3.281
			c-2.58,4.063-3.008,8.562-2.126,13.188c0.36,1.889,1.604,3.239,3.59,3.601c1.585,0.29,3.148,0.145,4.592-0.705
			c1.413-0.832,2.42-2.024,3.167-3.452C101.803,75.519,102.27,72.741,102.299,69.096z"/>
		<path fill-rule="evenodd" clip-rule="evenodd" fill="#605E5D" d="M141.525,78.422c-0.175,1.494-0.338,2.988-0.531,4.479
			c-0.163,1.246-0.407,2.484-0.527,3.734c-0.082,0.834-0.457,1.361-1.157,1.79c-1.932,1.18-4.033,1.873-6.248,2.234
			c-3.098,0.508-6.172,0.391-9.162-0.615c-4.082-1.369-6.8-4.194-7.959-8.285c-1.782-6.293-1.28-12.496,1.729-18.332
			c2.758-5.345,7.383-8.292,13.215-9.406c3.141-0.6,6.288-0.631,9.405,0.209c1.368,0.369,2.657,0.918,3.73,1.856
			c0.25,0.219,0.478,0.673,0.439,0.984c-0.378,2.992-0.815,5.977-1.262,9.163c-0.408-0.413-0.721-0.724-1.027-1.042
			c-3.461-3.59-9.332-3.37-12.357-0.977c-1.397,1.105-2.342,2.531-2.937,4.18c-1.048,2.906-1.238,5.905-0.679,8.925
			c0.527,2.846,2.304,4.346,5.177,4.613c3.522,0.33,6.595-0.704,9.298-2.944c0.263-0.217,0.58-0.368,0.872-0.55L141.525,78.422z"/>
		<path fill-rule="evenodd" clip-rule="evenodd" fill="#605E5D" d="M75.447,80.41c-0.269,1.897-0.523,3.709-0.784,5.52
			c-0.087,0.605-0.263,1.207-0.263,1.812c0,0.811-0.43,1.259-1.068,1.597c-2.998,1.582-6.114,1.804-9.27,0.618
			c-2.463-0.927-3.506-2.96-3.771-5.451c-0.216-2.026,0.177-4.013,0.515-5.999c0.831-4.887,1.656-9.775,2.477-14.664
			c0.047-0.279,0.044-0.567,0.072-0.964c-1.028,0-2.021,0-3.096,0c0.439-2.802,0.859-5.483,1.281-8.176c4.492,0,8.874,0,13.357,0
			c-0.292,1.92-0.571,3.787-0.862,5.652c-0.834,5.324-1.672,10.647-2.51,15.971c-0.191,1.207-0.408,2.408-0.578,3.617
			c-0.099,0.702-0.32,1.516,0.401,1.988c0.676,0.44,1.488,0.312,2.161-0.076C74.15,81.485,74.709,80.97,75.447,80.41z"/>
		<path fill-rule="evenodd" clip-rule="evenodd" fill="#DE7D6C" d="M83.748,99.164c0.355,0.034,0.625,0.06,0.995,0.096
			c-0.819,2.538-1.555,5.014-2.425,7.441c-0.573,1.604-1.46,2.159-2.685,1.997c-0.51-0.069-0.899-0.241-0.844-0.96
			c0.225,0.034,0.412,0.061,0.6,0.092c1.449,0.242,2.448-0.917,1.926-2.304c-0.682-1.812-1.431-3.599-2.132-5.345
			c-1.728-0.487-2.27-0.084-2.274,1.619c-0.004,1.367-0.001,2.733-0.001,4.211c-0.323,0.024-0.609,0.047-0.952,0.072
			c0-2.33,0-4.549,0-6.94c0.401,0.101,0.734,0.183,1.202,0.301c0.708-0.739,1.691-0.394,2.722-0.167
			c0.685,1.723,1.381,3.476,2.078,5.228c0.066,0,0.133-0.001,0.2-0.001C82.674,102.768,83.192,101.029,83.748,99.164z"/>
		<path fill-rule="evenodd" clip-rule="evenodd" fill="#DE7D6C" d="M104.106,106.188c-0.523-0.146-0.861-0.241-1.142-0.319
			c-0.652,0.151-1.299,0.409-1.955,0.433c-1.35,0.047-2.197-0.665-2.569-1.982c-0.31-1.094-0.341-2.169,0.038-3.268
			c0.552-1.602,1.891-2.399,3.527-2.02c0.311,0.073,0.614,0.182,1.054,0.313c0-0.468,0-0.88,0-1.289c0-0.427,0-0.854,0-1.381
			c0.36-0.017,0.65-0.03,1.002-0.046c0.019,0.339,0.042,0.584,0.042,0.828C104.107,100.287,104.106,103.118,104.106,106.188z
			 M103.064,102.598c-0.003,0-0.004,0-0.007,0c0-0.574,0.058-1.156-0.022-1.719c-0.044-0.309-0.249-0.687-0.501-0.857
			c-0.735-0.498-1.934-0.254-2.577,0.366c-0.947,0.917-0.816,3.724-0.186,4.464c0.517,0.607,1.47,0.821,2.374,0.53
			c0.811-0.261,0.983-0.847,0.924-1.601C103.038,103.389,103.064,102.992,103.064,102.598z"/>
		<path fill-rule="evenodd" clip-rule="evenodd" fill="#DE7D6C" d="M86.166,105.753c-0.275,0.131-0.516,0.244-0.888,0.423
			c0-3.229,0-6.322,0-9.452c0.071-0.03,0.163-0.098,0.259-0.103c0.172-0.009,0.348,0.019,0.619,0.039c0,0.948,0,1.867,0,2.694
			c0.908-0.134,1.73-0.366,2.548-0.35c1.068,0.022,1.884,0.632,2.049,1.718c0.152,1.013,0.27,2.094,0.078,3.079
			C90.381,106.116,88.279,106.962,86.166,105.753z M89.952,102.511c-0.008,0-0.017-0.001-0.025-0.001
			c0-0.216,0.009-0.431-0.001-0.646c-0.08-1.735-1.239-2.495-2.86-1.915c-0.586,0.211-0.879,0.555-0.868,1.186
			c0.017,0.932,0,1.862,0.004,2.795c0.004,1.185,0.34,1.534,1.499,1.566c1.126,0.032,1.994-0.674,2.177-1.807
			C89.939,103.302,89.928,102.903,89.952,102.511z"/>
		<path fill-rule="evenodd" clip-rule="evenodd" fill="#DE7D6C" d="M156.871,105.926c0,0.873,0,1.656,0,2.521
			c-0.303,0.053-0.557,0.097-0.92,0.161c0-3.168,0-6.23,0-9.447c0.38,0.082,0.743,0.159,1.195,0.256
			c0.334-0.116,0.791-0.349,1.272-0.429c1.58-0.26,2.842,0.506,3.1,2.069c0.165,0.994,0.138,2.098-0.117,3.071
			c-0.481,1.836-2.038,2.556-3.862,1.997C157.369,106.074,157.198,106.024,156.871,105.926z M160.686,102.512
			c-0.099-0.536-0.141-1.077-0.305-1.578c-0.306-0.943-1.138-1.328-2.25-1.119c-0.98,0.184-1.258,0.54-1.267,1.643
			c-0.007,0.859-0.007,1.72-0.001,2.58c0.007,1.057,0.313,1.372,1.389,1.451c1.084,0.079,1.799-0.361,2.127-1.396
			C160.538,103.59,160.585,103.051,160.686,102.512z"/>
		<path fill-rule="evenodd" clip-rule="evenodd" fill="#DE7D6C" d="M74.895,104.71c0.256,0.9-0.341,1.156-0.911,1.374
			c-2.669,1.021-5.045-0.885-4.729-3.775c0.237-2.172,1.273-3.301,3.072-3.354c1.663-0.049,2.713,0.884,2.848,2.554
			c0.037,0.451,0.006,0.909,0.006,1.479c-1.615,0-3.107,0-4.701,0c-0.074,0.344-0.259,0.688-0.159,0.831
			c0.36,0.515,0.738,1.096,1.257,1.403c0.733,0.437,1.597,0.344,2.391-0.006C74.26,105.09,74.531,104.91,74.895,104.71z
			 M74.059,102.152c0.203-1.563-0.318-2.352-1.565-2.45c-1.204-0.094-1.983,0.785-2.135,2.45
			C71.599,102.152,72.833,102.152,74.059,102.152z"/>
		<path fill-rule="evenodd" clip-rule="evenodd" fill="#DE7D6C" d="M134.178,102.985c-1.645,0-3.184,0-4.772,0
			c-0.059,0.363-0.107,0.661-0.151,0.94c1.021,1.908,2.974,1.886,4.539,0.834c0.169,0.749,0.183,0.774-0.329,1.073
			c-1.182,0.691-2.423,0.663-3.618,0.098c-1.085-0.513-1.529-1.503-1.502-2.661c0.02-0.852,0.015-1.752,0.289-2.539
			c0.461-1.323,1.88-1.975,3.348-1.745c1.313,0.204,2.078,1.123,2.191,2.666C134.203,102.042,134.178,102.437,134.178,102.985z
			 M133.094,102.138c0.098-1.634-0.373-2.306-1.583-2.367c-1.387-0.07-2.151,0.824-2.173,2.646c0.71,0,1.422,0.032,2.13-0.013
			C131.991,102.371,132.508,102.238,133.094,102.138z"/>
		<path fill-rule="evenodd" clip-rule="evenodd" fill="#DE7D6C" d="M122.287,102.467c0.017,2.575-1.441,4.069-3.665,3.826
			c-1.214-0.132-2.134-0.737-2.388-1.977c-0.176-0.859-0.278-1.776-0.174-2.639c0.211-1.764,1.434-2.744,3.154-2.726
			c1.694,0.02,2.811,1.07,3.035,2.866C122.28,102.066,122.279,102.32,122.287,102.467z M121.301,102.64
			c-0.095-0.493-0.147-0.995-0.292-1.468c-0.29-0.942-0.868-1.368-1.8-1.403c-0.902-0.036-1.626,0.376-1.939,1.235
			c-0.401,1.104-0.463,2.239,0.031,3.345c0.378,0.847,0.948,1.187,1.865,1.15c0.926-0.034,1.57-0.493,1.836-1.377
			C121.146,103.648,121.201,103.147,121.301,102.64z"/>
		<path fill-rule="evenodd" clip-rule="evenodd" fill="#DE7D6C" d="M62.881,103.042c-1.499,0-2.965,0-4.543,0
			c-0.051,0.306-0.218,0.651-0.111,0.802c0.365,0.511,0.75,1.081,1.27,1.387c0.737,0.438,1.597,0.323,2.388-0.021
			c0.292-0.127,0.562-0.306,0.86-0.471c0.288,0.546,0.02,0.854-0.404,1.131c-2.061,1.345-4.92,0.017-5.076-2.414
			c-0.056-0.877-0.016-1.823,0.257-2.646c0.596-1.792,3.055-2.457,4.578-1.342C62.962,100.1,63.314,101.567,62.881,103.042z
			 M61.939,102.106c0.366-0.734,0.127-1.423-0.399-1.913c-0.574-0.533-1.324-0.635-2.09-0.274c-1.033,0.487-1.171,1.401-1.257,2.479
			C59.484,102.356,60.721,102.623,61.939,102.106z"/>
		<path fill-rule="evenodd" clip-rule="evenodd" fill="#DE7D6C" d="M152.538,102.536c0.021,2.067-0.985,3.533-2.66,3.74
			c-2.46,0.303-3.704-1.116-3.695-3.71c0.004-1.43,0.413-2.798,1.981-3.387C150.569,98.277,152.511,99.771,152.538,102.536z
			 M151.549,102.591c-0.094-0.479-0.145-0.945-0.278-1.385c-0.306-1.015-0.888-1.438-1.877-1.435
			c-0.988,0.006-1.652,0.447-1.951,1.385c-0.325,1.016-0.335,2.049,0.046,3.059c0.34,0.9,0.957,1.309,1.888,1.288
			c0.974-0.022,1.614-0.488,1.892-1.446C151.408,103.58,151.459,103.078,151.549,102.591z"/>
		<path fill-rule="evenodd" clip-rule="evenodd" fill="#DE7D6C" d="M91.562,102.396c0.047-0.322,0.047-0.916,0.228-1.447
			c0.497-1.466,2.082-2.275,3.655-1.942c1.543,0.327,2.411,1.574,2.284,3.271c-0.039,0.503-0.036,1.011-0.086,1.514
			c-0.187,1.84-1.699,2.502-2.97,2.525c-1.617,0.028-2.819-0.949-3.034-2.481C91.583,103.445,91.594,103.045,91.562,102.396z
			 M96.853,102.859c-0.046-0.599-0.035-0.965-0.108-1.314c-0.206-0.979-1.033-1.783-1.862-1.857
			c-0.927-0.082-1.807,0.569-2.157,1.629c-0.329,0.992-0.285,1.971,0.112,2.949c0.32,0.788,0.856,1.208,1.714,1.23
			c0.918,0.023,1.637-0.313,1.968-1.195C96.717,103.771,96.779,103.193,96.853,102.859z"/>
		<path fill-rule="evenodd" clip-rule="evenodd" fill="#DE7D6C" d="M170.229,106.152c-0.436-0.126-0.771-0.224-1.242-0.359
			c-0.73,0.461-1.648,0.713-2.693,0.372c-0.844-0.275-1.19-0.845-1.264-1.675c-0.074-0.84,0.195-1.516,0.99-1.84
			c0.659-0.271,1.365-0.428,2.055-0.618c0.34-0.095,0.689-0.153,1.01-0.224c0.167-1.542-0.488-2.194-1.997-2.002
			c-0.559,0.071-1.101,0.268-1.833,0.455c0.078-0.267,0.073-0.516,0.192-0.617c0.884-0.756,2.641-0.933,3.652-0.375
			c0.728,0.401,1.073,1.117,1.106,1.875C170.279,102.754,170.229,104.37,170.229,106.152z M169.203,102.502
			c-0.947,0.25-1.716,0.398-2.443,0.661c-0.684,0.247-0.959,0.941-0.736,1.569c0.187,0.527,0.926,0.918,1.582,0.837
			c0.986-0.12,1.528-0.481,1.587-1.144C169.242,103.865,169.203,103.3,169.203,102.502z"/>
		<path fill-rule="evenodd" clip-rule="evenodd" fill="#DE7D6C" d="M170.639,99.218c0.414,0,0.69,0,1.044,0
			c0.702,1.741,1.407,3.495,2.113,5.248c0.063,0.015,0.126,0.027,0.189,0.04c0.521-1.741,1.043-3.481,1.58-5.273
			c0.282,0,0.553,0,0.816,0c0.033,0.082,0.092,0.152,0.077,0.2c-0.759,2.428-1.475,4.87-2.306,7.274
			c-0.551,1.594-1.553,2.214-2.786,1.981c-0.506-0.097-0.787-0.323-0.652-0.81c0.608-0.062,1.245,0.017,1.737-0.214
			c0.807-0.38,1.047-1.333,0.688-2.231c-0.744-1.863-1.516-3.715-2.274-5.571C170.798,99.699,170.748,99.53,170.639,99.218z"/>
		<path fill-rule="evenodd" clip-rule="evenodd" fill="#DE7D6C" d="M107.879,104.491c0.513-1.737,1.025-3.472,1.551-5.257
			c0.297,0,0.567,0,0.872,0c0.016,0.11,0.066,0.219,0.041,0.302c-0.693,2.226-1.38,4.452-2.105,6.664
			c-0.177,0.539-0.437,1.069-0.747,1.544c-0.52,0.798-1.298,1.089-2.243,0.94c-0.509-0.079-0.79-0.316-0.658-0.812
			c0.603-0.061,1.246,0.026,1.734-0.208c0.86-0.413,1.054-1.449,0.64-2.439c-0.813-1.945-1.616-3.895-2.472-5.961
			c0.399-0.041,0.69-0.07,1.045-0.106c0.725,1.801,1.429,3.555,2.135,5.308C107.741,104.473,107.811,104.482,107.879,104.491z"/>
		<path fill-rule="evenodd" clip-rule="evenodd" fill="#DE7D6C" d="M134.846,105.06c0.924,0.151,1.709,0.374,2.496,0.381
			c0.713,0.006,1.143-0.55,1.162-1.171c0.023-0.737-0.491-0.989-1.062-1.158c-0.409-0.122-0.857-0.124-1.256-0.269
			c-1.098-0.395-1.445-0.978-1.354-2.144c0.064-0.821,0.734-1.575,1.694-1.669c0.695-0.067,1.423,0.046,2.117,0.178
			c0.572,0.108,0.82,0.527,0.644,1.223c-0.241-0.135-0.428-0.312-0.637-0.344c-0.694-0.105-1.41-0.271-2.087-0.181
			c-0.32,0.043-0.696,0.578-0.817,0.964c-0.164,0.521,0.272,0.868,0.73,1.04c0.398,0.148,0.833,0.206,1.253,0.294
			c1.125,0.233,1.738,0.854,1.804,1.84c0.063,0.937-0.604,1.908-1.649,2.091c-0.747,0.13-1.551,0.041-2.314-0.066
			C134.932,105.98,134.664,105.54,134.846,105.06z"/>
		<path fill-rule="evenodd" clip-rule="evenodd" fill="#DE7D6C" d="M124.893,106.234c-0.931-2.453-1.768-4.654-2.647-6.97
			c0.366-0.04,0.655-0.071,1.024-0.111c0.642,1.753,1.265,3.456,1.966,5.369c0.699-1.861,1.326-3.527,1.981-5.272
			c0.263,0,0.562,0,0.956,0c-0.839,2.198-1.643,4.34-2.491,6.462C125.598,105.921,125.232,106.02,124.893,106.234z"/>
		<path fill-rule="evenodd" clip-rule="evenodd" fill="#DE7D6C" d="M66.242,104.514c0.733-1.949,1.362-3.623,1.993-5.298
			c0.32,0,0.56,0,0.788,0c0.033,0.104,0.085,0.179,0.067,0.226c-0.764,2.014-1.541,4.021-2.298,6.036
			c-0.173,0.464-0.379,0.776-0.975,0.522c-0.843-2.215-1.693-4.446-2.578-6.772c0.417-0.019,0.692-0.03,1.048-0.046
			C64.92,100.909,65.546,102.615,66.242,104.514z"/>
		<path fill-rule="evenodd" clip-rule="evenodd" fill="#DE7D6C" d="M115.733,105.34c0.19,0.697-0.251,0.864-0.675,0.942
			c-0.59,0.107-1.17,0.004-1.519-0.556c-0.146-0.233-0.25-0.535-0.252-0.809c-0.018-2.695-0.011-5.391-0.011-8.158
			c0.319-0.034,0.583-0.061,1.012-0.107c0,0.469,0,0.851,0,1.231c0.001,2.122-0.005,4.245,0.004,6.368
			C114.299,105.494,114.454,105.607,115.733,105.34z"/>
		<path fill-rule="evenodd" clip-rule="evenodd" fill="#DE7D6C" d="M164.804,105.351c0.136,0.76-0.345,0.896-0.816,0.946
			c-0.597,0.064-1.176-0.06-1.454-0.676c-0.129-0.285-0.177-0.628-0.179-0.945c-0.013-2.482-0.008-4.964-0.002-7.446
			c0-0.138,0.052-0.274,0.093-0.479c0.278,0,0.534,0,0.817,0c0.033,0.209,0.074,0.347,0.075,0.482c0.005,2.34,0,4.677,0.01,7.016
			C163.353,105.494,163.482,105.588,164.804,105.351z"/>
		<path fill-rule="evenodd" clip-rule="evenodd" fill="#DE7D6C" d="M143.018,100.121c-0.377-0.094-0.669-0.168-1.093-0.273
			c0.433-0.406,0.809-0.679,1.077-1.032c0.262-0.349,0.415-0.78,0.615-1.176c0.081,0.021,0.16,0.038,0.241,0.059
			c0.049,0.438,0.099,0.876,0.16,1.423c0.539,0.028,1.095,0.059,1.648,0.088c0.007,0.679,0.007,0.679-1.708,0.884
			c0,1.546-0.042,3.116,0.021,4.684c0.026,0.665,0.435,0.759,1.576,0.484c0.212,0.599-0.14,0.868-0.616,1.013
			c-1.009,0.309-1.888-0.325-1.912-1.416C142.994,103.312,143.018,101.767,143.018,100.121z"/>
		<path fill-rule="evenodd" clip-rule="evenodd" fill="#605E5D" d="M141.543,78.441c0.008-0.027,0.01-0.059,0.026-0.082
			c0.007-0.012,0.039-0.005,0.06-0.008c-0.035,0.023-0.069,0.047-0.104,0.07L141.543,78.441z"/>
	</g>
</g>
<g id="Supporters">
</g>
<g id="Advisor">
</g>
<g id="Producer">
</g>
<g id="Organizers">
</g>
</svg>
