<?xml version="1.0" encoding="utf-8"?>
<!-- Generator: Adobe Illustrator 16.0.0, SVG Export Plug-In . SVG Version: 6.00 Build 0)  -->
<!DOCTYPE svg PUBLIC "-//W3C//DTD SVG 1.1//EN" "http://www.w3.org/Graphics/SVG/1.1/DTD/svg11.dtd">
<svg version="1.1" id="Layer_1" xmlns="http://www.w3.org/2000/svg" xmlns:xlink="http://www.w3.org/1999/xlink" x="0px" y="0px"
	 width="200px" height="150px" viewBox="0 -15 200 150" enable-background="new 0 -15 200 150" xml:space="preserve">
<g id="Gold">
</g>
<g id="Supporters">
</g>
<g id="Advisor">
</g>
<g id="Producer">
</g>
<g id="Organizers">
	<g id="Guava">
		<rect id="Frame_12_" x="23.5" y="43.143" fill="none" width="153" height="43.714"/>
		<path id="a_5_" fill="#D41E58" d="M159.427,43.487c0,0,0.599-0.049,1.257-0.049c0.504,0,1.207,0.049,1.207,0.049
			c2.351,0.239,4.586,0.996,6.202,2.008c0.457,0.285,0.603,0.345,0.603,0.345v-1.917h7.806v30.444h-7.806v-1.784
			c0,0-0.25,0.179-0.327,0.231c-2.112,1.427-4.65,2.183-7.581,2.195c-3.258,0.02-5.868-0.941-7.898-2.271
			c-4.045-2.644-7.221-7.13-7.221-13.446c0-4.688,1.775-8.069,4.077-10.742C152.089,45.828,155.07,43.94,159.427,43.487
			 M155.35,54.315c-1.019,1.242-1.998,2.997-1.869,5.415c0.17,3.143,1.955,5.404,4.078,6.549c2.133,1.15,4.963,1.057,6.881,0.089
			c3.158-1.597,5.701-6.482,3.397-10.742c-1.246-2.305-4.11-4.475-7.813-4.017C157.932,51.867,156.482,52.932,155.35,54.315"/>
		<path id="v_2_" fill="#D41E58" d="M125.738,43.924c2.289,6.494,4.633,12.937,6.88,19.475c0.677-1.521,1.288-3.168,1.866-4.803
			c1.705-4.808,3.394-9.756,5.098-14.67h8.325c-3.566,10.247-7.271,20.146-10.787,30.444h-8.833
			c-3.441-10-7.014-19.656-10.443-29.67c-0.059-0.171-0.059-0.171-0.262-0.774L125.738,43.924L125.738,43.924z"/>
		<path id="a_4_" fill="#D41E58" d="M99.321,43.487c0,0,0.599-0.049,1.255-0.049c0.504,0,1.206,0.049,1.206,0.049
			c2.351,0.239,4.585,0.996,6.202,2.008c0.457,0.285,0.603,0.345,0.603,0.345v-1.917h7.806v30.444h-7.806v-1.784
			c0,0-0.248,0.179-0.328,0.231c-2.11,1.427-4.649,2.183-7.579,2.195c-3.26,0.02-5.869-0.941-7.9-2.271
			c-4.044-2.644-7.22-7.13-7.22-13.446c0-4.688,1.774-8.069,4.077-10.742C91.982,45.828,94.962,43.94,99.321,43.487 M95.086,54.315
			c-1.019,1.242-1.999,2.997-1.869,5.415c0.169,3.143,1.953,5.404,4.077,6.549c2.132,1.15,4.964,1.057,6.881,0.089
			c3.159-1.597,5.702-6.482,3.397-10.742c-1.248-2.305-4.109-4.475-7.815-4.017C97.668,51.867,96.22,52.932,95.086,54.315"/>
		<path id="u_2_" fill="#D41E58" d="M57.088,43.924h7.784v16.792c0,0-0.109,2.611,1.083,4.216c1.34,1.807,3.112,2.23,4.285,2.23
			c1.146,0,3.207-0.598,4.465-2.251c1.146-1.507,1.096-4.194,1.096-4.194V43.924h7.806v30.444h-7.806v-1.017
			c-2.021,1.074-4.333,1.879-7.531,1.658c-3.437-0.236-5.901-1.892-7.731-3.929c-1.617-1.804-3.473-5.458-3.473-10.766
			L57.088,43.924z"/>
		<path id="g_150_" fill="#D41E58" d="M35.725,52.22c-2.189,1.105-4.013,3.433-4.248,6.199c-0.596,7.031,6.632,10.683,11.552,7.599
			c1.891-1.185,3.653-3.695,3.653-6.725c0-3.308-2.111-5.894-4.163-6.985c-1.108-0.589-2.871-0.901-4.501-0.698
			C37.156,51.714,36.32,51.918,35.725,52.22 M33.274,76.684c0,0,2.058,2.437,5.689,2.393c5.954-0.072,6.895-3.318,6.955-5.898
			c-0.002-0.025,0-0.146,0-0.146l-0.085,0.06c-1.478,0.947-3.749,1.784-6.116,1.92c-2.485,0.143-5.643-0.379-8.467-1.928
			c-4.198-2.303-6.945-6.379-7.587-12.48c0,0-0.062-0.948-0.061-1.4c0.002-0.533,0.061-1.22,0.061-1.22
			c0.341-4.067,2.083-7.42,4.332-9.867c2.278-2.476,5.461-4.212,9.343-4.627c0,0,0.679-0.049,1.169-0.049
			c0.511,0,1.294,0.049,1.294,0.049c2.792,0.303,4.915,1.195,6.806,2.424l-0.001-1.988h7.805c0,0,0,26.359,0,28.304
			c0,4.263-0.847,7.479-3.441,10.086c-2.823,2.836-7.506,4.588-13.037,4.235c-4.095-0.262-7.287-2.032-9.751-4.387L33.274,76.684z"
			/>
	</g>
</g>
</svg>
