<?xml version="1.0" encoding="utf-8"?>
<!-- Generator: Adobe Illustrator 16.0.0, SVG Export Plug-In . SVG Version: 6.00 Build 0)  -->
<!DOCTYPE svg PUBLIC "-//W3C//DTD SVG 1.1//EN" "http://www.w3.org/Graphics/SVG/1.1/DTD/svg11.dtd">
<svg version="1.1" id="Layer_1" xmlns="http://www.w3.org/2000/svg" xmlns:xlink="http://www.w3.org/1999/xlink" x="0px" y="0px"
	 width="26px" height="26px" viewBox="0 0 26 26" enable-background="new 0 0 26 26" xml:space="preserve">
<g id="Ribbon">
	<g>
		<path fill="#FFFFFF" d="M20.318,11.565c-0.002,0-0.004-0.084-0.004-0.112c-0.004-0.386,0.129-0.772,0.36-1.081
			c0,0,0.001-0.001,0.002-0.002c0.035-0.047,0.072-0.093,0.111-0.137l0.003-0.002c0.227-0.313,0.323-0.729,0.223-1.146
			c-0.097-0.41-0.361-0.735-0.695-0.916c-0.068-0.026-0.133-0.055-0.197-0.089c-0.336-0.173-0.609-0.431-0.777-0.771
			c-0.171-0.347-0.205-0.729-0.132-1.108c0.011-0.058,0.024-0.115,0.041-0.17c0.069-0.381-0.026-0.801-0.295-1.132
			c-0.265-0.327-0.644-0.506-1.024-0.523c-0.072,0.006-0.145,0.009-0.216,0.006c-0.379-0.01-0.737-0.124-1.034-0.36
			c-0.303-0.238-0.5-0.565-0.596-0.938c-0.001-0.001-0.001-0.002-0.001-0.004c-0.015-0.056-0.026-0.113-0.037-0.172V2.904
			c-0.103-0.373-0.366-0.708-0.754-0.891c-0.38-0.181-0.8-0.178-1.151-0.029c-0.062,0.037-0.125,0.069-0.19,0.098
			c-0.347,0.154-0.718,0.207-1.088,0.125c-0.389-0.086-0.718-0.309-0.97-0.618c-0.022-0.028-0.044-0.055-0.064-0.085
			C11.577,1.197,11.182,0.996,10.74,1c-0.42,0.001-0.797,0.186-1.048,0.471c-0.041,0.06-0.085,0.118-0.131,0.172
			C9.315,1.932,9.002,2.139,8.632,2.224C8.257,2.312,7.879,2.26,7.528,2.103c-0.001,0-0.002,0-0.003-0.001
			c-0.053-0.023-0.106-0.05-0.158-0.079L7.364,2.021C7.009,1.867,6.582,1.865,6.197,2.053c-0.378,0.184-0.638,0.514-0.74,0.88
			C5.446,3.005,5.432,3.075,5.414,3.145C5.317,3.511,5.126,3.834,4.831,4.072C4.529,4.314,4.164,4.431,3.777,4.441
			c-0.059,0.001-0.117,0-0.175-0.003C3.215,4.453,2.827,4.637,2.561,4.971C2.299,5.299,2.207,5.71,2.272,6.084
			c0.021,0.069,0.04,0.139,0.053,0.209C2.397,6.665,2.363,7.04,2.199,7.381c-0.166,0.347-0.443,0.61-0.787,0.786
			c0,0.001-0.001,0.001-0.003,0.001c-0.052,0.027-0.105,0.051-0.16,0.074L1.246,8.245c-0.341,0.181-0.611,0.513-0.704,0.93
			c-0.093,0.41,0.002,0.82,0.224,1.128c0.05,0.053,0.096,0.108,0.138,0.166c0.227,0.304,0.358,0.656,0.358,1.035
			c0,0,0.001,0.085,0.002,0.113c0.003,0.386-0.13,0.715-0.361,1.023c0,0,0,0.002-0.002,0.002c-0.035,0.047-0.072,0.093-0.112,0.137
			l-0.002,0.002c-0.226,0.312-0.323,0.729-0.224,1.146c0.097,0.41,0.362,0.735,0.697,0.916c0.067,0.026,0.133,0.056,0.196,0.089
			c0.337,0.174,0.61,0.43,0.778,0.771c0.17,0.347,0.205,0.729,0.131,1.107c-0.011,0.058-0.026,0.114-0.042,0.17
			c-0.069,0.383,0.026,0.801,0.295,1.133c0.264,0.326,0.644,0.507,1.024,0.522c0.072-0.006,0.145-0.009,0.216-0.006
			c0.378,0.011,0.737,0.124,1.034,0.359c0.302,0.237,0.499,0.565,0.595,0.938c0.001,0.002,0.001,0.002,0.001,0.004
			c0.015,0.057,0.027,0.113,0.037,0.172v0.004c0.103,0.373,0.367,0.709,0.753,0.891c0.38,0.182,0.8,0.179,1.15,0.029
			c0.062-0.036,0.126-0.068,0.192-0.1c0.346-0.152,0.719-0.205,1.088-0.125c0.388,0.088,0.717,0.309,0.97,0.618
			c0.022,0.027,0.044,0.056,0.063,0.085c0.254,0.309,0.65,0.51,1.092,0.505c0.42-0.002,0.797-0.186,1.048-0.472
			c0.041-0.061,0.083-0.117,0.131-0.171c0.245-0.289,0.558-0.497,0.928-0.582c0.375-0.088,0.753-0.036,1.105,0.122
			c0.001-0.001,0.002,0,0.003,0.001c0.054,0.022,0.104,0.05,0.157,0.079l0.004,0.002c0.354,0.15,0.782,0.154,1.166-0.033
			c0.378-0.186,0.639-0.514,0.74-0.881c0.011-0.071,0.025-0.143,0.044-0.211c0.096-0.366,0.286-0.689,0.582-0.928
			c0.302-0.242,0.668-0.358,1.054-0.369c0.059-0.002,0.117,0,0.176,0.004c0.387-0.016,0.775-0.199,1.041-0.533
			c0.262-0.328,0.354-0.739,0.289-1.113c-0.021-0.07-0.04-0.14-0.053-0.21c-0.072-0.373-0.038-0.745,0.126-1.088
			c0.167-0.347,0.444-0.61,0.787-0.787c0,0,0.002-0.001,0.004-0.001c0.052-0.027,0.104-0.052,0.16-0.072l0.006-0.002
			c0.341-0.182,0.614-0.514,0.708-0.931c0.093-0.409,0.005-0.82-0.217-1.128c-0.049-0.053-0.081-0.108-0.123-0.166
			C20.477,12.239,20.318,11.944,20.318,11.565z M17.998,14.52c-0.391,0.943-0.971,1.782-1.691,2.504
			c-0.723,0.723-1.589,1.305-2.531,1.694c-0.943,0.392-1.962,0.595-2.985,0.593c-1.024,0.002-2.043-0.195-2.986-0.588
			c-0.943-0.391-1.808-0.964-2.531-1.687c-0.723-0.724-1.302-1.575-1.693-2.519c-0.392-0.942-0.592-2.049-0.592-2.959
			c0-1.064,0.2-2.068,0.592-3.011c0.391-0.943,0.97-1.833,1.693-2.556C5.996,5.27,6.86,4.69,7.804,4.3
			c0.942-0.392,1.962-0.59,2.985-0.59s2.043,0.204,2.986,0.595c0.941,0.391,1.808,0.977,2.529,1.699
			c0.723,0.723,1.303,1.601,1.692,2.543c0.394,0.943,0.593,1.947,0.593,3.011C18.591,12.47,18.391,13.576,17.998,14.52z"/>
		<path fill="#FFFFFF" d="M20.932,15.984c-0.012,0.007-0.021,0.016-0.033,0.021c-0.037,0.024-0.074,0.046-0.113,0.065
			c-0.11,0.057-0.146,0.113-0.168,0.156c-0.027,0.058-0.031,0.135-0.014,0.229c0.006,0.022,0.013,0.043,0.019,0.062
			c0.019,0.058,0.03,0.114,0.042,0.174c0.136,0.781-0.072,1.588-0.571,2.211c-0.504,0.634-1.257,1.017-2.063,1.048
			c-0.045,0.002-0.088,0.002-0.135-0.001c-0.016-0.001-0.029-0.001-0.045-0.001c-0.11,0.002-0.188,0.024-0.24,0.065
			c-0.018,0.014-0.073,0.061-0.11,0.201c-0.007,0.023-0.01,0.041-0.013,0.061c-0.01,0.06-0.021,0.117-0.037,0.174
			c-0.213,0.762-0.745,1.398-1.465,1.748c-0.377,0.186-0.801,0.283-1.224,0.283c-0.083,0-0.165-0.006-0.249-0.013L19.042,27
			l0.853-5.602l5.601-0.852L20.932,15.984z"/>
	</g>
	<g>
		<path d="M20.318,10.565c-0.002,0-0.004-0.084-0.004-0.112c-0.004-0.386,0.129-0.772,0.36-1.081c0,0,0.001-0.001,0.002-0.002
			c0.035-0.047,0.072-0.093,0.111-0.137l0.003-0.002c0.227-0.313,0.323-0.729,0.223-1.146c-0.097-0.41-0.361-0.735-0.695-0.916
			c-0.068-0.026-0.133-0.055-0.197-0.089c-0.336-0.173-0.609-0.431-0.777-0.771c-0.171-0.347-0.205-0.729-0.132-1.108
			c0.011-0.058,0.024-0.115,0.041-0.17c0.069-0.381-0.026-0.801-0.295-1.132c-0.265-0.327-0.644-0.506-1.024-0.523
			c-0.072,0.006-0.145,0.009-0.216,0.006c-0.379-0.01-0.737-0.124-1.034-0.36c-0.303-0.238-0.5-0.565-0.596-0.938
			c-0.001-0.001-0.001-0.002-0.001-0.004c-0.015-0.056-0.026-0.113-0.037-0.172V1.904c-0.103-0.373-0.366-0.708-0.754-0.891
			c-0.38-0.181-0.8-0.178-1.151-0.029c-0.062,0.037-0.125,0.069-0.19,0.098c-0.347,0.154-0.718,0.207-1.088,0.125
			c-0.389-0.086-0.718-0.309-0.97-0.618c-0.022-0.028-0.044-0.055-0.064-0.085C11.577,0.197,11.182-0.004,10.74,0
			c-0.42,0.001-0.797,0.186-1.048,0.471c-0.041,0.06-0.085,0.118-0.131,0.172C9.315,0.932,9.002,1.139,8.632,1.224
			C8.257,1.312,7.879,1.26,7.528,1.103c-0.001,0-0.002,0-0.003-0.001c-0.053-0.023-0.106-0.05-0.158-0.079L7.364,1.021
			C7.009,0.867,6.582,0.865,6.197,1.053c-0.378,0.184-0.638,0.514-0.74,0.88C5.446,2.005,5.432,2.075,5.414,2.145
			C5.317,2.511,5.126,2.834,4.831,3.072C4.529,3.314,4.164,3.431,3.777,3.441c-0.059,0.001-0.117,0-0.175-0.003
			C3.215,3.453,2.827,3.637,2.561,3.971C2.299,4.299,2.207,4.71,2.272,5.084c0.021,0.069,0.04,0.139,0.053,0.209
			C2.397,5.665,2.363,6.04,2.199,6.381c-0.166,0.347-0.443,0.61-0.787,0.786c0,0.001-0.001,0.001-0.003,0.001
			c-0.052,0.027-0.105,0.051-0.16,0.074L1.246,7.245c-0.341,0.181-0.611,0.513-0.704,0.93c-0.093,0.41,0.002,0.82,0.224,1.128
			c0.05,0.053,0.096,0.108,0.138,0.166c0.227,0.304,0.358,0.656,0.358,1.035c0,0,0.001,0.085,0.002,0.113
			c0.003,0.386-0.13,0.715-0.361,1.023c0,0,0,0.002-0.002,0.002c-0.035,0.047-0.072,0.093-0.112,0.137l-0.002,0.002
			c-0.226,0.312-0.323,0.729-0.224,1.146c0.097,0.41,0.362,0.735,0.697,0.916c0.067,0.026,0.133,0.056,0.196,0.089
			c0.337,0.174,0.61,0.43,0.778,0.771c0.17,0.347,0.205,0.729,0.131,1.107c-0.011,0.058-0.026,0.114-0.042,0.17
			c-0.069,0.383,0.026,0.801,0.295,1.133c0.264,0.326,0.644,0.507,1.024,0.522c0.072-0.006,0.145-0.009,0.216-0.006
			c0.378,0.011,0.737,0.124,1.034,0.359c0.302,0.237,0.499,0.565,0.595,0.938c0.001,0.002,0.001,0.002,0.001,0.004
			c0.015,0.057,0.027,0.113,0.037,0.172v0.004c0.103,0.373,0.367,0.709,0.753,0.891c0.38,0.182,0.8,0.179,1.15,0.029
			c0.062-0.036,0.126-0.068,0.192-0.1c0.346-0.152,0.719-0.205,1.088-0.125c0.388,0.088,0.717,0.309,0.97,0.618
			c0.022,0.027,0.044,0.056,0.063,0.085c0.254,0.309,0.65,0.51,1.092,0.505c0.42-0.002,0.797-0.186,1.048-0.472
			c0.041-0.061,0.083-0.117,0.131-0.171c0.245-0.289,0.558-0.497,0.928-0.582c0.375-0.088,0.753-0.036,1.105,0.122
			c0.001-0.001,0.002,0,0.003,0.001c0.054,0.022,0.104,0.05,0.157,0.079l0.004,0.002c0.354,0.15,0.782,0.154,1.166-0.033
			c0.378-0.186,0.639-0.514,0.74-0.881c0.011-0.071,0.025-0.143,0.044-0.211c0.096-0.366,0.286-0.689,0.582-0.928
			c0.302-0.242,0.668-0.358,1.054-0.369c0.059-0.002,0.117,0,0.176,0.004c0.387-0.016,0.775-0.199,1.041-0.533
			c0.262-0.328,0.354-0.739,0.289-1.113c-0.021-0.07-0.04-0.14-0.053-0.21c-0.072-0.373-0.038-0.745,0.126-1.088
			c0.167-0.347,0.444-0.61,0.787-0.787c0,0,0.002-0.001,0.004-0.001c0.052-0.027,0.104-0.052,0.16-0.072l0.006-0.002
			c0.341-0.182,0.614-0.514,0.708-0.931c0.093-0.409,0.005-0.82-0.217-1.128c-0.049-0.053-0.081-0.108-0.123-0.166
			C20.477,11.239,20.318,10.944,20.318,10.565z M17.998,13.52c-0.391,0.943-0.971,1.782-1.691,2.504
			c-0.723,0.723-1.589,1.305-2.531,1.694c-0.943,0.392-1.962,0.595-2.985,0.593c-1.024,0.002-2.043-0.195-2.986-0.588
			c-0.943-0.391-1.808-0.964-2.531-1.687c-0.723-0.724-1.302-1.575-1.693-2.519c-0.392-0.942-0.592-2.049-0.592-2.959
			c0-1.064,0.2-2.068,0.592-3.011c0.391-0.943,0.97-1.833,1.693-2.556C5.996,4.27,6.86,3.69,7.804,3.3
			c0.942-0.392,1.962-0.59,2.985-0.59s2.043,0.204,2.986,0.595c0.941,0.391,1.808,0.977,2.529,1.699
			c0.723,0.723,1.303,1.601,1.692,2.543c0.394,0.943,0.593,1.947,0.593,3.011C18.591,11.47,18.391,12.576,17.998,13.52z"/>
		<path d="M20.932,14.984c-0.012,0.007-0.021,0.016-0.033,0.021c-0.037,0.024-0.074,0.046-0.113,0.065
			c-0.11,0.057-0.146,0.113-0.168,0.156c-0.027,0.058-0.031,0.135-0.014,0.229c0.006,0.022,0.013,0.043,0.019,0.062
			c0.019,0.058,0.03,0.114,0.042,0.174c0.136,0.781-0.072,1.588-0.571,2.211c-0.504,0.634-1.257,1.017-2.063,1.048
			c-0.045,0.002-0.088,0.002-0.135-0.001c-0.016-0.001-0.029-0.001-0.045-0.001c-0.11,0.002-0.188,0.024-0.24,0.065
			c-0.018,0.014-0.073,0.061-0.11,0.201c-0.007,0.023-0.01,0.041-0.013,0.061c-0.01,0.06-0.021,0.117-0.037,0.174
			c-0.213,0.762-0.745,1.398-1.465,1.748c-0.377,0.186-0.801,0.283-1.224,0.283c-0.083,0-0.165-0.006-0.249-0.013L19.042,26
			l0.853-5.602l5.601-0.852L20.932,14.984z"/>
	</g>
</g>
</svg>
