<?xml version="1.0" encoding="utf-8"?>
<!-- Generator: Adobe Illustrator 16.0.0, SVG Export Plug-In . SVG Version: 6.00 Build 0)  -->
<!DOCTYPE svg PUBLIC "-//W3C//DTD SVG 1.1//EN" "http://www.w3.org/Graphics/SVG/1.1/DTD/svg11.dtd">
<svg version="1.1" id="Layer_1" xmlns="http://www.w3.org/2000/svg" xmlns:xlink="http://www.w3.org/1999/xlink" x="0px" y="0px"
	 width="32px" height="32px" viewBox="0 0 32 32" enable-background="new 0 0 32 32" xml:space="preserve">
<g id="Badge">
	<g>
		<path d="M10.271,16.948L6.991,29.667c-0.047,0.181,0.01,0.374,0.149,0.499c0.039,0.035,0.082,0.063,0.127,0.083
			c0.119,0.056,0.258,0.062,0.385,0.016l3.561-1.316l2.478,2.875c0.123,0.143,0.313,0.204,0.496,0.163
			c0.182-0.042,0.326-0.184,0.374-0.364l0.688-2.667L12.23,17.25C11.967,17.202,12.001,17.112,10.271,16.948z"/>
		<path d="M25.01,29.666L21.673,16.73c-0.025,0.011-0.051,0.023-0.078,0.034l-0.031,0.014c-0.075,0.033-0.152,0.065-0.229,0.095
			l-0.121,0.044c-0.021,0.007-0.065,0.02-0.112,0.033l-0.043,0.012c-0.105,0.03-0.201,0.056-0.296,0.078
			c-0.044,0.01-0.094,0.02-0.143,0.028c-0.04,0.007-0.098,0.016-0.156,0.023c-0.079,0.012-0.161,0.023-0.243,0.031
			c-0.073,0.006-0.133,0.009-0.194,0.011c-0.053,0.002-0.099,0.003-0.143,0.004c-0.035,0.002-0.068,0.003-0.102,0.003l-0.046-0.001
			c-0.13,0.001-0.431,0.042-0.531,0.077c-0.055,0.026-0.252,0.165-0.393,0.302c-0.024,0.025-0.049,0.05-0.075,0.073
			c-0.053,0.052-0.102,0.1-0.153,0.146c-0.029,0.028-0.055,0.052-0.083,0.076c-0.068,0.061-0.146,0.122-0.226,0.181l-0.043,0.032
			c-0.041,0.031-0.07,0.053-0.101,0.074l0,0c-0.021,0.016-0.042,0.031-0.063,0.044c-0.116,0.077-0.238,0.148-0.386,0.227
			l-0.002,0.001c-0.028,0.016-0.056,0.031-0.083,0.044c-0.13,0.064-0.263,0.121-0.409,0.175c-0.021,0.008-0.042,0.017-0.064,0.025
			l-0.032,0.011c-0.126,0.043-0.252,0.08-0.376,0.11l-0.092,0.034l-0.119,0.013c-0.041,0.008-0.082,0.016-0.123,0.022
			c-0.04,0.006-0.08,0.012-0.121,0.015c-0.044,0.007-0.087,0.012-0.131,0.017l-0.119,0.012c-0.059,0.004-0.118,0.006-0.178,0.007
			c-0.047,0.004-0.093,0.007-0.14,0.007l-0.092-0.01c-0.012,0-0.025-0.009-0.039-0.009h-0.028c-0.03,0-0.062,0.005-0.093,0.002
			c-0.085-0.004-0.201-0.015-0.318-0.03c-0.03-0.003-0.055-0.005-0.077-0.008l-0.124-0.018c-0.028-0.004-0.056-0.008-0.084-0.014
			c-0.099-0.02-0.195-0.046-0.292-0.075l-0.138-0.037l-0.048-0.016c-0.102-0.033-0.199-0.074-0.296-0.114l3.374,13.087
			c0.047,0.18,0.191,0.322,0.374,0.364c0.183,0.042,0.374-0.02,0.496-0.162l2.479-2.875l3.559,1.316
			c0.128,0.046,0.266,0.04,0.386-0.016c0.045-0.02,0.088-0.049,0.127-0.083C24.999,30.041,25.057,29.848,25.01,29.666z"/>
	</g>
	<g>
		<path d="M16.001,4.917c-2.083,0-3.777,1.694-3.777,3.777c0,2.083,1.694,3.777,3.777,3.777c2.083,0,3.777-1.694,3.777-3.777
			C19.778,6.611,18.084,4.917,16.001,4.917z"/>
		<path d="M17.255,17.105c0.02-0.007,0.037-0.017,0.056-0.025c0.09-0.048,0.179-0.096,0.266-0.154
			c0.009-0.006,0.019-0.012,0.028-0.019c0.03-0.021,0.06-0.044,0.089-0.065c0.055-0.041,0.11-0.081,0.161-0.126
			c0.02-0.018,0.038-0.036,0.058-0.054c0.039-0.034,0.074-0.069,0.109-0.104c0.021-0.021,0.042-0.039,0.062-0.061
			c0.215-0.215,0.583-0.504,0.879-0.629c0.312-0.131,0.866-0.187,1.122-0.185c0.024,0,0.048-0.002,0.073-0.003
			c0.041,0,0.081-0.001,0.121-0.002c0.041-0.001,0.082-0.003,0.122-0.007c0.054-0.004,0.108-0.013,0.162-0.021
			c0.039-0.005,0.077-0.009,0.116-0.017c0.026-0.005,0.052-0.01,0.078-0.016c0.064-0.014,0.129-0.033,0.193-0.052
			c0.014-0.004,0.028-0.007,0.042-0.011c0.029-0.009,0.057-0.016,0.085-0.025c0.009-0.003,0.018-0.007,0.026-0.01
			c0.063-0.022,0.127-0.05,0.188-0.077c0.044-0.02,0.089-0.037,0.132-0.058c0.016-0.007,0.03-0.014,0.046-0.021
			c0.051-0.027,0.1-0.061,0.149-0.09c0.034-0.021,0.07-0.037,0.103-0.059c0.008-0.006,0.017-0.014,0.025-0.02
			c0.018-0.012,0.037-0.024,0.055-0.036c0.036-0.027,0.07-0.056,0.104-0.085c0.001,0,0.004-0.001,0.004-0.003
			c0.043-0.034,0.087-0.065,0.127-0.101c0.026-0.024,0.05-0.048,0.075-0.073c0.017-0.015,0.035-0.026,0.05-0.042
			c0,0,0-0.001,0-0.001c0.018-0.017,0.032-0.038,0.048-0.056c0.027-0.029,0.056-0.057,0.083-0.087
			c0.033-0.038,0.062-0.078,0.093-0.119c0.028-0.036,0.06-0.072,0.086-0.11c0.015-0.021,0.029-0.04,0.042-0.06
			c0.006-0.01,0.013-0.017,0.019-0.026c0.025-0.038,0.044-0.079,0.067-0.118c0.013-0.024,0.03-0.048,0.044-0.074
			c0.017-0.033,0.035-0.064,0.052-0.098c0.026-0.053,0.047-0.107,0.07-0.161c0.022-0.054,0.047-0.108,0.066-0.163
			c0.005-0.012,0.011-0.023,0.016-0.035c0.004-0.014,0.005-0.029,0.01-0.043c0.011-0.035,0.017-0.071,0.027-0.106
			c0.016-0.056,0.033-0.111,0.044-0.168c0.005-0.021,0.01-0.042,0.014-0.064c0.001-0.012,0.006-0.023,0.008-0.035
			c0.006-0.037,0.006-0.075,0.01-0.112c0.006-0.049,0.016-0.097,0.019-0.146c0.002-0.034,0.003-0.066,0.004-0.099
			c0.003-0.023,0.007-0.047,0.007-0.07c0.001-0.031-0.005-0.062-0.005-0.092c0-0.025,0.003-0.051,0.001-0.076
			c-0.002-0.071,0.018-0.668,0.178-1.062c0.117-0.287,0.434-0.693,0.663-0.924c0.019-0.018,0.035-0.038,0.053-0.057
			c0.028-0.028,0.056-0.058,0.083-0.087c0.027-0.03,0.055-0.059,0.081-0.089c0.033-0.04,0.063-0.081,0.094-0.122
			c0.025-0.033,0.052-0.066,0.076-0.101c0.016-0.023,0.032-0.048,0.047-0.073c0.03-0.047,0.056-0.095,0.083-0.144
			c0.01-0.019,0.023-0.039,0.034-0.059c0.017-0.031,0.035-0.062,0.05-0.093c0.003-0.007,0.005-0.014,0.007-0.021
			c0.025-0.05,0.045-0.104,0.065-0.156c0.022-0.053,0.046-0.104,0.063-0.159c0.007-0.018,0.012-0.035,0.018-0.052
			c0.015-0.048,0.024-0.098,0.037-0.146c0.011-0.044,0.026-0.087,0.036-0.131c0.002-0.012,0.002-0.024,0.004-0.036
			c0.004-0.021,0.01-0.041,0.012-0.062c0.007-0.045,0.01-0.091,0.016-0.136c0.001-0.003,0.001-0.007,0.001-0.011
			c0.005-0.049,0.013-0.1,0.017-0.149c0.002-0.038,0.002-0.075,0.003-0.113c0.001-0.021,0.004-0.042,0.005-0.063
			c0-0.027-0.006-0.053-0.007-0.081c0-0.034,0-0.068-0.002-0.103c-0.003-0.055-0.012-0.11-0.019-0.165
			c-0.006-0.047-0.01-0.093-0.018-0.139c-0.005-0.02-0.007-0.038-0.011-0.057c-0.002-0.014-0.003-0.028-0.006-0.042
			c-0.011-0.057-0.031-0.112-0.046-0.167c0-0.001,0-0.002-0.002-0.003c-0.013-0.049-0.024-0.099-0.04-0.146
			c-0.022-0.067-0.05-0.13-0.078-0.195c-0.018-0.042-0.034-0.086-0.054-0.128c-0.008-0.017-0.015-0.034-0.024-0.052
			c-0.024-0.05-0.056-0.095-0.083-0.143c-0.024-0.042-0.045-0.083-0.072-0.123c-0.013-0.021-0.026-0.041-0.04-0.062
			c-0.028-0.041-0.06-0.078-0.09-0.117c0,0,0,0,0,0c-0.029-0.037-0.055-0.076-0.085-0.111c-0.023-0.028-0.048-0.055-0.072-0.081
			c-0.036-0.038-0.073-0.075-0.109-0.111c-0.019-0.019-0.035-0.039-0.054-0.056c-0.053-0.048-0.462-0.487-0.626-0.877
			c-0.13-0.31-0.186-0.857-0.185-1.115c0.002-0.046,0.001-0.092,0-0.139c0,0,0,0,0,0c-0.007-0.528-0.154-1.052-0.456-1.507
			c-0.436-0.66-1.114-1.095-1.871-1.227c-0.021-0.004-0.042-0.007-0.063-0.01c-0.077-0.011-0.153-0.021-0.23-0.027
			c-0.03-0.002-0.061-0.002-0.09-0.004c-0.048-0.002-0.095-0.002-0.142-0.002c-0.023,0-0.045-0.003-0.069-0.002
			c-0.204,0.004-0.74-0.034-1.089-0.176c-0.313-0.128-0.745-0.48-0.922-0.663c-0.019-0.019-0.039-0.034-0.057-0.052
			c-0.024-0.024-0.048-0.048-0.074-0.072c-0.038-0.035-0.075-0.069-0.114-0.103c-0.033-0.027-0.067-0.05-0.1-0.076
			c-0.012-0.009-0.024-0.019-0.037-0.028c-0.021-0.015-0.039-0.032-0.058-0.046c-0.035-0.022-0.067-0.044-0.101-0.066
			c-0.03-0.02-0.063-0.036-0.094-0.055c-0.074-0.042-0.148-0.083-0.225-0.12c-0.029-0.014-0.059-0.025-0.089-0.038
			c-0.077-0.033-0.153-0.064-0.232-0.09c-0.009-0.003-0.018-0.005-0.025-0.008c-0.027-0.008-0.054-0.014-0.081-0.021
			c-0.067-0.02-0.132-0.042-0.202-0.055c-0.02-0.004-0.039-0.005-0.059-0.008c-0.014-0.003-0.028-0.006-0.042-0.007
			C16.233-0.005,15.96,0,15.793,0C15.768,0,15.742,0,15.716,0.002c-0.03,0.003-0.061,0.003-0.09,0.007
			c-0.03,0.004-0.06,0.004-0.09,0.009c-0.033,0.006-0.066,0.011-0.1,0.018c-0.006,0.001-0.013,0.001-0.019,0.002
			c-0.026,0.005-0.052,0.015-0.077,0.021c-0.084,0.021-0.167,0.042-0.249,0.07c-0.043,0.014-0.084,0.032-0.125,0.049
			c-0.065,0.026-0.132,0.051-0.196,0.082c-0.02,0.01-0.04,0.02-0.06,0.03c-0.031,0.016-0.061,0.036-0.091,0.053
			c-0.055,0.032-0.111,0.062-0.165,0.097c-0.019,0.011-0.037,0.023-0.056,0.037c-0.038,0.026-0.074,0.055-0.11,0.084
			c-0.04,0.03-0.082,0.06-0.121,0.093c-0.026,0.022-0.052,0.047-0.077,0.07c-0.037,0.034-0.072,0.069-0.107,0.104
			c-0.019,0.02-0.039,0.035-0.058,0.055c-0.216,0.217-0.585,0.506-0.88,0.631c-0.311,0.13-0.863,0.186-1.14,0.184
			c-0.026,0-0.05,0.002-0.075,0.002c-0.031,0-0.061,0.001-0.091,0.003c-0.012,0-0.024,0-0.037,0.001
			c-0.021,0.001-0.043,0-0.066,0.002c-0.079,0.006-0.157,0.017-0.235,0.029c-0.016,0.003-0.033,0.004-0.049,0.007
			c-0.016,0.002-0.032,0.005-0.048,0.009c-0.02,0.004-0.04,0.01-0.06,0.014c-0.087,0.019-0.173,0.042-0.259,0.068
			c-0.015,0.005-0.03,0.008-0.044,0.012c-0.017,0.007-0.035,0.015-0.051,0.021c-0.079,0.028-0.155,0.06-0.231,0.094
			c-0.026,0.012-0.052,0.023-0.078,0.035c-0.015,0.007-0.029,0.014-0.044,0.021c-0.11,0.058-0.216,0.124-0.318,0.195
			c-0.028,0.02-0.055,0.041-0.083,0.062c-0.133,0.096-0.432,0.329-0.546,0.515C9.569,2.824,9.542,2.868,9.521,2.9
			C9.503,2.924,9.485,2.955,9.469,2.979C9.458,2.996,9.45,3.02,9.438,3.037C9.405,3.089,9.374,3.145,9.345,3.2
			C9.331,3.225,9.318,3.25,9.307,3.274C9.288,3.312,9.272,3.35,9.256,3.387C9.23,3.448,9.205,3.51,9.181,3.573
			C9.171,3.602,9.158,3.63,9.149,3.659C9.144,3.674,9.142,3.689,9.137,3.705C9.117,3.77,9.101,3.836,9.085,3.903
			c-0.009,0.039-0.02,0.077-0.026,0.116C9.054,4.045,9.05,4.071,9.046,4.098c-0.01,0.063-0.017,0.126-0.022,0.19
			C9.021,4.319,9.018,4.349,9.017,4.379c0,0.012,0,0.024,0,0.036C9.014,4.462,9.014,4.509,9.014,4.556
			c0,0.03-0.002,0.061-0.001,0.091c0.003,0.072-0.017,0.67-0.177,1.062C8.72,5.992,8.41,6.394,8.181,6.624
			C8.155,6.648,8.13,6.675,8.105,6.7C8.104,6.702,8.101,6.703,8.099,6.705C8.097,6.706,8.096,6.709,8.094,6.711
			C7.77,7.039,7.527,7.442,7.396,7.895C7.393,7.901,7.393,7.907,7.39,7.915C7.372,7.98,7.35,8.045,7.335,8.113
			C7.301,8.281,7.288,8.449,7.283,8.617C7.282,8.665,7.281,8.713,7.282,8.761c0.002,0.054,0.003,0.107,0.008,0.16
			c0.006,0.07,0.015,0.14,0.025,0.209C7.321,9.163,7.323,9.195,7.33,9.228c0.021,0.109,0.048,0.217,0.082,0.323
			c0,0.003,0.001,0.006,0.002,0.008C7.417,9.568,7.42,9.576,7.423,9.584c0.029,0.087,0.062,0.173,0.099,0.258
			c0.01,0.02,0.019,0.039,0.027,0.059c0.037,0.077,0.077,0.154,0.12,0.228c0.011,0.02,0.022,0.038,0.034,0.057
			c0.048,0.08,0.103,0.158,0.161,0.234c0.007,0.01,0.014,0.021,0.021,0.03c0.069,0.087,0.143,0.173,0.223,0.253
			c0.014,0.014,0.03,0.024,0.043,0.037c0.042,0.041,0.084,0.081,0.127,0.117c0.17,0.186,0.427,0.507,0.545,0.792
			c0.13,0.309,0.186,0.851,0.185,1.111c-0.021,0.576,0.128,1.154,0.456,1.65c0.436,0.661,1.115,1.095,1.874,1.227
			c0.019,0.003,0.037,0.006,0.057,0.009c0.079,0.012,0.159,0.022,0.239,0.028c0.028,0.002,0.055,0.002,0.082,0.003
			c0.048,0.002,0.095,0.003,0.142,0.003c0.024-0.001,0.048,0.002,0.073,0.001c0.204-0.004,0.737,0.034,1.087,0.177
			c0.313,0.128,0.746,0.481,0.925,0.663c0.017,0.019,0.037,0.035,0.055,0.052c0.024,0.024,0.049,0.049,0.074,0.072
			c0.038,0.035,0.076,0.07,0.115,0.104c0.032,0.026,0.065,0.048,0.097,0.075c0.013,0.008,0.024,0.019,0.037,0.027
			c0.021,0.016,0.04,0.032,0.062,0.047c0.033,0.023,0.066,0.045,0.101,0.066c0.029,0.02,0.06,0.036,0.09,0.053
			c0.075,0.044,0.15,0.085,0.229,0.123c0.027,0.011,0.056,0.023,0.083,0.035c0.076,0.033,0.153,0.065,0.234,0.091
			c0.01,0.004,0.02,0.007,0.03,0.01c0.023,0.007,0.047,0.011,0.071,0.018c0.069,0.02,0.137,0.043,0.208,0.057
			c0.021,0.004,0.041,0.004,0.061,0.009c0.012,0.001,0.024,0.005,0.037,0.006c0.032,0.005,0.065,0.008,0.098,0.013
			c0.076,0.01,0.152,0.02,0.227,0.023c0.018,0.001,0.035,0,0.052,0c0.013,0.001,0.024,0,0.036,0c0.02,0.002,0.04,0.005,0.061,0.006
			c0.016,0,0.032-0.004,0.048-0.004c0.056-0.002,0.113-0.002,0.169-0.006c0.01-0.002,0.021-0.003,0.033-0.004
			C16.55,17.339,16.782,17.282,17.255,17.105z M16.001,13.987c-2.918,0-5.293-2.375-5.293-5.293c0-2.918,2.375-5.293,5.293-5.293
			c2.919,0,5.293,2.375,5.293,5.293C21.293,11.612,18.92,13.987,16.001,13.987z"/>
	</g>
</g>
</svg>
