<?xml version="1.0" encoding="utf-8"?>
<!-- Generator: Adobe Illustrator 16.0.0, SVG Export Plug-In . SVG Version: 6.00 Build 0)  -->
<!DOCTYPE svg PUBLIC "-//W3C//DTD SVG 1.1//EN" "http://www.w3.org/Graphics/SVG/1.1/DTD/svg11.dtd">
<svg version="1.1" id="Layer_1" xmlns="http://www.w3.org/2000/svg" xmlns:xlink="http://www.w3.org/1999/xlink" x="0px" y="0px"
	 width="290px" height="200px" viewBox="0 0 290 200" enable-background="new 0 0 290 200" xml:space="preserve">
<g id="Gold">
</g>
<g id="Silver">
	<g id="LA">
		<g>
			<path fill="#316F63" d="M126.892,161.632c-0.349,0.046-0.69,0.068-1.026,0.068c-0.527,0-0.97-0.052-1.327-0.155
				c-0.359-0.104-0.644-0.273-0.855-0.514c-0.211-0.237-0.361-0.549-0.451-0.928c-0.09-0.381-0.134-0.855-0.134-1.424v-4.88h-1.665
				v-1.916h1.646v-2.962l2.459-0.658v3.62h2.342v1.916h-2.342v4.235c0,0.621,0.083,1.043,0.251,1.262
				c0.167,0.221,0.465,0.331,0.891,0.331c0.426,0,0.825-0.06,1.2-0.174v1.991C127.568,161.525,127.24,161.587,126.892,161.632z"/>
			<path fill="#316F63" d="M136.995,155.971c0,0.168-0.007,0.344-0.02,0.53c-0.013,0.188-0.032,0.385-0.059,0.592h-5.962
				c-0.013,1.794,0.871,2.69,2.652,2.69c0.477,0,0.961-0.053,1.452-0.16c0.489-0.105,0.941-0.26,1.354-0.46l0.231,1.917
				c-0.516,0.207-1.067,0.361-1.654,0.465c-0.588,0.104-1.184,0.155-1.79,0.155c-1.537,0-2.715-0.394-3.533-1.183
				c-0.82-0.785-1.229-2.031-1.229-3.735c0-0.734,0.1-1.417,0.3-2.041c0.199-0.628,0.49-1.166,0.871-1.618
				c0.381-0.45,0.852-0.807,1.413-1.064c0.562-0.257,1.204-0.387,1.926-0.387c0.697,0,1.301,0.113,1.811,0.339
				c0.51,0.228,0.93,0.532,1.258,0.919c0.329,0.387,0.575,0.844,0.735,1.365C136.914,154.816,136.995,155.377,136.995,155.971z
				 M134.536,155.408c0.025-0.606-0.113-1.078-0.416-1.414c-0.304-0.335-0.719-0.502-1.249-0.502c-0.517,0-0.942,0.174-1.277,0.521
				c-0.336,0.351-0.536,0.812-0.601,1.395H134.536z"/>
			<path fill="#316F63" d="M143.629,161.555c-0.452,0.084-0.936,0.127-1.452,0.127c-0.671,0-1.274-0.092-1.81-0.271
				c-0.535-0.18-0.991-0.458-1.365-0.833c-0.374-0.374-0.661-0.856-0.861-1.451c-0.2-0.593-0.3-1.298-0.3-2.11
				c0-0.748,0.1-1.443,0.3-2.091c0.2-0.646,0.504-1.206,0.91-1.684c0.406-0.478,0.923-0.853,1.549-1.123s1.364-0.406,2.217-0.406
				c0.671,0,1.328,0.091,1.974,0.271l-0.251,2.148c-0.259-0.104-0.536-0.188-0.833-0.252c-0.297-0.062-0.6-0.098-0.91-0.098
				c-0.787,0-1.377,0.27-1.771,0.805c-0.395,0.535-0.59,1.262-0.59,2.178c0,0.826,0.173,1.494,0.522,2.004s0.935,0.765,1.762,0.765
				c0.335,0,0.67-0.032,1.006-0.097c0.336-0.065,0.632-0.168,0.891-0.311l0.194,2.109
				C144.474,161.365,144.08,161.471,143.629,161.555z"/>
			<path fill="#316F63" d="M149.329,151.865c0,0.232-0.009,0.514-0.028,0.843c-0.019,0.329-0.056,0.623-0.105,0.88l0.02,0.02
				c0.297-0.58,0.719-1.047,1.268-1.402c0.55-0.354,1.218-0.532,2.004-0.532c0.543,0,0.998,0.081,1.365,0.242
				s0.662,0.384,0.881,0.668s0.377,0.61,0.475,0.978c0.098,0.369,0.146,0.766,0.146,1.191v6.756h-2.459v-6.156
				c0-0.504-0.084-0.897-0.252-1.181c-0.168-0.284-0.479-0.426-0.93-0.426c-0.311,0-0.604,0.084-0.881,0.25
				c-0.277,0.169-0.518,0.396-0.717,0.679c-0.199,0.284-0.357,0.613-0.475,0.986c-0.115,0.375-0.175,0.775-0.175,1.201v4.646h-2.458
				v-7.726c-0.232-0.037-0.501-0.073-0.804-0.105c-0.304-0.031-0.597-0.061-0.881-0.088v-1.549c0.62-0.077,1.278-0.132,1.975-0.164
				C147.994,151.844,148.672,151.84,149.329,151.865z"/>
			<path fill="#316F63" d="M166.079,156.514c0,0.76-0.12,1.457-0.358,2.09c-0.238,0.631-0.578,1.179-1.017,1.636
				c-0.438,0.458-0.958,0.815-1.56,1.073c-0.6,0.258-1.262,0.389-1.983,0.389c-0.685,0-1.304-0.092-1.858-0.271
				c-0.555-0.182-1.025-0.468-1.412-0.861c-0.388-0.394-0.688-0.896-0.9-1.51c-0.213-0.613-0.319-1.346-0.319-2.197
				c0-0.747,0.12-1.438,0.358-2.07s0.574-1.18,1.007-1.637s0.948-0.815,1.549-1.074c0.601-0.258,1.269-0.389,2.003-0.389
				c1.368,0,2.459,0.393,3.271,1.174C165.672,153.645,166.079,154.859,166.079,156.514z M163.523,156.639
				c0-0.933-0.168-1.645-0.504-2.139c-0.336-0.49-0.871-0.736-1.606-0.736c-0.271,0-0.539,0.055-0.804,0.166
				c-0.266,0.107-0.5,0.281-0.707,0.514s-0.37,0.529-0.493,0.885s-0.185,0.779-0.185,1.271c0,1.993,0.717,2.99,2.148,2.99
				c0.62,0,1.134-0.244,1.54-0.738C163.32,158.359,163.523,157.621,163.523,156.639z"/>
			<path fill="#316F63" d="M169.838,161.507h-2.459v-12.235c-0.23-0.037-0.499-0.073-0.803-0.105
				c-0.305-0.032-0.598-0.061-0.881-0.088v-1.549c0.619-0.077,1.285-0.131,1.998-0.163s1.427-0.036,2.145-0.011V161.507
				L169.838,161.507z"/>
			<path fill="#316F63" d="M180.555,156.514c0,0.76-0.119,1.457-0.357,2.09c-0.238,0.631-0.578,1.179-1.016,1.636
				c-0.439,0.458-0.959,0.815-1.561,1.073c-0.6,0.258-1.262,0.389-1.982,0.389c-0.686,0-1.305-0.092-1.859-0.271
				c-0.555-0.182-1.025-0.468-1.412-0.861s-0.688-0.896-0.9-1.51s-0.318-1.346-0.318-2.197c0-0.747,0.119-1.438,0.357-2.07
				s0.573-1.18,1.006-1.637c0.434-0.457,0.948-0.815,1.551-1.074c0.6-0.258,1.268-0.389,2.002-0.389
				c1.369,0,2.459,0.393,3.271,1.174C180.148,153.645,180.555,154.859,180.555,156.514z M178,156.639
				c0-0.933-0.168-1.645-0.504-2.139c-0.336-0.49-0.871-0.736-1.605-0.736c-0.271,0-0.541,0.055-0.806,0.166
				c-0.265,0.107-0.499,0.281-0.706,0.514c-0.206,0.232-0.371,0.529-0.494,0.885c-0.121,0.355-0.184,0.779-0.184,1.271
				c0,1.993,0.717,2.99,2.148,2.99c0.619,0,1.133-0.244,1.539-0.738C177.796,158.359,178,157.621,178,156.639z"/>
			<path fill="#316F63" d="M190.111,161.814c0,0.569-0.077,1.121-0.231,1.656c-0.155,0.534-0.43,1.016-0.823,1.441
				c-0.394,0.427-0.936,0.77-1.625,1.025c-0.689,0.258-1.564,0.388-2.623,0.388c-0.543,0-1.064-0.035-1.567-0.104
				c-0.505-0.072-0.962-0.16-1.375-0.264l0.192-2.303c0.426,0.166,0.896,0.303,1.414,0.406c0.516,0.103,1,0.153,1.451,0.153
				c0.916,0,1.605-0.177,2.071-0.53c0.464-0.355,0.696-0.979,0.696-1.869v-0.508c0-0.234,0.004-0.461,0.01-0.685
				c0.008-0.222,0.035-0.462,0.088-0.722h-0.038c-0.259,0.56-0.638,0.998-1.134,1.317s-1.067,0.479-1.713,0.479
				c-1.161,0-2.047-0.383-2.651-1.143c-0.606-0.763-0.91-1.879-0.91-3.351c0-0.812,0.112-1.554,0.339-2.226s0.562-1.248,1.006-1.732
				c0.446-0.484,0.994-0.861,1.646-1.133c0.65-0.271,1.402-0.406,2.255-0.406c0.685,0,1.31,0.025,1.878,0.078
				c0.567,0.051,1.115,0.122,1.645,0.213V161.814L190.111,161.814z M187.652,153.82c-0.373-0.09-0.807-0.135-1.297-0.135
				c-0.709,0-1.291,0.244-1.742,0.731c-0.451,0.489-0.678,1.326-0.678,2.508c0,1.802,0.549,2.703,1.646,2.703
				c0.322,0,0.611-0.088,0.871-0.261c0.258-0.174,0.474-0.405,0.648-0.694c0.174-0.289,0.311-0.624,0.405-1.004
				c0.099-0.38,0.146-0.78,0.146-1.206V153.82z"/>
			<path fill="#316F63" d="M195.118,161.507h-2.459v-7.726c-0.232-0.037-0.5-0.073-0.804-0.105
				c-0.304-0.031-0.598-0.061-0.881-0.088v-1.549c0.619-0.077,1.283-0.132,1.993-0.164c0.71-0.031,1.427-0.035,2.149-0.01
				L195.118,161.507L195.118,161.507z M195.428,149.136c0,0.414-0.15,0.769-0.455,1.065c-0.304,0.296-0.668,0.445-1.094,0.445
				c-0.413,0-0.771-0.149-1.074-0.445c-0.304-0.297-0.455-0.651-0.455-1.065c0-0.206,0.043-0.399,0.127-0.579
				c0.084-0.182,0.192-0.341,0.328-0.476c0.137-0.136,0.297-0.242,0.484-0.319c0.188-0.076,0.384-0.115,0.59-0.115
				c0.426,0,0.79,0.146,1.094,0.436C195.277,148.372,195.428,148.723,195.428,149.136z"/>
			<path fill="#316F63" d="M206.105,161.333c-0.619,0.078-1.276,0.133-1.971,0.164c-0.691,0.032-1.354,0.036-1.98,0.01
				c0-0.282,0.007-0.565,0.02-0.842c0.014-0.276,0.039-0.546,0.077-0.804l-0.021-0.021c-0.231,0.548-0.621,0.994-1.17,1.341
				c-0.549,0.344-1.185,0.519-1.906,0.519c-0.877,0-1.555-0.229-2.031-0.688c-0.479-0.457-0.717-1.074-0.717-1.849
				c0-0.58,0.137-1.09,0.406-1.529c0.271-0.438,0.651-0.806,1.143-1.103c0.49-0.297,1.078-0.521,1.762-0.67
				c0.686-0.146,1.434-0.221,2.246-0.221v-0.522c0-0.504-0.139-0.884-0.416-1.144c-0.277-0.258-0.765-0.388-1.462-0.388
				c-0.438,0-0.92,0.069-1.442,0.204c-0.521,0.136-0.99,0.318-1.402,0.552l-0.213-2.071c0.488-0.181,1.029-0.326,1.621-0.437
				c0.594-0.108,1.197-0.164,1.815-0.164c0.771,0,1.412,0.074,1.921,0.222c0.508,0.149,0.913,0.367,1.217,0.657
				c0.303,0.289,0.515,0.642,0.637,1.054c0.123,0.412,0.184,0.881,0.184,1.408v4.578c0.232,0.038,0.5,0.073,0.805,0.105
				c0.303,0.031,0.598,0.062,0.881,0.087v1.551H206.105z M201.963,157.247c-0.658,0-1.193,0.042-1.605,0.125
				c-0.414,0.084-0.735,0.198-0.969,0.346c-0.232,0.148-0.395,0.312-0.484,0.491c-0.09,0.178-0.135,0.365-0.135,0.557
				c0,0.308,0.1,0.553,0.299,0.739c0.201,0.187,0.481,0.278,0.844,0.278c0.311,0,0.59-0.067,0.842-0.202
				c0.252-0.134,0.469-0.308,0.648-0.519c0.18-0.213,0.318-0.455,0.416-0.729s0.146-0.56,0.146-0.854L201.963,157.247
				L201.963,157.247z"/>
			<path fill="#316F63" d="M219.018,155.971c0,0.168-0.006,0.344-0.02,0.53c-0.014,0.188-0.032,0.385-0.059,0.592h-5.963
				c-0.013,1.794,0.871,2.69,2.652,2.69c0.479,0,0.961-0.053,1.451-0.16c0.49-0.105,0.941-0.26,1.355-0.46l0.231,1.917
				c-0.517,0.207-1.067,0.361-1.655,0.465s-1.185,0.155-1.789,0.155c-1.537,0-2.715-0.394-3.533-1.183
				c-0.82-0.785-1.229-2.031-1.229-3.735c0-0.734,0.101-1.417,0.3-2.041c0.2-0.628,0.49-1.166,0.871-1.618
				c0.381-0.45,0.852-0.807,1.413-1.064c0.562-0.257,1.204-0.387,1.927-0.387c0.696,0,1.299,0.113,1.811,0.339
				c0.51,0.228,0.93,0.532,1.258,0.919c0.33,0.387,0.574,0.844,0.736,1.365S219.018,155.377,219.018,155.971z M216.559,155.408
				c0.026-0.606-0.113-1.078-0.416-1.414c-0.304-0.335-0.72-0.502-1.248-0.502c-0.517,0-0.942,0.174-1.277,0.521
				c-0.336,0.351-0.535,0.812-0.602,1.395H216.559z"/>
			<path fill="#316F63" d="M232.702,161.507v-6.099c0-0.516-0.078-0.922-0.231-1.221c-0.154-0.295-0.455-0.443-0.904-0.443
				c-0.27,0-0.535,0.076-0.799,0.23c-0.264,0.155-0.496,0.371-0.703,0.648c-0.205,0.277-0.371,0.609-0.5,0.997
				c-0.127,0.387-0.191,0.813-0.191,1.278v4.606h-2.459v-6.099c0-0.479-0.07-0.873-0.213-1.191c-0.143-0.314-0.451-0.473-0.93-0.473
				c-0.283,0-0.559,0.081-0.821,0.24c-0.267,0.162-0.501,0.382-0.707,0.658c-0.207,0.278-0.371,0.609-0.494,0.998
				c-0.122,0.387-0.185,0.807-0.185,1.258v4.607h-2.459v-7.727c-0.231-0.036-0.5-0.072-0.804-0.104s-0.596-0.062-0.88-0.088v-1.549
				c0.619-0.077,1.28-0.132,1.984-0.164c0.703-0.031,1.377-0.035,2.021-0.011c0,0.232-0.01,0.512-0.029,0.832
				c-0.019,0.324-0.047,0.627-0.086,0.91h0.02c0.298-0.592,0.723-1.063,1.271-1.412c0.551-0.35,1.188-0.522,1.912-0.522
				c0.428,0,0.797,0.06,1.106,0.174c0.312,0.116,0.569,0.267,0.776,0.445c0.207,0.183,0.373,0.39,0.496,0.619
				c0.123,0.233,0.217,0.465,0.28,0.696c0.115-0.231,0.267-0.463,0.452-0.696c0.186-0.229,0.407-0.441,0.664-0.63
				c0.256-0.187,0.551-0.334,0.885-0.444c0.333-0.108,0.705-0.164,1.115-0.164c0.924,0,1.632,0.261,2.126,0.785
				c0.494,0.521,0.741,1.332,0.741,2.429v6.621h-2.456V161.507z"/>
			<path fill="#316F63" d="M247.238,158.525c0,0.478-0.098,0.908-0.297,1.297c-0.198,0.387-0.484,0.719-0.854,0.996
				c-0.372,0.277-0.821,0.494-1.349,0.647c-0.526,0.155-1.118,0.233-1.777,0.233c-0.35,0-0.693-0.018-1.035-0.049
				c-0.343-0.032-0.668-0.074-0.979-0.127l0.059-2.032c0.297,0.077,0.623,0.146,0.979,0.202c0.354,0.06,0.72,0.089,1.095,0.089
				c0.478,0,0.856-0.091,1.142-0.271c0.283-0.18,0.426-0.431,0.426-0.755c0-0.283-0.097-0.503-0.289-0.656
				c-0.194-0.156-0.434-0.291-0.717-0.408c-0.283-0.115-0.598-0.23-0.938-0.35c-0.343-0.115-0.655-0.273-0.938-0.473
				c-0.285-0.2-0.522-0.469-0.717-0.805c-0.193-0.336-0.29-0.773-0.29-1.314c0-0.428,0.087-0.823,0.261-1.191
				c0.176-0.367,0.43-0.692,0.766-0.978c0.335-0.284,0.759-0.507,1.268-0.668c0.51-0.161,1.107-0.242,1.791-0.242
				c0.284,0,0.573,0.017,0.871,0.049c0.297,0.032,0.594,0.074,0.891,0.125l-0.078,1.955c-0.271-0.075-0.561-0.137-0.869-0.184
				c-0.311-0.044-0.613-0.067-0.91-0.067c-0.491,0-0.852,0.09-1.084,0.271s-0.35,0.421-0.35,0.717c0,0.258,0.098,0.465,0.289,0.619
				c0.193,0.154,0.438,0.294,0.732,0.416c0.295,0.123,0.609,0.248,0.943,0.378s0.647,0.297,0.943,0.504
				c0.295,0.206,0.539,0.475,0.731,0.803C247.145,157.586,247.238,158.009,247.238,158.525z"/>
			<path fill="#316F63" d="M257.771,161.333c-0.619,0.078-1.275,0.133-1.97,0.164c-0.692,0.032-1.354,0.036-1.981,0.01
				c0-0.282,0.007-0.565,0.021-0.842c0.013-0.276,0.039-0.546,0.077-0.804l-0.02-0.021c-0.232,0.548-0.623,0.994-1.172,1.341
				c-0.549,0.344-1.183,0.519-1.906,0.519c-0.877,0-1.555-0.229-2.031-0.688c-0.477-0.457-0.715-1.074-0.715-1.849
				c0-0.58,0.135-1.09,0.406-1.529c0.271-0.438,0.65-0.806,1.143-1.103c0.488-0.297,1.077-0.521,1.761-0.67
				c0.685-0.146,1.433-0.221,2.246-0.221v-0.522c0-0.504-0.139-0.884-0.416-1.144c-0.278-0.258-0.765-0.388-1.462-0.388
				c-0.439,0-0.92,0.069-1.441,0.204c-0.522,0.136-0.99,0.318-1.403,0.552l-0.214-2.071c0.49-0.181,1.029-0.326,1.623-0.437
				c0.592-0.108,1.197-0.164,1.813-0.164c0.772,0,1.413,0.074,1.921,0.222c0.51,0.149,0.914,0.367,1.217,0.657
				c0.303,0.289,0.516,0.642,0.639,1.054c0.121,0.412,0.183,0.881,0.183,1.408v4.578c0.231,0.038,0.5,0.073,0.804,0.105
				c0.303,0.031,0.598,0.062,0.881,0.087v1.551H257.771z M253.63,157.247c-0.657,0-1.194,0.042-1.606,0.125
				c-0.412,0.084-0.735,0.198-0.969,0.346c-0.231,0.148-0.394,0.312-0.482,0.491c-0.092,0.178-0.137,0.365-0.137,0.557
				c0,0.308,0.101,0.553,0.301,0.739c0.199,0.187,0.479,0.278,0.842,0.278c0.311,0,0.591-0.067,0.842-0.202
				c0.253-0.134,0.469-0.308,0.648-0.519c0.181-0.213,0.32-0.455,0.416-0.729c0.098-0.274,0.146-0.56,0.146-0.854L253.63,157.247
				L253.63,157.247z"/>
			<path fill="#316F63" d="M266.939,161.518c-0.696,0.03-1.367,0.033-2.014,0.008c0-0.219,0.008-0.493,0.021-0.821
				c0.012-0.33,0.044-0.629,0.096-0.899l-0.039-0.021c-0.283,0.581-0.699,1.05-1.248,1.403s-1.217,0.531-2.003,0.531
				c-0.542,0-1.001-0.08-1.375-0.24c-0.374-0.162-0.672-0.385-0.892-0.668c-0.219-0.285-0.377-0.61-0.475-0.979
				c-0.097-0.368-0.145-0.764-0.145-1.191v-4.858c-0.232-0.037-0.497-0.073-0.794-0.105c-0.298-0.032-0.589-0.061-0.871-0.088
				v-1.549c0.646-0.077,1.325-0.132,2.046-0.164c0.719-0.03,1.411-0.035,2.077-0.01v6.176c0,0.504,0.084,0.897,0.252,1.183
				c0.17,0.282,0.481,0.426,0.937,0.426c0.312,0,0.606-0.086,0.885-0.252c0.279-0.17,0.521-0.395,0.722-0.678
				c0.2-0.285,0.358-0.613,0.478-0.988c0.116-0.373,0.174-0.774,0.174-1.199v-4.646h2.459v7.726c0.232,0.038,0.5,0.073,0.804,0.106
				c0.304,0.031,0.598,0.061,0.882,0.086v1.549C268.295,161.43,267.637,161.482,266.939,161.518z M262.372,150.607l-0.853-1.414
				l3.389-2.129l1.025,1.703L262.372,150.607z"/>
			<path fill="#316F63" d="M279.689,161.352c-0.619,0.078-1.277,0.133-1.976,0.166c-0.696,0.03-1.368,0.033-2.013,0.008
				c0-0.243,0.009-0.514,0.027-0.803c0.021-0.291,0.049-0.563,0.088-0.824h-0.039c-0.258,0.543-0.646,0.981-1.161,1.317
				c-0.517,0.335-1.142,0.503-1.877,0.503c-1.175,0-2.054-0.406-2.634-1.219s-0.871-1.911-0.871-3.292
				c0-0.812,0.115-1.554,0.349-2.226s0.565-1.248,0.997-1.732c0.434-0.484,0.965-0.861,1.598-1.133s1.348-0.406,2.148-0.406
				c0.206,0,0.406,0.007,0.602,0.02c0.192,0.014,0.398,0.033,0.617,0.06v-2.519c-0.23-0.037-0.5-0.073-0.803-0.105
				s-0.598-0.061-0.881-0.088v-1.548c0.619-0.078,1.287-0.132,2.004-0.164c0.716-0.032,1.429-0.036,2.139-0.011v12.254
				c0.232,0.039,0.5,0.074,0.805,0.106c0.303,0.032,0.596,0.062,0.881,0.087V161.352L279.689,161.352z M275.546,153.82
				c-0.219-0.051-0.435-0.09-0.647-0.115s-0.43-0.039-0.647-0.039c-0.71,0-1.291,0.249-1.742,0.745
				c-0.452,0.497-0.678,1.339-0.678,2.526c0,1.818,0.548,2.729,1.646,2.729c0.322,0,0.613-0.088,0.871-0.263
				c0.258-0.174,0.475-0.406,0.648-0.696c0.174-0.291,0.311-0.626,0.406-1.006c0.098-0.382,0.145-0.778,0.145-1.19L275.546,153.82
				L275.546,153.82z"/>
			<path fill="#316F63" d="M288.482,155.971c0,0.168-0.006,0.344-0.019,0.53c-0.014,0.188-0.032,0.385-0.06,0.592h-5.961
				c-0.014,1.794,0.871,2.69,2.65,2.69c0.479,0,0.963-0.053,1.453-0.16c0.489-0.105,0.941-0.26,1.354-0.46l0.232,1.917
				c-0.517,0.207-1.068,0.361-1.654,0.465c-0.588,0.104-1.186,0.155-1.791,0.155c-1.537,0-2.713-0.394-3.533-1.183
				c-0.819-0.785-1.229-2.031-1.229-3.735c0-0.734,0.1-1.417,0.301-2.041c0.199-0.628,0.489-1.166,0.871-1.618
				c0.381-0.45,0.852-0.807,1.412-1.064c0.562-0.257,1.203-0.387,1.926-0.387c0.697,0,1.301,0.113,1.812,0.339
				c0.51,0.228,0.93,0.532,1.258,0.919c0.33,0.387,0.574,0.844,0.736,1.365C288.402,154.816,288.482,155.377,288.482,155.971z
				 M286.025,155.408c0.025-0.606-0.113-1.078-0.416-1.414c-0.305-0.335-0.721-0.502-1.25-0.502c-0.517,0-0.941,0.174-1.276,0.521
				c-0.336,0.351-0.535,0.812-0.601,1.395H286.025z"/>
		</g>
		
			<radialGradient id="SVGID_1_" cx="365.2451" cy="-288.8418" r="87.811" gradientTransform="matrix(1 0 0 -1 -284.5 -207)" gradientUnits="userSpaceOnUse">
			<stop  offset="0" style="stop-color:#BEE1C9"/>
			<stop  offset="0.3893" style="stop-color:#55988B"/>
			<stop  offset="0.6778" style="stop-color:#337B6E"/>
			<stop  offset="1" style="stop-color:#125F52"/>
		</radialGradient>
		<path fill="url(#SVGID_1_)" d="M121.238,100.418c0,33.48-27.14,60.619-60.618,60.619C27.138,161.037,0,133.898,0,100.418
			c0-33.48,27.138-60.617,60.62-60.617C94.099,39.801,121.238,66.938,121.238,100.418z"/>
		<path fill="#EC1C24" d="M167.16,124.466c-1.766-0.188-6.225-0.396-7.578-0.62V52.57H145.26l-3.824-0.024l-0.038,10.161l3.862,1.1
			v71.202c4.151,0.148,8.287,0.13,12.411-0.053h0.011l0,0c0.024-0.001,0.049-0.001,0.072-0.001
			c4.152-0.189,10.928-0.51,14.537-0.959v-9.023C170.639,124.822,168.927,124.65,167.16,124.466z"/>
		<path fill="#EC1C24" d="M186.414,124.544c1.574,0,2.908,0.556,3.995,1.668c1.09,1.112,1.636,2.456,1.636,4.031
			c0,1.577-0.546,2.921-1.636,4.032c-1.087,1.11-2.421,1.668-3.995,1.668c-1.576,0-2.921-0.558-4.032-1.668
			c-1.112-1.111-1.668-2.455-1.668-4.032c0-1.575,0.556-2.919,1.668-4.031C183.493,125.1,184.838,124.544,186.414,124.544z"/>
		<path fill="#EC1C24" d="M268.865,124.544c1.572,0,2.904,0.556,3.994,1.668s1.634,2.456,1.634,4.031
			c0,1.577-0.544,2.921-1.634,4.032c-1.09,1.11-2.422,1.668-3.994,1.668c-1.577,0-2.922-0.558-4.033-1.668
			c-1.111-1.111-1.669-2.455-1.669-4.032c0-1.575,0.558-2.919,1.669-4.031S267.288,124.544,268.865,124.544z"/>
		<path fill="#EC1C24" d="M245.307,123.949V97.284c0-1.34-0.08-2.599-0.219-3.81c-6.492-3.264-11.775-8.576-14.994-15.096
			c-2.289-0.373-4.898-0.562-7.845-0.562c-3.599,0-7.125,0.322-10.573,0.96c-3.449,0.642-6.602,1.485-9.451,2.539l1.24,12.066
			c2.405-1.355,5.133-2.426,8.178-3.215s5.844-1.185,8.4-1.185c4.061,0,6.898,0.751,8.516,2.255
			c1.616,1.504,2.426,3.723,2.426,6.655v3.046c-4.738,0-9.099,0.433-13.082,1.295c-3.988,0.865-7.407,2.164-10.264,3.891
			c-2.857,1.73-5.076,3.875-6.654,6.429c-1.578,2.56-2.367,5.526-2.367,8.912c0,4.509,1.39,8.099,4.171,10.771
			c2.78,2.67,6.726,4.002,11.838,4.002c4.208,0,7.909-1.01,11.104-3.02c3.189-2.012,5.467-4.613,6.819-7.804l0.111,0.112
			c-0.224,1.504-0.377,3.062-0.45,4.681c-0.075,1.617-0.113,3.252-0.113,4.907c3.657,0.146,7.508,0.129,11.547-0.059
			s7.864-0.508,11.474-0.961v-9.023c-1.655-0.148-3.366-0.319-5.134-0.508C248.218,124.381,246.659,124.173,245.307,123.949z
			 M230.982,111.643c0,1.715-0.282,3.379-0.846,4.98c-0.564,1.604-1.373,3.023-2.426,4.253c-1.054,1.229-2.312,2.238-3.777,3.022
			c-1.468,0.783-3.103,1.174-4.906,1.174c-2.104,0-3.74-0.541-4.905-1.624c-1.166-1.079-1.747-2.519-1.747-4.31
			c0-1.117,0.264-2.201,0.788-3.242c0.526-1.045,1.468-1.998,2.819-2.854c1.354-0.856,3.231-1.53,5.641-2.017
			c2.402-0.482,5.525-0.728,9.359-0.728V111.643z"/>
		
			<radialGradient id="SVGID_2_" cx="554.6338" cy="-261.2998" r="43.0813" gradientTransform="matrix(1 0 0 -1 -284.5 -207)" gradientUnits="userSpaceOnUse">
			<stop  offset="0" style="stop-color:#BEE1C9"/>
			<stop  offset="0.3893" style="stop-color:#55988B"/>
			<stop  offset="0.6778" style="stop-color:#337B6E"/>
			<stop  offset="1" style="stop-color:#125F52"/>
		</radialGradient>
		<path fill="url(#SVGID_2_)" d="M290,63.412c0,16.427-13.314,29.742-29.736,29.742c-16.43,0-29.742-13.315-29.742-29.742
			c0-16.425,13.312-29.738,29.742-29.738C276.686,33.674,290,46.987,290,63.412z"/>
		<g>
			<g>
				<path fill="#FFFFFF" d="M246.604,68.423v-3.278l3.121-2.489c0.734-0.587,1.369-1.108,1.905-1.56
					c0.535-0.452,0.978-0.867,1.324-1.245s0.599-0.735,0.756-1.072c0.157-0.336,0.235-0.692,0.235-1.07
					c0-0.694-0.23-1.261-0.692-1.702c-0.462-0.44-1.155-0.661-2.079-0.661c-0.674,0-1.355,0.121-2.049,0.362
					s-1.261,0.499-1.702,0.772l-0.567-3.383c0.735-0.334,1.545-0.604,2.428-0.812c0.883-0.207,1.828-0.312,2.836-0.312
					c2.061,0,3.619,0.456,4.68,1.368c1.062,0.912,1.592,2.122,1.592,3.631c0,1.174-0.347,2.243-1.039,3.207
					c-0.693,0.965-1.67,1.95-2.932,2.955l-2.301,1.823l-0.031,0.032c0.861-0.064,1.881-0.1,3.057-0.11
					c1.178-0.011,2.459-0.017,3.847-0.017v3.562L246.604,68.423L246.604,68.423z"/>
				<path fill="#FFFFFF" d="M276.641,60.183c0,1.342-0.23,2.543-0.691,3.602c-0.463,1.059-1.086,1.96-1.871,2.705
					c-0.786,0.744-1.699,1.311-2.736,1.698c-1.037,0.389-2.135,0.582-3.287,0.582c-1.091,0-2.117-0.147-3.082-0.44
					c-0.966-0.294-1.804-0.771-2.518-1.431c-0.712-0.661-1.278-1.511-1.698-2.549s-0.629-2.312-0.629-3.822
					c0-1.341,0.229-2.542,0.692-3.601c0.461-1.06,1.078-1.96,1.854-2.706c0.776-0.743,1.679-1.31,2.705-1.697
					c1.027-0.389,2.097-0.583,3.208-0.583c1.489,0,2.748,0.231,3.775,0.693c1.025,0.461,1.854,1.075,2.484,1.84
					c0.629,0.765,1.084,1.646,1.366,2.642C276.499,58.112,276.641,59.133,276.641,60.183z M272.639,60.262
					c0-1.45-0.348-2.637-1.041-3.562c-0.691-0.924-1.744-1.387-3.15-1.387c-0.588,0-1.145,0.11-1.67,0.331s-0.982,0.547-1.37,0.978
					c-0.39,0.431-0.699,0.95-0.931,1.559c-0.231,0.611-0.348,1.304-0.348,2.082c0,0.734,0.084,1.406,0.252,2.015
					c0.168,0.611,0.426,1.142,0.771,1.592c0.348,0.452,0.783,0.805,1.309,1.056c0.525,0.253,1.155,0.38,1.891,0.38
					c0.567,0,1.114-0.116,1.64-0.348c0.524-0.23,0.981-0.562,1.372-0.992c0.388-0.431,0.697-0.957,0.929-1.576
					C272.523,61.771,272.639,61.059,272.639,60.262z"/>
			</g>
			<g>
				<path fill="#F3F3BD" d="M251.971,75.625c-0.255,0.031-0.525,0.054-0.812,0.066c-0.286,0.015-0.56,0.016-0.818,0.005
					c0-0.118,0.005-0.233,0.009-0.348c0.006-0.114,0.017-0.225,0.032-0.33l-0.008-0.009c-0.097,0.226-0.257,0.409-0.483,0.551
					c-0.226,0.144-0.488,0.215-0.785,0.215c-0.361,0-0.642-0.095-0.838-0.282c-0.195-0.189-0.295-0.444-0.295-0.764
					c0-0.238,0.055-0.449,0.168-0.63c0.11-0.182,0.269-0.333,0.471-0.455c0.201-0.122,0.443-0.215,0.727-0.275
					c0.282-0.062,0.592-0.093,0.926-0.093v-0.214c0-0.209-0.057-0.364-0.172-0.472c-0.115-0.106-0.314-0.159-0.604-0.159
					c-0.18,0-0.379,0.027-0.594,0.084c-0.217,0.055-0.408,0.131-0.578,0.227l-0.09-0.854c0.203-0.073,0.426-0.134,0.67-0.178
					c0.244-0.047,0.494-0.068,0.748-0.068c0.318,0,0.584,0.03,0.793,0.092c0.209,0.061,0.377,0.15,0.502,0.271
					c0.123,0.118,0.211,0.264,0.262,0.434s0.076,0.363,0.076,0.581v1.888c0.096,0.016,0.207,0.03,0.33,0.043
					c0.125,0.013,0.246,0.026,0.363,0.035V75.625z M250.264,73.939c-0.271,0-0.492,0.018-0.662,0.051
					c-0.172,0.035-0.305,0.083-0.398,0.145c-0.098,0.061-0.164,0.127-0.201,0.2c-0.037,0.075-0.057,0.151-0.057,0.23
					c0,0.127,0.041,0.229,0.125,0.306c0.082,0.077,0.197,0.113,0.347,0.113c0.128,0,0.244-0.026,0.349-0.083
					c0.104-0.054,0.192-0.125,0.268-0.213c0.074-0.087,0.132-0.188,0.172-0.301c0.039-0.114,0.061-0.23,0.061-0.353v-0.095H250.264z
					"/>
				<path fill="#F3F3BD" d="M257.229,71.722c0,0.095-0.004,0.21-0.012,0.347c-0.008,0.136-0.021,0.257-0.045,0.363l0.01,0.009
					c0.121-0.241,0.297-0.434,0.521-0.58c0.227-0.146,0.502-0.219,0.826-0.219c0.224,0,0.41,0.032,0.562,0.1
					c0.152,0.066,0.273,0.157,0.364,0.274c0.089,0.117,0.154,0.253,0.193,0.404c0.041,0.15,0.062,0.314,0.062,0.491v2.785h-1.015
					v-2.539c0-0.207-0.034-0.369-0.104-0.487c-0.07-0.116-0.197-0.175-0.384-0.175c-0.128,0-0.249,0.034-0.362,0.104
					c-0.115,0.07-0.214,0.162-0.297,0.279c-0.082,0.117-0.146,0.254-0.193,0.407c-0.049,0.154-0.072,0.319-0.072,0.495v1.916h-1.014
					V72.51c-0.097-0.015-0.207-0.028-0.332-0.043c-0.125-0.013-0.246-0.025-0.362-0.035v-0.639c0.256-0.031,0.526-0.055,0.813-0.068
					C256.678,71.712,256.957,71.71,257.229,71.722z"/>
				<path fill="#F3F3BD" d="M267.945,73.637c0,0.314-0.049,0.602-0.146,0.862c-0.099,0.26-0.238,0.484-0.419,0.674
					s-0.396,0.336-0.644,0.443c-0.246,0.105-0.521,0.159-0.817,0.159c-0.282,0-0.537-0.037-0.767-0.112
					c-0.229-0.073-0.422-0.192-0.582-0.355c-0.159-0.161-0.283-0.369-0.371-0.621c-0.088-0.253-0.133-0.556-0.133-0.906
					c0-0.31,0.051-0.594,0.147-0.854c0.099-0.261,0.237-0.485,0.415-0.675c0.18-0.188,0.393-0.335,0.639-0.442
					c0.248-0.105,0.523-0.159,0.826-0.159c0.563,0,1.014,0.16,1.35,0.482C267.779,72.454,267.945,72.955,267.945,73.637z
					 M266.895,73.688c0-0.384-0.069-0.678-0.209-0.881c-0.139-0.203-0.358-0.305-0.662-0.305c-0.111,0-0.223,0.022-0.33,0.067
					c-0.109,0.046-0.207,0.116-0.293,0.212c-0.084,0.098-0.152,0.219-0.202,0.364c-0.052,0.148-0.076,0.323-0.076,0.525
					c0,0.822,0.295,1.234,0.886,1.234c0.256,0,0.469-0.102,0.635-0.305C266.811,74.399,266.895,74.095,266.895,73.688z"/>
				<path fill="#F3F3BD" d="M274.75,74.466c0,0.198-0.04,0.376-0.122,0.535s-0.198,0.297-0.354,0.412
					c-0.151,0.113-0.338,0.203-0.555,0.267c-0.218,0.063-0.462,0.096-0.732,0.096c-0.145,0-0.286-0.007-0.428-0.021
					c-0.142-0.013-0.274-0.03-0.402-0.052l0.023-0.837c0.122,0.031,0.256,0.06,0.403,0.083c0.146,0.023,0.296,0.035,0.45,0.035
					c0.195,0,0.354-0.036,0.472-0.111c0.116-0.074,0.175-0.178,0.175-0.311c0-0.117-0.039-0.209-0.119-0.271
					c-0.08-0.063-0.18-0.12-0.295-0.167c-0.117-0.048-0.246-0.097-0.388-0.145s-0.271-0.113-0.388-0.195
					c-0.116-0.083-0.215-0.193-0.295-0.332c-0.08-0.138-0.12-0.318-0.12-0.541c0-0.177,0.036-0.341,0.106-0.491
					c0.072-0.151,0.178-0.287,0.315-0.404c0.138-0.117,0.313-0.208,0.522-0.274c0.211-0.067,0.457-0.1,0.738-0.1
					c0.117,0,0.236,0.006,0.359,0.02c0.122,0.013,0.244,0.031,0.367,0.052l-0.032,0.806c-0.112-0.032-0.231-0.056-0.359-0.075
					s-0.253-0.028-0.375-0.028c-0.202,0-0.351,0.037-0.446,0.112c-0.097,0.073-0.145,0.172-0.145,0.295
					c0,0.106,0.04,0.191,0.119,0.255c0.08,0.064,0.181,0.121,0.302,0.172c0.122,0.05,0.252,0.103,0.39,0.156
					c0.138,0.053,0.268,0.122,0.39,0.207c0.122,0.086,0.223,0.195,0.303,0.332C274.711,74.079,274.75,74.253,274.75,74.466z"/>
			</g>
		</g>
		<g>
			<polygon fill="#929497" points="111.502,88.83 74.599,88.83 74.599,50.542 51.395,50.542 51.395,88.83 14.481,88.83 
				14.481,112.096 51.395,112.096 51.395,150.382 74.599,150.382 74.599,112.096 111.502,112.096 			"/>
			<polygon fill="#939598" points="111.472,88.868 74.556,88.868 74.556,50.568 51.406,50.568 51.406,88.868 14.482,88.868 
				14.482,112.079 51.406,112.079 51.406,150.377 74.556,150.377 74.556,112.079 111.472,112.079 			"/>
			<polygon fill="#949699" points="111.442,88.908 74.514,88.908 74.514,50.594 51.417,50.594 51.417,88.908 14.482,88.908 
				14.482,112.062 51.417,112.062 51.417,150.373 74.514,150.373 74.514,112.062 111.442,112.062 			"/>
			<polygon fill="#95979A" points="111.412,88.946 74.472,88.946 74.472,50.621 51.429,50.621 51.429,88.946 14.482,88.946 
				14.482,112.045 51.429,112.045 51.429,150.369 74.472,150.369 74.472,112.045 111.412,112.045 			"/>
			<polygon fill="#96989B" points="111.382,88.985 74.43,88.985 74.43,50.647 51.441,50.647 51.441,88.985 14.482,88.985 
				14.482,112.028 51.441,112.028 51.441,150.364 74.43,150.364 74.43,112.028 111.382,112.028 			"/>
			<polygon fill="#97999C" points="111.352,89.024 74.388,89.024 74.388,50.674 51.452,50.674 51.452,89.024 14.482,89.024 
				14.482,112.012 51.452,112.012 51.452,150.359 74.388,150.359 74.388,112.012 111.352,112.012 			"/>
			<polygon fill="#989A9D" points="111.321,89.062 74.345,89.062 74.345,50.7 51.464,50.7 51.464,89.062 14.482,89.062 
				14.482,111.994 51.464,111.994 51.464,150.355 74.345,150.355 74.345,111.994 111.321,111.994 			"/>
			<polygon fill="#999B9E" points="111.292,89.102 74.303,89.102 74.303,50.726 51.476,50.726 51.476,89.102 14.482,89.102 
				14.482,111.978 51.476,111.978 51.476,150.351 74.303,150.351 74.303,111.978 111.292,111.978 			"/>
			<polygon fill="#9A9C9F" points="111.262,89.14 74.262,89.14 74.262,50.752 51.487,50.752 51.487,89.14 14.482,89.14 
				14.482,111.96 51.487,111.96 51.487,150.347 74.262,150.347 74.262,111.96 111.262,111.96 			"/>
			<polygon fill="#9B9DA0" points="111.231,89.18 74.219,89.18 74.219,50.778 51.499,50.778 51.499,89.18 14.482,89.18 
				14.482,111.943 51.499,111.943 51.499,150.343 74.219,150.343 74.219,111.943 111.231,111.943 			"/>
			<polygon fill="#9C9EA0" points="111.202,89.218 74.177,89.218 74.177,50.805 51.51,50.805 51.51,89.218 14.482,89.218 
				14.482,111.927 51.51,111.927 51.51,150.338 74.177,150.338 74.177,111.927 111.202,111.927 			"/>
			<polygon fill="#9D9FA1" points="111.172,89.257 74.135,89.257 74.135,50.831 51.522,50.831 51.522,89.257 14.483,89.257 
				14.483,111.909 51.522,111.909 51.522,150.334 74.135,150.334 74.135,111.909 111.172,111.909 			"/>
			<polygon fill="#9EA0A2" points="111.142,89.296 74.093,89.296 74.093,50.858 51.533,50.858 51.533,89.296 14.483,89.296 
				14.483,111.893 51.533,111.893 51.533,150.329 74.093,150.329 74.093,111.893 111.142,111.893 			"/>
			<polygon fill="#9FA1A3" points="111.112,89.335 74.051,89.335 74.051,50.884 51.545,50.884 51.545,89.335 14.483,89.335 
				14.483,111.876 51.545,111.876 51.545,150.325 74.051,150.325 74.051,111.876 111.112,111.876 			"/>
			<polygon fill="#A0A2A4" points="111.082,89.374 74.009,89.374 74.009,50.91 51.557,50.91 51.557,89.374 14.483,89.374 
				14.483,111.859 51.557,111.859 51.557,150.32 74.009,150.32 74.009,111.859 111.082,111.859 			"/>
			<polygon fill="#A1A3A5" points="111.051,89.412 73.966,89.412 73.966,50.937 51.568,50.937 51.568,89.412 14.483,89.412 
				14.483,111.842 51.568,111.842 51.568,150.315 73.966,150.315 73.966,111.842 111.051,111.842 			"/>
			<polygon fill="#A2A4A6" points="111.021,89.452 73.924,89.452 73.924,50.963 51.58,50.963 51.58,89.452 14.483,89.452 
				14.483,111.825 51.58,111.825 51.58,150.312 73.924,150.312 73.924,111.825 111.021,111.825 			"/>
			<polygon fill="#A3A5A7" points="110.992,89.49 73.882,89.49 73.882,50.989 51.591,50.989 51.591,89.49 14.483,89.49 
				14.483,111.809 51.591,111.809 51.591,150.308 73.882,150.308 73.882,111.809 110.992,111.809 			"/>
			<polygon fill="#A4A6A8" points="110.961,89.529 73.839,89.529 73.839,51.015 51.603,51.015 51.603,89.529 14.483,89.529 
				14.483,111.791 51.603,111.791 51.603,150.303 73.839,150.303 73.839,111.791 110.961,111.791 			"/>
			<polygon fill="#A5A6A9" points="110.931,89.567 73.797,89.567 73.797,51.041 51.614,51.041 51.614,89.567 14.483,89.567 
				14.483,111.774 51.614,111.774 51.614,150.298 73.797,150.298 73.797,111.774 110.931,111.774 			"/>
			<polygon fill="#A6A7AA" points="110.901,89.607 73.755,89.607 73.755,51.068 51.626,51.068 51.626,89.607 14.484,89.607 
				14.484,111.757 51.626,111.757 51.626,150.294 73.755,150.294 73.755,111.757 110.901,111.757 			"/>
			<polygon fill="#A7A8AB" points="110.872,89.646 73.713,89.646 73.713,51.094 51.638,51.094 51.638,89.646 14.484,89.646 
				14.484,111.74 51.638,111.74 51.638,150.29 73.713,150.29 73.713,111.74 110.872,111.74 			"/>
			<polygon fill="#A8A9AC" points="110.842,89.685 73.671,89.685 73.671,51.121 51.649,51.121 51.649,89.685 14.484,89.685 
				14.484,111.724 51.649,111.724 51.649,150.285 73.671,150.285 73.671,111.724 110.842,111.724 			"/>
			<polygon fill="#A9AAAD" points="110.812,89.723 73.629,89.723 73.629,51.146 51.661,51.146 51.661,89.723 14.484,89.723 
				14.484,111.706 51.661,111.706 51.661,150.281 73.629,150.281 73.629,111.706 110.812,111.706 			"/>
			<polygon fill="#AAABAE" points="110.781,89.762 73.586,89.762 73.586,51.173 51.672,51.173 51.672,89.762 14.484,89.762 
				14.484,111.689 51.672,111.689 51.672,150.276 73.586,150.276 73.586,111.689 110.781,111.689 			"/>
			<polygon fill="#ABACAF" points="110.751,89.801 73.544,89.801 73.544,51.199 51.684,51.199 51.684,89.801 14.484,89.801 
				14.484,111.673 51.684,111.673 51.684,150.271 73.544,150.271 73.544,111.673 110.751,111.673 			"/>
			<polygon fill="#ACADB0" points="110.721,89.839 73.502,89.839 73.502,51.225 51.695,51.225 51.695,89.839 14.484,89.839 
				14.484,111.655 51.695,111.655 51.695,150.268 73.502,150.268 73.502,111.655 110.721,111.655 			"/>
			<polygon fill="#ADAEB1" points="110.691,89.879 73.46,89.879 73.46,51.252 51.707,51.252 51.707,89.879 14.484,89.879 
				14.484,111.639 51.707,111.639 51.707,150.264 73.46,150.264 73.46,111.639 110.691,111.639 			"/>
			<polygon fill="#AEAFB1" points="110.661,89.917 73.418,89.917 73.418,51.278 51.718,51.278 51.718,89.917 14.484,89.917 
				14.484,111.622 51.718,111.622 51.718,150.259 73.418,150.259 73.418,111.622 110.661,111.622 			"/>
			<polygon fill="#AFB0B2" points="110.631,89.956 73.376,89.956 73.376,51.305 51.73,51.305 51.73,89.956 14.485,89.956 
				14.485,111.605 51.73,111.605 51.73,150.254 73.376,150.254 73.376,111.605 110.631,111.605 			"/>
			<polygon fill="#B0B1B3" points="110.601,89.995 73.334,89.995 73.334,51.331 51.741,51.331 51.741,89.995 14.485,89.995 
				14.485,111.588 51.741,111.588 51.741,150.25 73.334,150.25 73.334,111.588 110.601,111.588 			"/>
			<polygon fill="#B1B2B4" points="110.57,90.034 73.292,90.034 73.292,51.357 51.753,51.357 51.753,90.034 14.485,90.034 
				14.485,111.571 51.753,111.571 51.753,150.246 73.292,150.246 73.292,111.571 110.57,111.571 			"/>
			<polygon fill="#B2B3B5" points="110.541,90.073 73.25,90.073 73.25,51.383 51.765,51.383 51.765,90.073 14.485,90.073 
				14.485,111.554 51.765,111.554 51.765,150.241 73.25,150.241 73.25,111.554 110.541,111.554 			"/>
			<polygon fill="#B3B4B6" points="110.511,90.111 73.207,90.111 73.207,51.409 51.776,51.409 51.776,90.111 14.485,90.111 
				14.485,111.537 51.776,111.537 51.776,150.237 73.207,150.237 73.207,111.537 110.511,111.537 			"/>
			<polygon fill="#B4B5B7" points="110.48,90.151 73.165,90.151 73.165,51.436 51.788,51.436 51.788,90.151 14.485,90.151 
				14.485,111.521 51.788,111.521 51.788,150.232 73.165,150.232 73.165,111.521 110.48,111.521 			"/>
			<polygon fill="#B5B6B8" points="110.451,90.189 73.123,90.189 73.123,51.462 51.8,51.462 51.8,90.189 14.485,90.189 
				14.485,111.504 51.8,111.504 51.8,150.229 73.123,150.229 73.123,111.504 110.451,111.504 			"/>
			<polygon fill="#B6B7B9" points="110.421,90.229 73.081,90.229 73.081,51.489 51.811,51.489 51.811,90.229 14.485,90.229 
				14.485,111.486 51.811,111.486 51.811,150.224 73.081,150.224 73.081,111.486 110.421,111.486 			"/>
			<polygon fill="#B7B8BA" points="110.391,90.267 73.039,90.267 73.039,51.515 51.823,51.515 51.823,90.267 14.485,90.267 
				14.485,111.47 51.823,111.47 51.823,150.22 73.039,150.22 73.039,111.47 110.391,111.47 			"/>
			<polygon fill="#B8B9BB" points="110.36,90.306 72.996,90.306 72.996,51.541 51.834,51.541 51.834,90.306 14.486,90.306 
				14.486,111.453 51.834,111.453 51.834,150.215 72.996,150.215 72.996,111.453 110.36,111.453 			"/>
			<polygon fill="#B9BABC" points="110.331,90.345 72.954,90.345 72.954,51.567 51.846,51.567 51.846,90.345 14.486,90.345 
				14.486,111.436 51.846,111.436 51.846,150.21 72.954,150.21 72.954,111.436 110.331,111.436 			"/>
			<polygon fill="#BABBBD" points="110.301,90.384 72.912,90.384 72.912,51.594 51.857,51.594 51.857,90.384 14.486,90.384 
				14.486,111.419 51.857,111.419 51.857,150.206 72.912,150.206 72.912,111.419 110.301,111.419 			"/>
			<polygon fill="#BBBCBE" points="110.271,90.423 72.87,90.423 72.87,51.62 51.869,51.62 51.869,90.423 14.486,90.423 
				14.486,111.401 51.869,111.401 51.869,150.201 72.87,150.201 72.87,111.401 110.271,111.401 			"/>
			<polygon fill="#BCBDBF" points="110.24,90.461 72.828,90.461 72.828,51.646 51.88,51.646 51.88,90.461 14.486,90.461 
				14.486,111.385 51.88,111.385 51.88,150.197 72.828,150.197 72.828,111.385 110.24,111.385 			"/>
			<polygon fill="#BDBEC0" points="110.21,90.5 72.785,90.5 72.785,51.673 51.892,51.673 51.892,90.5 14.486,90.5 14.486,111.368 
				51.892,111.368 51.892,150.192 72.785,150.192 72.785,111.368 110.21,111.368 			"/>
			<polygon fill="#BEBFC1" points="110.181,90.539 72.743,90.539 72.743,51.699 51.903,51.699 51.903,90.539 14.487,90.539 
				14.487,111.352 51.903,111.352 51.903,150.188 72.743,150.188 72.743,111.352 110.181,111.352 			"/>
			<polygon fill="#BFC0C2" points="110.15,90.578 72.702,90.578 72.702,51.726 51.915,51.726 51.915,90.578 14.487,90.578 
				14.487,111.334 51.915,111.334 51.915,150.184 72.702,150.184 72.702,111.334 110.15,111.334 			"/>
			<polygon fill="#C0C1C2" points="110.12,90.617 72.659,90.617 72.659,51.751 51.927,51.751 51.927,90.617 14.486,90.617 
				14.486,111.317 51.927,111.317 51.927,150.18 72.659,150.18 72.659,111.317 110.12,111.317 			"/>
			<polygon fill="#C1C2C3" points="110.09,90.655 72.617,90.655 72.617,51.777 51.938,51.777 51.938,90.655 14.487,90.655 
				14.487,111.301 51.938,111.301 51.938,150.176 72.617,150.176 72.617,111.301 110.09,111.301 			"/>
			<polygon fill="#C2C3C4" points="110.061,90.695 72.575,90.695 72.575,51.804 51.95,51.804 51.95,90.695 14.487,90.695 
				14.487,111.283 51.95,111.283 51.95,150.171 72.575,150.171 72.575,111.283 110.061,111.283 			"/>
			<polygon fill="#C3C4C5" points="110.03,90.733 72.533,90.733 72.533,51.83 51.961,51.83 51.961,90.733 14.487,90.733 
				14.487,111.267 51.961,111.267 51.961,150.166 72.533,150.166 72.533,111.267 110.03,111.267 			"/>
			<polygon fill="#C4C5C6" points="110,90.772 72.491,90.772 72.491,51.856 51.973,51.856 51.973,90.772 14.487,90.772 
				14.487,111.25 51.973,111.25 51.973,150.162 72.491,150.162 72.491,111.25 110,111.25 			"/>
			<polygon fill="#C5C6C7" points="109.97,90.811 72.448,90.811 72.448,51.883 51.984,51.883 51.984,90.811 14.487,90.811 
				14.487,111.232 51.984,111.232 51.984,150.158 72.448,150.158 72.448,111.232 109.97,111.232 			"/>
			<polygon fill="#C6C7C8" points="109.94,90.85 72.406,90.85 72.406,51.909 51.996,51.909 51.996,90.85 14.487,90.85 
				14.487,111.216 51.996,111.216 51.996,150.153 72.406,150.153 72.406,111.216 109.94,111.216 			"/>
			<polygon fill="#C7C8C9" points="109.91,90.889 72.364,90.889 72.364,51.936 52.008,51.936 52.008,90.889 14.487,90.889 
				14.487,111.199 52.008,111.199 52.008,150.148 72.364,150.148 72.364,111.199 109.91,111.199 			"/>
			<polygon fill="#C8C9CA" points="109.88,90.928 72.322,90.928 72.322,51.962 52.02,51.962 52.02,90.928 14.488,90.928 
				14.488,111.182 52.02,111.182 52.02,150.145 72.322,150.145 72.322,111.182 109.88,111.182 			"/>
			<polygon fill="#C9CACB" points="109.85,90.967 72.28,90.967 72.28,51.988 52.031,51.988 52.031,90.967 14.488,90.967 
				14.488,111.165 52.031,111.165 52.031,150.141 72.28,150.141 72.28,111.165 109.85,111.165 			"/>
			<polygon fill="#C9CACC" points="109.82,91.005 72.238,91.005 72.238,52.014 52.042,52.014 52.042,91.005 14.488,91.005 
				14.488,111.148 52.042,111.148 52.042,150.136 72.238,150.136 72.238,111.148 109.82,111.148 			"/>
			<polygon fill="#CACBCD" points="109.79,91.044 72.195,91.044 72.195,52.041 52.054,52.041 52.054,91.044 14.488,91.044 
				14.488,111.131 52.054,111.131 52.054,150.131 72.195,150.131 72.195,111.131 109.79,111.131 			"/>
			<polygon fill="#CBCCCE" points="109.76,91.083 72.153,91.083 72.153,52.067 52.065,52.067 52.065,91.083 14.488,91.083 
				14.488,111.114 52.065,111.114 52.065,150.127 72.153,150.127 72.153,111.114 109.76,111.114 			"/>
			<polygon fill="#CCCDCF" points="109.73,91.122 72.111,91.122 72.111,52.093 52.077,52.093 52.077,91.122 14.488,91.122 
				14.488,111.098 52.077,111.098 52.077,150.123 72.111,150.123 72.111,111.098 109.73,111.098 			"/>
			<polygon fill="#CDCED0" points="109.7,91.161 72.069,91.161 72.069,52.119 52.089,52.119 52.089,91.161 14.488,91.161 
				14.488,111.08 52.089,111.08 52.089,150.118 72.069,150.118 72.069,111.08 109.7,111.08 			"/>
			<polygon fill="#CECFD1" points="109.67,91.2 72.027,91.2 72.027,52.146 52.101,52.146 52.101,91.2 14.488,91.2 14.488,111.063 
				52.101,111.063 52.101,150.113 72.027,150.113 72.027,111.063 109.67,111.063 			"/>
			<polygon fill="#CFD0D2" points="109.64,91.238 71.984,91.238 71.984,52.172 52.111,52.172 52.111,91.238 14.488,91.238 
				14.488,111.047 52.111,111.047 52.111,150.109 71.984,150.109 71.984,111.047 109.64,111.047 			"/>
			<polygon fill="#D0D1D3" points="109.61,91.277 71.942,91.277 71.942,52.198 52.123,52.198 52.123,91.277 14.488,91.277 
				14.488,111.029 52.123,111.029 52.123,150.105 71.942,150.105 71.942,111.029 109.61,111.029 			"/>
			<polygon fill="#D1D2D4" points="109.58,91.316 71.9,91.316 71.9,52.225 52.135,52.225 52.135,91.316 14.489,91.316 
				14.489,111.013 52.135,111.013 52.135,150.101 71.9,150.101 71.9,111.013 109.58,111.013 			"/>
			<polygon fill="#D2D3D4" points="109.55,91.355 71.858,91.355 71.858,52.251 52.146,52.251 52.146,91.355 14.489,91.355 
				14.489,110.996 52.146,110.996 52.146,150.096 71.858,150.096 71.858,110.996 109.55,110.996 			"/>
			<polygon fill="#D3D4D5" points="109.52,91.394 71.816,91.394 71.816,52.277 52.158,52.277 52.158,91.394 14.489,91.394 
				14.489,110.979 52.158,110.979 52.158,150.092 71.816,150.092 71.816,110.979 109.52,110.979 			"/>
			<polygon fill="#D4D5D6" points="109.49,91.433 71.773,91.433 71.773,52.304 52.169,52.304 52.169,91.433 14.489,91.433 
				14.489,110.962 52.169,110.962 52.169,150.088 71.773,150.088 71.773,110.962 109.49,110.962 			"/>
			<polygon fill="#D5D6D7" points="109.46,91.472 71.732,91.472 71.732,52.33 52.181,52.33 52.181,91.472 14.489,91.472 
				14.489,110.945 52.181,110.945 52.181,150.083 71.732,150.083 71.732,110.945 109.46,110.945 			"/>
			<polygon fill="#D6D7D8" points="109.43,91.511 71.689,91.511 71.689,52.356 52.193,52.356 52.193,91.511 14.489,91.511 
				14.489,110.928 52.193,110.928 52.193,150.078 71.689,150.078 71.689,110.928 109.43,110.928 			"/>
			<polygon fill="#D7D8D9" points="109.4,91.549 71.647,91.549 71.647,52.382 52.204,52.382 52.204,91.549 14.49,91.549 
				14.49,110.911 52.204,110.911 52.204,150.074 71.647,150.074 71.647,110.911 109.4,110.911 			"/>
			<polygon fill="#D8D9DA" points="109.369,91.588 71.605,91.588 71.605,52.409 52.216,52.409 52.216,91.588 14.489,91.588 
				14.489,110.895 52.216,110.895 52.216,150.069 71.605,150.069 71.605,110.895 109.369,110.895 			"/>
			<polygon fill="#D9DADB" points="109.34,91.627 71.563,91.627 71.563,52.435 52.228,52.435 52.228,91.627 14.489,91.627 
				14.489,110.877 52.228,110.877 52.228,150.065 71.563,150.065 71.563,110.877 109.34,110.877 			"/>
			<polygon fill="#DADBDC" points="109.31,91.666 71.521,91.666 71.521,52.461 52.239,52.461 52.239,91.666 14.49,91.666 
				14.49,110.86 52.239,110.86 52.239,150.061 71.521,150.061 71.521,110.86 109.31,110.86 			"/>
			<polygon fill="#DBDCDD" points="109.279,91.705 71.479,91.705 71.479,52.487 52.251,52.487 52.251,91.705 14.49,91.705 
				14.49,110.844 52.251,110.844 52.251,150.057 71.479,150.057 71.479,110.844 109.279,110.844 			"/>
			<polygon fill="#DCDDDE" points="109.249,91.744 71.437,91.744 71.437,52.514 52.262,52.514 52.262,91.744 14.49,91.744 
				14.49,110.826 52.262,110.826 52.262,150.053 71.437,150.053 71.437,110.826 109.249,110.826 			"/>
			<polygon fill="#DDDEDF" points="109.22,91.782 71.395,91.782 71.395,52.54 52.273,52.54 52.273,91.782 14.49,91.782 
				14.49,110.81 52.273,110.81 52.273,150.048 71.395,150.048 71.395,110.81 109.22,110.81 			"/>
			<polygon fill="#DEDFE0" points="109.189,91.821 71.352,91.821 71.352,52.566 52.285,52.566 52.285,91.821 14.49,91.821 
				14.49,110.793 52.285,110.793 52.285,150.044 71.352,150.044 71.352,110.793 109.189,110.793 			"/>
			<polygon fill="#DFE0E1" points="109.159,91.86 71.311,91.86 71.311,52.593 52.297,52.593 52.297,91.86 14.49,91.86 
				14.49,110.775 52.297,110.775 52.297,150.039 71.311,150.039 71.311,110.775 109.159,110.775 			"/>
			<polygon fill="#E0E1E2" points="109.129,91.899 71.268,91.899 71.268,52.619 52.309,52.619 52.309,91.899 14.491,91.899 
				14.491,110.759 52.309,110.759 52.309,150.035 71.268,150.035 71.268,110.759 109.129,110.759 			"/>
			<polygon fill="#E1E2E3" points="109.1,91.938 71.226,91.938 71.226,52.645 52.32,52.645 52.32,91.938 14.491,91.938 
				14.491,110.742 52.32,110.742 52.32,150.03 71.226,150.03 71.226,110.742 109.1,110.742 			"/>
			<polygon fill="#E2E3E4" points="109.069,91.977 71.184,91.977 71.184,52.672 52.332,52.672 52.332,91.977 14.491,91.977 
				14.491,110.725 52.332,110.725 52.332,150.025 71.184,150.025 71.184,110.725 109.069,110.725 			"/>
			<polygon fill="#E3E4E5" points="109.039,92.016 71.142,92.016 71.142,52.698 52.343,52.698 52.343,92.016 14.491,92.016 
				14.491,110.708 52.343,110.708 52.343,150.021 71.142,150.021 71.142,110.708 109.039,110.708 			"/>
			<polygon fill="#E4E5E5" points="109.009,92.055 71.1,92.055 71.1,52.725 52.354,52.725 52.354,92.055 14.491,92.055 
				14.491,110.691 52.354,110.691 52.354,150.018 71.1,150.018 71.1,110.691 109.009,110.691 			"/>
			<polygon fill="#E5E6E6" points="108.979,92.093 71.057,92.093 71.057,52.75 52.366,52.75 52.366,92.093 14.491,92.093 
				14.491,110.675 52.366,110.675 52.366,150.013 71.057,150.013 71.057,110.675 108.979,110.675 			"/>
			<polygon fill="#E6E7E7" points="108.949,92.132 71.015,92.132 71.015,52.777 52.378,52.777 52.378,92.132 14.491,92.132 
				14.491,110.657 52.378,110.657 52.378,150.008 71.015,150.008 71.015,110.657 108.949,110.657 			"/>
			<polygon fill="#E7E8E8" points="108.919,92.171 70.973,92.171 70.973,52.803 52.389,52.803 52.389,92.171 14.491,92.171 
				14.491,110.641 52.389,110.641 52.389,150.004 70.973,150.004 70.973,110.641 108.919,110.641 			"/>
			<polygon fill="#E8E9E9" points="108.889,92.21 70.931,92.21 70.931,52.829 52.401,52.829 52.401,92.21 14.491,92.21 
				14.491,110.624 52.401,110.624 52.401,150 70.931,150 70.931,110.624 108.889,110.624 			"/>
			<polygon fill="#E9EAEA" points="108.859,92.249 70.889,92.249 70.889,52.855 52.412,52.855 52.412,92.249 14.492,92.249 
				14.492,110.606 52.412,110.606 52.412,149.995 70.889,149.995 70.889,110.606 108.859,110.606 			"/>
			<polygon fill="#EAEBEB" points="108.829,92.288 70.846,92.288 70.846,52.882 52.424,52.882 52.424,92.288 14.492,92.288 
				14.492,110.59 52.424,110.59 52.424,149.99 70.846,149.99 70.846,110.59 108.829,110.59 			"/>
			<polygon fill="#EBECEC" points="108.799,92.326 70.804,92.326 70.804,52.908 52.436,52.908 52.436,92.326 14.492,92.326 
				14.492,110.572 52.436,110.572 52.436,149.986 70.804,149.986 70.804,110.572 108.799,110.572 			"/>
			<polygon fill="#ECEDED" points="108.769,92.365 70.762,92.365 70.762,52.935 52.447,52.935 52.447,92.365 14.492,92.365 
				14.492,110.557 52.447,110.557 52.447,149.982 70.762,149.982 70.762,110.557 108.769,110.557 			"/>
			<polygon fill="#EDEDEE" points="108.739,92.404 70.72,92.404 70.72,52.961 52.459,52.961 52.459,92.404 14.492,92.404 
				14.492,110.539 52.459,110.539 52.459,149.978 70.72,149.978 70.72,110.539 108.739,110.539 			"/>
			<polygon fill="#EEEEEF" points="108.708,92.443 70.678,92.443 70.678,52.987 52.47,52.987 52.47,92.443 14.492,92.443 
				14.492,110.522 52.47,110.522 52.47,149.973 70.678,149.973 70.678,110.522 108.708,110.522 			"/>
			<polygon fill="#EFEFF0" points="108.679,92.481 70.635,92.481 70.635,53.013 52.482,53.013 52.482,92.481 14.492,92.481 
				14.492,110.505 52.482,110.505 52.482,149.969 70.635,149.969 70.635,110.505 108.679,110.505 			"/>
			<polygon fill="#F0F0F1" points="108.648,92.521 70.593,92.521 70.593,53.04 52.494,53.04 52.494,92.521 14.492,92.521 
				14.492,110.488 52.494,110.488 52.494,149.964 70.593,149.964 70.593,110.488 108.648,110.488 			"/>
			<polygon fill="#F1F1F2" points="108.619,92.56 70.551,92.56 70.551,53.066 52.505,53.066 52.505,92.56 14.492,92.56 
				14.492,110.472 52.505,110.472 52.505,149.96 70.551,149.96 70.551,110.472 108.619,110.472 			"/>
			<polygon fill="#F2F2F3" points="108.588,92.598 70.509,92.598 70.509,53.092 52.517,53.092 52.517,92.598 14.493,92.598 
				14.493,110.454 52.517,110.454 52.517,149.956 70.509,149.956 70.509,110.454 108.588,110.454 			"/>
			<polygon fill="#F3F3F4" points="108.559,92.638 70.467,92.638 70.467,53.118 52.528,53.118 52.528,92.638 14.493,92.638 
				14.493,110.438 52.528,110.438 52.528,149.951 70.467,149.951 70.467,110.438 108.559,110.438 			"/>
			<polygon fill="#F4F4F5" points="108.528,92.676 70.424,92.676 70.424,53.145 52.54,53.145 52.54,92.676 14.493,92.676 
				14.493,110.42 52.54,110.42 52.54,149.946 70.424,149.946 70.424,110.42 108.528,110.42 			"/>
			<polygon fill="#F5F5F6" points="108.499,92.715 70.383,92.715 70.383,53.171 52.551,53.171 52.551,92.715 14.493,92.715 
				14.493,110.403 52.551,110.403 52.551,149.942 70.383,149.942 70.383,110.403 108.499,110.403 			"/>
			<polygon fill="#F6F6F6" points="108.468,92.754 70.341,92.754 70.341,53.198 52.562,53.198 52.562,92.754 14.493,92.754 
				14.493,110.387 52.562,110.387 52.562,149.938 70.341,149.938 70.341,110.387 108.468,110.387 			"/>
			<polygon fill="#F7F7F7" points="108.438,92.793 70.298,92.793 70.298,53.224 52.574,53.224 52.574,92.793 14.493,92.793 
				14.493,110.37 52.574,110.37 52.574,149.934 70.298,149.934 70.298,110.37 108.438,110.37 			"/>
			<polygon fill="#F8F8F8" points="108.408,92.832 70.256,92.832 70.256,53.25 52.586,53.25 52.586,92.832 14.494,92.832 
				14.494,110.353 52.586,110.353 52.586,149.93 70.256,149.93 70.256,110.353 108.408,110.353 			"/>
			<polygon fill="#F9F9F9" points="108.378,92.87 70.214,92.87 70.214,53.276 52.598,53.276 52.598,92.87 14.494,92.87 
				14.494,110.336 52.598,110.336 52.598,149.925 70.214,149.925 70.214,110.336 108.378,110.336 			"/>
			<polygon fill="#FAFAFA" points="108.348,92.91 70.172,92.91 70.172,53.302 52.609,53.302 52.609,92.91 14.493,92.91 
				14.493,110.319 52.609,110.319 52.609,149.92 70.172,149.92 70.172,110.319 108.348,110.319 			"/>
			<polygon fill="#FBFBFB" points="108.318,92.948 70.13,92.948 70.13,53.329 52.621,53.329 52.621,92.948 14.494,92.948 
				14.494,110.302 52.621,110.302 52.621,149.916 70.13,149.916 70.13,110.302 108.318,110.302 			"/>
			<polygon fill="#FCFCFC" points="108.288,92.987 70.087,92.987 70.087,53.355 52.632,53.355 52.632,92.987 14.494,92.987 
				14.494,110.285 52.632,110.285 52.632,149.912 70.087,149.912 70.087,110.285 108.288,110.285 			"/>
			<polygon fill="#FDFDFD" points="108.258,93.025 70.045,93.025 70.045,53.382 52.644,53.382 52.644,93.025 14.494,93.025 
				14.494,110.269 52.644,110.269 52.644,149.907 70.045,149.907 70.045,110.269 108.258,110.269 			"/>
			<polygon fill="#FEFEFE" points="108.228,93.065 70.003,93.065 70.003,53.408 52.655,53.408 52.655,93.065 14.494,93.065 
				14.494,110.251 52.655,110.251 52.655,149.902 70.003,149.902 70.003,110.251 108.228,110.251 			"/>
			<polygon fill="#FFFFFF" points="108.198,93.104 69.961,93.104 69.961,53.434 52.667,53.434 52.667,93.104 14.494,93.104 
				14.494,110.234 52.667,110.234 52.667,149.898 69.961,149.898 69.961,110.234 108.198,110.234 			"/>
		</g>
	</g>
</g>
<g id="Bronze">
</g>
<g id="Supporters">
</g>
<g id="Advisor">
</g>
<g id="Producer">
</g>
<g id="Organizers">
</g>
</svg>
