<?xml version="1.0" encoding="utf-8"?>
<!-- Generator: Adobe Illustrator 16.0.0, SVG Export Plug-In . SVG Version: 6.00 Build 0)  -->
<!DOCTYPE svg PUBLIC "-//W3C//DTD SVG 1.1//EN" "http://www.w3.org/Graphics/SVG/1.1/DTD/svg11.dtd">
<svg version="1.1" xmlns="http://www.w3.org/2000/svg" xmlns:xlink="http://www.w3.org/1999/xlink" x="0px" y="0px" width="200px"
	 height="200px" viewBox="0 0 200 200" enable-background="new 0 0 200 200" xml:space="preserve">
<g id="Gold">
</g>
<g id="Supporters">
</g>
<g id="Advisor">
</g>
<g id="Producer">
</g>
<g id="Organizers">
	<g id="Eventick">
		<g>
			<path fill="#231F20" d="M24.85,97.106h-2.921v12.929h5.244v-5.645h4.21v9.806H15.039v-4.161h2.124V81.102H15V76.94h16.06v9.604
				h-4.208v-5.443h-4.922V92.95h2.921v-2.765h4.53v9.483h-4.53V97.106z"/>
			<path fill="#231F20" d="M44.792,81.102h-2.12l3.843,21.368h0.36l3.806-21.368h-2.083V76.94h9.131v4.162h-2.362l-6.007,33.095
				h-5.325l-5.969-33.095h-2.361V76.94h9.088V81.102z"/>
			<path fill="#231F20" d="M72.107,97.106H69.18v12.929h5.249v-5.645h4.203v9.806H62.295v-4.161h2.123V81.102h-2.161V76.94h16.055
				v9.604h-4.205v-5.443H69.18V92.95h2.927v-2.765h4.524v9.483h-4.524V97.106z"/>
			<path fill="#231F20" d="M90.607,76.94l6.729,21.73V81.102h-2.566V76.94h9.453v4.162h-2.118v33.095h-4.769l-7.449-24.047v19.886
				h2.2v4.161h-9.131v-4.161h2.208V81.102h-2.208V76.94H90.607z"/>
			<path fill="#231F20" d="M113.597,110.035h2.201V81.102h-3.446v5.443h-4.202V76.94h20.023v9.604h-4.208v-5.443h-3.437v28.934
				h2.557v4.161h-9.489V110.035z"/>
			<path fill="#231F20" d="M131.815,110.035h2.203V81.102h-2.203V76.94h9.133v4.162h-2.206v28.934h2.206v4.161h-9.133V110.035z"/>
			<path fill="#231F20" d="M149.079,114.196l-3.646-4.161V81.102l3.646-4.162h8.368l3.444,4.162v5.443h-4.769v-5.443h-6.004v28.934
				h6.004v-5.645h4.769v5.645l-3.444,4.161H149.079z"/>
			<path fill="#231F20" d="M174.707,95.948l-2.884,5.961v8.126h2.204v4.161h-9.134v-4.161h2.202V81.102h-2.202V76.94h9.134v4.162
				h-2.204v11.924l5.768-11.924h-2.123V76.94h8.209v4.162h-1.718l-4.089,8.363l5.326,20.57H185v4.161h-5.528L174.707,95.948z"/>
		</g>
		
			<radialGradient id="SVGID_1_" cx="1286.9561" cy="90.729" r="2.3906" fx="1286.8536" fy="90.7114" gradientTransform="matrix(3.474 0 0 3.4712 -4331.7505 -250.873)" gradientUnits="userSpaceOnUse">
			<stop  offset="0" style="stop-color:#F7981D"/>
			<stop  offset="0.2549" style="stop-color:#F89E1A"/>
			<stop  offset="0.596" style="stop-color:#FBAF12"/>
			<stop  offset="0.9845" style="stop-color:#FFCB06"/>
			<stop  offset="1" style="stop-color:#FFCC05"/>
		</radialGradient>
		<polygon fill="url(#SVGID_1_)" stroke="#F7991C" stroke-width="0.75" stroke-miterlimit="10" points="140.981,68.844 
			136.651,66.348 132.362,68.863 133.173,63.581 129.718,59.848 134.495,59.082 136.645,54.286 138.848,59.038 143.646,59.848 
			140.149,63.536 		"/>
	</g>
</g>
</svg>
