<?xml version="1.0" encoding="utf-8"?>
<!-- Generator: Adobe Illustrator 16.0.0, SVG Export Plug-In . SVG Version: 6.00 Build 0)  -->
<!DOCTYPE svg PUBLIC "-//W3C//DTD SVG 1.1//EN" "http://www.w3.org/Graphics/SVG/1.1/DTD/svg11.dtd">
<svg version="1.1" xmlns="http://www.w3.org/2000/svg" xmlns:xlink="http://www.w3.org/1999/xlink" x="0px" y="0px" width="200px"
	 height="200px" viewBox="0 0 200 200" enable-background="new 0 0 200 200" xml:space="preserve">
<g id="Gold">
</g>
<g id="Supporters">
</g>
<g id="Advisor">
	<g id="ToughtWorks">
		<path d="M78.334,111.168c-0.732-0.108-1.46-0.212-2.191-0.327c-1.187-0.189-2.327-0.514-3.347-1.184
			c-0.766-0.505-1.335-1.169-1.608-2.057c-0.423-1.396-0.05-2.495,1.12-3.374c0.175-0.13,0.349-0.253,0.529-0.383
			c-1.939-2.375-1.743-3.572,0.978-5.931c-0.238-0.29-0.49-0.574-0.722-0.873c-3.094-4.021-0.954-9.316,4.11-10.204
			c1.984-0.347,3.87-0.106,5.654,0.822c0.393,0.203,0.643,0.17,0.946-0.113c1.163-1.08,2.552-1.23,4.12-0.959
			c0,1.087,0,2.176,0,3.263c-1.785-0.294-1.785-0.294-2.645,0.131c0.113,0.263,0.232,0.532,0.347,0.8
			c1.271,2.97,0.175,6.074-2.688,7.585c-1.435,0.755-2.97,1.045-4.585,0.907c-0.358-0.028-0.72-0.092-1.078-0.08
			c-0.268,0.009-0.607,0.022-0.79,0.181c-0.266,0.229-0.564,0.592-0.57,0.902c-0.003,0.218,0.432,0.597,0.706,0.646
			c0.845,0.141,1.71,0.176,2.565,0.222c1.553,0.074,3.105,0.106,4.654,0.201c0.464,0.028,0.928,0.16,1.376,0.296
			c1.543,0.456,2.702,1.318,2.993,3.001c0.306,1.764-0.106,3.317-1.49,4.521c-1.148,1.002-2.551,1.424-4.021,1.671
			c-0.785,0.133-1.575,0.228-2.359,0.342C79.666,111.168,79.002,111.168,78.334,111.168z M81.508,92.99
			c-0.042-0.428-0.045-0.794-0.125-1.143c-0.288-1.294-1.144-2.011-2.379-2.035c-1.285-0.024-2.204,0.671-2.465,2.014
			c-0.135,0.693-0.159,1.44-0.066,2.14c0.184,1.371,1.108,2.145,2.428,2.176c1.21,0.027,2.103-0.692,2.419-1.984
			C81.424,93.758,81.458,93.338,81.508,92.99z M79.284,105.344c0,0.006,0,0.011-0.001,0.014c-1.052-0.068-2.101-0.117-3.15-0.209
			c-0.518-0.038-0.873,0.16-1.072,0.605c-0.209,0.479-0.12,0.971,0.298,1.278c0.368,0.271,0.807,0.509,1.245,0.615
			c2.14,0.511,4.281,0.41,6.41-0.121c0.239-0.058,0.479-0.144,0.692-0.262c0.374-0.209,0.718-0.474,0.639-0.971
			c-0.079-0.52-0.49-0.62-0.925-0.651C82.043,105.545,80.665,105.447,79.284,105.344z M90.166,80.003
			c-0.052,0.321-0.153,0.644-0.153,0.965c-0.009,7.718-0.007,15.433-0.007,23.146c0,0.293,0,0.592,0,0.907c1.653,0,3.19,0,4.791,0
			c0-0.367,0-0.669,0-0.974c0-3.61-0.001-7.217,0.009-10.823c0-0.291,0.014-0.663,0.177-0.858c0.751-0.878,1.622-1.599,2.813-1.8
			c0.978-0.166,1.782,0.286,2.053,1.252c0.157,0.581,0.222,1.201,0.223,1.807c0.022,3.498,0.014,6.991,0.014,10.489
			c0,0.296,0,0.598,0,0.913c1.644,0,3.181,0,4.74,0c0.019-0.25,0.047-0.439,0.047-0.632c0.003-4.136,0.015-8.272-0.009-12.407
			c-0.004-0.602-0.095-1.224-0.247-1.808c-0.649-2.498-2.837-3.866-5.391-3.431c-1.34,0.227-2.534,0.781-3.637,1.554
			c-0.219,0.152-0.441,0.299-0.789,0.529c0-0.409,0-0.676,0-0.946c0-2.304,0.006-4.606-0.006-6.912c0-0.323-0.081-0.647-0.122-0.975
			C93.166,80.003,91.666,80.003,90.166,80.003z M140.333,80.003c-0.157,0.435-0.364,0.858-0.462,1.307
			c-1.302,5.954-2.589,11.911-3.885,17.867c-0.05,0.232-0.135,0.454-0.331,0.684c-0.268-1.235-0.533-2.473-0.794-3.713
			c-1.073-5.072-2.14-10.142-3.221-15.211c-0.064-0.319-0.205-0.625-0.307-0.936c-0.665,0-1.333,0-1.999,0
			c-0.415,0.085-0.454,0.409-0.528,0.747c-0.979,4.41-1.97,8.817-2.951,13.227c-0.394,1.761-0.781,3.519-1.172,5.276
			c-0.049,0.207-0.126,0.408-0.309,0.609c-0.166-0.799-0.337-1.597-0.499-2.398c-1.122-5.514-2.24-11.028-3.368-16.542
			c-0.064-0.315-0.222-0.611-0.339-0.917c-0.725,0-1.445,0-2.167,0c-0.017,0.288-0.091,0.592-0.038,0.864
			c0.923,4.486,1.863,8.97,2.805,13.455c0.705,3.369,1.409,6.735,2.119,10.104c0.059,0.288,0.037,0.652,0.482,0.652
			c0.744,0.006,1.486,0.003,2.255,0.003c1.477-6.753,2.934-13.415,4.388-20.076c0.052,0,0.11,0,0.162-0.003
			c1.386,6.669,2.77,13.341,4.156,20.024c0.919,0,1.763,0,2.58,0c0.049-0.109,0.084-0.158,0.095-0.212
			c1.833-8.002,3.667-16.005,5.488-24.015c0.058-0.252,0.006-0.531,0.006-0.798C141.778,80.003,141.057,80.003,140.333,80.003z
			 M20,80.003c-0.014,0.248-0.037,0.497-0.037,0.746c-0.001,7.858-0.001,15.714,0,23.572c0,0.238,0.04,0.471,0.058,0.703
			c1.594,0,3.105,0,4.701,0c0-0.355,0-0.66,0-0.959c0-3.61-0.004-7.219,0.006-10.829c0-0.296-0.013-0.681,0.154-0.867
			c0.759-0.857,1.622-1.602,2.816-1.8c1.025-0.168,1.844,0.305,2.096,1.309c0.147,0.584,0.202,1.205,0.205,1.811
			c0.017,3.469,0.008,6.938,0.008,10.411c0,0.299,0,0.595,0,0.911c1.652,0,3.209,0,4.777,0c0.017-0.185,0.032-0.293,0.032-0.402
			c0-4.165,0.006-8.329-0.007-12.497c-0.001-0.522-0.073-1.051-0.175-1.566c-0.526-2.707-2.814-4.255-5.526-3.791
			c-1.403,0.24-2.623,0.858-3.771,1.661c-0.169,0.115-0.344,0.216-0.615,0.383c0-0.432,0-0.732,0-1.034
			c0-2.275,0.007-4.55-0.01-6.829c-0.003-0.312-0.139-0.622-0.214-0.932C22.999,80.003,21.5,80.003,20,80.003z M0,80.003
			c0,1.334,0,2.665,0,4.001c0.1,0.434,0.455,0.33,0.743,0.33c1.693,0.006,3.387,0,5.08,0.006c0.237,0.001,0.474,0.031,0.787,0.055
			c0,6.919,0,13.76,0,20.633c1.701,0,3.323,0,5.047,0c0-6.922,0-13.785,0-20.719c2.206,0,4.302,0,6.428,0c0-1.422,0-2.768,0-4.121
			c-0.217-0.07-0.4-0.127-0.583-0.185C11.668,80.003,5.832,80.003,0,80.003z M168.332,80.003c-0.07,0.339-0.205,0.679-0.207,1.02
			c-0.012,7.69-0.01,15.383-0.01,23.074c0,0.299,0,0.595,0,0.934c0.893,0,1.684,0,2.544,0c0-1.438,0.077-2.829-0.023-4.205
			c-0.093-1.275,0.226-2.307,1.14-3.214c0.614-0.608,1.105-1.341,1.717-2.096c0.213,0.427,0.369,0.717,0.505,1.013
			c1.234,2.631,2.462,5.271,3.712,7.896c0.117,0.249,0.354,0.605,0.56,0.626c0.785,0.074,1.576,0.031,2.493,0.031
			c-1.915-3.986-3.761-7.821-5.604-11.656c1.619-2.024,3.205-4.001,4.872-6.088c-0.792,0-1.407,0.047-2.011-0.014
			c-0.631-0.061-1.017,0.196-1.393,0.675c-1.802,2.292-3.63,4.558-5.446,6.842c-0.129,0.162-0.187,0.382-0.281,0.577
			c-0.079-0.072-0.163-0.141-0.247-0.211c0-0.305,0-0.608,0-0.912c0-4.442,0.003-8.887-0.007-13.329
			c0-0.322-0.101-0.642-0.151-0.962C169.781,80.003,169.055,80.003,168.332,80.003z M54.66,87.135
			c-0.026,0.235-0.063,0.425-0.063,0.614c-0.003,4.11-0.003,8.22,0.001,12.332c0,0.334,0.026,0.667,0.062,0.994
			c0.257,2.318,1.625,3.895,3.759,4.3c1.772,0.339,3.339-0.253,4.829-1.123c0.446-0.259,0.865-0.562,1.411-0.922
			c0,0.644,0,1.157,0,1.706c1.624,0,3.165,0,4.753,0c0-5.978,0-11.907,0-17.873c-1.593,0-3.15,0-4.761,0c0,0.379,0,0.683,0,0.985
			c0,3.581,0.003,7.164-0.004,10.747c0,0.296,0.017,0.675-0.148,0.867c-0.728,0.851-1.561,1.588-2.725,1.795
			c-1.21,0.21-2.013-0.315-2.251-1.522c-0.113-0.568-0.151-1.157-0.154-1.737c-0.017-3.389-0.011-6.776-0.011-10.164
			c0-0.302,0-0.603,0-0.993C57.721,87.135,56.206,87.135,54.66,87.135z M52.533,96.09c0.006,2.01-0.407,3.914-1.437,5.654
			c-1.522,2.568-3.812,3.817-6.78,3.717c-2.885-0.095-5.044-1.493-6.322-4.053c-1.805-3.61-1.784-7.289,0.092-10.863
			c1.352-2.579,3.612-3.858,6.521-3.863c2.906-0.007,5.109,1.293,6.559,3.819C52.157,92.227,52.544,94.113,52.533,96.09z
			 M41.551,96.059c0.074,1.464,0.223,2.895,0.824,4.235c0.422,0.942,1.094,1.608,2.206,1.623c1.104,0.015,1.881-0.574,2.237-1.554
			c0.352-0.977,0.61-2.011,0.741-3.042c0.224-1.772,0.077-3.542-0.58-5.229c-0.475-1.227-1.363-1.924-2.39-1.875
			c-1.163,0.051-1.851,0.77-2.275,1.789c-0.136,0.33-0.276,0.672-0.333,1.022C41.818,94.033,41.694,95.047,41.551,96.059z
			 M108.694,87.086c-0.763,0-1.44,0-2.131,0c0,1.368,0,2.628,0,3.959c0.721,0,1.376,0,2.137,0c0,0.369,0,0.666,0,0.962
			c0.001,2.526-0.022,5.05,0.016,7.575c0.014,0.798,0.096,1.614,0.3,2.381c0.435,1.654,1.532,2.723,3.172,3.229
			c1.688,0.52,3.326,0.261,4.966-0.287c0-1.201,0-2.353,0-3.573c-0.26,0.115-0.456,0.204-0.65,0.293
			c-1.835,0.839-3.004,0.109-3.011-1.887c-0.007-2.611-0.003-5.219,0-7.826c0-0.269,0.033-0.537,0.053-0.905
			c1.242,0,2.418,0,3.604,0c0-1.344,0-2.582,0-3.926c-1.219,0-2.395,0-3.665,0c0-1.534,0-2.962,0-4.44c-1.624,0-3.162,0-4.791,0
			C108.694,84.121,108.694,85.549,108.694,87.086z M155.722,96.285c0.003,1.846-0.21,3.649-0.966,5.361
			c-1.814,4.113-7.133,5.322-10.55,2.382c-1.294-1.112-1.965-2.608-2.316-4.231c-0.56-2.588-0.572-5.187,0.153-7.741
			c0.746-2.635,2.289-4.529,5.119-5.103c3.574-0.721,6.613,0.985,7.843,4.421C155.578,92.965,155.742,94.61,155.722,96.285z
			 M153.192,96.205c0.003-1.623-0.173-3.213-0.842-4.714c-0.478-1.078-1.213-1.918-2.364-2.309c-1.94-0.662-3.909,0.119-4.892,1.936
			c-0.665,1.224-0.897,2.558-0.982,3.923c-0.118,1.95-0.026,3.886,0.734,5.724c0.564,1.356,1.479,2.339,3.004,2.586
			c2.067,0.336,3.648-0.521,4.506-2.437C153.027,99.418,153.189,97.824,153.192,96.205z M193.165,89.613
			c-1.71-2.384-5.016-3.437-7.799-2.465c-1.924,0.676-3.121,2.002-3.341,4.059c-0.229,2.128,0.634,3.744,2.55,4.718
			c0.837,0.422,1.738,0.717,2.61,1.075c0.917,0.382,1.861,0.721,2.747,1.172c0.965,0.496,1.455,1.344,1.395,2.458
			c-0.07,1.336-1.027,2.441-2.426,2.688c-2.087,0.368-3.84-0.218-5.134-1.968c-0.177-0.238-0.341-0.482-0.537-0.752
			c-0.675,0.425-1.299,0.821-1.946,1.229c0.083,0.166,0.121,0.267,0.178,0.355c1.666,2.681,4.981,3.99,8.116,3.212
			c2.347-0.583,3.897-2.353,4.094-4.671c0.208-2.513-0.679-3.939-3.2-5.017c-0.943-0.405-1.939-0.678-2.882-1.07
			c-0.738-0.305-1.486-0.633-2.146-1.072c-0.819-0.543-1.19-1.375-1.027-2.381c0.169-1.043,0.811-1.706,1.787-1.992
			c1.701-0.503,3.243-0.187,4.521,1.098c0.303,0.307,0.583,0.653,0.888,1.009c0.595-0.465,1.158-0.91,1.731-1.358
			C193.269,89.804,193.227,89.702,193.165,89.613z M157.708,105.042c0.828,0,1.616,0,2.48,0c0-0.351,0-0.649,0-0.951
			c0-2.803-0.006-5.604,0.003-8.403c0.003-0.3,0-0.632,0.121-0.894c0.5-1.074,0.976-2.177,1.608-3.176
			c0.922-1.465,2.244-2.358,4.069-2.301c0.04,0.001,0.084-0.062,0.131-0.098c0-0.678,0-1.358,0-2.057
			c-3.068-0.506-4.603,1.349-5.803,3.741c-0.05-0.03-0.097-0.059-0.151-0.091c0-1.137,0-2.28,0-3.478c-0.61,0-1.133,0-1.655,0
			c-0.244,0-0.49,0-0.801,0C157.708,93.304,157.708,99.151,157.708,105.042z M197.187,87.854c1.138,0,2.065,0.927,2.065,2.062
			s-0.926,2.061-2.065,2.061c-1.137,0-2.063-0.925-2.063-2.061S196.05,87.854,197.187,87.854 M197.187,87.104
			c-1.552,0-2.812,1.259-2.812,2.813c0,1.554,1.263,2.812,2.812,2.812c1.555,0,2.813-1.258,2.813-2.812
			C200,88.363,198.74,87.104,197.187,87.104L197.187,87.104z M198.012,88.646c0.098,0.043,0.184,0.104,0.253,0.188
			c0.056,0.07,0.102,0.146,0.134,0.228c0.034,0.083,0.051,0.178,0.051,0.282c0,0.13-0.032,0.256-0.097,0.38
			c-0.064,0.123-0.173,0.211-0.32,0.261c0.125,0.051,0.21,0.122,0.264,0.216c0.049,0.091,0.078,0.231,0.078,0.422v0.182
			c0,0.123,0.007,0.206,0.016,0.249c0.015,0.069,0.047,0.121,0.104,0.154v0.067h-0.622c-0.017-0.061-0.028-0.109-0.036-0.144
			c-0.016-0.078-0.023-0.154-0.024-0.232l-0.002-0.25c-0.003-0.173-0.032-0.287-0.089-0.345s-0.164-0.086-0.321-0.086h-0.551v1.058
			h-0.555v-2.698h1.294C197.772,88.579,197.912,88.603,198.012,88.646z M196.846,89.045v0.727h0.607
			c0.119,0,0.209-0.017,0.271-0.045c0.107-0.052,0.16-0.153,0.16-0.305c0-0.163-0.052-0.274-0.153-0.328
			c-0.059-0.033-0.146-0.049-0.262-0.049H196.846L196.846,89.045z"/>
	</g>
</g>
<g id="Producer">
</g>
<g id="Organizers">
</g>
</svg>
