<?xml version="1.0" encoding="utf-8"?>
<!-- Generator: Adobe Illustrator 16.0.0, SVG Export Plug-In . SVG Version: 6.00 Build 0)  -->
<!DOCTYPE svg PUBLIC "-//W3C//DTD SVG 1.1//EN" "http://www.w3.org/Graphics/SVG/1.1/DTD/svg11.dtd">
<svg version="1.1" xmlns="http://www.w3.org/2000/svg" xmlns:xlink="http://www.w3.org/1999/xlink" x="0px" y="0px" width="200px"
	 height="200px" viewBox="0 0 200 200" enable-background="new 0 0 200 200" xml:space="preserve">
<g id="Gold">
</g>
<g id="Supporters">
</g>
<g id="Advisor">
	<g id="Appies_x5F_">
		<path fill-rule="evenodd" clip-rule="evenodd" fill="#8FC447" d="M78.663,111.54c0,3.276-0.037,6.182,0.02,9.084
			c0.021,1.065-0.277,1.522-1.409,1.474c-1.714-0.074-3.433-0.02-5.271-0.02c-0.044-0.742-0.104-1.288-0.104-1.833
			c-0.006-10.789,0.025-21.579-0.039-32.368c-0.009-1.555,0.432-2.09,1.983-1.957c1.484,0.127,2.987,0.027,4.603,0.027
			c0.064,1.008,0.116,1.826,0.17,2.677c1.385-0.811,2.658-1.776,4.088-2.357c7.542-3.068,15.026,1.94,14.984,10.068
			c-0.019,3.666,0.094,7.431-0.662,10.977c-1.613,7.578-12.563,9.823-17.332,5.005C79.475,112.096,79.194,111.937,78.663,111.54z
			 M90.977,100.724c-0.093-1.83-0.077-3.288-0.256-4.724c-0.379-3.038-2.635-4.818-5.989-4.844
			c-2.923-0.024-5.577,1.958-5.804,4.729c-0.235,2.876-0.236,5.796-0.038,8.677c0.184,2.665,2.62,4.459,5.705,4.598
			c3.021,0.137,5.442-1.379,5.987-3.988C90.91,103.605,90.877,101.962,90.977,100.724z"/>
		<path fill-rule="evenodd" clip-rule="evenodd" fill="#8FC447" d="M49.814,88.9c2.873-2.657,6.003-3.944,9.759-3.34
			c5.042,0.812,8.241,3.323,8.888,8.361c0.546,4.258,0.544,8.757-0.205,12.975c-1.469,8.277-13.236,10.355-17.711,5.131
			c-0.103-0.118-0.271-0.18-0.744-0.484c0,2.023,0.037,3.824-0.012,5.622c-0.045,1.593,0.385,3.71-0.453,4.616
			c-0.743,0.803-2.943,0.268-4.501,0.301c-0.489,0.01-0.98-0.053-1.591-0.089c-0.039-0.629-0.101-1.17-0.102-1.71
			c-0.006-10.798,0.028-21.596-0.038-32.393c-0.009-1.555,0.449-2.148,1.975-1.954c0.551,0.069,1.118,0.015,1.677,0.011
			C49.565,85.934,49.565,85.934,49.814,88.9z M62.115,100.05c-0.105-1.575-0.08-3.097-0.333-4.569
			c-0.453-2.642-2.957-4.386-5.956-4.324c-2.93,0.061-5.563,1.97-5.77,4.584c-0.231,2.933-0.242,5.908-0.038,8.844
			c0.188,2.702,2.727,4.51,5.885,4.583c3.078,0.071,5.43-1.604,5.867-4.353C62.021,103.227,62.012,101.597,62.115,100.05z"/>
		<path fill-rule="evenodd" clip-rule="evenodd" fill="#8FC447" d="M22.34,94.353c-1.997,0-3.874,0-5.732,0
			c-0.598-3.5,0.929-6.322,4.667-7.798c4.71-1.86,9.502-1.706,14.151,0.421c2.899,1.327,4.278,3.779,4.331,6.819
			c0.114,6.75,0.035,13.5,0.035,20.417c-1.705,0-3.556,0.149-5.357-0.084c-0.604-0.078-1.084-1.127-1.757-1.887
			c0.163-0.091-0.087,0.005-0.283,0.168c-3.577,2.971-7.645,2.807-11.751,1.648c-3.173-0.896-5.117-3.093-5.546-6.444
			c-0.489-3.835,0.843-6.908,4.325-8.641c1.696-0.844,3.694-1.24,5.6-1.457c2.154-0.246,4.356-0.086,6.537-0.055
			c0.983,0.016,1.358-0.336,1.397-1.363c0.141-3.723-1.398-5.397-5.13-5.385c-0.72,0.002-1.45,0.082-2.157,0.223
			C23.247,91.417,22.826,91.859,22.34,94.353z M32.718,102.495c-2.654,0-5.217-0.068-7.774,0.021
			c-2.021,0.072-3.192,1.368-3.215,3.291c-0.022,1.883,1.16,3.194,3.141,3.399c0.885,0.092,1.784,0.109,2.674,0.075
			C31.759,109.116,33.444,106.959,32.718,102.495z"/>
		<path fill-rule="evenodd" clip-rule="evenodd" fill="#8FC447" d="M135.941,101.948c-6.086,0-11.988,0-17.925,0
			c-0.485,2.275-0.183,4.214,1.539,5.62c1.922,1.569,4.207,2.189,6.568,1.233c1.302-0.527,2.482-1.461,3.562-2.391
			c0.676-0.582,1.114-0.742,1.861-0.22c0.819,0.57,1.678,1.141,2.603,1.492c1.656,0.629,1.272,1.449,0.465,2.504
			c-2.264,2.958-5.364,4.309-8.955,4.56c-4.352,0.305-8.59-0.229-11.743-3.6c-1.271-1.361-2.568-3.242-2.726-4.987
			c-0.362-4.016-0.436-8.151,0.131-12.131c0.524-3.683,3.271-6.172,6.725-7.542c3.782-1.5,7.659-1.458,11.429,0.112
			c3.911,1.628,6.032,4.699,6.433,8.861C136.104,97.502,135.941,99.578,135.941,101.948z M117.966,97.029c3.813,0,7.502,0,11.185,0
			c0.002-3.806-2.173-6.018-5.643-5.913C119.977,91.224,117.668,93.649,117.966,97.029z"/>
		<path fill-rule="evenodd" clip-rule="evenodd" fill="#8FC447" d="M161.297,89.821c-1.728,1.187-3.062,2.178-4.483,3.018
			c-0.3,0.177-1.038-0.065-1.386-0.347c-2.191-1.775-4.627-2.392-7.362-1.715c-1.436,0.355-2.641,0.991-2.673,2.737
			c-0.03,1.729,1.25,2.059,2.542,2.34c2.778,0.606,5.577,1.129,8.34,1.801c3.453,0.84,5.728,2.881,6.202,6.572
			c0.444,3.468-1.282,6.938-4.619,8.59c-5.617,2.778-11.334,2.708-16.902-0.15c-1.379-0.708-2.465-1.985-3.876-3.16
			c1.803-1.374,3.293-2.514,4.93-3.762c0.465,0.433,0.897,0.835,1.329,1.237c2.524,2.354,7.292,3.118,10.167,1.669
			c1.263-0.637,2.056-1.54,1.926-3.018c-0.136-1.558-1.257-2.155-2.592-2.432c-2.403-0.498-4.821-0.93-7.229-1.411
			c-6.335-1.271-8.943-6.997-5.44-12.071c1.713-2.482,4.261-3.756,7.192-4.152c4.068-0.549,8.041-0.311,11.548,2.168
			C159.706,88.3,160.392,89.022,161.297,89.821z"/>
		<path fill-rule="evenodd" clip-rule="evenodd" fill="#8FC447" d="M100.771,85.951c2.099,0,3.938-0.062,5.766,0.053
			c0.361,0.022,0.972,0.724,0.975,1.115c0.055,8.665,0.055,17.33-0.003,25.995c-0.003,0.371-0.643,1.029-1.023,1.059
			c-1.556,0.121-3.131,0.112-4.688,0.004c-0.363-0.025-0.981-0.628-0.983-0.969C100.759,104.22,100.771,95.23,100.771,85.951z"/>
		<path fill-rule="evenodd" clip-rule="evenodd" fill="#8FC447" d="M185,116.68c0,1.805,0,3.505,0,5.371c-8.008,0-15.909,0-23.916,0
			c0-1.854,0-3.57,0-5.371C169.035,116.68,176.905,116.68,185,116.68z"/>
		<path fill-rule="evenodd" clip-rule="evenodd" fill="#8FC447" d="M100.771,77c2.362,0,4.42,0,6.783,0
			c0,1.872,0.036,3.69-0.039,5.503c-0.011,0.274-0.531,0.74-0.832,0.754c-1.675,0.075-3.357,0.087-5.03-0.006
			c-0.312-0.017-0.825-0.602-0.843-0.946C100.724,80.59,100.771,78.868,100.771,77z"/>
	</g>
</g>
<g id="Producer">
</g>
<g id="Organizers">
</g>
</svg>
