<?xml version="1.0" encoding="utf-8"?>
<!-- Generator: Adobe Illustrator 16.0.0, SVG Export Plug-In . SVG Version: 6.00 Build 0)  -->
<!DOCTYPE svg PUBLIC "-//W3C//DTD SVG 1.1//EN" "http://www.w3.org/Graphics/SVG/1.1/DTD/svg11.dtd">
<svg version="1.1" xmlns="http://www.w3.org/2000/svg" xmlns:xlink="http://www.w3.org/1999/xlink" x="0px" y="0px" width="200px"
	 height="200px" viewBox="0 0 200 200" enable-background="new 0 0 200 200" xml:space="preserve">
<g id="Gold">
</g>
<g id="Supporters">
</g>
<g id="Advisor">
</g>
<g id="Producer">
</g>
<g id="Organizers">
	<g id="Frevo_on_Rails">
		<g>
			<g>
				<path fill="#981D25" d="M77.375,98.009h-4.169V79.831H70.57v-3.729h2.635v-1.715c0-6.318,1.625-8.077,6.1-8.077
					c1.453,0,4.612,0.395,4.612,0.395l-0.043,3.427c0,0-2.284-0.09-3.646-0.09c-2.195,0-2.854,0.967-2.854,4.393v1.668h6.013v3.729
					h-6.013V98.009z"/>
			</g>
			<g opacity="0.2">
				<path fill="#981D25" d="M74.205,97.009V78.831H71.57v-1.729h2.635v-2.715c0-6.094,1.503-7.077,5.1-7.077
					c0.912,0,2.575,0.168,3.601,0.283l-0.019,1.503c-0.787-0.025-1.867-0.055-2.658-0.055c-3.557,0-3.854,2.664-3.854,5.393v2.668
					h6.013v1.729h-6.013v18.178H74.205z"/>
				<path fill="#FF1D25" d="M78.22,68.356c-2.845,1.033-2.846,4.34-2.846,6.077v1.668v1.729v2v16.178h-0.169V79.831v-2v-1.729
					v-1.715c0-2.671,0.309-4.363,0.945-5.173C76.434,68.852,76.912,68.484,78.22,68.356 M79.305,66.309
					c-4.476,0-6.1,1.759-6.1,8.077v1.715H70.57v3.729h2.635v18.178h4.169V79.831h6.013v-3.729h-6.013v-1.668
					c0-3.426,0.659-4.393,2.854-4.393c1.362,0,3.646,0.09,3.646,0.09l0.043-3.427C83.917,66.703,80.758,66.309,79.305,66.309
					L79.305,66.309z"/>
			</g>
			<path fill="#981D25" d="M86.771,76.101h4.125v2.587c0,0,3.117-2.326,7.157-3.117v4.393c-4.04,0.787-7.157,2.679-7.157,2.679
				v15.366h-4.125V76.101z"/>
			<g opacity="0.2">
				<path fill="#981D25" d="M87.771,97.009V77.101h2.125v3.575l1.597-1.186c0.026-0.02,2.388-1.754,5.56-2.652v2.317
					c-3.764,0.882-6.551,2.557-6.676,2.632l-0.481,0.292v14.929H87.771z"/>
				<path fill="#FF1D25" d="M88.896,78.101v0.587v3.987v13.333h-0.125V78.101H88.896 M96.054,78.217v0.161
					c-0.458,0.123-0.898,0.256-1.319,0.395C95.14,78.583,95.582,78.393,96.054,78.217 M98.054,75.571
					c-4.04,0.792-7.157,3.117-7.157,3.117v-2.587h-4.125v21.908h4.125V82.643c0,0,3.117-1.892,7.157-2.679V75.571L98.054,75.571z"/>
			</g>
			<path fill="#981D25" d="M117.413,94.274l0.09,3.293c0,0-5.007,0.923-8.738,0.923c-6.585-0.043-8.958-3.687-8.958-11.282
				c0-8.167,3.516-11.594,9.353-11.594c6.062,0,9.088,3.121,9.088,10.144l-0.262,3.03h-13.962c0,3.952,1.407,5.882,5.314,5.882
				C112.716,94.67,117.413,94.274,117.413,94.274z M114.121,85.54c0-4.566-1.448-6.237-4.96-6.237c-3.425,0-5.136,1.799-5.179,6.237
				H114.121z"/>
			<g opacity="0.2">
				<path fill="#981D25" d="M108.769,97.49c-5.729-0.039-7.961-2.921-7.961-10.282c0-7.128,2.732-10.594,8.353-10.594
					c5.593,0,8.088,2.82,8.088,9.144l-0.178,2.03h-14.046v1c0,2.954,0.655,6.882,6.314,6.882c2.443,0,5.515-0.2,7.104-0.317
					l0.038,1.375C114.914,96.983,111.47,97.49,108.769,97.49z M109.161,78.303c-4.111,0-6.132,2.364-6.179,7.227l-0.01,1.01h12.149
					v-1C115.121,80.535,113.283,78.303,109.161,78.303z"/>
				<path fill="#FF1D25" d="M114.54,79.458c1.168,1.298,1.698,3.325,1.708,6.216l-0.097,1.114h-0.031V85.54
					C116.121,83.53,115.888,81.143,114.54,79.458 M102.334,82.484c-0.246,0.999-0.343,2.043-0.353,3.037l-0.02,2.02h0.062v1.248
					c0,4.064,1.486,6.572,4.427,7.488c-2.973-0.627-4.644-2.822-4.644-9.068C101.808,85.63,101.912,83.971,102.334,82.484
					 M109.161,75.614c-5.836,0-9.353,3.427-9.353,11.594c0,7.595,2.373,11.239,8.958,11.282c3.73,0,8.738-0.923,8.738-0.923
					l-0.09-3.293c0,0-4.697,0.396-8.074,0.396c-3.908,0-5.314-1.93-5.314-5.882h13.962l0.262-3.03
					C118.249,78.735,115.223,75.614,109.161,75.614L109.161,75.614z M103.981,85.54c0.043-4.438,1.754-6.237,5.179-6.237
					c3.512,0,4.96,1.67,4.96,6.237H103.981L103.981,85.54z"/>
			</g>
			<path fill="#981D25" d="M124.133,76.101l4.741,18.439h1.448l4.79-18.439h4.254l-5.928,21.908h-7.724l-5.884-21.908H124.133z"/>
			<g opacity="0.2">
				<polygon fill="#981D25" points="126.481,97.009 121.134,77.101 123.358,77.101 128.099,95.541 131.095,95.541 135.885,77.101 
					138.059,77.101 132.672,97.009 				"/>
				<path fill="#FF1D25" d="M136.752,78.101l-2.358,8.717l2.264-8.717H136.752 M122.583,78.101l3.227,12.55l-3.371-12.55H122.583
					 M139.366,76.101h-4.254l-4.79,18.439h-1.448l-4.741-18.439h-4.303l5.884,21.908h7.724L139.366,76.101L139.366,76.101z"/>
			</g>
			<path fill="#981D25" d="M160.265,86.854c0,7.376-2.106,11.636-9.569,11.636c-7.508,0-9.663-4.083-9.663-11.636
				c0-7.332,2.46-11.24,9.663-11.24C157.631,75.614,160.265,79.613,160.265,86.854z M156.054,86.854
				c0-5.222-1.449-7.504-5.357-7.504c-4.217,0-5.445,2.105-5.445,7.504c0,5.446,0.923,7.86,5.445,7.86
				S156.054,92.082,156.054,86.854z"/>
			<g opacity="0.2">
				<path fill="#981D25" d="M150.696,97.49c-6.315,0-8.663-2.883-8.663-10.636c0-7.273,2.51-10.24,8.663-10.24
					c6.006,0,8.569,3.062,8.569,10.24C159.265,94.508,156.863,97.49,150.696,97.49z M150.696,78.351
					c-5.349,0-6.445,3.399-6.445,8.504c0,4.669,0.493,8.86,6.445,8.86c5.867,0,6.357-4.377,6.357-8.86
					C157.054,82.895,156.331,78.351,150.696,78.351z"/>
				<path fill="#FF1D25" d="M155.014,78.514c2.605,1.416,3.251,4.415,3.251,8.341c0,5.231-1.007,7.945-3.725,9.04
					c3.514-1.84,3.513-6.347,3.513-9.04C158.054,84.918,158.053,80.595,155.014,78.514 M145.816,78.762
					c-1.523,1.286-2.565,3.686-2.565,8.092c0,3.503,0.311,7.179,3.196,8.884c-2.483-1.185-3.414-3.886-3.414-8.884
					C143.034,82.645,143.845,80.088,145.816,78.762 M150.696,75.614c-7.203,0-9.663,3.909-9.663,11.24
					c0,7.553,2.155,11.636,9.663,11.636c7.462,0,9.569-4.259,9.569-11.636C160.265,79.613,157.631,75.614,150.696,75.614
					L150.696,75.614z M150.696,94.715c-4.522,0-5.445-2.415-5.445-7.86c0-5.399,1.228-7.504,5.445-7.504
					c3.909,0,5.357,2.282,5.357,7.504C156.054,92.082,155.218,94.715,150.696,94.715L150.696,94.715z"/>
			</g>
		</g>
		<g>
			<g>
				<g>
					<path fill="#B3B3B3" d="M90.72,122.054c0,7.376-2.104,11.638-9.572,11.638c-7.504,0-9.656-4.085-9.656-11.638
						c0-7.333,2.457-11.24,9.656-11.24C88.086,110.813,90.72,114.808,90.72,122.054z M86.509,122.054
						c0-5.228-1.449-7.509-5.361-7.509c-4.211,0-5.441,2.11-5.441,7.509c0,5.442,0.919,7.857,5.441,7.857
						C85.674,129.911,86.509,127.277,86.509,122.054z"/>
				</g>
				<g>
					<path fill="#B3B3B3" d="M95.159,133.204v-21.908h4.125v1.275c0,0,3.597-1.758,6.323-1.758c6.099,0,7.551,3.294,7.551,10.931
						v11.46h-4.173v-11.413c0-4.965-0.572-7.112-4.083-7.112c-2.459,0-5.618,1.315-5.618,1.315v17.21H95.159z"/>
				</g>
				<g>
					<path fill="#B3B3B3" d="M128.131,111.296h4.126v2.591c0,0,3.116-2.324,7.157-3.116v4.39c-4.042,0.791-7.157,2.678-7.157,2.678
						v15.366h-4.126V111.296z"/>
				</g>
				<g>
					<path fill="#B3B3B3" d="M158.555,127.98c0.043,1.492,0.833,1.931,2.149,2.107l-0.129,3.553c-3.073,0-4.345-0.479-5.574-1.577
						c0,0-3.823,1.628-7.643,1.628c-3.951,0-6.147-2.552-6.147-6.896c0-4.479,2.373-6.188,7.027-6.585l6.147-0.527v-1.578
						c0-2.241-1.187-3.341-3.251-3.341c-3.249,0-8.429,0.615-8.429,0.615l-0.175-3.688c0,0,5.487-0.877,8.824-0.877
						c4.699,0,7.2,2.063,7.2,7.243V127.98z M148.72,123.368c-2.283,0.178-3.292,1.272-3.292,3.34c0,2.194,0.967,3.38,2.677,3.38
						c2.812,0,6.281-1.097,6.281-1.097v-6.062L148.72,123.368z"/>
				</g>
				<g>
					<path fill="#B3B3B3" d="M164.439,102.428h4.168v4.612h-4.168V102.428z M164.439,111.296h4.168v21.908h-4.168V111.296z"/>
				</g>
				<g>
					<path fill="#B3B3B3" d="M174.275,101.946h4.168v31.258h-4.168V101.946z"/>
				</g>
				<g>
					<path fill="#B3B3B3" d="M199.208,115.249c0,0-5.045-0.704-7.769-0.704c-2.637,0-4.213,0.657-4.213,2.811
						c0,1.668,1.011,2.15,5.003,2.812c5.793,0.921,7.771,2.239,7.771,6.541c0,5.139-3.292,6.983-8.647,6.983
						c-2.94,0-8.034-0.97-8.034-0.97l0.176-3.559c0,0,5.264,0.748,7.504,0.748c3.335,0,4.833-0.701,4.833-3.072
						c0-1.845-0.926-2.283-4.833-2.898c-5.489-0.921-7.948-2.02-7.948-6.499c0-4.917,3.954-6.628,8.124-6.628
						c3.25,0,8.122,0.923,8.122,0.923L199.208,115.249z"/>
				</g>
			</g>
			<g>
				<g>
					<path fill="#B3B3B3" d="M90.72,122.054c0,7.376-2.104,11.638-9.572,11.638c-7.504,0-9.656-4.085-9.656-11.638
						c0-7.333,2.457-11.24,9.656-11.24C88.086,110.813,90.72,114.808,90.72,122.054z M86.509,122.054
						c0-5.228-1.449-7.509-5.361-7.509c-4.211,0-5.441,2.11-5.441,7.509c0,5.442,0.919,7.857,5.441,7.857
						C85.674,129.911,86.509,127.277,86.509,122.054z"/>
				</g>
				<g>
					<path fill="#B3B3B3" d="M95.159,133.204v-21.908h4.125v1.275c0,0,3.597-1.758,6.323-1.758c6.099,0,7.551,3.294,7.551,10.931
						v11.46h-4.173v-11.413c0-4.965-0.572-7.112-4.083-7.112c-2.459,0-5.618,1.315-5.618,1.315v17.21H95.159z"/>
				</g>
				<g>
					<path fill="#B3B3B3" d="M128.131,111.296h4.126v2.591c0,0,3.116-2.324,7.157-3.116v4.39c-4.042,0.791-7.157,2.678-7.157,2.678
						v15.366h-4.126V111.296z"/>
				</g>
				<g>
					<path fill="#B3B3B3" d="M158.555,127.98c0.043,1.492,0.833,1.931,2.149,2.107l-0.129,3.553c-3.073,0-4.345-0.479-5.574-1.577
						c0,0-3.823,1.628-7.643,1.628c-3.951,0-6.147-2.552-6.147-6.896c0-4.479,2.373-6.188,7.027-6.585l6.147-0.527v-1.578
						c0-2.241-1.187-3.341-3.251-3.341c-3.249,0-8.429,0.615-8.429,0.615l-0.175-3.688c0,0,5.487-0.877,8.824-0.877
						c4.699,0,7.2,2.063,7.2,7.243V127.98z M148.72,123.368c-2.283,0.178-3.292,1.272-3.292,3.34c0,2.194,0.967,3.38,2.677,3.38
						c2.812,0,6.281-1.097,6.281-1.097v-6.062L148.72,123.368z"/>
				</g>
				<g>
					<path fill="#B3B3B3" d="M164.439,102.428h4.168v4.612h-4.168V102.428z M164.439,111.296h4.168v21.908h-4.168V111.296z"/>
				</g>
				<g>
					<path fill="#B3B3B3" d="M174.275,101.946h4.168v31.258h-4.168V101.946z"/>
				</g>
				<g>
					<path fill="#B3B3B3" d="M199.209,115.249c0,0-5.047-0.704-7.772-0.704c-2.635,0-4.211,0.657-4.211,2.811
						c0,1.668,1.011,2.15,5.003,2.812c5.793,0.921,7.771,2.239,7.771,6.541c0,5.139-3.292,6.983-8.649,6.983
						c-2.938,0-8.032-0.97-8.032-0.97l0.174-3.559c0,0,5.266,0.748,7.506,0.748c3.335,0,4.833-0.701,4.833-3.072
						c0-1.845-0.926-2.283-4.833-2.898c-5.489-0.921-7.948-2.02-7.948-6.499c0-4.917,3.954-6.628,8.123-6.628
						c3.25,0,8.123,0.923,8.123,0.923L199.209,115.249z"/>
				</g>
			</g>
			<g>
				<g opacity="0.4">
					<path fill="#B3B3B3" d="M90.72,122.054c0,7.376-2.104,11.638-9.572,11.638c-7.504,0-9.656-4.085-9.656-11.638
						c0-7.333,2.457-11.24,9.656-11.24C88.086,110.813,90.72,114.808,90.72,122.054z M86.509,122.054
						c0-5.228-1.449-7.509-5.361-7.509c-4.211,0-5.441,2.11-5.441,7.509c0,5.442,0.919,7.857,5.441,7.857
						C85.674,129.911,86.509,127.277,86.509,122.054z"/>
				</g>
				<g opacity="0.4">
					<path fill="#B3B3B3" d="M95.159,133.204v-21.908h4.125v1.275c0,0,3.597-1.758,6.323-1.758c6.099,0,7.551,3.294,7.551,10.931
						v11.46h-4.173v-11.413c0-4.965-0.572-7.112-4.083-7.112c-2.459,0-5.618,1.315-5.618,1.315v17.21H95.159z"/>
				</g>
				<g opacity="0.4">
					<path fill="#B3B3B3" d="M128.131,111.296h4.126v2.591c0,0,3.116-2.324,7.157-3.116v4.39c-4.042,0.791-7.157,2.678-7.157,2.678
						v15.366h-4.126V111.296z"/>
				</g>
				<g opacity="0.4">
					<path fill="#B3B3B3" d="M158.555,127.98c0.043,1.492,0.833,1.931,2.149,2.107l-0.129,3.553c-3.073,0-4.345-0.479-5.574-1.577
						c0,0-3.823,1.628-7.643,1.628c-3.951,0-6.147-2.552-6.147-6.896c0-4.479,2.373-6.188,7.027-6.585l6.147-0.527v-1.578
						c0-2.241-1.187-3.341-3.251-3.341c-3.249,0-8.429,0.615-8.429,0.615l-0.175-3.688c0,0,5.487-0.877,8.824-0.877
						c4.699,0,7.2,2.063,7.2,7.243V127.98z M148.72,123.368c-2.283,0.178-3.292,1.272-3.292,3.34c0,2.194,0.967,3.38,2.677,3.38
						c2.812,0,6.281-1.097,6.281-1.097v-6.062L148.72,123.368z"/>
				</g>
				<g opacity="0.4">
					<path fill="#B3B3B3" d="M164.439,102.428h4.168v4.612h-4.168V102.428z M164.439,111.296h4.168v21.908h-4.168V111.296z"/>
				</g>
				<g opacity="0.4">
					<path fill="#B3B3B3" d="M174.275,101.946h4.168v31.258h-4.168V101.946z"/>
				</g>
				<g opacity="0.4">
					<path fill="#B3B3B3" d="M199.209,115.249c0,0-5.047-0.704-7.772-0.704c-2.635,0-4.211,0.657-4.211,2.811
						c0,1.668,1.011,2.15,5.003,2.812c5.793,0.921,7.771,2.239,7.771,6.541c0,5.139-3.292,6.983-8.649,6.983
						c-2.938,0-8.032-0.97-8.032-0.97l0.174-3.559c0,0,5.266,0.748,7.506,0.748c3.335,0,4.833-0.701,4.833-3.072
						c0-1.845-0.926-2.283-4.833-2.898c-5.489-0.921-7.948-2.02-7.948-6.499c0-4.917,3.954-6.628,8.123-6.628
						c3.25,0,8.123,0.923,8.123,0.923L199.209,115.249z"/>
				</g>
			</g>
		</g>
		<g>
			<g>
				<linearGradient id="SVGID_1_" gradientUnits="userSpaceOnUse" x1="43.4966" y1="83.605" x2="43.4966" y2="103.3208">
					<stop  offset="0" style="stop-color:#0054C0"/>
					<stop  offset="0.0705" style="stop-color:#136ED0"/>
					<stop  offset="0.1522" style="stop-color:#2384DE"/>
					<stop  offset="0.2487" style="stop-color:#3095E8"/>
					<stop  offset="0.368" style="stop-color:#39A0F0"/>
					<stop  offset="0.5353" style="stop-color:#3EA7F4"/>
					<stop  offset="1" style="stop-color:#3FA9F5"/>
				</linearGradient>
				<polygon fill="url(#SVGID_1_)" points="53.25,89.026 53.25,103.32 33.744,83.605 47.948,83.605 				"/>
				<linearGradient id="SVGID_2_" gradientUnits="userSpaceOnUse" x1="26.8252" y1="76.4922" x2="40.9432" y2="90.6102">
					<stop  offset="0" style="stop-color:#981D25"/>
					<stop  offset="0.0357" style="stop-color:#A91D25"/>
					<stop  offset="0.1048" style="stop-color:#C41D25"/>
					<stop  offset="0.1843" style="stop-color:#DA1D25"/>
					<stop  offset="0.2771" style="stop-color:#EB1D25"/>
					<stop  offset="0.3919" style="stop-color:#F61D25"/>
					<stop  offset="0.5529" style="stop-color:#FD1D25"/>
					<stop  offset="1" style="stop-color:#FF1D25"/>
				</linearGradient>
				<polygon fill="url(#SVGID_2_)" points="37.87,73.311 47.948,83.605 19.713,83.605 30.013,73.311 				"/>
				<linearGradient id="SVGID_3_" gradientUnits="userSpaceOnUse" x1="30.0132" y1="83.1685" x2="10.2939" y2="83.1685">
					<stop  offset="0" style="stop-color:#FFDB1E"/>
					<stop  offset="0.5109" style="stop-color:#FED91D"/>
					<stop  offset="0.695" style="stop-color:#FAD219"/>
					<stop  offset="0.8261" style="stop-color:#F3C712"/>
					<stop  offset="0.9315" style="stop-color:#E9B609"/>
					<stop  offset="1" style="stop-color:#E0A600"/>
				</linearGradient>
				<polygon fill="url(#SVGID_3_)" points="30.013,73.311 10.294,93.025 10.294,78.736 15.719,73.311 				"/>
				<linearGradient id="SVGID_4_" gradientUnits="userSpaceOnUse" x1="17.3687" y1="85.811" x2="3.211" y2="99.9687">
					<stop  offset="0" style="stop-color:#7AC943"/>
					<stop  offset="0.4321" style="stop-color:#78C842"/>
					<stop  offset="0.5878" style="stop-color:#71C43E"/>
					<stop  offset="0.6988" style="stop-color:#66BD38"/>
					<stop  offset="0.7885" style="stop-color:#55B42E"/>
					<stop  offset="0.8653" style="stop-color:#3FA722"/>
					<stop  offset="0.9327" style="stop-color:#249814"/>
					<stop  offset="0.9928" style="stop-color:#048602"/>
					<stop  offset="1" style="stop-color:#008400"/>
				</linearGradient>
				<polygon fill="url(#SVGID_4_)" points="10.294,107.039 0,96.758 0,89.026 10.294,78.736 				"/>
			</g>
			<g>
				
					<linearGradient id="SVGID_5_" gradientUnits="userSpaceOnUse" x1="3646.248" y1="-1083.269" x2="3646.248" y2="-1063.5557" gradientTransform="matrix(-1 0 0 -1 3656 -967)">
					<stop  offset="0" style="stop-color:#0054C0"/>
					<stop  offset="0.0705" style="stop-color:#136ED0"/>
					<stop  offset="0.1522" style="stop-color:#2384DE"/>
					<stop  offset="0.2487" style="stop-color:#3095E8"/>
					<stop  offset="0.368" style="stop-color:#39A0F0"/>
					<stop  offset="0.5353" style="stop-color:#3EA7F4"/>
					<stop  offset="1" style="stop-color:#3FA9F5"/>
				</linearGradient>
				<polygon fill="url(#SVGID_5_)" points="0,110.849 0,96.556 19.505,116.269 5.303,116.269 				"/>
				
					<linearGradient id="SVGID_6_" gradientUnits="userSpaceOnUse" x1="3629.5781" y1="-1090.3809" x2="3643.6941" y2="-1076.265" gradientTransform="matrix(-1 0 0 -1 3656 -967)">
					<stop  offset="0" style="stop-color:#981D25"/>
					<stop  offset="0.0357" style="stop-color:#A91D25"/>
					<stop  offset="0.1048" style="stop-color:#C41D25"/>
					<stop  offset="0.1843" style="stop-color:#DA1D25"/>
					<stop  offset="0.2771" style="stop-color:#EB1D25"/>
					<stop  offset="0.3919" style="stop-color:#F61D25"/>
					<stop  offset="0.5529" style="stop-color:#FD1D25"/>
					<stop  offset="1" style="stop-color:#FF1D25"/>
				</linearGradient>
				<polygon fill="url(#SVGID_6_)" points="15.379,126.563 5.303,116.269 33.534,116.269 23.239,126.563 				"/>
				
					<linearGradient id="SVGID_7_" gradientUnits="userSpaceOnUse" x1="3632.7598" y1="-1083.7056" x2="3613.0439" y2="-1083.7056" gradientTransform="matrix(-1 0 0 -1 3656 -967)">
					<stop  offset="0" style="stop-color:#FFDB1E"/>
					<stop  offset="0.5109" style="stop-color:#FED91D"/>
					<stop  offset="0.695" style="stop-color:#FAD219"/>
					<stop  offset="0.8261" style="stop-color:#F3C712"/>
					<stop  offset="0.9315" style="stop-color:#E9B609"/>
					<stop  offset="1" style="stop-color:#E0A600"/>
				</linearGradient>
				<polygon fill="url(#SVGID_7_)" points="23.239,126.563 42.956,106.85 42.956,121.139 37.531,126.563 				"/>
				
					<linearGradient id="SVGID_8_" gradientUnits="userSpaceOnUse" x1="3620.1201" y1="-1081.0635" x2="3605.9639" y2="-1066.9072" gradientTransform="matrix(-1 0 0 -1 3656 -967)">
					<stop  offset="0" style="stop-color:#7AC943"/>
					<stop  offset="0.4321" style="stop-color:#78C842"/>
					<stop  offset="0.5878" style="stop-color:#71C43E"/>
					<stop  offset="0.6988" style="stop-color:#66BD38"/>
					<stop  offset="0.7885" style="stop-color:#55B42E"/>
					<stop  offset="0.8653" style="stop-color:#3FA722"/>
					<stop  offset="0.9327" style="stop-color:#249814"/>
					<stop  offset="0.9928" style="stop-color:#048602"/>
					<stop  offset="1" style="stop-color:#008400"/>
				</linearGradient>
				<polygon fill="url(#SVGID_8_)" points="42.956,92.835 53.25,103.12 53.25,110.849 42.956,121.139 				"/>
			</g>
		</g>
	</g>
</g>
</svg>
