<?xml version="1.0" encoding="utf-8"?>
<!-- Generator: Adobe Illustrator 16.0.0, SVG Export Plug-In . SVG Version: 6.00 Build 0)  -->
<!DOCTYPE svg PUBLIC "-//W3C//DTD SVG 1.1//EN" "http://www.w3.org/Graphics/SVG/1.1/DTD/svg11.dtd">
<svg version="1.1" xmlns="http://www.w3.org/2000/svg" xmlns:xlink="http://www.w3.org/1999/xlink" x="0px" y="0px" width="200px"
	 height="200px" viewBox="0 0 200 200" enable-background="new 0 0 200 200" xml:space="preserve">
<g id="Gold">
</g>
<g id="Supporters">
</g>
<g id="Advisor">
	<g id="Ruby_Central">
		<linearGradient id="SVGID_1_" gradientUnits="userSpaceOnUse" x1="114.7139" y1="73.5459" x2="135.0732" y2="93.9052">
			<stop  offset="0" style="stop-color:#461111"/>
			<stop  offset="1" style="stop-color:#EC1E24"/>
		</linearGradient>
		<polygon fill="url(#SVGID_1_)" stroke="#231F20" stroke-width="2.6" points="145.976,83.913 125.082,104.807 104.188,83.913 
			125.082,63.019 		"/>
		<linearGradient id="SVGID_2_" gradientUnits="userSpaceOnUse" x1="117.0542" y1="75.6909" x2="124.0331" y2="81.7393">
			<stop  offset="0" style="stop-color:#FFFFFF"/>
			<stop  offset="1" style="stop-color:#D05854"/>
		</linearGradient>
		<path fill="url(#SVGID_2_)" d="M107.749,83.796l17.449-17.218c0,0,3.491,9.773-0.931,14.891
			C119.847,86.588,107.749,83.796,107.749,83.796z"/>
		<linearGradient id="SVGID_3_" gradientUnits="userSpaceOnUse" x1="89.3701" y1="99.2441" x2="110.6677" y2="116.7834">
			<stop  offset="0" style="stop-color:#461111"/>
			<stop  offset="1" style="stop-color:#EC1E24"/>
		</linearGradient>
		<polygon fill="url(#SVGID_3_)" stroke="#231F20" stroke-width="2.6" points="121.313,108.342 100.419,129.237 79.525,108.342 
			100.419,87.449 		"/>
		<linearGradient id="SVGID_4_" gradientUnits="userSpaceOnUse" x1="92.3901" y1="100.1206" x2="99.3703" y2="106.1701">
			<stop  offset="0" style="stop-color:#FFFFFF"/>
			<stop  offset="1" style="stop-color:#D05854"/>
		</linearGradient>
		<path fill="url(#SVGID_4_)" d="M83.085,108.227l17.45-17.217c0,0,3.491,9.772-0.93,14.891
			C95.184,111.018,83.085,108.227,83.085,108.227z"/>
		<linearGradient id="SVGID_5_" gradientUnits="userSpaceOnUse" x1="63.9614" y1="72.3052" x2="86.5133" y2="94.857">
			<stop  offset="0" style="stop-color:#461111"/>
			<stop  offset="1" style="stop-color:#EC1E24"/>
		</linearGradient>
		<polygon fill="url(#SVGID_5_)" stroke="#231F20" stroke-width="2.6" points="96.302,83.751 75.408,104.645 54.513,83.751 
			75.408,62.857 		"/>
		<linearGradient id="SVGID_6_" gradientUnits="userSpaceOnUse" x1="67.3779" y1="75.5278" x2="74.3581" y2="81.5773">
			<stop  offset="0" style="stop-color:#FFFFFF"/>
			<stop  offset="1" style="stop-color:#D05854"/>
		</linearGradient>
		<path fill="url(#SVGID_6_)" d="M58.073,83.634l17.451-17.217c0,0,3.489,9.772-0.931,14.891
			C70.172,86.427,58.073,83.634,58.073,83.634z"/>
		<linearGradient id="SVGID_7_" gradientUnits="userSpaceOnUse" x1="96.8315" y1="47.7666" x2="111.6223" y2="61.5714">
			<stop  offset="0" style="stop-color:#231F20"/>
			<stop  offset="1" style="stop-color:#343434"/>
		</linearGradient>
		<polygon fill="url(#SVGID_7_)" stroke="#231F20" stroke-width="2.6" points="92.392,60.019 87.506,48.431 109.377,29.353 
			109.145,60.019 120.965,60.019 100.07,80.913 79.175,60.019 		"/>
		<linearGradient id="SVGID_8_" gradientUnits="userSpaceOnUse" x1="94.5562" y1="46.832" x2="104.9691" y2="54.4051">
			<stop  offset="0" style="stop-color:#FFFFFF"/>
			<stop  offset="1" style="stop-color:#4D4D4D"/>
		</linearGradient>
		<path fill="url(#SVGID_8_)" d="M107.051,32.145L89.134,49.129l5.584,12.797l-11.4-0.232l6.98,5.816c0,0,9.074,1.862,12.099-5.583
			C104.341,57.14,107.051,32.145,107.051,32.145z"/>
		<g>
			<path fill="#951B1E" d="M26.281,100.547l3.529-10.476l-3.918-3.918l-7.002,7.002L15,89.265l19.451-19.45l9.059,9.058
				c3.667,3.667,4.667,8.725,0.527,12.865c-2.918,2.918-6.001,3.501-9.447,2.001l-3.835,11.281L26.281,100.547z M39.646,82.569
				l-5.085-5.085l-5.001,5.002l5.085,5.085c1.806,1.806,3.612,1.944,5.308,0.249C41.702,86.07,41.369,84.292,39.646,82.569z"/>
			<path fill="#951B1E" d="M42.645,116.91l0.973-0.972c-1.362,0.026-3.168-0.612-4.696-2.14c-3.724-3.724-2.834-7.947,1.278-12.06
				l8.224-8.225l3.834,3.834l-7.892,7.891c-2.612,2.613-2.501,4.28-0.917,5.863c1.584,1.584,3.279,1.724,5.807-0.805l7.975-7.975
				l3.834,3.834l-14.587,14.588L42.645,116.91z"/>
			<path fill="#951B1E" d="M56.816,131.692c-1.278-1.277-1.89-2.89-1.946-4.224l-0.833,0.833l-3.835-3.834l18.34-18.339l5.751,1.917
				l-6.586,6.585c1.362,0.085,2.919,0.473,4.307,1.863c3.112,3.111,3.335,8.002-2.112,13.448
				C65.541,134.306,60.428,135.305,56.816,131.692z M67.681,119.384c-1.195-1.195-2.307-1.307-3.585-1.141l-5.501,5.502
				c-0.222,1.39,0.223,2.725,1.334,3.835c1.473,1.473,3.556,1.001,6.002-1.444C68.931,123.135,69.181,120.884,67.681,119.384z"/>
			<path fill="#951B1E" d="M66.43,150.977l-3.779-3.778l7.085-3.195l8.919-20.258l4.224,4.223l-4.64,9.421
				c-0.723,1.501-1.723,3.278-2.251,4.141c0.889-0.556,2.612-1.501,4.14-2.251l9.419-4.64l4.113,4.112L66.43,150.977z"/>
		</g>
		<g>
			<path fill="#535B5C" d="M94.071,151.674c-1.815-0.572-3.505-0.273-5.073,1.293c-2.608,2.609-1.813,6.389,1.418,9.621
				c3.132,3.132,7.035,4.003,9.646,1.391c1.567-1.564,1.815-3.157,1.194-5.617l4.674-1.193c1.267,3.653,0.646,7.209-2.511,10.366
				c-4.55,4.55-11.089,4.128-16.583-1.367c-5.296-5.296-5.792-12.157-1.242-16.706c3.282-3.282,6.861-3.681,10.217-2.512
				L94.071,151.674z"/>
			<path fill="#535B5C" d="M117.192,142.376l-7.807,7.805c1.915,1.667,3.903,1.021,5.146-0.224c0.945-0.943,1.393-2.088,1.318-3.157
				l4.475-0.396c0.299,2.386-0.82,5.047-2.561,6.786c-3.755,3.755-8.801,3.481-12.928-0.646c-4.001-4.002-4.3-9.322-0.994-12.63
				c3.48-3.479,8.577-2.41,12.307,1.318C116.645,141.729,116.967,142.102,117.192,142.376z M106.651,143.071
				c-1.243,1.243-0.994,3.033,0.198,4.476l4.476-4.476C110.057,142.002,108.193,141.53,106.651,143.071z"/>
			<path fill="#535B5C" d="M133.277,137.13l-7.061-7.062c-2.337-2.335-3.829-2.236-5.246-0.82c-1.417,1.418-1.541,2.935,0.721,5.196
				l7.135,7.136l-3.431,3.43l-13.052-13.052l3.431-3.43l0.87,0.869c-0.025-1.218,0.547-2.833,1.915-4.202
				c3.331-3.33,7.11-2.534,10.789,1.145l7.359,7.358L133.277,137.13z"/>
			<path fill="#535B5C" d="M146.556,122.807c-0.125,1.02-0.796,2.387-1.865,3.455c-2.113,2.113-5.122,1.841-7.409-0.446
				l-6.166-6.166l-2.188,2.188l-3.231-3.233l2.188-2.188l-3.356-3.356l1.716-5.146l5.072,5.072l3.132-3.133l3.232,3.232
				l-3.132,3.132l5.246,5.246c1.244,1.243,2.014,1.119,2.834,0.299c0.622-0.62,0.82-1.367,0.944-2.934L146.556,122.807z"/>
			<path fill="#535B5C" d="M149.364,102.943c-1.044,0.049-2.063,0.371-2.834,1.143c-1.343,1.343-1.641,2.785,0.622,5.048
				l7.061,7.061l-3.432,3.431l-13.052-13.053l3.431-3.431l0.87,0.869c-0.025-1.217,0.324-2.608,1.542-3.827
				c1.119-1.118,2.411-1.516,3.331-1.491L149.364,102.943z"/>
			<path fill="#535B5C" d="M167.987,102.418l-0.87-0.869c0.026,1.268-0.572,2.859-1.79,4.076c-2.436,2.436-6.364,3.382-9.522,0.226
				c-2.884-2.886-1.989-6.664,0.97-9.623c1.193-1.193,2.212-1.715,3.033-1.989l-0.646-0.646c-0.92-0.92-2.287-1.044-3.531,0.199
				c-1.565,1.566-2.163,2.609-2.709,4.45l-3.704-1.069c0.646-2.387,1.466-4.102,3.58-6.216c3.157-3.157,6.936-3.655,9.87-0.721
				l8.75,8.752L167.987,102.418z M162.518,96.949c-0.969,0.224-1.715,0.622-2.933,1.84c-1.293,1.293-1.393,2.585-0.349,3.629
				c0.919,0.92,2.262,1.219,3.729-0.249c1.119-1.118,1.442-2.583,1.193-3.579L162.518,96.949z"/>
			<path fill="#535B5C" d="M174.75,95.656l-16.408-16.408l1.715-5.146l18.124,18.124L174.75,95.656z"/>
		</g>
		<g>
			<path fill="#B3B8BF" d="M165.127,71.87l7.934-7.934l1.587,1.586l-7.934,7.934L165.127,71.87z"/>
			<path fill="#B3B8BF" d="M172.199,78.942l3.219-3.219c1.065-1.065,1.021-1.745,0.375-2.391c-0.647-0.646-1.338-0.703-2.37,0.328
				l-3.252,3.252l-1.565-1.564l5.951-5.95l1.564,1.564l-0.397,0.397c0.556-0.011,1.292,0.249,1.916,0.873
				c1.519,1.519,1.155,3.242-0.521,4.919l-3.355,3.354L172.199,78.942z"/>
			<path fill="#B3B8BF" d="M177.583,84.575c-1.553-1.553-1.519-4.058,0.306-5.883c1.825-1.825,4.307-1.904,5.962-0.248
				c1.133,1.132,1.303,2.413,1.042,3.671l-2.074,0.011c0.147-0.85,0.125-1.575-0.51-2.209c-0.748-0.748-1.858-0.613-2.833,0.362
				c-0.952,0.953-1.1,2.075-0.351,2.823c0.611,0.612,1.269,0.725,2.165,0.646l0.057,1.938
				C179.997,85.878,178.762,85.753,177.583,84.575z"/>
			<path fill="#B3B8BF" d="M181.969,88.961c-0.578-0.578-0.578-1.553,0-2.131c0.578-0.579,1.552-0.578,2.131,0
				c0.578,0.578,0.579,1.552,0,2.131C183.522,89.539,182.547,89.539,181.969,88.961z"/>
		</g>
	</g>
</g>
<g id="Producer">
</g>
<g id="Organizers">
</g>
</svg>
