<?xml version="1.0" encoding="utf-8"?>
<!-- Generator: Adobe Illustrator 16.0.0, SVG Export Plug-In . SVG Version: 6.00 Build 0)  -->
<!DOCTYPE svg PUBLIC "-//W3C//DTD SVG 1.1//EN" "http://www.w3.org/Graphics/SVG/1.1/DTD/svg11.dtd">
<svg version="1.1" id="Layer_1" xmlns="http://www.w3.org/2000/svg" xmlns:xlink="http://www.w3.org/1999/xlink" x="0px" y="0px"
	 width="200px" height="150px" viewBox="0 25 200 150" enable-background="new 0 25 200 150" xml:space="preserve">
<g id="Gold">
</g>
<g id="Supporters">
</g>
<g id="Advisor">
	<g id="Ubee">
		<path fill="#231F20" d="M42.473,106.408c0,9.828-4.555,14.738-13.665,14.738c-1.944,0-3.755-0.312-5.433-0.934
			c-1.68-0.622-3.136-1.541-4.372-2.758c-1.236-1.221-2.212-2.701-2.928-4.457c-0.718-1.754-1.075-3.771-1.075-6.055V89.146h1.441
			c2.245,0,3.881,0.465,4.909,1.387c1.028,0.926,1.542,2.321,1.542,4.188v11.46c0,2.864,0.609,4.928,1.826,6.18
			c1.219,1.255,2.711,1.884,4.484,1.884c1.621,0,2.932-0.593,3.933-1.771c0.997-1.178,1.498-3.097,1.498-5.758V89.146h1.416
			c2.264,0,3.898,0.465,4.908,1.387c1.009,0.926,1.515,2.321,1.515,4.188L42.473,106.408L42.473,106.408z"/>
		<path fill="#231F20" d="M80.325,104.173c0,2.337-0.364,4.545-1.104,6.618c-0.733,2.077-1.766,3.872-3.096,5.393
			c-1.328,1.519-2.961,2.727-4.894,3.621c-1.935,0.896-4.08,1.342-6.439,1.342c-1.998,0-3.889-0.387-5.672-1.157
			c-1.781-0.774-3.337-1.868-4.668-3.285c-1.33-1.411-2.392-3.097-3.183-5.047c-0.793-1.955-1.188-4.106-1.188-6.468V78.71h2.658
			c1.512,0,2.74,0.438,3.694,1.313c0.953,0.877,1.429,2.241,1.429,4.089v9.082c0.375-0.565,0.834-1.132,1.373-1.698
			c0.535-0.567,1.155-1.069,1.851-1.513c0.699-0.444,1.48-0.808,2.35-1.092c0.868-0.28,1.83-0.421,2.886-0.421
			c1.962,0,3.801,0.379,5.517,1.146c1.716,0.764,3.202,1.842,4.457,3.239c1.253,1.397,2.241,3.051,2.956,4.964
			C79.969,99.73,80.325,101.852,80.325,104.173 M72.291,105.501c0-1.901-0.163-3.505-0.495-4.796
			c-0.329-1.293-0.815-2.334-1.456-3.127c-0.64-0.791-1.423-1.363-2.349-1.71c-0.923-0.349-1.988-0.523-3.198-0.523
			c-0.999,0-1.912,0.229-2.745,0.695c-0.826,0.459-1.548,1.077-2.162,1.85c-0.613,0.775-1.093,1.703-1.441,2.787
			c-0.352,1.085-0.525,2.22-0.525,3.411c0,3.602,0.703,6.194,2.108,7.78c1.404,1.583,3.27,2.376,5.589,2.376
			c0.96,0,1.847-0.223,2.66-0.666c0.81-0.442,1.516-1.051,2.121-1.822c0.604-0.773,1.069-1.695,1.398-2.762
			C72.128,107.93,72.291,106.766,72.291,105.501"/>
		<path fill="#231F20" d="M112.863,100.579c0,2.849-1.158,4.821-3.48,5.927c-2.32,1.104-6.043,1.655-11.176,1.655h-5.092
			c0.303,1.962,1.256,3.522,2.857,4.682c1.603,1.16,3.566,1.739,5.883,1.739c1.623,0,3.311-0.201,5.067-0.607
			c1.753-0.404,3.251-1.182,4.498-2.334h0.283v2.435c0,1-0.183,1.923-0.554,2.772c-0.365,0.848-0.993,1.594-1.881,2.233
			c-0.886,0.642-2.055,1.146-3.51,1.515c-1.453,0.368-3.232,0.551-5.347,0.551c-1.942,0-3.839-0.367-5.688-1.103
			c-1.848-0.735-3.489-1.793-4.922-3.169c-1.432-1.376-2.586-3.027-3.453-4.951c-0.867-1.924-1.3-4.084-1.3-6.479
			c0-2.604,0.376-4.96,1.129-7.061c0.757-2.104,1.807-3.892,3.156-5.362c1.348-1.472,2.961-2.597,4.837-3.381
			c1.878-0.782,3.938-1.172,6.186-1.172c1.619,0,3.182,0.277,4.681,0.833c1.5,0.558,2.829,1.353,3.988,2.391
			c1.16,1.039,2.091,2.312,2.789,3.82C112.518,97.021,112.863,98.711,112.863,100.579 M105.564,99.645
			c0-1.583-0.533-2.764-1.6-3.536c-1.064-0.773-2.502-1.159-4.312-1.159c-0.926,0-1.785,0.183-2.577,0.55
			c-0.79,0.369-1.48,0.849-2.064,1.442c-0.586,0.595-1.037,1.297-1.359,2.108c-0.319,0.813-0.499,1.662-0.537,2.546l-0.057,1.049
			h3.453c1.865,0,3.381-0.059,4.541-0.168c1.16-0.115,2.073-0.289,2.742-0.525c0.67-0.236,1.133-0.549,1.389-0.934
			C105.438,100.631,105.564,100.172,105.564,99.645"/>
		<path fill="#231F20" d="M145.175,100.579c0,2.849-1.159,4.821-3.481,5.927c-2.317,1.104-6.045,1.655-11.176,1.655h-5.094
			c0.305,1.962,1.256,3.522,2.859,4.682c1.602,1.16,3.564,1.739,5.884,1.739c1.622,0,3.313-0.201,5.067-0.607
			c1.752-0.404,3.25-1.182,4.496-2.334h0.283v2.435c0,1-0.185,1.923-0.552,2.772c-0.37,0.848-0.995,1.594-1.882,2.233
			c-0.887,0.642-2.055,1.146-3.51,1.515c-1.451,0.368-3.234,0.551-5.348,0.551c-1.941,0-3.838-0.367-5.687-1.103
			c-1.847-0.735-3.49-1.793-4.921-3.169c-1.436-1.376-2.588-3.027-3.455-4.951s-1.299-4.084-1.299-6.479
			c0-2.604,0.377-4.96,1.13-7.061c0.754-2.104,1.805-3.892,3.153-5.362c1.35-1.472,2.961-2.597,4.84-3.381
			c1.875-0.782,3.938-1.172,6.182-1.172c1.621,0,3.186,0.277,4.684,0.833c1.498,0.558,2.827,1.353,3.987,2.391
			c1.161,1.039,2.091,2.312,2.789,3.82C144.827,97.021,145.175,98.711,145.175,100.579 M137.874,99.645
			c0-1.583-0.534-2.764-1.601-3.536c-1.063-0.773-2.502-1.159-4.312-1.159c-0.922,0-1.78,0.183-2.573,0.55
			c-0.793,0.369-1.482,0.849-2.066,1.442c-0.586,0.595-1.039,1.297-1.357,2.108c-0.32,0.813-0.501,1.662-0.54,2.546l-0.055,1.049
			h3.45c1.867,0,3.384-0.059,4.543-0.168c1.156-0.115,2.072-0.289,2.742-0.525s1.133-0.549,1.388-0.934
			C137.748,100.631,137.874,100.172,137.874,99.645"/>
		<path fill="#FFD600" d="M174.031,84.854c1.336-1.403,1.996-3.147,1.996-5.244c0-2.096-0.66-3.841-1.996-5.232
			c-1.324-1.392-2.997-2.087-4.985-2.087c-1.994,0-3.649,0.696-4.974,2.087c-1.328,1.392-1.986,3.137-1.986,5.232
			c0,2.097,0.658,3.841,1.986,5.244c1.324,1.4,2.979,2.1,4.974,2.1C171.034,86.955,172.707,86.254,174.031,84.854"/>
		<path fill="#231F20" d="M180.214,67.671c-3.053-3.204-6.774-4.816-11.168-4.816c-4.396,0-8.114,1.612-11.161,4.816
			c-3.178,3.209-4.77,7.125-4.77,11.74c0,4.047,1.32,7.68,3.974,10.911c1.338,1.798,2.533,3.189,3.593,4.17
			c1.729,1.822,3.195,3.289,4.394,4.399c1.321,1.129,2.646,2.388,3.972,3.785c0.262-0.275,1.594-1.54,3.993-3.785
			c2.255-2.094,3.724-3.563,4.396-4.399c1.057-0.965,2.254-2.357,3.567-4.17c2.666-3.507,3.998-7.145,3.998-10.911
			C185,74.796,183.4,70.88,180.214,67.671 M162.086,79.61c0-2.096,0.658-3.841,1.986-5.232c1.324-1.392,2.979-2.087,4.974-2.087
			c1.988,0,3.661,0.696,4.985,2.087c1.336,1.392,1.996,3.137,1.996,5.232c0,2.097-0.66,3.841-1.996,5.244
			c-1.324,1.4-2.997,2.1-4.985,2.1c-1.994,0-3.649-0.7-4.974-2.1C162.744,83.452,162.086,81.708,162.086,79.61"/>
	</g>
</g>
<g id="Producer">
</g>
<g id="Organizers">
</g>
</svg>
